<svg id="Layer_1" data-name="Layer 1" xmlns="http://www.w3.org/2000/svg" xmlns:xlink="http://www.w3.org/1999/xlink" viewBox="0 0 623.19 432.88"><defs><style>.cls-1{fill:none;}.cls-2{clip-path:url(#clip-path);}.cls-3{clip-path:url(#clip-path-2);}.cls-4{fill:#f5f5f5;}.cls-5{fill:#e1e1e1;}.cls-6{fill:#7577b8;}.cls-7{opacity:0.15;}.cls-17,.cls-8,.cls-9{fill:#fff;}.cls-8{opacity:0.25;}.cls-9{opacity:0.4;}.cls-10{fill:#375a64;}.cls-11{fill:#1a2e35;}.cls-12{fill:#b0494c;}.cls-13{fill:#e7e7e7;}.cls-14{opacity:0.1;}.cls-15{opacity:0.05;}.cls-16{fill:#fafafa;}.cls-17{opacity:0.3;}.cls-18{fill:#c76668;}.cls-19{fill:#2b454e;}</style><clipPath id="clip-path"><rect class="cls-1" x="95.45" y="-457.16" width="475.54" height="431.89"/></clipPath><clipPath id="clip-path-2"><rect class="cls-1" x="95.45" y="-457.16" width="475.54" height="622.76"/></clipPath></defs><title>apply</title><path id="Floor" class="cls-4" d="M106.94,388.81c113.25,38.92,296.87,38.92,410.12,0s113.25-102,0-141-296.87-38.93-410.12,0S-6.31,349.88,106.94,388.81Z"/><ellipse class="cls-5" cx="500.79" cy="338.5" rx="45.25" ry="26.12"/><path class="cls-6" d="M172.39,118.86c-4.44,2.56-8,9.43-8,15.34,0,5.27,2.87,8,6.62,6.72V252.74l-40.75-85.52a7.18,7.18,0,0,1-.08-5.22c10.29-23.81,17.89-50.64,20.47-78.16a6.26,6.26,0,0,1,2.74-4.3l38.07-22A1.72,1.72,0,0,1,194.19,59c2.55,23.81,9.84,41.49,19.72,53.37a5.84,5.84,0,0,1,1,4.91c-5.72,18.62-38.74,126-41.15,133.85V139.29a20,20,0,0,0,6.62-14.36C180.42,119,176.83,116.3,172.39,118.86Z"/><path class="cls-6" d="M233.6,128,192.45,261.87l-2.81-1.63v3.26L171,252.74l-40.75-85.52a7.18,7.18,0,0,1-.08-5.22c10.29-23.81,17.89-50.64,20.47-78.16a6.26,6.26,0,0,1,2.74-4.3l38.07-22a5.51,5.51,0,0,1,5,0l13.68,7.9a6.29,6.29,0,0,1,2.77,4.29c2.55,23.82,9.84,41.49,19.72,53.37A5.81,5.81,0,0,1,233.6,128Z"/><path class="cls-7" d="M199.07,135.69c0,5.28-2.86,11.31-6.62,14.36V261.87l-2.81-1.63V151.68C185.87,153,183,150.25,183,145c0-5.92,3.6-12.8,8-15.36S199.07,129.78,199.07,135.69Z"/><path class="cls-6" d="M233.6,128,192.45,261.87V150.05c3.76-3.05,6.62-9.08,6.62-14.36,0-5.91-3.59-8.63-8-6.07s-8,9.44-8,15.36c0,5.27,2.86,8,6.63,6.7V263.5L148.87,178a7.18,7.18,0,0,1-.08-5.22c10.29-23.81,17.9-50.64,20.49-78.18A6.22,6.22,0,0,1,172,90.31l38.06-22a1.71,1.71,0,0,1,2.77,1.42c2.55,23.82,9.84,41.49,19.72,53.37A5.81,5.81,0,0,1,233.6,128Z"/><path class="cls-8" d="M170,92.41a5.49,5.49,0,0,0-.77,2.19c-2.58,27.54-10.19,54.36-20.48,78.18a6.71,6.71,0,0,0-.44,2.86L129.7,164.87a6.91,6.91,0,0,1,.43-2.87c10.3-23.81,17.9-50.64,20.48-78.16a5.55,5.55,0,0,1,.78-2.21Z"/><path class="cls-7" d="M212.77,69.35a1.67,1.67,0,0,0-2.69-1L172,90.31a5.8,5.8,0,0,0-2,2.1L151.39,81.63a6,6,0,0,1,2-2.09l38.08-22a5.53,5.53,0,0,1,5,0l13.67,7.9A6.32,6.32,0,0,1,212.77,69.35Z"/><path class="cls-6" d="M142.24,45.41l60.3-34.82a5.45,5.45,0,0,1,5,0l13.68,7.9a5.47,5.47,0,0,1,2.49,4.3V49.36a5.46,5.46,0,0,1-2.49,4.3l-60.3,34.83a5.51,5.51,0,0,1-5,0l-13.68-7.91a5.5,5.5,0,0,1-2.49-4.3V49.71A5.5,5.5,0,0,1,142.24,45.41Z"/><path class="cls-9" d="M223.66,22.39c-.17-1.28-1.22-1.75-2.47-1L160.9,56.17A5,5,0,0,0,159.14,58L140.48,47.27a5.18,5.18,0,0,1,1.76-1.86l60.3-34.83a5.51,5.51,0,0,1,5,0l13.68,7.91A5.55,5.55,0,0,1,223.66,22.39Z"/><path class="cls-7" d="M160.49,88.68l-.05,0-.15,0-.16.07a1.09,1.09,0,0,1-.24.07l-.3.07-.21,0-.42.06a5.17,5.17,0,0,1-3-.57l-13.69-7.89a5.5,5.5,0,0,1-2.49-4.31V49.71a5.06,5.06,0,0,1,.73-2.44L159.14,58a5,5,0,0,0-.74,2.45V87.05c0,1.12.57,1.78,1.38,1.78a1.16,1.16,0,0,0,.36,0A1.69,1.69,0,0,0,160.49,88.68Z"/><path class="cls-7" d="M189.64,263.5,171,252.74l-40.74-85.51a6.39,6.39,0,0,1-.53-2.36l18.65,10.77a6.16,6.16,0,0,0,.53,2.36Z"/><path class="cls-7" d="M192.45,150.05V261.87l-2.81-1.63V151.68C185.87,153,183,150.25,183,145c0-.13,0-.25,0-.37Z"/><path class="cls-10" d="M278.65,117.9c0-3-2.14-4.27-4.77-2.75a10.52,10.52,0,0,0-4.76,8.25c0,2.46,1.41,3.7,3.34,3.29-2.68,56.17-42,122.37-90,150.06-23.83,13.76-46.18,16-62.91,6.36C103.78,274,94.69,255.2,93.73,230a10.65,10.65,0,0,0,3.4-7.2c0-3-2.14-4.27-4.77-2.75a10.51,10.51,0,0,0-4.76,8.25c0,2.59,1.56,3.85,3.65,3.22,1.28,25.43,10.78,44.42,27.06,53.82a47.86,47.86,0,0,0,24.28,6.25c12.65,0,26.67-4.23,41.17-12.6,49.06-28.33,89.21-96.39,91.29-153.66A10.66,10.66,0,0,0,278.65,117.9Z"/><path class="cls-10" d="M273.88,220.19a10.69,10.69,0,0,0-4.57,6.67L96.88,326.42c-.61-1.87-2.39-2.46-4.52-1.23a10.52,10.52,0,0,0-4.76,8.25c0,3,2.13,4.27,4.76,2.75A10.68,10.68,0,0,0,97,329.28l172.32-99.49c.56,2,2.39,2.66,4.57,1.39a10.49,10.49,0,0,0,4.77-8.24C278.65,219.9,276.51,218.67,273.88,220.19Z"/><path class="cls-10" d="M99,225.43a6.77,6.77,0,1,1-6.77-6.77A6.77,6.77,0,0,1,99,225.43Z"/><circle class="cls-10" cx="91.98" cy="330.56" r="6.77"/><path class="cls-10" d="M281,225.86a6.78,6.78,0,1,1-6.77-6.77A6.77,6.77,0,0,1,281,225.86Z"/><path class="cls-10" d="M280.41,120.51a6.77,6.77,0,1,1-6.77-6.77A6.77,6.77,0,0,1,280.41,120.51Z"/><g id="Character"><path class="cls-11" d="M410.6,347.4c-1.67,3.69-7.78,4.54-11.33,4.66-5.42.18-10.4-2.25-15.21-4.44-3.38-1.54-6.66-3.29-10-4.93s-6.65-3.53-10.27-4.34c-4.32-1-11.91-1.44-13.41,4-1.62,5.93,6.52,10.91,10.35,13.77s9.1,6,11,10.51c2.28,5.52-5.2,7.26-9.15,7.47-11.21.6-22.23-3.08-32.53-7.09-14.78-5.76-29.49-12.08-45-15.81-12.94-3.13-33.08-6.23-40.55,8.17-.15.29.31.82.51.5,8.11-13.31,26.66-10.56,39.44-7.47,15.64,3.78,30.47,10.21,45.42,16,10,3.87,20.5,7.24,31.34,7,4.95-.09,14.94-2.18,11.85-9.37-1.6-3.72-5.41-6.49-8.52-8.88-3.83-2.94-8.18-5.66-11.2-9.51-1.93-2.45-2.54-6,.76-7.73,2.8-1.46,6.68-1,9.63-.24,4.5,1.1,8.78,3.71,12.9,5.79,3.81,1.92,7.65,3.77,11.59,5.4,4.57,1.9,9.15,2.94,14.1,2.11,3.25-.54,8.1-1.73,9.44-5.19.27-.69-.89-1.1-1.18-.47Z"/><path class="cls-12" d="M489.25,120.61c-5.77,6.89-15.3,16.21-20.71,23a19.8,19.8,0,0,0-4.39,12.54c.05,3.38,1,6.2,4.28,4.76,2.38-1,3.9-2.28,7.39-5.71,3.13-3.09,18.29-17.29,18.29-17.29s2.83-17.46,7.52-18.88,8.67-8.89,8.67-8.89C502.65,109.36,496.57,111.86,489.25,120.61Z"/><path class="cls-13" d="M406.26,309.48a.78.78,0,0,1,.05-.14l70.95-263.1s0,0,0,0l0-.07s0-.13.06-.19a4.49,4.49,0,0,1,.51-1.06,5.56,5.56,0,0,1,.82-1,9.18,9.18,0,0,1,4.23-2.24c6.31-1.67,15.17.72,19.77,5.35a8.2,8.2,0,0,1,2.72,5.42,4.28,4.28,0,0,1-.17,1.39L435,314.36l-.74,2.72h0c-.53,2-2.45,3.7-5.58,4.55-6.34,1.68-15.21-.72-19.82-5.34C406.53,314,405.7,311.55,406.26,309.48Z"/><path class="cls-10" d="M408.64,347h0l1.79-7.07h0a1.16,1.16,0,0,1,.94-.8,3.73,3.73,0,0,1,3.26.88,1.18,1.18,0,0,1,.42,1.12h0l-1.76,7.07h0a2.34,2.34,0,0,1-.61,1,2.4,2.4,0,0,1-3.4,0A2.43,2.43,0,0,1,408.64,347Z"/><path class="cls-11" d="M408.59,347.42v0a3.19,3.19,0,0,1,.05-.42v0c.52,1.45,3.36,2.39,4.58,1.34a.57.57,0,0,1,0,.14,1.23,1.23,0,0,1-.05.13,2,2,0,0,1-.45.63,2.41,2.41,0,0,1-3.4,0A2.36,2.36,0,0,1,408.59,347.42Z"/><path class="cls-5" d="M408.57,334a12.89,12.89,0,0,0,11.31,3.05,4.63,4.63,0,0,0,2.84-1.82L433.21,319a8.78,8.78,0,0,1-4.59,2.64c-6.33,1.68-15.2-.72-19.81-5.34a8.7,8.7,0,0,1-2.66-4.79L407,330.8a2.34,2.34,0,0,0,0,.38A4.77,4.77,0,0,0,408.57,334Z"/><path class="cls-14" d="M409.28,325.52a16.06,16.06,0,0,0,14,3.78c2.21-.6,3.57-1.77,3.95-3.22s-.12-3.19-1.77-4.86a16,16,0,0,0-14-3.8c-2.26.6-3.63,1.79-4,3.27S407.66,323.89,409.28,325.52Z"/><path class="cls-5" d="M408.57,334a12.89,12.89,0,0,0,11.31,3.05,4.63,4.63,0,0,0,2.84-1.82L433.21,319a8.78,8.78,0,0,1-4.59,2.64c-6.33,1.68-15.2-.72-19.81-5.34a8.7,8.7,0,0,1-2.66-4.79L407,330.8a2.34,2.34,0,0,0,0,.38A4.77,4.77,0,0,0,408.57,334Z"/><path class="cls-6" d="M408.2,339.66h0l-.79-17.6a3.87,3.87,0,0,1,0-.48c0-1.86,1.43-3.43,4.11-4.15a16,16,0,0,1,14,3.78c1.88,1.89,2.34,3.89,1.55,5.48l-.05.1-.27.41L417,342.14h0a2.63,2.63,0,0,1-1.61,1,7.31,7.31,0,0,1-6.36-1.72A2.64,2.64,0,0,1,408.2,339.66Z"/><path class="cls-14" d="M408.2,339.66h0l-.79-17.6a3.87,3.87,0,0,1,0-.48c0-1.86,1.43-3.43,4.11-4.15a16,16,0,0,1,14,3.78c1.88,1.89,2.34,3.89,1.55,5.48l-.05.1-.27.41L417,342.14h0a2.63,2.63,0,0,1-1.61,1,7.31,7.31,0,0,1-6.36-1.72A2.64,2.64,0,0,1,408.2,339.66Z"/><path class="cls-6" d="M409.28,325.52a16.06,16.06,0,0,0,14,3.78c2.21-.6,3.57-1.77,3.95-3.22s-.12-3.19-1.77-4.86a16,16,0,0,0-14-3.8c-2.26.6-3.63,1.79-4,3.27S407.66,323.89,409.28,325.52Z"/><path class="cls-6" d="M409.28,325.52a16.06,16.06,0,0,0,14,3.78c2.21-.6,3.57-1.77,3.95-3.22s-.12-3.19-1.77-4.86a16,16,0,0,0-14-3.8c-2.26.6-3.63,1.79-4,3.27S407.66,323.89,409.28,325.52Z"/><path class="cls-15" d="M407.47,320.69a4.59,4.59,0,0,1,3-2.95,23.68,23.68,0,0,0,15.71,4.33,4.49,4.49,0,0,1,1,4c-.38,1.45-1.74,2.62-3.95,3.22a16.06,16.06,0,0,1-14-3.78C407.66,323.89,407.07,322.16,407.47,320.69Z"/><path class="cls-6" d="M409.06,341.46a7.32,7.32,0,0,0,6.37,1.72,2.68,2.68,0,0,0,1.6-1h0l4.66-7.22a4.53,4.53,0,0,1-2.34,1.33,11.7,11.7,0,0,1-10.2-2.74A4.46,4.46,0,0,1,407.8,331l.38,8.62h0A2.58,2.58,0,0,0,409.06,341.46Z"/><path class="cls-16" d="M478.4,78.37a2.53,2.53,0,0,1,2-1.63,8,8,0,0,1,7,1.9,2.53,2.53,0,0,1,.9,2.42h0l-11.56,42.68a2.67,2.67,0,0,0-.94-2.15,8.11,8.11,0,0,0-7-1.9,2.62,2.62,0,0,0-1.93,1.44Z"/><path class="cls-5" d="M479.31,80.78a8,8,0,0,0,7,1.89,2.53,2.53,0,0,0,2-1.61,2.49,2.49,0,0,0-.88-2.42,8,8,0,0,0-7-1.9,2.21,2.21,0,0,0-1.09,4Z"/><path class="cls-6" d="M475.22,59.38h0l0-.13a1.21,1.21,0,0,0,.05-.18l3.33-12.27c0-.13.06-.26.1-.39l0-.09h0c.6-1.73,2.28-3.14,5-3.86,5.68-1.5,13.65.65,17.79,4.82,2.09,2.1,2.81,4.3,2.29,6.16h0l-3.38,12.47s0,.06,0,.09l0,.1h0c-.55,1.8-2.27,3.26-5,4-5.68,1.5-13.65-.65-17.79-4.82C475.57,63.29,474.83,61.19,475.22,59.38Z"/><path class="cls-15" d="M475.22,59.38h0l0-.13a1.21,1.21,0,0,0,.05-.18l3.33-12.27c0-.13.06-.26.1-.39l0-.09h0c.6-1.73,2.28-3.14,5-3.86,5.68-1.5,13.65.65,17.79,4.82,2.09,2.1,2.81,4.3,2.29,6.16h0l-3.38,12.47s0,.06,0,.09l0,.1h0c-.55,1.8-2.27,3.26-5,4-5.68,1.5-13.65-.65-17.79-4.82C475.57,63.29,474.83,61.19,475.22,59.38Z"/><path class="cls-10" d="M412.53,322.16l4.82-17.79,49.24-182.92a.07.07,0,0,1,0-.07l.1-.38a2.64,2.64,0,0,1,1.92-1.44,8.08,8.08,0,0,1,7,1.91,2.69,2.69,0,0,1,.95,2.15,0,0,0,0,1,0,0l-.14.49L427.23,307l-4.8,17.81a2.53,2.53,0,0,1-2,1.61,7.91,7.91,0,0,1-5.33-.73,5.25,5.25,0,0,1-.66-.36,6.33,6.33,0,0,1-1-.8A2.61,2.61,0,0,1,412.53,322.16Z"/><path class="cls-11" d="M467.57,123.6a8,8,0,0,0,7,1.89,2.21,2.21,0,0,0,1.09-4,8,8,0,0,0-7-1.9,2.21,2.21,0,0,0-1.1,4Z"/><path class="cls-11" d="M412.53,322.16l.73-2.69a24.75,24.75,0,0,0,9.9,2.67l-.73,2.71a2.53,2.53,0,0,1-2,1.61,7.91,7.91,0,0,1-5.33-.73,6,6,0,0,1-1.68-1.16A2.61,2.61,0,0,1,412.53,322.16Z"/><path class="cls-5" d="M479.8,53.09c4.61,4.63,13.48,7,19.81,5.35,3.13-.85,5.05-2.51,5.58-4.55s-.16-4.52-2.5-6.87c-4.58-4.65-13.45-7-19.78-5.37-3.18.85-5.12,2.53-5.66,4.63S477.52,50.79,479.8,53.09Z"/><path class="cls-6" d="M480.19,51.7c4.6,4.63,13.47,7,19.8,5.35,3.13-.85,5.05-2.51,5.59-4.55l0-.09.76-2.73a.75.75,0,0,1,0-.16c0-.14,0-.28.08-.44a3.9,3.9,0,0,0,0-.59V48a2.84,2.84,0,0,0,0-.38A6.1,6.1,0,0,0,506,46c-.07-.16-.14-.32-.22-.47a.84.84,0,0,0-.12-.23,2.65,2.65,0,0,0-.24-.4,10.55,10.55,0,0,0-1.6-2c-4.61-4.63-13.46-7-19.76-5.36a9.23,9.23,0,0,0-4.24,2.25l0,0a4.57,4.57,0,0,0-.42.47l-.35.49a3.58,3.58,0,0,0-.18.32l-.11.2a4.08,4.08,0,0,0-.17.42l0,.09a4.13,4.13,0,0,0-.14.42l-.65,2.37a1.13,1.13,0,0,0-.11.33C477.07,47,477.9,49.4,480.19,51.7Z"/><path class="cls-17" d="M481,49c4.6,4.62,13.47,7,19.8,5.34,3.13-.85,5.05-2.51,5.59-4.55s-.17-4.51-2.51-6.86c-4.57-4.65-13.44-7-19.77-5.37-3.18.85-5.13,2.53-5.66,4.62S478.67,46.66,481,49Z"/><path class="cls-11" d="M516.75,103.76h0A22.65,22.65,0,0,0,539.4,81.11V79.86a19.19,19.19,0,0,0-19.19-19.19H513.3a19.19,19.19,0,0,0-19.19,19.19v1.25A22.65,22.65,0,0,0,516.75,103.76Z"/><path class="cls-11" d="M548.59,106.06h0a10.29,10.29,0,0,1-10.28-10.29V75.32h0a10.29,10.29,0,0,1,10.28,10.29Z"/><path class="cls-11" d="M493.45,327.78a59.52,59.52,0,0,1-8.65,7.51,3.84,3.84,0,0,0-1.2,1.24c-.4.85-1,3,2.83,4.3a14.37,14.37,0,0,0,11.92-1.15c3.17-2,3.32-6.12,6.31-8.47,2.22-1.75,5-2.2,6.78-4.48,1.25-1.58.92-3.7.27-6.32-.71-2.85-1-5-2-4.79l.15,1.31c-1.17,1.88-7.29,2.44-10,1.14C499.87,318.07,495.16,325.9,493.45,327.78Z"/><path class="cls-18" d="M490.76,330.45v0c.92-.84,1.82-1.71,2.69-2.66a77,77,0,0,0,5-7.35c.93-1.5,2.08-3.39,2.13-5.37.06-2.53-.18-7-.18-7l9.05-.6.45,9.5h0c.23,2.15-1.55,4.06-4.7,6.78s-7.16,9.05-10,10.64-4.9,1.54-6.11.72S487.69,333.59,490.76,330.45Z"/><path class="cls-11" d="M523.6,336.83a60,60,0,0,1-8.64,7.51,3.58,3.58,0,0,0-1.2,1.25c-.41.84-1,2.94,2.82,4.29a14.36,14.36,0,0,0,11.92-1.14c3.18-2,3.32-6.12,6.31-8.48,2.22-1.75,5-2.19,6.78-4.47,1.25-1.59.93-3.71.28-6.32-.71-2.86-1-5-2-4.8L540,326c-1.18,1.88-7.3,2.44-10,1.14C530,327.12,525.31,335,523.6,336.83Z"/><path class="cls-18" d="M520.92,339.5v0c.92-.84,1.82-1.71,2.68-2.65a76,76,0,0,0,5-7.36,12.85,12.85,0,0,0,2.12-5.47c.16-2.21,0-6.83,0-6.83l9,.05L540,326h0c.23,2.15-1.55,4.06-4.7,6.78s-7.16,9.05-10,10.65-4.89,1.53-6.11.71S517.84,342.64,520.92,339.5Z"/><path class="cls-19" d="M539.92,170.48c7.9,17.24-1.08,82.6-1.08,82.6.24,2.8,2.7,7.15,3,15.69.37,11-1.57,51.48-1.57,51.48a11.43,11.43,0,0,1-10.33.2s-9.35-55-11.17-69.45c-1.6-12.62-4.65-42.29-4.65-42.29l-6.29,42.23s3.23,7.05,3.4,13.41c.22,8.54-1,48.2-1,48.2s-3.82,1.34-10.49.36c0,0-9.51-53.66-10.4-63.9-.53-6.12,4-81.11,4-81.11Z"/><path class="cls-11" d="M514.11,208.71l-2.56-14.1s-10.85-2.24-15.76-6.86c0,0,5.16,6.41,12.82,8.51l2.88,12.33-2.85,36.84Z"/><path class="cls-4" d="M524.52,110.53h0c6.92,1,10.64,2.48,12.87,9,1.46,4.26,1.07,10.52-.4,14.78L530.93,152a95.26,95.26,0,0,1,9,18.49c-17.69,9.88-41.27,4.62-46.59-2.58-.23-1.53,1.21-8.92.78-16.76-.46-8.36-1.8-18-.49-23.13,2.44-9.6,9.14-15.86,16.68-17.88Z"/><path class="cls-18" d="M501.55,69.82c-2.4,1.42-5.35,7.43-5.06,20.05.25,10.69,3.71,13.33,5.45,14.09s5.1.3,8.36-.25v6.42s-4.51,5.23-4.23,8.18,6.51,3.63,10.73.76a27.46,27.46,0,0,0,6.93-7.25V96.31s2.2,2.94,5.8.55,3.74-8.31,1.64-10.44-6.6-1.45-7.44,1.49c0,0-5.21.19-12.13-3.62A19.45,19.45,0,0,1,501.55,69.82Z"/><path class="cls-11" d="M508.42,87.18a1.35,1.35,0,1,0,1.42-1.33A1.37,1.37,0,0,0,508.42,87.18Z"/><path class="cls-12" d="M508.06,96.24l-3.12,1a1.62,1.62,0,0,0,2,1.12A1.71,1.71,0,0,0,508.06,96.24Z"/><path class="cls-11" d="M497.4,83.05l2.72-1.88a1.58,1.58,0,0,0-2.26-.46A1.74,1.74,0,0,0,497.4,83.05Z"/><path class="cls-11" d="M498,86.21a1.34,1.34,0,1,0,1.41-1.33A1.37,1.37,0,0,0,498,86.21Z"/><polygon class="cls-12" points="504.37 85.44 504.16 93.53 499.9 92.21 504.37 85.44"/><path class="cls-12" d="M510.3,103.71c3.44-.45,10.51-2.48,11.61-5.28a7.26,7.26,0,0,1-2.48,3.57c-2.11,1.81-9.13,3.85-9.13,3.85Z"/><path class="cls-18" d="M455.89,162.63c2.1.79,4.21.85,7.08,2.2a13.36,13.36,0,0,0,6.19,1.76c2.82.14,10.7-3.22,17.63-6.44,8.18-3.8,16.87-10.69,20.22-14.47,6.79-7.67,12.59-17.27,15.59-22.4,2.46-4.22,5-10.36,8.89-11.13,6.82.71,9.58,12.58,5.16,19.91S524.38,149,516,157.1c-4.06,3.94-11.5,8.21-22.16,12.77a144.86,144.86,0,0,1-21.51,7.41c-2.13.55-3.64,1.34-7.65,2.72a18,18,0,0,1-5.07,1.26,22.6,22.6,0,0,1-6.45-.69,15.33,15.33,0,0,1-7.05-4,9.55,9.55,0,0,1-2.36-3.8,6.37,6.37,0,0,1,.15-4.41,1.69,1.69,0,0,1,.52-.74,2.12,2.12,0,0,1,1.59-.19c3.05.44,6.27,1.37,9.33,1.49,2.59.1,4.43-.19,4.1-.59s-1.85-.36-3.81-1.47-3.09-3.23-2.41-4.23S453.79,161.83,455.89,162.63Z"/><path class="cls-18" d="M455.81,134.22s2.81-2.24,8.17-1.36c2.59.43,1.6,10.24-6.74,13-5.42,1.77-6.52.86-8.27,5.32,0,0-3.28-.68-2.48-5.67a27.87,27.87,0,0,1,6.61-13.82c2.39-2.82,2.55-5.2,3.72-4.39,1.33.9.51,3.23.51,3.23Z"/></g></svg>