<?xml version="1.0" encoding="utf-8"?>
<!-- Generator: Adobe Illustrator 23.1.1, SVG Export Plug-In . SVG Version: 6.00 Build 0)  -->
<svg version="1.1" id="Layer_1" xmlns="http://www.w3.org/2000/svg" xmlns:xlink="http://www.w3.org/1999/xlink" x="0px" y="0px"
	 viewBox="0 0 635.7 382.2" style="enable-background:new 0 0 635.7 382.2;" xml:space="preserve">
<style type="text/css">
	.st0{fill:#EBEBEB;}
	.st1{fill:#F5F5F5;}
	.st2{fill:#E0E0E0;}
	.st3{fill:#FFFFFF;}
	.st4{fill:#263238;}
	.st5{opacity:0.2;fill:#7577B4;enable-background:new    ;}
	.st6{fill:#7577B4;}
	.st7{opacity:0.2;enable-background:new    ;}
	.st8{fill:#455A64;}
	.st9{fill:#FFBE9D;}
	.st10{opacity:0.2;}
	.st11{fill:#EB996E;}
	.st12{opacity:0.3;enable-background:new    ;}
</style>
<title>Designergirl</title>
<g id="Background_Complete">
	<path class="st0" d="M493.4,313.9c-0.3,0.9,10,40,10,40l7.1-1.5l-9.7-38.5H493.4z"/>
	<polygon class="st1" points="548.1,308.4 534,353.9 542.2,353.9 555.8,311.6 	"/>
	<polygon class="st0" points="561.1,301.3 544.9,353.9 553.1,353.9 568.7,304.5 	"/>
	<polygon class="st2" points="498.4,350.7 506.7,379.2 548.1,379.2 555.8,350.7 	"/>
	<path class="st2" d="M519.8,350.7c0-0.1-0.1-0.2-0.1-0.3c-0.1-0.2-0.1-0.5-0.2-0.9l-0.8-3.4l-2.8-12.5c-2.4-10.6-5.7-25.2-9.3-41.5
		l0.2,0.2h-7.3l0.2-0.3c3.7,16.4,7,31,9.4,41.6c1.2,5.3,2.1,9.5,2.8,12.5l0.7,3.4c0.1,0.4,0.1,0.7,0.2,0.9c0,0.1,0,0.2,0,0.3
		c0-0.1-0.1-0.2-0.1-0.3c-0.1-0.2-0.1-0.5-0.2-0.9c-0.2-0.8-0.5-1.9-0.8-3.4c-0.7-3-1.7-7.2-2.9-12.5c-2.4-10.6-5.8-25.2-9.5-41.5
		l-0.1-0.3h7.8v0.2c3.6,16.4,6.8,31,9.2,41.6c1.1,5.3,2,9.5,2.7,12.5c0.3,1.5,0.5,2.6,0.7,3.4c0.1,0.4,0.1,0.7,0.2,0.9
		C519.7,350.5,519.8,350.6,519.8,350.7z"/>
	<rect x="184.3" y="18.4" class="st1" width="70.2" height="48.9"/>
	<rect x="184.3" y="18.4" class="st2" width="70.2" height="6.1"/>
	<path class="st3" d="M188.1,21.6c0,0.4-0.4,0.7-0.8,0.7c-0.4,0-0.7-0.4-0.7-0.8c0-0.4,0.3-0.7,0.7-0.7
		C187.8,20.8,188.1,21.2,188.1,21.6z"/>
	<path class="st3" d="M191.1,21.6c0,0.4-0.4,0.7-0.8,0.7c-0.4,0-0.7-0.4-0.7-0.8c0-0.4,0.3-0.7,0.7-0.7
		C190.8,20.8,191.1,21.2,191.1,21.6z"/>
	<path class="st3" d="M194,21.6c0,0.4-0.3,0.7-0.7,0.7c-0.4,0-0.7-0.3-0.7-0.7s0.3-0.7,0.7-0.7C193.7,20.8,194,21.2,194,21.6
		L194,21.6z"/>
	<rect x="191" y="30.5" class="st2" width="10" height="24"/>
	<rect x="206.4" y="30.5" class="st0" width="10" height="24"/>
	<rect x="221.8" y="30.5" class="st3" width="10" height="24"/>
	<rect x="237.3" y="30.6" class="st0" width="10" height="24"/>
	<rect x="189.8" y="57.1" class="st0" width="60.7" height="5.5"/>
	<polygon class="st2" points="242.2,60.8 243.5,67.4 244.5,65.5 246.8,68.8 248,68.1 245.7,64.8 247.8,64.5 	"/>
	<rect x="119.5" y="84.2" class="st1" width="123" height="85.6"/>
	<rect x="119.5" y="84.2" class="st2" width="123" height="10.7"/>
	<path class="st3" d="M126.1,89.8c0,0.7-0.6,1.3-1.3,1.2c-0.7,0-1.3-0.6-1.2-1.3c0-0.7,0.6-1.2,1.3-1.2
		C125.6,88.5,126.2,89.1,126.1,89.8z"/>
	<path class="st3" d="M131.3,89.8c0,0.7-0.6,1.3-1.3,1.2c-0.7,0-1.3-0.6-1.2-1.3c0-0.7,0.6-1.2,1.3-1.2
		C130.8,88.5,131.4,89.1,131.3,89.8z"/>
	<path class="st3" d="M136.5,89.8c0,0.7-0.6,1.3-1.3,1.2s-1.3-0.6-1.2-1.3c0-0.7,0.6-1.2,1.3-1.2C136,88.5,136.6,89.1,136.5,89.8
		C136.5,89.8,136.5,89.8,136.5,89.8z"/>
	<polygon class="st2" points="562.9,119.3 562.9,142.9 601.2,143.9 600.5,120 	"/>
	<polygon class="st0" points="562.9,119.3 562.9,117 600.5,117.5 600.5,120.8 	"/>
	<polygon class="st0" points="566.3,125.2 566.7,130 571.8,130.1 571.9,125.5 	"/>
	<polygon class="st1" points="573.9,128.5 573.6,126.5 584.9,127.2 584.7,129.3 	"/>
	<polygon class="st0" points="591.2,126.1 592.1,131.1 597.9,130.8 597.6,126.5 	"/>
	<polygon class="st0" points="566.3,133.1 566.8,137.9 571.9,138 572,133.4 	"/>
	<polygon class="st1" points="573.9,136.1 573.7,134.4 582,135.2 581.8,136.9 	"/>
	<polygon class="st0" points="591.2,134 592.2,139 598,138.7 597.7,134.4 	"/>
</g>
<g id="Floor">
	<path class="st4" d="M635.7,378.4c0,0.1-126.5,0.3-282.6,0.3s-282.6-0.1-282.6-0.3s126.5-0.3,282.6-0.3S635.7,378.3,635.7,378.4z"
		/>
</g>
<g id="Plant">
	<path class="st5" d="M79.8,382.2c0,0-41.4-50.1,19.8-95.8c24.6-18.4,120.2-31.3,39.8-133.7C92.1,92.5,160.7,4.8,270.2,60.5
		C363.5,107.9,428.3,7,510.9,0.3c62.8-5.1,100.6,64.1,62.7,117.8c-42.5,60.3,38.5,50.2,56.2,70.2c31,35.2-69.6,76.9-23.5,121.6
		c47,45.5,14.8,72.4,14.8,72.4L79.8,382.2z"/>
	<path class="st6" d="M129.5,185.4c-6.6,0.6-10,8.4-9.8,15s2.4,13.1,1.3,19.6c-1.5,8.2-8.2,14.9-9.4,23.1
		c-1.5,9.8,4.9,18.9,6.3,28.6c0.7,4.8,0.2,9.7,1.7,14.3c2.7,7.9,10.5,12.9,18.8,12.2c8.3-1.2,14.7-7.8,15.6-16.1
		c0.6-7.5-3.6-14.9-2.5-22.4c0.8-5.5,4.4-10.6,4-16.1c-0.4-6.6-6.2-11.7-7.9-18.1s0.8-13.2,0.4-19.8
		C147.4,193.9,141.4,185.2,129.5,185.4"/>
	<path class="st7" d="M129.5,185.4c-6.6,0.6-10,8.4-9.8,15s2.4,13.1,1.3,19.6c-1.5,8.2-8.2,14.9-9.4,23.1
		c-1.5,9.8,4.9,18.9,6.3,28.6c0.7,4.8,0.2,9.7,1.7,14.3c2.7,7.9,10.5,12.9,18.8,12.2c8.3-1.2,14.7-7.8,15.6-16.1
		c0.6-7.5-3.6-14.9-2.5-22.4c0.8-5.5,4.4-10.6,4-16.1c-0.4-6.6-6.2-11.7-7.9-18.1s0.8-13.2,0.4-19.8
		C147.4,193.9,141.4,185.2,129.5,185.4"/>
	<path class="st6" d="M92.7,240.4c-1.8,10.9,2.2,24,7.2,33.9c5.1,9.9,13.2,17.9,23.1,22.8c1.1,0.5,2.5,1,3.5,0.3
		c0.8-0.7,1.2-1.7,1.1-2.7c0.8-11.6-2.2-23.2-8.4-33C112.9,252,103.6,244.5,92.7,240.4"/>
	<path class="st4" d="M135.4,320.9c-0.1-0.2-0.2-0.4-0.3-0.6c-0.2-0.5-0.4-1.1-0.7-1.8c-0.6-1.6-1.4-3.9-2.5-6.8
		c-2.8-7.4-6-14.6-9.5-21.7c-3.6-7.1-7.5-14-11.7-20.6c-1.6-2.6-3-4.6-3.9-6l-1.1-1.6c-0.1-0.2-0.3-0.4-0.3-0.6
		c0.2,0.2,0.3,0.3,0.4,0.5l1.2,1.6c1,1.4,2.4,3.4,4.1,5.9c4.4,6.6,8.4,13.5,11.9,20.6c3.6,7.1,6.7,14.4,9.4,21.9
		c1,2.9,1.8,5.2,2.3,6.8c0.2,0.8,0.4,1.4,0.5,1.9C135.3,320.5,135.4,320.7,135.4,320.9z"/>
	<path class="st4" d="M135.1,216.2c0.1,0.3,0.1,0.7,0.1,1.1c0,0.8,0,1.8,0,3v11.1c0,9.4,0,22.4,0.1,36.7c0.1,14.3,0.2,27.3,0.4,36.7
		c0,4.7,0.1,8.4,0.1,11.1c0,1.3,0,2.3,0,3c0,0.3,0,0.7,0,1c-0.1-0.3-0.1-0.7-0.1-1c0-0.7-0.1-1.8-0.1-3c-0.1-2.7-0.2-6.5-0.3-11.1
		c-0.2-9.4-0.5-22.4-0.6-36.7s0-27.3,0.1-36.7c0.1-4.7,0.1-8.4,0.2-11.1c0-1.3,0.1-2.3,0.1-3C135,216.9,135,216.5,135.1,216.2z"/>
	<polygon class="st8" points="119.5,305.7 122.8,377.7 145.8,377.7 148.3,309 	"/>
	<path class="st4" d="M147.7,323.5c-0.3,0.2-0.7,0.3-1,0.4c-1,0.3-2,0.4-3,0.6c-1.5,0.2-3,0.2-4.5,0.1c-1.8-0.2-3.6-0.5-5.4-1
		c-1.7-0.5-3.5-0.9-5.3-1.2c-1.4-0.2-2.9-0.2-4.4,0c-1.3,0.2-2.6,0.7-3.8,1.4c0.2-0.3,0.5-0.5,0.9-0.7c0.8-0.5,1.8-0.9,2.8-1.1
		c1.5-0.3,3-0.3,4.5-0.1c1.8,0.3,3.6,0.7,5.3,1.2c3.1,0.9,6.4,1.2,9.7,1C146.1,323.9,147.6,323.5,147.7,323.5z"/>
	<path class="st4" d="M147,331.4c0,0-0.3-0.3-0.8-0.7c-0.8-0.6-1.8-1-2.8-1.1c-1.5-0.2-3,0-4.4,0.5c-1.6,0.5-3.3,1.3-5.3,1.8
		c-3.4,0.8-6.9,0.5-10-1c-0.9-0.4-1.8-1-2.6-1.6c-0.3-0.2-0.6-0.5-0.8-0.8c1.1,0.8,2.4,1.4,3.6,2c3.1,1.3,6.5,1.6,9.8,0.8
		c1.9-0.5,3.6-1.3,5.3-1.8c1.5-0.5,3-0.6,4.6-0.4c1,0.1,2,0.6,2.8,1.3c0.2,0.2,0.4,0.4,0.6,0.6C147,331.4,147,331.4,147,331.4z"/>
	<path class="st4" d="M147.3,341.2c0,0-0.1,0.1-0.2,0.1c-0.3,0.1-0.5,0.2-0.8,0.2c-1,0.1-2-0.1-2.9-0.4c-1.2-0.4-2.5-1.2-3.9-1.9
		c-1.6-0.8-3.3-1.4-5-1.8c-3.1-0.8-6.4-0.9-9.6-0.4c-2.4,0.4-3.9,0.9-3.9,0.8c0.3-0.2,0.6-0.3,1-0.4c0.9-0.3,1.9-0.6,2.9-0.7
		c5-0.9,10.2-0.2,14.8,2.1c1.5,0.8,2.7,1.5,3.9,2c0.9,0.4,1.8,0.6,2.8,0.6C146.9,341.3,147.3,341.2,147.3,341.2z"/>
	<path class="st4" d="M121.4,347.9c0,0,0.4,0.1,1,0.1c1,0,1.9-0.2,2.7-0.7c1.2-0.7,2.4-1.5,3.5-2.4c0.7-0.5,1.4-1,2.2-1.3
		c0.9-0.4,1.8-0.6,2.7-0.6c1.8-0.1,3.6,0.1,5.3,0.5c1.6,0.3,3,0.6,4.2,0.8c1,0.1,1.9,0.2,2.9,0.1c0.3-0.1,0.7-0.1,1.1-0.1
		c-0.3,0.1-0.7,0.2-1,0.3c-1,0.1-2,0.2-2.9,0.1c-1.2-0.1-2.7-0.4-4.3-0.7c-1.7-0.4-3.4-0.5-5.2-0.5c-0.9,0.1-1.8,0.3-2.6,0.6
		c-0.8,0.3-1.5,0.7-2.1,1.2c-1.1,0.9-2.3,1.7-3.6,2.4c-0.9,0.4-1.9,0.6-2.9,0.5c-0.3,0-0.5-0.1-0.8-0.2
		C121.5,347.9,121.4,347.9,121.4,347.9z"/>
	<path class="st4" d="M147,354.1c-1.1-0.6-2.3-0.9-3.6-0.9c-2.3,0-5.4,1.2-9,1.4c-3.1,0.2-6.2-0.1-9.1-0.8c-0.9-0.2-1.8-0.5-2.7-0.8
		c-0.3-0.1-0.6-0.3-0.9-0.4c0-0.1,1.4,0.4,3.7,0.9c3,0.6,6,0.8,9,0.7c1.7-0.1,3.3-0.3,4.9-0.7c1.3-0.3,2.7-0.5,4.1-0.5
		c0.9,0,1.9,0.2,2.7,0.7C146.5,353.6,146.8,353.8,147,354.1z"/>
</g>
<g id="Windows">
	<rect x="282.2" y="5.6" class="st3" width="259.4" height="165.5"/>
	<path class="st4" d="M541.7,171.1c0-1.7-0.1-64.4-0.2-165.5l0.2,0.2L282.3,5.8l0,0l0.3-0.3c0,58.7,0,114.7,0,165.5l-0.2-0.2
		L541.7,171.1l-259.4,0.2h-0.2v-0.2c0-50.9,0-106.8,0-165.5V5.3h0.3l259.3,0h0.2v0.2C541.7,106.7,541.7,169.4,541.7,171.1z"/>
	<polygon class="st6" points="282.2,10.3 282.1,18.8 541.4,19.2 541.7,10.3 	"/>
	<polygon class="st4" points="524.8,44.7 523.8,98.5 565.3,99.7 566.5,45.3 	"/>
	<polygon class="st8" points="525,49.8 555.3,50 555,47.3 566.5,47.7 566.5,45.3 524.8,44.7 	"/>
	<polygon class="st6" points="526.6,47.3 526.5,48.7 534.1,48.7 533.8,47.3 	"/>
	<polygon class="st6" points="536,47.3 535.9,48.7 543.5,48.7 543.2,47.3 	"/>
	<polygon class="st6" points="545.6,47.5 545.5,48.9 553.1,48.9 552.8,47.5 	"/>
	<polygon class="st8" points="527.3,52.3 527,79.4 552.7,80.4 551.8,53.1 	"/>
	<path class="st6" d="M551.7,54.8c-0.3,0.4-0.6,0.8-0.9,1.2c-0.6,0.8-1.4,2-2.3,3.5c-0.5,0.8-1,1.6-1.7,2.5c-0.7,0.9-1.2,1.9-1.7,3
		c-0.5,1.1-1,2.3-1.6,3.6c-0.6,1.3-1.4,2.6-2.4,3.6l-0.3,0.3l-0.2-0.4c-0.9-1.9-1.7-3.9-2.3-5.9c-0.5-1.6-0.8-3.3-1-5l0.5,0.2
		c-1.9,2.1-3.4,4.5-4.5,7.1c-0.6,1.2-1.1,2.3-1.7,3.3l-1.6,2.7l-2.3,3.9c-0.3,0.5-0.6,0.9-0.9,1.4c0.2-0.5,0.4-1,0.7-1.5
		c0.5-1,1.3-2.3,2.2-4l1.5-2.8c0.5-1,1.1-2.1,1.6-3.3c1.1-2.7,2.7-5.1,4.5-7.3l0.5-0.5l0.1,0.7c0.1,1.7,0.5,3.3,1,4.9
		c0.6,2,1.4,3.9,2.2,5.8l-0.5-0.1c1-1,1.7-2.1,2.3-3.4l1.6-3.5c0.5-1.1,1.1-2.1,1.8-3c0.6-0.9,1.2-1.7,1.7-2.4
		c1-1.5,1.9-2.7,2.5-3.5C551,55.5,551.3,55.1,551.7,54.8z"/>
	
		<rect x="553.8" y="54.7" transform="matrix(8.202955e-03 -1 1 8.202955e-03 494.5148 611.3423)" class="st8" width="3.3" height="3.3"/>
	<polygon class="st6" points="558,55.3 558.2,56.8 564.5,56.7 564.4,55.7 	"/>
	
		<rect x="554.3" y="59.6" transform="matrix(8.202955e-03 -1 1 8.202955e-03 490.0572 616.6752)" class="st8" width="3.3" height="3.3"/>
	<polygon class="st6" points="558.5,60.2 558.6,61.7 565,61.7 564.9,60.6 	"/>
	
		<rect x="554.1" y="65.3" transform="matrix(8.202955e-03 -1 1 8.202955e-03 484.2236 622.1505)" class="st8" width="3.3" height="3.3"/>
	<polygon class="st6" points="558.3,65.9 558.5,67.4 564.8,67.3 564.7,66.3 	"/>
	<polygon class="st8" points="527.6,82.3 558.6,82.9 558.5,85.7 527.5,84.5 	"/>
	<polygon class="st6" points="558.6,82.9 562.3,82.9 562.2,85.7 558.5,85.7 	"/>
	<polygon class="st8" points="528.1,87.4 562.4,87.9 562.4,91.1 528,89.6 	"/>
	<polygon class="st6" points="544.5,87.6 548.2,87.6 548.1,90.4 544.4,90.4 	"/>
	<polygon class="st8" points="528.6,92.3 559.5,92.9 559.4,95.7 528.4,94.5 	"/>
	<polygon class="st6" points="559.5,92.9 563.2,92.9 563.1,95.7 559.4,95.7 	"/>
	<polygon class="st4" points="265.9,7.6 271.9,7.3 272.4,90.9 266.9,90.1 	"/>
	<polygon class="st6" points="267,10.6 267.6,14.6 269.8,14.4 270.1,10.1 	"/>
	<polygon class="st6" points="267.8,51.9 268.4,55.9 270.5,55.7 270.9,51.4 	"/>
	<polygon class="st6" points="267.2,17.2 270.6,16.9 271,21.3 267.4,21.3 	"/>
	<polygon class="st6" points="267.5,30.8 270.5,30.7 270.8,35.4 267.6,35.3 	"/>
	<polygon class="st6" points="267.7,37.6 270.6,37.5 271,42.2 267.8,42 	"/>
	<polygon class="st6" points="268,44.6 270.9,44.5 271.2,49.2 268.1,49 	"/>
	<polygon class="st6" points="268.2,59.8 271.1,59.7 271.4,64.4 268.3,64.2 	"/>
	<polygon class="st6" points="267.4,23.8 270.9,24.2 271,28.6 267.8,28.6 	"/>
	<rect x="282.2" y="5.6" class="st4" width="259.4" height="4.7"/>
	<path class="st6" d="M287.1,7.7c0,0.5-0.3,1-0.8,1s-1-0.3-1-0.8s0.3-1,0.8-1c0,0,0,0,0,0C286.6,6.8,287.1,7.2,287.1,7.7z"/>
	<path class="st6" d="M290.8,7.8c0,0.5-0.3,1-0.9,1c-0.5,0-1-0.3-1-0.9c0-0.5,0.3-1,0.9-1C290.4,6.9,290.8,7.3,290.8,7.8
		C290.8,7.8,290.8,7.8,290.8,7.8z"/>
	<path class="st6" d="M294.6,7.8c0,0.5-0.3,1-0.8,1c-0.5,0-1-0.3-1-0.8c0-0.5,0.3-1,0.8-1c0,0,0,0,0,0
		C294.1,6.9,294.5,7.3,294.6,7.8z"/>
	<polygon class="st8" points="299,7.1 299.1,8.9 311.6,8.9 311.3,7.2 	"/>
	<polygon class="st8" points="314.2,7.4 314.5,9.1 323.2,8.9 322.8,7.2 	"/>
	<polygon class="st8" points="327.5,7.6 327.7,9.4 336.5,9.4 336.2,7.7 	"/>
	<polygon class="st3" points="321.6,39.6 327.5,180.7 501.6,181.7 499.7,43.5 	"/>
	<path class="st8" d="M321.6,39.6h0.8h2.5l9.6,0.2l36.4,0.8l128.8,2.8h0.2v0.2c0.6,41.1,1.2,88.1,1.9,137.7c0,0.2,0,0.3,0,0.5v0.3
		h-0.3l-174.1-1.1h-0.2v-0.2c-1.7-42.6-3.2-77.9-4.2-102.6c-0.5-12.3-0.9-22-1.1-28.5c-0.1-3.3-0.2-5.8-0.3-7.5
		S321.5,39.6,321.6,39.6c0,0,0,0.9,0.1,2.6s0.2,4.2,0.3,7.5c0.3,6.6,0.7,16.3,1.2,28.6c1.1,24.6,2.6,59.9,4.4,102.4l-0.2-0.2
		l174.1,1l-0.3,0.3c0-0.2,0-0.3,0-0.5c-0.7-49.6-1.3-96.5-1.8-137.7l0.2,0.2l-128.6-3l-36.5-0.9l-9.7-0.2l-2.5-0.1L321.6,39.6z"/>
	<polygon class="st4" points="321.5,38.2 321.6,43.6 499.7,43.5 499.7,38.9 	"/>
	<polygon class="st2" points="473.3,56.6 474.5,65.2 491.9,65.3 491.1,57.3 	"/>
	<polygon class="st8" points="473.4,58.7 491.1,59.4 491.1,57.3 473.3,56.6 	"/>
	
		<rect x="477.3" y="60.1" transform="matrix(0.9999 -1.640536e-02 1.640536e-02 0.9999 -0.9432 7.8605)" class="st6" width="2.7" height="2.7"/>
	
		<rect x="477.1" y="59" transform="matrix(0.9998 -1.999600e-02 1.999600e-02 0.9998 -1.1116 9.5798)" class="st4" width="2.7" height="2.7"/>
	
		<rect x="476" y="61.3" transform="matrix(0.9999 -1.640536e-02 1.640536e-02 0.9999 -0.9627 7.8396)" class="st6" width="2.7" height="2.7"/>
	<polygon class="st4" points="482.6,61.3 482.5,62.7 490.2,62.5 490.1,61.6 	"/>
	<polygon class="st2" points="473.5,66.6 474.7,75.3 492,75.4 491.2,67.4 	"/>
	<polygon class="st8" points="473.5,68.7 491.3,69.5 491.2,67.4 473.5,66.6 	"/>
	
		<rect x="477.5" y="70.2" transform="matrix(0.9999 -1.640536e-02 1.640536e-02 0.9999 -1.1085 7.8645)" class="st6" width="2.7" height="2.7"/>
	
		<rect x="477.3" y="69.1" transform="matrix(0.9998 -1.999600e-02 1.999600e-02 0.9998 -1.3132 9.5861)" class="st4" width="2.7" height="2.7"/>
	
		<rect x="476.2" y="71.4" transform="matrix(0.9999 -1.623085e-02 1.623085e-02 0.9999 -1.1175 7.7601)" class="st6" width="2.7" height="2.7"/>
	<polygon class="st4" points="482.8,71.4 482.7,72.8 490.4,72.6 490.3,71.7 	"/>
	
		<rect x="339.6" y="82.2" transform="matrix(1 -4.188778e-03 4.188778e-03 1 -0.3499 1.4319)" class="st8" width="4.2" height="4.2"/>
	
		<rect x="483.2" y="83.3" transform="matrix(1 -4.188778e-03 4.188778e-03 1 -0.3534 2.0335)" class="st8" width="4.2" height="4.2"/>
	
		<rect x="482.7" y="146.4" transform="matrix(1 -4.188778e-03 4.188778e-03 1 -0.6177 2.0319)" class="st8" width="4.2" height="4.2"/>
	
		<rect x="342.2" y="141.7" transform="matrix(1 -4.188778e-03 4.188778e-03 1 -0.5993 1.4433)" class="st8" width="4.2" height="4.2"/>
	
		<rect x="413.5" y="83.9" transform="matrix(1 -4.188741e-03 4.188741e-03 1 -0.3538 1.7385)" class="st8" width="2.8" height="2.8"/>
	
		<rect x="340.9" y="114.2" transform="matrix(1 -4.188741e-03 4.188741e-03 1 -0.4811 1.4346)" class="st8" width="2.8" height="2.8"/>
	
		<rect x="483.8" y="111.8" transform="matrix(1 -4.188741e-03 4.188741e-03 1 -0.4699 2.0331)" class="st8" width="2.8" height="2.8"/>
	
		<rect x="411.9" y="144.7" transform="matrix(1 -4.188741e-03 4.188741e-03 1 -0.6084 1.7324)" class="st8" width="2.8" height="2.8"/>
	<path class="st8" d="M485.3,85.4h-0.7h-2.1h-8l-30-0.2l-103.2-1l0.6-0.6c0.6,18.7,1.4,39,2.1,60c0,0.2,0,0.4,0,0.6l-0.6-0.6
		l141,3.7l-0.5,0.4c0.4-19.2,0.7-34.8,0.9-45.6c0.1-5.4,0.2-9.6,0.3-12.5c0-1.4,0.1-2.5,0.1-3.3c0-0.4,0-0.6,0-0.8
		C485.2,85.5,485.2,85.4,485.3,85.4c-0.1-0.1-0.1,0.2-0.1,0.9v3.2c0,2.8,0,7-0.1,12.4c-0.1,10.8-0.3,26.5-0.5,45.9v0.4h-0.5
		l-141-3.4h-0.6v-0.6c0-0.2,0-0.4,0-0.6c-0.7-21-1.4-41.3-2-60v-0.6h0.6l103.6,1.5l29.9,0.5l7.9,0.2l2,0.1
		C484.9,85.3,485.1,85.3,485.3,85.4z"/>
	<polygon class="st4" points="487,152.9 489.3,163.6 491.1,159.9 495.3,159.2 	"/>
	<rect x="447.6" y="159.2" class="st6" width="5.6" height="5.6"/>
	<rect x="455.6" y="159.2" class="st2" width="5.6" height="5.6"/>
	<rect x="463.7" y="159.2" class="st8" width="5.6" height="5.6"/>
	<rect x="471.7" y="159.2" class="st4" width="5.6" height="5.6"/>
	<polygon class="st6" points="480.6,142.9 350.7,139.1 348.6,87.8 480.6,89.5 	"/>
	<polygon class="st2" points="381.5,123.2 354.2,122.7 353.3,100.3 381.5,100.7 	"/>
	<polygon class="st8" points="515.4,156 519,199 554.3,199.6 551.7,158.4 	"/>
	<polygon class="st4" points="515.1,154.2 515.6,158.5 551.7,159.9 551.5,155.6 	"/>
	<polygon class="st4" points="524.3,166.5 526.1,190.1 546.6,191.2 545.5,166.6 	"/>
	<path class="st2" d="M544.3,185.7c-1.4,0.2-2.9,0.3-4.4,0.3c-2.7,0.1-6.5,0.1-10.7,0.1h-0.4v-0.4c0-0.5-0.1-0.9-0.1-1.4
		c-0.4-4.6-0.8-8.7-0.9-11.7c-0.2-1.6-0.2-3.2-0.1-4.9c0.4,1.6,0.7,3.2,0.8,4.8c0.3,3,0.8,7.1,1.2,11.6c0,0.5,0.1,1,0.1,1.4
		l-0.5-0.4c4.2,0,8,0.1,10.7,0.2C541.4,185.4,542.8,185.5,544.3,185.7z"/>
	<path class="st6" d="M528.1,187c0.2,0.2,0.1,0.6-0.2,1s-0.7,0.6-0.9,0.4s-0.1-0.6,0.2-1S527.9,186.8,528.1,187z"/>
	<path class="st6" d="M533.2,180.5c0.2,0.1-0.2,1-0.9,1.9s-1.4,1.5-1.6,1.3s0.2-1,0.9-1.9S533,180.4,533.2,180.5z"/>
	<path class="st6" d="M538.2,174c0.2,0.2-0.2,1-0.9,1.9c-0.7,0.9-1.4,1.5-1.6,1.3s0.2-1,0.9-1.9C537.3,174.4,538,173.9,538.2,174z"
		/>
	<path class="st6" d="M541.9,169.4c0.2,0.2,0.1,0.6-0.2,1s-0.7,0.6-0.9,0.4c-0.2-0.2-0.1-0.6,0.2-1S541.7,169.2,541.9,169.4z"/>
	<polygon class="st6" points="517.8,160.7 518.1,162.6 526.1,162.7 526.4,160.7 	"/>
	<polygon class="st2" points="512.9,25.6 514.1,34.2 531.4,34.3 530.6,26.3 	"/>
	<polygon class="st8" points="512.9,27.7 530.7,28.4 530.6,26.3 512.9,25.6 	"/>
	
		<rect x="517" y="27.5" transform="matrix(0.9998 -1.999600e-02 1.999600e-02 0.9998 -0.4723 10.371)" class="st6" width="2.7" height="2.7"/>
	
		<rect x="516.6" y="27.9" transform="matrix(0.9998 -1.999600e-02 1.999600e-02 0.9998 -0.481 10.3624)" class="st4" width="2.7" height="2.7"/>
	
		<rect x="515.6" y="30.3" transform="matrix(0.9999 -1.640536e-02 1.640536e-02 0.9999 -0.4489 8.4844)" class="st6" width="2.7" height="2.7"/>
	<polygon class="st4" points="522.2,30.3 522.1,31.7 529.8,31.5 529.7,30.6 	"/>
</g>
<g id="Character">
	<path class="st6" d="M279.8,243.4v-4.9c0,0-0.2-6.3,8.3-6.9c8.5-0.6,38.3-0.1,38.3-0.1s8.8-0.2,8.8,5.4v6.7L279.8,243.4z"/>
	<path class="st7" d="M279.8,243.4v-4.9c0,0-0.2-6.3,8.3-6.9c8.5-0.6,38.3-0.1,38.3-0.1s8.8-0.2,8.8,5.4v6.7L279.8,243.4z"/>
	<path class="st4" d="M279.8,243.4c0,0,25.9,1.6,27.2,6.7h4.8c0,0,3.2-5.3,23.4-6.5L279.8,243.4z"/>
	<path class="st4" d="M288.7,378.2h40.5L313.7,368l-0.2-58.9h7.5v-1.6h-7.5l-0.1-16.6l-1.4-3.9l-0.2-43.4h-4.7
		c-0.2,0.9,0,43.3,0,43.3l-1.4,3.8v16.9h-12.2v1.6h12.2v58.9L288.7,378.2z"/>
	<path class="st4" d="M303.2,155.5c-7.2,6-17.9,5-23.9-2.3c-0.5-0.6-0.9-1.1-1.3-1.7c-1.6-2.4-2.4-5.3-2.1-8.2
		c0.4-2.9,2.3-5.4,5.1-6.4c1.1-0.4,2.3-0.4,3.4-0.7c1.1-0.2,2.1-1,2.6-2c0.5-1.4-0.2-2.9,0-4.3c0.4-2.3,3.1-3.4,4.6-5.2
		c1.9-2.5,1.3-6,0.6-9.1l2.1-1.8L303.2,155.5z"/>
	<path class="st9" d="M333.3,159.9c0,0,17.6,24.1,18.5,24.7c3,1.9,33.6,13.7,33.6,13.7l-1.7,10.6c0,0-39-11.1-41.3-12.7
		s-18.2-25.7-18.2-25.7L333.3,159.9z"/>
	<path class="st6" d="M274.9,172.9l1.5-19.6c2.5-13.8,20.1-12.6,20.1-12.6l15.2-0.2c0,0,10.5,0.3,16.6,8.9
		c4.9,7,10.2,14.3,10.2,14.3l-11.4,11.5l-4-6.9c1.4,1.9,2.1,4.3,1.8,6.6c-0.5,5.3-4.3,6.3-4.3,6.3l1.7,35.5l-47.9-0.4l7.9-18.3
		l-1.6-25.6L274.9,172.9z"/>
	<path class="st6" d="M293.4,173.1c0.4-0.1,0.9,0.5,1.1,1.3s0.2,1.5-0.2,1.6s-1-0.3-1.3-1.2C292.8,173.9,293,173.2,293.4,173.1z"/>
	<path class="st6" d="M294.9,154.1c0.4,0.1,0.7,1.4,0.5,3.1c-0.1,1.6-0.6,3-1,3s-0.7-1.4-0.5-3.1C294,155.4,294.5,154.1,294.9,154.1
		z"/>
	<path class="st6" d="M292.1,167.6c-0.4-0.1-0.7-0.4-0.6-0.8c0-0.1,0-0.2,0.1-0.3c0.1-0.4,0.5-0.6,0.9-0.4c0.1,0,0.2,0.1,0.2,0.1
		c0.4,0.2,0.4,0.7,0.2,1.1C292.8,167.6,292.4,167.7,292.1,167.6z"/>
	<path class="st6" d="M304.4,155.7c0.4,0.1,0.6,0.9,0.4,1.8s-0.7,1.6-1.1,1.5c-0.4-0.1-0.6-0.9-0.5-1.8
		C303.5,156.3,304,155.6,304.4,155.7z"/>
	<path class="st6" d="M317.8,157.2c0.1,0.4-0.6,0.9-1.6,0.8c-1-0.1-1.6-0.6-1.5-1.1c0.1-0.4,0.8-0.6,1.6-0.5
		S317.7,156.7,317.8,157.2z"/>
	<path class="st6" d="M320.1,155.1c-0.3,0.3-1.2,0.1-2.1-0.6s-1.4-1.5-1.2-1.9c0.3-0.3,1.2-0.1,2.1,0.6S320.4,154.8,320.1,155.1z"/>
	<path class="st6" d="M322.4,153.6c-0.4,0-0.8-1.1-0.4-2.3s1.2-2,1.5-1.8s0.2,1.1,0,2.2S322.8,153.6,322.4,153.6z"/>
	<path class="st6" d="M327.3,152.5c0.3,0.3,0,1.1-0.7,1.9s-1.5,1.1-1.8,0.9s0-1.1,0.7-1.9S327,152.2,327.3,152.5z"/>
	<path class="st6" d="M325,158.8c-0.1,0.4-1,0.6-2.1,0.4s-1.9-0.7-1.8-1.1s1-0.6,2.1-0.4S325.1,158.4,325,158.8z"/>
	<path class="st6" d="M312.6,157.8c-0.1,0.4-0.9,0.6-1.9,0.4c-0.9-0.2-1.6-0.7-1.5-1.1s0.9-0.6,1.9-0.4
		C312,156.9,312.7,157.4,312.6,157.8z"/>
	<path class="st6" d="M314.4,153.8c-0.2,0.4-1,0.3-1.8-0.1c-0.8-0.4-1.2-1.1-1-1.5c0.2-0.4,1-0.3,1.8,0.1
		C314.2,152.8,314.6,153.4,314.4,153.8z"/>
	<path class="st6" d="M320,150.8c-0.4,0.2-1.1-0.4-1.3-1.4c-0.2-1,0.1-1.9,0.6-1.9c0.4,0,0.8,0.7,0.9,1.5S320.4,150.6,320,150.8z"/>
	<path class="st6" d="M326.8,148.7c0.6,0.1,1,0.7,0.8,1.3s-0.7,1-1.3,0.8c-0.6-0.1-1-0.7-0.8-1.3c0-0.1,0.1-0.2,0.1-0.3
		C325.8,148.8,326.3,148.5,326.8,148.7z"/>
	<path class="st6" d="M330.7,154.6c0.1,0.4-0.2,0.9-0.8,1c-0.5,0.2-1,0-1.2-0.5c-0.1-0.4,0.3-0.9,0.8-1
		C330,154,330.5,154.2,330.7,154.6z"/>
	<path class="st6" d="M312.4,146.9c0.2-0.4,1.3-0.1,2.2,0.9s1.1,2.1,0.7,2.3s-1.1-0.4-1.8-1.2C312.7,148,312.1,147.2,312.4,146.9z"
		/>
	<path class="st6" d="M322.2,144.8c0.4,0,0.8,0.5,0.8,1.2s-0.4,1.2-0.8,1.2s-0.8-0.5-0.8-1.2S321.8,144.8,322.2,144.8z"/>
	<path class="st6" d="M305.5,153c0.1-0.4,1.1-0.4,2.2-0.1c1.1,0.4,1.8,1,1.7,1.4c-0.1,0.4-1.1,0.4-2.2,0.1
		C306.2,154,305.4,153.4,305.5,153z"/>
	<path class="st6" d="M310,149.5c-0.3,0.3-0.9,0.2-1.4-0.3s-0.6-1.1-0.3-1.4c0.3-0.3,0.9-0.2,1.4,0.3
		C310.1,148.5,310.3,149.2,310,149.5z"/>
	<path class="st6" d="M317,143.1c0.4,0,0.8,0.6,0.9,1.4s-0.2,1.5-0.7,1.5s-0.8-0.6-0.9-1.4S316.5,143.2,317,143.1z"/>
	<path class="st6" d="M298.5,152.5c0.4,0.1,0.4,1.1,0,2s-1,1.6-1.4,1.5s-0.4-1.1,0-2S298,152.4,298.5,152.5z"/>
	<path class="st6" d="M301.3,152.2c0.4-0.1,0.9,0.6,1.1,1.6s0,1.8-0.4,1.9s-0.9-0.6-1.1-1.6S300.9,152.3,301.3,152.2z"/>
	<path class="st6" d="M307.3,150.8c0,0.4-0.9,0.7-1.9,0.7s-1.8-0.4-1.8-0.9s0.8-0.7,1.8-0.7S307.4,150.3,307.3,150.8z"/>
	<path class="st6" d="M296,150.3c0.1,0.4-0.5,0.9-1.3,1.1c-0.8,0.2-1.5,0-1.6-0.4c-0.1-0.4,0.5-0.9,1.3-1.1S295.9,149.9,296,150.3z"
		/>
	<path class="st6" d="M301.3,148.7c0.1,0.4-0.3,0.9-0.9,1.2s-1.3,0.1-1.5-0.3c-0.1-0.4,0.3-0.9,0.9-1.2
		C300.5,148.2,301.1,148.3,301.3,148.7z"/>
	<path class="st6" d="M296.5,147.3c0,0.4-1.1,0.9-2.6,0.8s-2.6-0.8-2.5-1.2s1.3-0.5,2.6-0.4C295.4,146.6,296.5,146.9,296.5,147.3z"
		/>
	<path class="st6" d="M299.1,145.3c-0.2,0.4-1.4,0.2-2.7-0.3c-1.3-0.6-2.3-1.4-2.1-1.8s1.4-0.2,2.7,0.3
		C298.3,144.1,299.3,144.9,299.1,145.3z"/>
	<path class="st6" d="M313.5,143.3c0.2,0.4-0.3,1-0.9,1.4c-0.7,0.4-1.4,0.6-1.7,0.3c-0.3-0.3,0-1.1,0.8-1.6S313.3,142.9,313.5,143.3
		z"/>
	<path class="st6" d="M291.3,144.2c-0.2,0.4-0.8,0.5-1.4,0.3c-0.6-0.2-1-0.8-0.9-1.2s0.8-0.5,1.4-0.3S291.5,143.8,291.3,144.2z"/>
	<path class="st6" d="M312.8,187.9c0,0.4-1,0.8-2.3,0.9c-1.3,0.1-2.3-0.3-2.4-0.7s1-0.8,2.3-0.9
		C311.8,187.2,312.8,187.5,312.8,187.9z"/>
	<path class="st6" d="M315.2,185.2c-0.3,0.3-1.1,0-1.8-0.7c-0.7-0.7-1-1.5-0.6-1.8s1.1,0,1.8,0.7
		C315.2,184.1,315.5,184.9,315.2,185.2z"/>
	<path class="st6" d="M317.5,183.8c-0.4,0.1-0.9-0.8-0.9-1.9s0.7-1.9,1.1-1.8s0.5,1,0.4,1.9S317.9,183.7,317.5,183.8z"/>
	<path class="st6" d="M319.3,185.8c0.3,0.3,0.1,1-0.4,1.5s-1.1,0.8-1.5,0.6c-0.3-0.3-0.2-1,0.4-1.6S319,185.5,319.3,185.8z"/>
	<path class="st6" d="M318.4,192.5c-0.4,0-0.8-0.7-0.6-1.4c0.1-0.8,0.7-1.3,1.1-1.1s0.6,0.8,0.5,1.4S318.8,192.5,318.4,192.5z"/>
	<path class="st6" d="M314.6,190c0.3,0.2,0.4,0.5,0.3,0.9c-0.2,0.3-0.5,0.4-0.9,0.3c0,0,0,0,0,0c-0.4-0.1-0.6-0.4-0.5-0.8
		c0.1-0.4,0.4-0.6,0.8-0.5C314.3,189.8,314.5,189.9,314.6,190z"/>
	<path class="st6" d="M321,178.4c0.4,0.1,0.4,1.1-0.1,2.1s-1.4,1.5-1.7,1.2c-0.3-0.3-0.1-1.1,0.4-2C320,178.8,320.7,178.3,321,178.4
		z"/>
	<path class="st6" d="M317.9,178c0,0.4-0.8,0.8-1.9,0.9c-1.1,0.1-1.9-0.2-2-0.7c0-0.4,0.8-0.8,1.9-0.9S317.8,177.6,317.9,178z"/>
	<path class="st6" d="M310.9,185c-0.3,0.3-0.9,0.1-1.3-0.4s-0.5-1.1-0.1-1.4s0.9-0.1,1.3,0.4C311.2,184.1,311.2,184.7,310.9,185z"/>
	<path class="st6" d="M304.5,188.3c-0.3,0.3-1.3-0.2-1.9-1.3s-0.6-2.2-0.2-2.3s1,0.6,1.5,1.5C304.5,187.1,304.9,188,304.5,188.3z"/>
	<path class="st6" d="M301.2,188.2c-0.1,0.4-0.7,0.6-1.4,0.4s-1.1-0.6-1-1.1s0.7-0.6,1.4-0.4C300.9,187.4,301.4,187.8,301.2,188.2z"
		/>
	<path class="st6" d="M279.3,211.7c-0.4-0.1-0.6-1.1-0.5-2.3c0.2-1.2,0.7-2.1,1.1-2s0.6,1.1,0.5,2.3
		C280.2,210.9,279.7,211.7,279.3,211.7z"/>
	<path class="st6" d="M285.2,211c-0.4,0.2-1.2-0.7-1.8-2s-0.8-2.5-0.4-2.7c0.4-0.2,1.2,0.7,1.8,2S285.6,210.8,285.2,211z"/>
	<path class="st6" d="M290.4,207.4c-0.3,0.3-1.4-0.2-2.5-1s-2-1.7-1.8-2.1s1.4-0.1,2.7,0.8S290.7,207,290.4,207.4z"/>
	<path class="st6" d="M282.4,201.3c0.4,0.2,0.5,0.9,0.1,1.8s-0.9,1.3-1.3,1.2c-0.4-0.2-0.5-0.9-0.1-1.7
		C281.5,201.6,282,201.1,282.4,201.3z"/>
	<path class="st6" d="M290.6,211.9c-0.3,0.3-1.1-0.1-1.6-0.9s-0.7-1.5-0.4-1.8s1.1,0.1,1.6,0.9S290.9,211.7,290.6,211.9z"/>
	<path class="st6" d="M282,213.5c-0.4,0.1-0.9-0.4-1-1.1s0.2-1.3,0.6-1.3s0.9,0.4,1,1.1S282.4,213.5,282,213.5z"/>
	<path class="st6" d="M298.6,205.6c-0.1,0.4-1.5,0.5-3.1,0.2s-2.8-1-2.8-1.4c0.1-0.4,1.4-0.5,3.1-0.2
		C297.4,204.6,298.7,205.2,298.6,205.6z"/>
	<path class="st6" d="M297.6,211.8c-0.3,0.3-1.4-0.1-2.5-1.1c-1.1-0.9-1.8-1.9-1.5-2.3s1.4,0.1,2.5,1.1
		C297.2,210.4,297.9,211.4,297.6,211.8z"/>
	<path class="st6" d="M303.2,210.1c-0.1,0.4-1.1,0.5-2.1,0.2s-1.8-0.9-1.6-1.3s1.1-0.5,2.1-0.2S303.3,209.6,303.2,210.1z"/>
	<path class="st6" d="M307.7,211.1c0,0.4-0.6,0.8-1.3,1.2s-1.4,0.5-1.7,0.2s0.1-1.2,1.1-1.6C306.7,210.4,307.7,210.7,307.7,211.1z"
		/>
	<path class="st6" d="M306.2,207.3c-0.2,0.4-1,0.3-1.8-0.1s-1.3-1.1-1.1-1.5s1-0.3,1.8,0.1S306.5,207,306.2,207.3z"/>
	<path class="st6" d="M310.8,206.9c0.1,0.5,0,1-0.3,1.3c-0.3,0.4-0.7,0.8-1.1,0.8s-0.7-0.9-0.1-1.6S310.6,206.5,310.8,206.9z"/>
	<path class="st6" d="M315.5,210.4c0,0.4-0.8,0.8-1.8,0.8s-1.9-0.3-1.9-0.7c0-0.4,0.8-0.8,1.8-0.8S315.5,209.9,315.5,210.4z"/>
	<path class="st6" d="M316.1,207.9c-0.2,0.4-1,0.4-1.8,0.1s-1.4-1-1.2-1.4c0.2-0.4,1-0.4,1.8-0.1S316.3,207.5,316.1,207.9z"/>
	<path class="st6" d="M319.3,209.1c-0.4-0.1-0.7-0.7-0.4-1.4s0.9-1,1.2-0.8c0.4,0.3,0.4,0.9,0.2,1.3
		C320.1,208.8,319.7,209.1,319.3,209.1z"/>
	<path class="st6" d="M294,168.3c0.4-0.2,1.1,0.3,1.8,1.3c0.6,0.9,0.8,1.9,0.5,2.1c-0.4,0.2-1.1-0.3-1.8-1.3
		C293.9,169.5,293.7,168.6,294,168.3z"/>
	<path class="st6" d="M300.6,166.9c0.4,0.2,0.1,1.4-0.7,2.5s-1.6,1.9-2,1.7c-0.4-0.2-0.1-1.4,0.7-2.5S300.2,166.7,300.6,166.9z"/>
	<path class="st6" d="M304.2,171.3c0.2,0.4-0.6,1.1-1.6,1.4s-2,0.4-2.2,0s0.6-1.1,1.6-1.4C303.1,170.9,304.1,170.9,304.2,171.3z"/>
	<path class="st6" d="M303.2,178.3c-0.3,0.4-1.2,0.1-2-0.7c-0.8-0.8-1.2-1.7-0.8-2c0.3-0.3,1.1,0.1,1.9,0.8
		C303.1,177.1,303.5,178,303.2,178.3z"/>
	<path class="st6" d="M297.5,181.1c-0.4,0.1-1-1-0.9-2.4s0.8-2.5,1.2-2.3c0.4,0.1,0.4,1.2,0.3,2.4S297.9,181,297.5,181.1z"/>
	<path class="st6" d="M299.3,174.3c-0.1,0.4-0.8,0.6-1.5,0.4s-1.2-0.7-1.1-1.1s0.8-0.6,1.5-0.4S299.4,173.9,299.3,174.3z"/>
	<path class="st6" d="M305.3,166.3c0.4,0.2,0,1.3-1,2.2s-2.1,1.1-2.3,0.8s0.4-1.2,1.3-1.9C304.1,166.6,304.9,166.1,305.3,166.3z"/>
	<path class="st6" d="M296.6,163.7c0.4-0.1,0.9,0.7,1,1.7s-0.4,1.9-0.8,1.8c-0.4-0.1-0.7-0.8-0.7-1.7
		C296,164.6,296.1,163.8,296.6,163.7z"/>
	<path class="st6" d="M302.3,160.9c0.4,0.1,0.5,1.1,0.1,2.1s-1.2,1.7-1.6,1.5s-0.3-1.1,0.1-2.1S301.9,160.8,302.3,160.9z"/>
	<path class="st6" d="M309.5,170.5c0,0.4-0.6,0.8-1.4,0.9c-0.8,0.1-1.5-0.2-1.5-0.6c-0.1-0.4,0.6-0.8,1.4-0.9
		S309.5,170.1,309.5,170.5z"/>
	<path class="st6" d="M307.3,176.1c-0.1,0.4-1,0.5-2,0.2s-1.6-0.9-1.5-1.3s1-0.5,2-0.2S307.5,175.7,307.3,176.1z"/>
	<path class="st6" d="M301.3,182.4c-0.4,0.2-1.1-0.4-1.4-1.3c-0.3-1,0-1.8,0.4-1.8s0.8,0.6,1.1,1.4S301.7,182.2,301.3,182.4z"/>
	<path class="st6" d="M297.3,186.2c-0.4,0-0.8-0.6-0.9-1.3s0.3-1.4,0.7-1.4s0.8,0.6,0.9,1.3C298,185.5,297.7,186.1,297.3,186.2z"/>
	<path class="st6" d="M307.2,184.2c-0.4,0.2-1.1-0.5-1.7-1.4s-0.9-1.8-0.6-2.1s1.2,0.2,1.9,1.2C307.5,183,307.6,184.1,307.2,184.2z"
		/>
	<path class="st6" d="M311.7,180.6c-0.2,0.4-1.2,0.2-2.3-0.2s-1.9-1-1.8-1.4c0.1-0.4,1.2-0.5,2.4,0
		C311.2,179.4,312,180.2,311.7,180.6z"/>
	<path class="st6" d="M312.1,176c-0.4,0.2-1,0.2-1.4-0.1c-0.5-0.3-0.9-0.6-0.9-1.1c0-0.4,0.8-0.7,1.6-0.3
		C312.2,174.9,312.4,175.8,312.1,176z"/>
	<path class="st6" d="M299.1,157.2c0.4,0.1,0.6,1.1,0.5,2.2c-0.1,1.2-0.5,2.1-0.9,2.1s-0.8-1-0.6-2.2S298.7,157.1,299.1,157.2z"/>
	<path class="st6" d="M308.1,160.6c0.3,0.3,0,1.2-0.8,2c-0.8,0.8-1.6,1.3-1.9,1c-0.3-0.3,0-1.2,0.8-2
		C306.9,160.8,307.8,160.3,308.1,160.6z"/>
	<path class="st6" d="M309.4,162.7c0.3-0.2,0.7-0.2,1,0.1c0.2,0.3,0.1,0.8-0.2,1c-0.3,0.2-0.7,0.2-1-0.1
		C309,163.3,309.1,162.9,309.4,162.7C309.4,162.7,309.4,162.7,309.4,162.7L309.4,162.7z"/>
	<path class="st6" d="M285.5,159.7c-0.1,0.4-1.2,0.4-2.4-0.1c-1.2-0.5-1.9-1.4-1.7-1.7s1.2-0.2,2.3,0.3S285.6,159.3,285.5,159.7z"/>
	<path class="st6" d="M280.6,168.2c-0.4,0.2-1-0.4-1.2-1.4s0-1.8,0.4-1.8s0.9,0.6,1.1,1.4C281.1,167.2,281,168,280.6,168.2z"/>
	<path class="st6" d="M286.8,164.4c-0.3,0.3-1.1-0.1-1.8-0.8s-0.9-1.6-0.6-1.9c0.3-0.3,1.1,0.1,1.8,0.8S287.1,164.2,286.8,164.4z"/>
	<path class="st6" d="M283.8,151.6c0.3,0.3-0.2,1.4-1.2,2.4c-1,1-2.1,1.6-2.4,1.3c-0.3-0.3,0.2-1.4,1.2-2.4
		C282.5,151.8,283.5,151.2,283.8,151.6z"/>
	<path class="st6" d="M279.2,149.7c0.4,0.1,0.5,1.1,0.1,2s-0.9,1.7-1.4,1.5c-0.4-0.1-0.5-1.1-0.1-2
		C278.2,150.3,278.8,149.6,279.2,149.7z"/>
	<path class="st6" d="M279.4,157.2c0.2,0.4-0.1,1-0.7,1.6c-0.6,0.6-1.2,1-1.6,0.7s-0.2-1.1,0.5-1.8
		C278.3,157,279.2,156.8,279.4,157.2z"/>
	<path class="st6" d="M277.7,156.1c-0.4,0.2-0.9-0.2-0.9-0.8s0.5-1,0.9-0.9c0.4,0.1,0.6,0.4,0.7,0.8
		C278.3,155.7,278,156,277.7,156.1z"/>
	<path class="st6" d="M286.3,155.1c0.1,0.4-0.7,0.9-1.6,1c-1,0.1-1.8-0.1-1.8-0.5s0.7-0.9,1.6-1
		C285.4,154.5,286.2,154.7,286.3,155.1z"/>
	<path class="st6" d="M283,147.8c0.4,0.2,0.1,1.1-0.4,1.9s-1.4,1.3-1.7,1.1c-0.4-0.2-0.1-1.1,0.4-1.9S282.7,147.5,283,147.8z"/>
	<path class="st6" d="M285.9,169.8c-0.3,0.3-1.2-0.2-1.8-1.3s-0.4-2.1,0-2.2s0.9,0.6,1.4,1.5S286.2,169.4,285.9,169.8z"/>
	<path class="st6" d="M277,171.3c-0.4,0-0.8-0.6-0.8-1.5c0.1-0.9,0.6-1.4,1-1.3s0.6,0.8,0.6,1.5S277.4,171.2,277,171.3z"/>
	<path class="st6" d="M282.8,171.2c-0.1,0.4-0.9,0.5-1.8,0.3s-1.4-0.8-1.3-1.2s0.9-0.5,1.8-0.3S282.9,170.8,282.8,171.2z"/>
	<path class="st6" d="M290.2,169.1c-0.3,0.3-1.1-0.1-1.8-0.8c-0.7-0.8-1-1.6-0.6-1.9c0.3-0.3,1.1,0.1,1.8,0.8
		C290.2,168,290.5,168.9,290.2,169.1z"/>
	<path class="st6" d="M291.9,157.4c0,0.4-0.9,0.8-2.1,0.9c-1.2,0.1-2.2-0.2-2.2-0.7s0.9-0.8,2.1-0.9
		C290.9,156.6,291.9,156.9,291.9,157.4z"/>
	<path class="st6" d="M289.6,149.8c0.2,0.4-0.4,1.1-1.4,1.7c-1,0.5-1.9,0.7-2.1,0.3s0.4-1.1,1.4-1.7
		C288.4,149.5,289.4,149.4,289.6,149.8z"/>
	<path class="st6" d="M280.9,145.8c0.4,0.4,0.4,1.2,0,1.6c-0.3,0.2-0.6,0.4-1,0.3c-0.4-0.3-0.5-0.9-0.2-1.3
		C280,145.9,280.6,145.6,280.9,145.8z"/>
	<path class="st6" d="M288,145.6c0.3,0.3,0,1.1-0.7,1.9s-1.5,1.1-1.8,0.8s0-1.1,0.7-1.9C286.9,145.7,287.7,145.4,288,145.6z"/>
	<path class="st6" d="M292.4,153.4c0.1,0.4-0.6,0.9-1.6,1.1s-1.8,0-1.9-0.4c-0.1-0.4,0.6-0.9,1.6-1.1S292.3,153,292.4,153.4z"/>
	<path class="st6" d="M293,163.8c-0.2,0.4-1.2,0.1-2.1-0.4s-1.6-1.2-1.4-1.6s1.2-0.3,2.2,0.2C292.7,162.6,293.2,163.4,293,163.8z"/>
	<path class="st6" d="M318.8,171.1c-0.1,0.4-1.2,0.4-2.4,0.1s-2.1-1-2-1.4s1.2-0.4,2.4-0.1S318.9,170.7,318.8,171.1z"/>
	<path class="st6" d="M319.1,175.3c-0.3,0.3-1,0.1-1.7-0.5s-1-1.3-0.7-1.6c0.3-0.3,1.1-0.1,1.7,0.5S319.4,174.9,319.1,175.3z"/>
	<path class="st6" d="M319.8,165.8c0.1,0.4-0.8,1.2-2,1.7c-1.2,0.5-2.5,0.6-2.6,0.2s0.7-1.1,2.1-1.7
		C318.5,165.5,319.7,165.4,319.8,165.8z"/>
	<path class="st6" d="M321.5,168.6c0,0.4-0.6,0.8-1.4,0.8s-1.4-0.3-1.4-0.8c0-0.4,0.6-0.8,1.4-0.8S321.5,168.1,321.5,168.6z"/>
	<path class="st6" d="M323.5,174.1c-0.4,0.2-1-0.3-1.6-0.8s-1.2-0.9-1.2-1.3c0-0.2,0.3-0.4,0.7-0.4c0.5,0,1,0.2,1.4,0.5
		c0.4,0.3,0.7,0.7,0.9,1.2C323.8,173.7,323.7,174,323.5,174.1z"/>
	<path class="st6" d="M323.5,178.2c-0.3,0.3-1.1-0.2-1.8-1s-0.9-1.7-0.5-1.9s1.1,0.2,1.8,1S323.9,177.9,323.5,178.2z"/>
	<path class="st6" d="M307.8,166.3c0.2-0.4,1.4-0.1,2.7,0.6c1.3,0.7,2.1,1.6,1.9,2c-0.2,0.4-1.4,0.1-2.7-0.6
		C308.4,167.6,307.5,166.7,307.8,166.3z"/>
	<path class="st6" d="M312.8,160.1c0.4,0,0.8,1.2,0.9,2.7c0.1,1.5-0.2,2.8-0.6,2.8s-0.8-1.2-0.9-2.7
		C312.1,161.3,312.4,160.1,312.8,160.1z"/>
	<path class="st6" d="M319.2,161.2c0.3,0.3-0.3,1.2-1.2,2s-1.9,1.1-2.2,0.7c-0.3-0.3,0.3-1.2,1.2-1.9S319,160.8,319.2,161.2z"/>
	<path class="st6" d="M325.5,162.5c0.1,0.4-0.8,1-2,1.3s-2.3,0.2-2.4-0.2s0.8-1,2-1.3S325.4,162.1,325.5,162.5z"/>
	<path class="st6" d="M327.3,167.6c-0.1,0.4-1.1,0.5-2.1,0.2s-1.8-0.9-1.7-1.3s1.1-0.5,2.1-0.2S327.4,167.2,327.3,167.6z"/>
	<path class="st6" d="M331.4,163.6c0.1,0.4-0.6,0.9-1.5,1s-1.6-0.1-1.7-0.5s0.6-0.9,1.5-1S331.3,163.1,331.4,163.6z"/>
	<path class="st6" d="M329,169.4c0.2,0.4-0.3,1-1.2,1.2s-1.6-0.1-1.6-0.6s0.5-0.8,1.2-1S328.8,169,329,169.4z"/>
	<path class="st6" d="M331.1,168.7c-0.4,0.1-0.9-0.4-1-1.1s0.5-1.3,0.9-1.2s0.7,0.6,0.7,1.2C331.8,167.9,331.5,168.4,331.1,168.7z"
		/>
	<path class="st6" d="M328.3,157.5c0.4,0.1,0.6,1,0.4,2.1s-0.7,1.9-1.1,1.8s-0.6-1-0.4-2.1S327.9,157.4,328.3,157.5z"/>
	<path class="st6" d="M332.1,160.6c-0.4,0-0.7-0.7-0.6-1.4s0.5-1.3,0.9-1.3s0.7,0.7,0.6,1.4S332.5,160.6,332.1,160.6z"/>
	<path class="st6" d="M334.7,164.7c-0.4,0-0.9-0.6-1-1.5s0.2-1.6,0.6-1.6s0.9,0.6,1,1.5S335.2,164.7,334.7,164.7z"/>
	<path class="st6" d="M277.3,166.9c-0.4,0-0.8-1.4-0.8-3.1s0.5-3,1-3s0.6,1.4,0.6,3.1S277.8,166.9,277.3,166.9z"/>
	<path class="st6" d="M282.3,164.4c-0.4,0.2-1.3-0.6-2.1-1.8c-0.8-1.2-1.1-2.4-0.8-2.6c0.4-0.2,1.3,0.6,2.1,1.8
		C282.3,163,282.7,164.2,282.3,164.4z"/>
	<path class="st6" d="M315.1,176.1c-0.4,0.2-1.3-0.7-2.1-2.1s-1.1-2.7-0.7-2.9c0.4-0.2,1.3,0.7,2.1,2.1
		C315.1,174.5,315.5,175.8,315.1,176.1z"/>
	<g class="st10">
		<path class="st3" d="M293.4,173.1c0.4-0.1,0.9,0.5,1.1,1.3s0.2,1.5-0.2,1.6s-1-0.3-1.3-1.2C292.8,173.9,293,173.2,293.4,173.1z"/>
		<path class="st3" d="M294.9,154.1c0.4,0.1,0.7,1.4,0.5,3.1c-0.1,1.6-0.6,3-1,3s-0.7-1.4-0.5-3.1
			C294,155.4,294.5,154.1,294.9,154.1z"/>
		<path class="st3" d="M292.1,167.6c-0.4-0.1-0.7-0.4-0.6-0.8c0-0.1,0-0.2,0.1-0.3c0.1-0.4,0.5-0.6,0.9-0.4c0.1,0,0.2,0.1,0.2,0.1
			c0.4,0.2,0.4,0.7,0.2,1.1C292.8,167.6,292.4,167.7,292.1,167.6z"/>
		<path class="st3" d="M304.4,155.7c0.4,0.1,0.6,0.9,0.4,1.8s-0.7,1.6-1.1,1.5c-0.4-0.1-0.6-0.9-0.5-1.8
			C303.5,156.3,304,155.6,304.4,155.7z"/>
		<path class="st3" d="M317.8,157.2c0.1,0.4-0.6,0.9-1.6,0.8c-1-0.1-1.6-0.6-1.5-1.1c0.1-0.4,0.8-0.6,1.6-0.5
			S317.7,156.7,317.8,157.2z"/>
		<path class="st3" d="M320.1,155.1c-0.3,0.3-1.2,0.1-2.1-0.6s-1.4-1.5-1.2-1.9c0.3-0.3,1.2-0.1,2.1,0.6S320.4,154.8,320.1,155.1z"
			/>
		<path class="st3" d="M322.4,153.6c-0.4,0-0.8-1.1-0.4-2.3s1.2-2,1.5-1.8s0.2,1.1,0,2.2S322.8,153.6,322.4,153.6z"/>
		<path class="st3" d="M327.3,152.5c0.3,0.3,0,1.1-0.7,1.9s-1.5,1.1-1.8,0.9s0-1.1,0.7-1.9S327,152.2,327.3,152.5z"/>
		<path class="st3" d="M325,158.8c-0.1,0.4-1,0.6-2.1,0.4s-1.9-0.7-1.8-1.1s1-0.6,2.1-0.4S325.1,158.4,325,158.8z"/>
		<path class="st3" d="M312.6,157.8c-0.1,0.4-0.9,0.6-1.9,0.4c-0.9-0.2-1.6-0.7-1.5-1.1s0.9-0.6,1.9-0.4
			C312,156.9,312.7,157.4,312.6,157.8z"/>
		<path class="st3" d="M314.4,153.8c-0.2,0.4-1,0.3-1.8-0.1c-0.8-0.4-1.2-1.1-1-1.5c0.2-0.4,1-0.3,1.8,0.1
			C314.2,152.8,314.6,153.4,314.4,153.8z"/>
		<path class="st3" d="M320,150.8c-0.4,0.2-1.1-0.4-1.3-1.4c-0.2-1,0.1-1.9,0.6-1.9c0.4,0,0.8,0.7,0.9,1.5S320.4,150.6,320,150.8z"
			/>
		<path class="st3" d="M326.8,148.7c0.6,0.1,1,0.7,0.8,1.3s-0.7,1-1.3,0.8c-0.6-0.1-1-0.7-0.8-1.3c0-0.1,0.1-0.2,0.1-0.3
			C325.8,148.8,326.3,148.5,326.8,148.7z"/>
		<path class="st3" d="M330.7,154.6c0.1,0.4-0.2,0.9-0.8,1c-0.5,0.2-1,0-1.2-0.5c-0.1-0.4,0.3-0.9,0.8-1
			C330,154,330.5,154.2,330.7,154.6z"/>
		<path class="st3" d="M312.4,146.9c0.2-0.4,1.3-0.1,2.2,0.9s1.1,2.1,0.7,2.3s-1.1-0.4-1.8-1.2C312.7,148,312.1,147.2,312.4,146.9z"
			/>
		<path class="st3" d="M322.2,144.8c0.4,0,0.8,0.5,0.8,1.2s-0.4,1.2-0.8,1.2s-0.8-0.5-0.8-1.2S321.8,144.8,322.2,144.8z"/>
		<path class="st3" d="M305.5,153c0.1-0.4,1.1-0.4,2.2-0.1c1.1,0.4,1.8,1,1.7,1.4c-0.1,0.4-1.1,0.4-2.2,0.1
			C306.2,154,305.4,153.4,305.5,153z"/>
		<path class="st3" d="M310,149.5c-0.3,0.3-0.9,0.2-1.4-0.3s-0.6-1.1-0.3-1.4c0.3-0.3,0.9-0.2,1.4,0.3
			C310.1,148.5,310.3,149.2,310,149.5z"/>
		<path class="st3" d="M317,143.1c0.4,0,0.8,0.6,0.9,1.4s-0.2,1.5-0.7,1.5s-0.8-0.6-0.9-1.4S316.5,143.2,317,143.1z"/>
		<path class="st3" d="M298.5,152.5c0.4,0.1,0.4,1.1,0,2s-1,1.6-1.4,1.5s-0.4-1.1,0-2S298,152.4,298.5,152.5z"/>
		<path class="st3" d="M301.3,152.2c0.4-0.1,0.9,0.6,1.1,1.6s0,1.8-0.4,1.9s-0.9-0.6-1.1-1.6S300.9,152.3,301.3,152.2z"/>
		<path class="st3" d="M307.3,150.8c0,0.4-0.9,0.7-1.9,0.7s-1.8-0.4-1.8-0.9s0.8-0.7,1.8-0.7S307.4,150.3,307.3,150.8z"/>
		<path class="st3" d="M296,150.3c0.1,0.4-0.5,0.9-1.3,1.1c-0.8,0.2-1.5,0-1.6-0.4c-0.1-0.4,0.5-0.9,1.3-1.1S295.9,149.9,296,150.3z
			"/>
		<path class="st3" d="M301.3,148.7c0.1,0.4-0.3,0.9-0.9,1.2s-1.3,0.1-1.5-0.3c-0.1-0.4,0.3-0.9,0.9-1.2
			C300.5,148.2,301.1,148.3,301.3,148.7z"/>
		<path class="st3" d="M296.5,147.3c0,0.4-1.1,0.9-2.6,0.8s-2.6-0.8-2.5-1.2s1.3-0.5,2.6-0.4C295.4,146.6,296.5,146.9,296.5,147.3z"
			/>
		<path class="st3" d="M299.1,145.3c-0.2,0.4-1.4,0.2-2.7-0.3c-1.3-0.6-2.3-1.4-2.1-1.8s1.4-0.2,2.7,0.3
			C298.3,144.1,299.3,144.9,299.1,145.3z"/>
		<path class="st3" d="M313.5,143.3c0.2,0.4-0.3,1-0.9,1.4c-0.7,0.4-1.4,0.6-1.7,0.3c-0.3-0.3,0-1.1,0.8-1.6
			S313.3,142.9,313.5,143.3z"/>
		<path class="st3" d="M291.3,144.2c-0.2,0.4-0.8,0.5-1.4,0.3c-0.6-0.2-1-0.8-0.9-1.2s0.8-0.5,1.4-0.3S291.5,143.8,291.3,144.2z"/>
		<path class="st3" d="M312.8,187.9c0,0.4-1,0.8-2.3,0.9c-1.3,0.1-2.3-0.3-2.4-0.7s1-0.8,2.3-0.9
			C311.8,187.2,312.8,187.5,312.8,187.9z"/>
		<path class="st3" d="M315.2,185.2c-0.3,0.3-1.1,0-1.8-0.7c-0.7-0.7-1-1.5-0.6-1.8s1.1,0,1.8,0.7
			C315.2,184.1,315.5,184.9,315.2,185.2z"/>
		<path class="st3" d="M317.5,183.8c-0.4,0.1-0.9-0.8-0.9-1.9s0.7-1.9,1.1-1.8s0.5,1,0.4,1.9S317.9,183.7,317.5,183.8z"/>
		<path class="st3" d="M319.3,185.8c0.3,0.3,0.1,1-0.4,1.5s-1.1,0.8-1.5,0.6c-0.3-0.3-0.2-1,0.4-1.6S319,185.5,319.3,185.8z"/>
		<path class="st3" d="M318.4,192.5c-0.4,0-0.8-0.7-0.6-1.4c0.1-0.8,0.7-1.3,1.1-1.1s0.6,0.8,0.5,1.4S318.8,192.5,318.4,192.5z"/>
		<path class="st3" d="M314.6,190c0.3,0.2,0.4,0.5,0.3,0.9c-0.2,0.3-0.5,0.4-0.9,0.3c0,0,0,0,0,0c-0.4-0.1-0.6-0.4-0.5-0.8
			c0.1-0.4,0.4-0.6,0.8-0.5C314.3,189.8,314.5,189.9,314.6,190z"/>
		<path class="st3" d="M321,178.4c0.4,0.1,0.4,1.1-0.1,2.1s-1.4,1.5-1.7,1.2c-0.3-0.3-0.1-1.1,0.4-2
			C320,178.8,320.7,178.3,321,178.4z"/>
		<path class="st3" d="M317.9,178c0,0.4-0.8,0.8-1.9,0.9c-1.1,0.1-1.9-0.2-2-0.7c0-0.4,0.8-0.8,1.9-0.9S317.8,177.6,317.9,178z"/>
		<path class="st3" d="M310.9,185c-0.3,0.3-0.9,0.1-1.3-0.4s-0.5-1.1-0.1-1.4s0.9-0.1,1.3,0.4C311.2,184.1,311.2,184.7,310.9,185z"
			/>
		<path class="st3" d="M304.5,188.3c-0.3,0.3-1.3-0.2-1.9-1.3s-0.6-2.2-0.2-2.3s1,0.6,1.5,1.5C304.5,187.1,304.9,188,304.5,188.3z"
			/>
		<path class="st3" d="M301.2,188.2c-0.1,0.4-0.7,0.6-1.4,0.4s-1.1-0.6-1-1.1s0.7-0.6,1.4-0.4C300.9,187.4,301.4,187.8,301.2,188.2z
			"/>
		<path class="st3" d="M279.3,211.7c-0.4-0.1-0.6-1.1-0.5-2.3c0.2-1.2,0.7-2.1,1.1-2s0.6,1.1,0.5,2.3
			C280.2,210.9,279.7,211.7,279.3,211.7z"/>
		<path class="st3" d="M285.2,211c-0.4,0.2-1.2-0.7-1.8-2s-0.8-2.5-0.4-2.7c0.4-0.2,1.2,0.7,1.8,2S285.6,210.8,285.2,211z"/>
		<path class="st3" d="M290.4,207.4c-0.3,0.3-1.4-0.2-2.5-1s-2-1.7-1.8-2.1s1.4-0.1,2.7,0.8S290.7,207,290.4,207.4z"/>
		<path class="st3" d="M282.4,201.3c0.4,0.2,0.5,0.9,0.1,1.8s-0.9,1.3-1.3,1.2c-0.4-0.2-0.5-0.9-0.1-1.7
			C281.5,201.6,282,201.1,282.4,201.3z"/>
		<path class="st3" d="M290.6,211.9c-0.3,0.3-1.1-0.1-1.6-0.9s-0.7-1.5-0.4-1.8s1.1,0.1,1.6,0.9S290.9,211.7,290.6,211.9z"/>
		<path class="st3" d="M282,213.5c-0.4,0.1-0.9-0.4-1-1.1s0.2-1.3,0.6-1.3s0.9,0.4,1,1.1S282.4,213.5,282,213.5z"/>
		<path class="st3" d="M298.6,205.6c-0.1,0.4-1.5,0.5-3.1,0.2s-2.8-1-2.8-1.4c0.1-0.4,1.4-0.5,3.1-0.2
			C297.4,204.6,298.7,205.2,298.6,205.6z"/>
		<path class="st3" d="M297.6,211.8c-0.3,0.3-1.4-0.1-2.5-1.1c-1.1-0.9-1.8-1.9-1.5-2.3s1.4,0.1,2.5,1.1
			C297.2,210.4,297.9,211.4,297.6,211.8z"/>
		<path class="st3" d="M303.2,210.1c-0.1,0.4-1.1,0.5-2.1,0.2s-1.8-0.9-1.6-1.3s1.1-0.5,2.1-0.2S303.3,209.6,303.2,210.1z"/>
		<path class="st3" d="M307.7,211.1c0,0.4-0.6,0.8-1.3,1.2s-1.4,0.5-1.7,0.2s0.1-1.2,1.1-1.6C306.7,210.4,307.7,210.7,307.7,211.1z"
			/>
		<path class="st3" d="M306.2,207.3c-0.2,0.4-1,0.3-1.8-0.1s-1.3-1.1-1.1-1.5s1-0.3,1.8,0.1S306.5,207,306.2,207.3z"/>
		<path class="st3" d="M310.8,206.9c0.1,0.5,0,1-0.3,1.3c-0.3,0.4-0.7,0.8-1.1,0.8s-0.7-0.9-0.1-1.6S310.6,206.5,310.8,206.9z"/>
		<path class="st3" d="M315.5,210.4c0,0.4-0.8,0.8-1.8,0.8s-1.9-0.3-1.9-0.7c0-0.4,0.8-0.8,1.8-0.8S315.5,209.9,315.5,210.4z"/>
		<path class="st3" d="M316.1,207.9c-0.2,0.4-1,0.4-1.8,0.1s-1.4-1-1.2-1.4c0.2-0.4,1-0.4,1.8-0.1S316.3,207.5,316.1,207.9z"/>
		<path class="st3" d="M319.3,209.1c-0.4-0.1-0.7-0.7-0.4-1.4s0.9-1,1.2-0.8c0.4,0.3,0.4,0.9,0.2,1.3
			C320.1,208.8,319.7,209.1,319.3,209.1z"/>
		<path class="st3" d="M294,168.3c0.4-0.2,1.1,0.3,1.8,1.3c0.6,0.9,0.8,1.9,0.5,2.1c-0.4,0.2-1.1-0.3-1.8-1.3
			C293.9,169.5,293.7,168.6,294,168.3z"/>
		<path class="st3" d="M300.6,166.9c0.4,0.2,0.1,1.4-0.7,2.5s-1.6,1.9-2,1.7c-0.4-0.2-0.1-1.4,0.7-2.5S300.2,166.7,300.6,166.9z"/>
		<path class="st3" d="M304.2,171.3c0.2,0.4-0.6,1.1-1.6,1.4s-2,0.4-2.2,0s0.6-1.1,1.6-1.4C303.1,170.9,304.1,170.9,304.2,171.3z"/>
		<path class="st3" d="M303.2,178.3c-0.3,0.4-1.2,0.1-2-0.7c-0.8-0.8-1.2-1.7-0.8-2c0.3-0.3,1.1,0.1,1.9,0.8
			C303.1,177.1,303.5,178,303.2,178.3z"/>
		<path class="st3" d="M297.5,181.1c-0.4,0.1-1-1-0.9-2.4s0.8-2.5,1.2-2.3c0.4,0.1,0.4,1.2,0.3,2.4S297.9,181,297.5,181.1z"/>
		<path class="st3" d="M299.3,174.3c-0.1,0.4-0.8,0.6-1.5,0.4s-1.2-0.7-1.1-1.1s0.8-0.6,1.5-0.4S299.4,173.9,299.3,174.3z"/>
		<path class="st3" d="M305.3,166.3c0.4,0.2,0,1.3-1,2.2s-2.1,1.1-2.3,0.8s0.4-1.2,1.3-1.9C304.1,166.6,304.9,166.1,305.3,166.3z"/>
		<path class="st3" d="M296.6,163.7c0.4-0.1,0.9,0.7,1,1.7s-0.4,1.9-0.8,1.8c-0.4-0.1-0.7-0.8-0.7-1.7
			C296,164.6,296.1,163.8,296.6,163.7z"/>
		<path class="st3" d="M302.3,160.9c0.4,0.1,0.5,1.1,0.1,2.1s-1.2,1.7-1.6,1.5s-0.3-1.1,0.1-2.1S301.9,160.8,302.3,160.9z"/>
		<path class="st3" d="M309.5,170.5c0,0.4-0.6,0.8-1.4,0.9c-0.8,0.1-1.5-0.2-1.5-0.6c-0.1-0.4,0.6-0.8,1.4-0.9
			S309.5,170.1,309.5,170.5z"/>
		<path class="st3" d="M307.3,176.1c-0.1,0.4-1,0.5-2,0.2s-1.6-0.9-1.5-1.3s1-0.5,2-0.2S307.5,175.7,307.3,176.1z"/>
		<path class="st3" d="M301.3,182.4c-0.4,0.2-1.1-0.4-1.4-1.3c-0.3-1,0-1.8,0.4-1.8s0.8,0.6,1.1,1.4S301.7,182.2,301.3,182.4z"/>
		<path class="st3" d="M297.3,186.2c-0.4,0-0.8-0.6-0.9-1.3s0.3-1.4,0.7-1.4s0.8,0.6,0.9,1.3C298,185.5,297.7,186.1,297.3,186.2z"/>
		<path class="st3" d="M307.2,184.2c-0.4,0.2-1.1-0.5-1.7-1.4s-0.9-1.8-0.6-2.1s1.2,0.2,1.9,1.2C307.5,183,307.6,184.1,307.2,184.2z
			"/>
		<path class="st3" d="M311.7,180.6c-0.2,0.4-1.2,0.2-2.3-0.2s-1.9-1-1.8-1.4c0.1-0.4,1.2-0.5,2.4,0
			C311.2,179.4,312,180.2,311.7,180.6z"/>
		<path class="st3" d="M312.1,176c-0.4,0.2-1,0.2-1.4-0.1c-0.5-0.3-0.9-0.6-0.9-1.1c0-0.4,0.8-0.7,1.6-0.3
			C312.2,174.9,312.4,175.8,312.1,176z"/>
		<path class="st3" d="M299.1,157.2c0.4,0.1,0.6,1.1,0.5,2.2c-0.1,1.2-0.5,2.1-0.9,2.1s-0.8-1-0.6-2.2S298.7,157.1,299.1,157.2z"/>
		<path class="st3" d="M308.1,160.6c0.3,0.3,0,1.2-0.8,2c-0.8,0.8-1.6,1.3-1.9,1c-0.3-0.3,0-1.2,0.8-2
			C306.9,160.8,307.8,160.3,308.1,160.6z"/>
		<path class="st3" d="M309.4,162.7c0.3-0.2,0.7-0.2,1,0.1c0.2,0.3,0.1,0.8-0.2,1c-0.3,0.2-0.7,0.2-1-0.1
			C309,163.3,309.1,162.9,309.4,162.7C309.4,162.7,309.4,162.7,309.4,162.7L309.4,162.7z"/>
		<path class="st3" d="M285.5,159.7c-0.1,0.4-1.2,0.4-2.4-0.1c-1.2-0.5-1.9-1.4-1.7-1.7s1.2-0.2,2.3,0.3S285.6,159.3,285.5,159.7z"
			/>
		<path class="st3" d="M280.6,168.2c-0.4,0.2-1-0.4-1.2-1.4s0-1.8,0.4-1.8s0.9,0.6,1.1,1.4C281.1,167.2,281,168,280.6,168.2z"/>
		<path class="st3" d="M286.8,164.4c-0.3,0.3-1.1-0.1-1.8-0.8s-0.9-1.6-0.6-1.9c0.3-0.3,1.1,0.1,1.8,0.8S287.1,164.2,286.8,164.4z"
			/>
		<path class="st3" d="M283.8,151.6c0.3,0.3-0.2,1.4-1.2,2.4c-1,1-2.1,1.6-2.4,1.3c-0.3-0.3,0.2-1.4,1.2-2.4
			C282.5,151.8,283.5,151.2,283.8,151.6z"/>
		<path class="st3" d="M279.2,149.7c0.4,0.1,0.5,1.1,0.1,2s-0.9,1.7-1.4,1.5c-0.4-0.1-0.5-1.1-0.1-2
			C278.2,150.3,278.8,149.6,279.2,149.7z"/>
		<path class="st3" d="M279.4,157.2c0.2,0.4-0.1,1-0.7,1.6c-0.6,0.6-1.2,1-1.6,0.7s-0.2-1.1,0.5-1.8
			C278.3,157,279.2,156.8,279.4,157.2z"/>
		<path class="st3" d="M277.7,156.1c-0.4,0.2-0.9-0.2-0.9-0.8s0.5-1,0.9-0.9c0.4,0.1,0.6,0.4,0.7,0.8
			C278.3,155.7,278,156,277.7,156.1z"/>
		<path class="st3" d="M286.3,155.1c0.1,0.4-0.7,0.9-1.6,1c-1,0.1-1.8-0.1-1.8-0.5s0.7-0.9,1.6-1
			C285.4,154.5,286.2,154.7,286.3,155.1z"/>
		<path class="st3" d="M283,147.8c0.4,0.2,0.1,1.1-0.4,1.9s-1.4,1.3-1.7,1.1c-0.4-0.2-0.1-1.1,0.4-1.9S282.7,147.5,283,147.8z"/>
		<path class="st3" d="M285.9,169.8c-0.3,0.3-1.2-0.2-1.8-1.3s-0.4-2.1,0-2.2s0.9,0.6,1.4,1.5S286.2,169.4,285.9,169.8z"/>
		<path class="st3" d="M277,171.3c-0.4,0-0.8-0.6-0.8-1.5c0.1-0.9,0.6-1.4,1-1.3s0.6,0.8,0.6,1.5S277.4,171.2,277,171.3z"/>
		<path class="st3" d="M282.8,171.2c-0.1,0.4-0.9,0.5-1.8,0.3s-1.4-0.8-1.3-1.2s0.9-0.5,1.8-0.3S282.9,170.8,282.8,171.2z"/>
		<path class="st3" d="M290.2,169.1c-0.3,0.3-1.1-0.1-1.8-0.8c-0.7-0.8-1-1.6-0.6-1.9c0.3-0.3,1.1,0.1,1.8,0.8
			C290.2,168,290.5,168.9,290.2,169.1z"/>
		<path class="st3" d="M291.9,157.4c0,0.4-0.9,0.8-2.1,0.9c-1.2,0.1-2.2-0.2-2.2-0.7s0.9-0.8,2.1-0.9
			C290.9,156.6,291.9,156.9,291.9,157.4z"/>
		<path class="st3" d="M289.6,149.8c0.2,0.4-0.4,1.1-1.4,1.7c-1,0.5-1.9,0.7-2.1,0.3s0.4-1.1,1.4-1.7
			C288.4,149.5,289.4,149.4,289.6,149.8z"/>
		<path class="st3" d="M280.9,145.8c0.4,0.4,0.4,1.2,0,1.6c-0.3,0.2-0.6,0.4-1,0.3c-0.4-0.3-0.5-0.9-0.2-1.3
			C280,145.9,280.6,145.6,280.9,145.8z"/>
		<path class="st3" d="M288,145.6c0.3,0.3,0,1.1-0.7,1.9s-1.5,1.1-1.8,0.8s0-1.1,0.7-1.9C286.9,145.7,287.7,145.4,288,145.6z"/>
		<path class="st3" d="M292.4,153.4c0.1,0.4-0.6,0.9-1.6,1.1s-1.8,0-1.9-0.4c-0.1-0.4,0.6-0.9,1.6-1.1S292.3,153,292.4,153.4z"/>
		<path class="st3" d="M293,163.8c-0.2,0.4-1.2,0.1-2.1-0.4s-1.6-1.2-1.4-1.6s1.2-0.3,2.2,0.2C292.7,162.6,293.2,163.4,293,163.8z"
			/>
		<path class="st3" d="M318.8,171.1c-0.1,0.4-1.2,0.4-2.4,0.1s-2.1-1-2-1.4s1.2-0.4,2.4-0.1S318.9,170.7,318.8,171.1z"/>
		<path class="st3" d="M319.1,175.3c-0.3,0.3-1,0.1-1.7-0.5s-1-1.3-0.7-1.6c0.3-0.3,1.1-0.1,1.7,0.5S319.4,174.9,319.1,175.3z"/>
		<path class="st3" d="M319.8,165.8c0.1,0.4-0.8,1.2-2,1.7c-1.2,0.5-2.5,0.6-2.6,0.2s0.7-1.1,2.1-1.7
			C318.5,165.5,319.7,165.4,319.8,165.8z"/>
		<path class="st3" d="M321.5,168.6c0,0.4-0.6,0.8-1.4,0.8s-1.4-0.3-1.4-0.8c0-0.4,0.6-0.8,1.4-0.8S321.5,168.1,321.5,168.6z"/>
		<path class="st3" d="M323.5,174.1c-0.4,0.2-1-0.3-1.6-0.8s-1.2-0.9-1.2-1.3c0-0.2,0.3-0.4,0.7-0.4c0.5,0,1,0.2,1.4,0.5
			c0.4,0.3,0.7,0.7,0.9,1.2C323.8,173.7,323.7,174,323.5,174.1z"/>
		<path class="st3" d="M323.5,178.2c-0.3,0.3-1.1-0.2-1.8-1s-0.9-1.7-0.5-1.9s1.1,0.2,1.8,1S323.9,177.9,323.5,178.2z"/>
		<path class="st3" d="M307.8,166.3c0.2-0.4,1.4-0.1,2.7,0.6c1.3,0.7,2.1,1.6,1.9,2c-0.2,0.4-1.4,0.1-2.7-0.6
			C308.4,167.6,307.5,166.7,307.8,166.3z"/>
		<path class="st3" d="M312.8,160.1c0.4,0,0.8,1.2,0.9,2.7c0.1,1.5-0.2,2.8-0.6,2.8s-0.8-1.2-0.9-2.7
			C312.1,161.3,312.4,160.1,312.8,160.1z"/>
		<path class="st3" d="M319.2,161.2c0.3,0.3-0.3,1.2-1.2,2s-1.9,1.1-2.2,0.7c-0.3-0.3,0.3-1.2,1.2-1.9S319,160.8,319.2,161.2z"/>
		<path class="st3" d="M325.5,162.5c0.1,0.4-0.8,1-2,1.3s-2.3,0.2-2.4-0.2s0.8-1,2-1.3S325.4,162.1,325.5,162.5z"/>
		<path class="st3" d="M327.3,167.6c-0.1,0.4-1.1,0.5-2.1,0.2s-1.8-0.9-1.7-1.3s1.1-0.5,2.1-0.2S327.4,167.2,327.3,167.6z"/>
		<path class="st3" d="M331.4,163.6c0.1,0.4-0.6,0.9-1.5,1s-1.6-0.1-1.7-0.5s0.6-0.9,1.5-1S331.3,163.1,331.4,163.6z"/>
		<path class="st3" d="M329,169.4c0.2,0.4-0.3,1-1.2,1.2s-1.6-0.1-1.6-0.6s0.5-0.8,1.2-1S328.8,169,329,169.4z"/>
		<path class="st3" d="M331.1,168.7c-0.4,0.1-0.9-0.4-1-1.1s0.5-1.3,0.9-1.2s0.7,0.6,0.7,1.2C331.8,167.9,331.5,168.4,331.1,168.7z"
			/>
		<path class="st3" d="M328.3,157.5c0.4,0.1,0.6,1,0.4,2.1s-0.7,1.9-1.1,1.8s-0.6-1-0.4-2.1S327.9,157.4,328.3,157.5z"/>
		<path class="st3" d="M332.1,160.6c-0.4,0-0.7-0.7-0.6-1.4s0.5-1.3,0.9-1.3s0.7,0.7,0.6,1.4S332.5,160.6,332.1,160.6z"/>
		<path class="st3" d="M334.7,164.7c-0.4,0-0.9-0.6-1-1.5s0.2-1.6,0.6-1.6s0.9,0.6,1,1.5S335.2,164.7,334.7,164.7z"/>
		<path class="st3" d="M277.3,166.9c-0.4,0-0.8-1.4-0.8-3.1s0.5-3,1-3s0.6,1.4,0.6,3.1S277.8,166.9,277.3,166.9z"/>
		<path class="st3" d="M282.3,164.4c-0.4,0.2-1.3-0.6-2.1-1.8c-0.8-1.2-1.1-2.4-0.8-2.6c0.4-0.2,1.3,0.6,2.1,1.8
			C282.3,163,282.7,164.2,282.3,164.4z"/>
		<path class="st3" d="M315.1,176.1c-0.4,0.2-1.3-0.7-2.1-2.1s-1.1-2.7-0.7-2.9c0.4-0.2,1.3,0.7,2.1,2.1
			C315.1,174.5,315.5,175.8,315.1,176.1z"/>
	</g>
	<path class="st4" d="M292.1,154.6c0.1,0,0.2,3.8,0.3,8.5s0,8.4,0,8.4s-0.2-3.8-0.3-8.4S292,154.6,292.1,154.6z"/>
	<path class="st4" d="M293.3,157.7c-0.1,0.5-0.2,1-0.4,1.5c-0.1,0.5-0.3,1-0.5,1.5c-0.1-0.5,0-1.1,0.2-1.6
		C292.8,158.2,293.2,157.6,293.3,157.7z"/>
	<path class="st4" d="M311.4,140.8c0,0.1,0.1,0.2,0.1,0.3c0.1,0.3,0.1,0.5,0.1,0.8c0.1,1,0,1.9-0.3,2.8c-0.4,1.4-1.2,2.6-2.3,3.5
		c-2.8,2.3-6.9,2.2-9.6-0.2c-1-1-1.8-2.3-2.1-3.6c-0.2-0.9-0.3-1.9-0.1-2.9c0-0.3,0.1-0.5,0.2-0.8c0.1-0.2,0.1-0.3,0.1-0.2
		c-0.3,1.3-0.2,2.6,0.1,3.8c0.4,1.3,1.1,2.5,2.1,3.5c2.6,2.3,6.5,2.4,9.3,0.2c1.1-0.9,1.8-2.1,2.3-3.4
		C311.5,143.3,311.6,142,311.4,140.8z"/>
	<path class="st4" d="M320,160.7c0.3,0.4,0.5,0.8,0.7,1.2l1.5,3l1.5,3c0.2,0.4,0.4,0.8,0.6,1.3c-0.3-0.4-0.6-0.7-0.8-1.1
		c-0.4-0.7-1-1.8-1.6-2.9s-1.1-2.2-1.4-3C320.2,161.6,320.1,161.2,320,160.7z"/>
	<path class="st6" d="M351.7,372.5l-1.6-9l-17,2.9l2.2,13.3l1.1-0.1c4.7-0.5,24-3.1,27-4.6C366.7,373.2,351.7,372.5,351.7,372.5z"/>
	<path class="st6" d="M341.5,378.4c-0.5-1.4-1.5-2.5-2.8-3.2c-1.3-0.7-2.8-0.9-4.2-0.5l0.8,4.7L341.5,378.4z"/>
	<path class="st6" d="M359.1,373.1c0,0,5.3,0.6,4.8,1.5s-19.9,4.3-28.5,5v-0.4l22.6-3.7C358,375.5,358.1,373.3,359.1,373.1z"/>
	<path class="st4" d="M335,379.2h0.3l0.9-0.1l3.1-0.4c2.6-0.4,6.2-0.9,10.2-1.6s7.6-1.4,10.2-1.9l3.1-0.7l0.8-0.2l0.3-0.1
		c-0.1,0-0.2,0-0.3,0l-0.8,0.1l-3.1,0.6c-2.6,0.5-6.2,1.2-10.2,1.9s-7.6,1.2-10.2,1.6l-3.1,0.5l-0.9,0.1L335,379.2z"/>
	<path class="st4" d="M358,375.8c0.1-0.5,0.2-1.1,0.3-1.6c0.2-0.5,0.5-0.9,0.9-1.4c-0.5,0.3-0.8,0.7-1,1.3
		C357.9,374.6,357.8,375.2,358,375.8z"/>
	<path class="st4" d="M352.5,374.1c0,0,0.2-0.3,0.4-0.7c0.1-0.3,0.2-0.5,0.2-0.8c0,0-0.2,0.3-0.4,0.7S352.5,374.1,352.5,374.1z"/>
	<path class="st4" d="M351,373.6c0,0,0.3-0.2,0.5-0.5s0.4-0.6,0.4-0.6s-0.3,0.2-0.5,0.5S351,373.6,351,373.6z"/>
	<path class="st4" d="M349.9,372.2c0.3,0.1,0.6,0.1,0.9,0c0.3,0,0.6-0.1,0.9-0.2c-0.3-0.1-0.6-0.1-0.9,0
		C350.5,371.9,350.2,372,349.9,372.2z"/>
	<path class="st4" d="M349.4,371.1c0.3,0.1,0.7,0.2,1,0.1c0.4,0,0.7-0.1,1-0.3c-0.3,0-0.7,0-1,0.1C350.1,371,349.7,371,349.4,371.1z
		"/>
	<path class="st4" d="M352.9,372.5c0.4,0,0.7-0.1,1.1-0.2c0.4-0.1,0.8-0.3,1.1-0.5c0.2-0.1,0.4-0.2,0.6-0.4c0.1-0.1,0.2-0.2,0.2-0.4
		c0-0.2-0.1-0.3-0.2-0.4c-0.9-0.3-1.9,0.1-2.4,1c-0.1,0.2-0.2,0.5-0.2,0.8c0,0.1,0,0.2,0,0.3c0.1-0.4,0.2-0.7,0.3-1
		c0.2-0.3,0.5-0.6,0.8-0.8c0.4-0.2,0.9-0.3,1.3-0.1c0.2,0.1,0.2,0.3,0,0.5c-0.2,0.1-0.4,0.3-0.6,0.4c-0.3,0.2-0.7,0.4-1.1,0.5
		C353.3,372.4,352.9,372.5,352.9,372.5z"/>
	<path class="st4" d="M353.1,372.5c0.1-0.3,0.1-0.5,0-0.8c-0.1-0.3-0.2-0.5-0.5-0.8c-0.2-0.3-0.6-0.4-1-0.4
		c-0.2,0.1-0.3,0.3-0.3,0.6c0,0,0,0,0,0c0.1,0.2,0.1,0.3,0.3,0.5c0.2,0.2,0.4,0.4,0.6,0.6c0.2,0.2,0.4,0.3,0.7,0.3
		c0,0-0.2-0.2-0.6-0.5c-0.2-0.2-0.4-0.4-0.6-0.6c-0.2-0.2-0.4-0.6-0.1-0.7s0.6,0.1,0.8,0.3c0.2,0.2,0.3,0.4,0.4,0.7
		C353,372,353.1,372.3,353.1,372.5z"/>
	<path class="st4" d="M334.6,374.5c0,0,0.5-0.1,1.3-0.2c1-0.1,2,0.2,2.9,0.6c0.9,0.5,1.6,1.2,2.1,2.1c0.4,0.7,0.5,1.2,0.5,1.2
		c0-0.1,0-0.2-0.1-0.3c-0.1-0.3-0.2-0.6-0.3-0.9c-0.5-0.9-1.2-1.7-2.2-2.2c-0.9-0.5-2-0.7-3-0.6c-0.3,0-0.6,0.1-0.9,0.2
		C334.7,374.5,334.6,374.5,334.6,374.5z"/>
	<path class="st4" d="M335.1,367.2c0.1,1.2,0.2,2.3,0.5,3.5c0.1,1.2,0.4,2.3,0.7,3.5c-0.1-1.2-0.2-2.3-0.5-3.5
		C335.6,369.5,335.4,368.3,335.1,367.2z"/>
	<path class="st4" d="M343.3,376.4c0.8,0.1,1.7,0,2.5-0.2c0.8-0.1,1.7-0.3,2.5-0.6c0-0.1-1.1,0.2-2.5,0.4S343.3,376.3,343.3,376.4z"
		/>
	<path class="st4" d="M340,377c0,0,0.1,0.2,0.3,0.5s0.3,0.5,0.3,0.4s0-0.3-0.1-0.5S340,376.9,340,377z"/>
	<path class="st4" d="M338.5,375.6c0,0,0.1,0.2,0.3,0.4s0.4,0.2,0.4,0.2s-0.1-0.2-0.3-0.4S338.5,375.6,338.5,375.6z"/>
	<path class="st4" d="M336.5,375.2c0,0.1,0.2,0,0.5,0.1s0.5,0.1,0.5,0.1s-0.1-0.3-0.5-0.3S336.5,375.1,336.5,375.2z"/>
	<path class="st4" d="M335.2,375.1c0,0.1,0.1,0.1,0.2,0.2s0.3,0,0.3,0s-0.1-0.1-0.2-0.1S335.2,375,335.2,375.1z"/>
	<path class="st8" d="M334,217.3c0,0,54.6,9.1,50.4,25.6s-36.6,56-36.6,56L327.3,286c0,0,30.2-37.5,29.1-38.8S313.9,237,313.9,237
		l-9.2-23.6L334,217.3z"/>
	<path class="st4" d="M320,233.7c0,0.1-0.4,0.2-0.8,0.1s-0.7-0.3-0.7-0.4s0.4-0.2,0.8-0.1S320.1,233.6,320,233.7z"/>
	<path class="st4" d="M325.8,234.9c0,0.1-0.7,0.1-1.5,0s-1.4-0.4-1.4-0.5s0.7-0.1,1.5,0S325.8,234.7,325.8,234.9z"/>
	<path class="st4" d="M331.5,236.1c0,0.1-0.7,0.1-1.5-0.1s-1.4-0.4-1.4-0.6s0.7-0.1,1.5,0.1S331.5,236,331.5,236.1z"/>
	<path class="st4" d="M337.1,237.5c0,0.1-0.7,0.1-1.5-0.1s-1.4-0.4-1.4-0.6s0.7-0.1,1.5,0.1S337.2,237.3,337.1,237.5z"/>
	<path class="st4" d="M342.8,238.9c0,0.1-0.7,0.1-1.5-0.1s-1.4-0.5-1.3-0.6s0.7-0.1,1.5,0.1S342.9,238.8,342.8,238.9z"/>
	<path class="st4" d="M348.4,240.4c0,0.1-0.7,0.1-1.5-0.1s-1.4-0.5-1.3-0.6s0.7-0.1,1.5,0.1S348.5,240.3,348.4,240.4z"/>
	<path class="st4" d="M354,242.1c0,0.1-0.7,0.1-1.5-0.2s-1.4-0.5-1.3-0.7s0.7-0.1,1.5,0.2S354.1,241.9,354,242.1z"/>
	<path class="st4" d="M359.7,243.8c0,0.1-0.7,0-1.5-0.2s-1.4-0.6-1.3-0.7s0.7,0,1.5,0.2S359.7,243.7,359.7,243.8z"/>
	<path class="st4" d="M361.1,248.1c-0.1-0.1,0.2-0.7,0.5-1.3s0.2-1.2,0.3-1.3s0.2,0.1,0.3,0.4c0.1,0.4,0.1,0.8-0.1,1.1
		C361.7,247.7,361.2,248.1,361.1,248.1z"/>
	<path class="st4" d="M357.6,252.8c-0.1-0.1,0.2-0.7,0.7-1.3s1-1.1,1.1-1s-0.2,0.7-0.7,1.3S357.7,252.8,357.6,252.8z"/>
	<path class="st4" d="M354.2,257.5c-0.1-0.1,0.2-0.7,0.6-1.3s1-1.1,1.1-1s-0.2,0.7-0.7,1.3S354.3,257.5,354.2,257.5z"/>
	<path class="st4" d="M350.7,262.2c-0.1-0.1,0.2-0.7,0.6-1.3s1-1.1,1.1-1s-0.2,0.7-0.7,1.3S350.8,262.2,350.7,262.2z"/>
	<path class="st4" d="M347.2,266.9c-0.1-0.1,0.2-0.7,0.6-1.3s1-1.1,1.1-1s-0.2,0.7-0.7,1.3S347.4,267,347.2,266.9z"/>
	<path class="st4" d="M343.8,271.6c-0.1-0.1,0.2-0.7,0.6-1.3s1-1.1,1.1-1s-0.2,0.7-0.7,1.3S343.9,271.6,343.8,271.6z"/>
	<path class="st4" d="M340.3,276.3c-0.1-0.1,0.2-0.7,0.6-1.3s1-1.1,1.1-1s-0.2,0.7-0.7,1.3S340.4,276.4,340.3,276.3z"/>
	<path class="st4" d="M336.9,281c-0.1-0.1,0.2-0.7,0.6-1.3s1-1.1,1.1-1s-0.2,0.7-0.7,1.3S337,281,336.9,281z"/>
	<path class="st4" d="M334.2,284.5c-0.1-0.1,0-0.4,0.2-0.8s0.5-0.5,0.7-0.5s0,0.4-0.2,0.8S334.4,284.6,334.2,284.5z"/>
	<path class="st4" d="M363.3,244.9c-1.1,0.6-2.2,1.1-3.5,1.4c-1.2,0.5-2.4,0.8-3.6,1c1.1-0.6,2.2-1.1,3.5-1.4
		C360.9,245.4,362.1,245,363.3,244.9z"/>
	<path class="st4" d="M364,246.7c-1.3,0.5-2.6,0.7-4,0.7c-1.4,0.2-2.7,0.2-4.1-0.1c1.3-0.3,2.7-0.4,4-0.5
		C361.3,246.7,362.7,246.7,364,246.7z"/>
	<path class="st4" d="M348.1,300.3l-12.3-8c0,0-1-10.2-3.3-12.8l19.6,15.7L348.1,300.3z"/>
	<path class="st8" d="M276.1,215.6c0,0-3.4,10.7,7.5,26.9l36.4,56.4l8.2,73.2l27-2.4l-9.1-81.1l-38.4-71.9L276.1,215.6z"/>
	<path class="st4" d="M279,217.6c-0.1,0-0.3-0.3-0.3-0.8s0.1-0.8,0.3-0.7c0.1,0,0.3,0.4,0.3,0.8S279.1,217.6,279,217.6z"/>
	<path class="st4" d="M279.9,223.6c-0.1,0-0.4-0.6-0.6-1.4c-0.2-0.8-0.2-1.5-0.1-1.5c0.1,0,0.4,0.6,0.6,1.4S280,223.5,279.9,223.6z"
		/>
	<path class="st4" d="M281.8,229.3c-0.1,0.1-0.5-0.5-0.8-1.3c-0.3-0.8-0.4-1.5-0.3-1.5c0.1,0,0.5,0.5,0.8,1.3S282,229.2,281.8,229.3
		z"/>
	<path class="st4" d="M284.5,234.7c-0.1,0.1-0.6-0.5-1-1.2s-0.6-1.4-0.5-1.5c0.1-0.1,0.5,0.5,0.9,1.2S284.7,234.6,284.5,234.7z"/>
	<path class="st4" d="M287.7,239.8c-0.1,0.1-0.6-0.4-1-1.1c-0.4-0.7-0.7-1.3-0.6-1.4c0.1-0.1,0.6,0.4,1,1.1
		C287.5,239.1,287.8,239.7,287.7,239.8z"/>
	<path class="st4" d="M291,244.8c-0.1,0.1-0.6-0.4-1-1.1s-0.7-1.3-0.6-1.4s0.6,0.4,1,1.1C290.9,244.1,291.1,244.8,291,244.8z"/>
	<path class="st4" d="M294.4,249.9c-0.1,0.1-0.6-0.4-1.1-1.1s-0.8-1.3-0.6-1.4s0.6,0.4,1.1,1.1S294.5,249.8,294.4,249.9z"/>
	<path class="st4" d="M297.7,254.9c-0.1,0.1-0.6-0.4-1.1-1.1s-0.8-1.3-0.6-1.4s0.6,0.4,1.1,1.1S297.9,254.8,297.7,254.9z"/>
	<path class="st4" d="M301.1,259.8c-0.1,0.1-0.6-0.4-1.1-1.1s-0.8-1.3-0.6-1.4s0.6,0.4,1.1,1.1S301.3,259.8,301.1,259.8z"/>
	<path class="st4" d="M304.5,264.8c-0.1,0.1-0.6-0.4-1.1-1.1s-0.8-1.3-0.6-1.4s0.6,0.4,1.1,1.1S304.7,264.7,304.5,264.8z"/>
	<path class="st4" d="M308,269.8c-0.1,0.1-0.6-0.4-1.1-1.1s-0.8-1.3-0.6-1.4s0.6,0.4,1.1,1.1S308.1,269.7,308,269.8z"/>
	<path class="st4" d="M311.4,274.8c-0.1,0.1-0.6-0.4-1.1-1.1s-0.8-1.3-0.6-1.4s0.6,0.4,1.1,1.1S311.5,274.7,311.4,274.8z"/>
	<path class="st4" d="M314.8,279.8c-0.1,0.1-0.6-0.4-1.1-1.1s-0.8-1.3-0.6-1.4s0.6,0.4,1.1,1.1S314.9,279.7,314.8,279.8z"/>
	<path class="st4" d="M318.1,284.8c-0.1,0.1-0.6-0.4-1.1-1.1s-0.7-1.3-0.6-1.4c0.1-0.1,0.6,0.4,1,1.1S318.2,284.7,318.1,284.8z"/>
	<path class="st4" d="M321.4,289.8c-0.1,0.1-0.6-0.4-1-1.1s-0.7-1.3-0.6-1.4s0.6,0.4,1,1.1S321.6,289.7,321.4,289.8z"/>
	<path class="st4" d="M324.5,295c-0.1,0-0.5-0.5-0.9-1.2s-0.7-1.4-0.5-1.4s0.6,0.4,1,1.2S324.7,295,324.5,295z"/>
	<path class="st4" d="M325.2,301c-0.1,0-0.3-0.6-0.4-1.5s0-1.5,0.1-1.5s0.3,0.6,0.4,1.5S325.4,301,325.2,301z"/>
	<path class="st4" d="M325.9,307c-0.1,0-0.3-0.6-0.4-1.5s0-1.5,0.1-1.5s0.3,0.6,0.4,1.5S326,307,325.9,307z"/>
	<path class="st4" d="M326.5,313c-0.1,0-0.3-0.6-0.4-1.5s0-1.5,0.1-1.5s0.3,0.6,0.4,1.5S326.7,313,326.5,313z"/>
	<path class="st4" d="M327.1,319c-0.1,0-0.3-0.6-0.4-1.5s0-1.5,0.1-1.5s0.3,0.6,0.4,1.5S327.2,319,327.1,319z"/>
	<path class="st4" d="M327.7,325c-0.1,0-0.3-0.6-0.4-1.5s0-1.5,0.1-1.5s0.3,0.6,0.4,1.5S327.9,325,327.7,325z"/>
	<path class="st4" d="M328.3,331c-0.1,0-0.3-0.6-0.4-1.5s0-1.5,0.1-1.5s0.3,0.6,0.4,1.5S328.5,331,328.3,331z"/>
	<path class="st4" d="M328.9,337c-0.1,0-0.3-0.6-0.4-1.5s0-1.5,0.1-1.5s0.3,0.6,0.4,1.5S329.1,337,328.9,337z"/>
	<path class="st4" d="M329.6,343c-0.1,0-0.3-0.6-0.4-1.5s0-1.5,0.1-1.5s0.3,0.6,0.4,1.5S329.7,343,329.6,343z"/>
	<path class="st4" d="M330.2,349c-0.1,0-0.3-0.6-0.4-1.5s0-1.5,0.1-1.5s0.3,0.6,0.4,1.5S330.3,349,330.2,349z"/>
	<path class="st4" d="M330.8,355c-0.1,0-0.3-0.6-0.4-1.5s0-1.5,0.1-1.5s0.3,0.6,0.4,1.5S330.9,355,330.8,355z"/>
	<path class="st4" d="M331.4,361c-0.1,0-0.3-0.6-0.4-1.5s0-1.5,0.1-1.5s0.3,0.6,0.4,1.5S331.5,361,331.4,361z"/>
	<path class="st4" d="M332,367c-0.1,0-0.3-0.6-0.4-1.5s0-1.5,0.1-1.5s0.3,0.6,0.4,1.5S332.1,367,332,367z"/>
	<path class="st4" d="M332.4,371.5c-0.1,0-0.3-0.3-0.3-0.7s0-0.8,0.2-0.8s0.3,0.3,0.3,0.7S332.6,371.5,332.4,371.5z"/>
	<path class="st4" d="M347.1,297.1c-0.1,0-0.2-1.5-0.6-3.8c-0.5-3-1.3-6-2.4-8.9c-1.2-2.9-2.6-5.6-4.2-8.2c-1.2-2-2-3.3-2-3.3
		c0.3,0.2,0.5,0.5,0.7,0.8c0.4,0.5,1,1.3,1.6,2.3c1.8,2.6,3.2,5.3,4.4,8.2c1.1,2.9,1.9,5.9,2.3,9c0.1,1.2,0.2,2.1,0.3,2.8
		C347.1,296.4,347.1,296.8,347.1,297.1z"/>
	<polygon class="st4" points="326.8,368 327.6,372.8 356.1,369.6 355.2,363.9 	"/>
	<path class="st4" d="M311.5,213.5c0,0.6,0,1.3-0.1,1.9c-0.1,1.2-0.2,2.9-0.4,5v-0.1c0.8,2.2,1.7,4.4,2.8,6.5
		c1.7,3.4,3.4,6.5,4.5,8.8c0.6,1.1,1,2.1,1.2,2.7c0.2,0.3,0.3,0.7,0.4,1c-0.2-0.3-0.4-0.6-0.5-1c-0.4-0.7-0.9-1.6-1.4-2.6
		c-1.2-2.2-2.9-5.3-4.6-8.7c-1.1-2.1-2-4.3-2.8-6.6l0,0v-0.1c0.2-2,0.4-3.7,0.6-4.9C311.2,214.8,311.3,214.1,311.5,213.5z"/>
	<path class="st9" d="M346.3,202.3c-0.1-2.2-5.5-4-7.7-4.6l0,0l-0.7-0.1l-0.2-0.1l0,0l-41.4-8.8l-4.6-16.1h-14.9
		c0.4,0.7,3.4,27.3,11.5,29.2c8,1.9,42.4,4.7,42.4,4.7l2.6,0.3c0,0,0,0,0,0.1c0,1.4,1.5,1.5,3.1,1.6c4,0.2,5.1-1.6,5.1-1.6l0,0
		c0.9-0.8,1.6-1.7,2.2-2.7c0,0,0.9,2.7,1.3,4.3c0.5,2.3,1.5,2,1.5,2S346.4,203.9,346.3,202.3z"/>
	<path class="st11" d="M339.4,207.2c-1,0.2-2.1,0.2-3.1,0c-1,0-2.1-0.2-3.1-0.5c1-0.2,2.1-0.2,3.1,0
		C337.3,206.7,338.4,206.9,339.4,207.2z"/>
	<path class="st11" d="M340.5,205.4c0,0,0.1-0.1,0.4,0c0.3,0.1,0.6,0.3,0.8,0.6c0.2,0.3,0.1,0.7-0.1,0.9c-0.2,0.2-0.4,0.2-0.4,0.1
		s0.1-0.1,0.2-0.3c0.1-0.2,0.1-0.5,0-0.7C341.1,205.5,340.5,205.5,340.5,205.4z"/>
	<path class="st11" d="M342.1,203.5c0-0.1,0.7-0.1,0.9,0.6s-0.2,1.2-0.3,1.1s0.2-0.5,0-1S342.1,203.6,342.1,203.5z"/>
	<path class="st8" d="M339.4,198l4-7.2c0.6-0.1,0.9,0,1,0.4l-3.9,7.2L339.4,198z"/>
	<polygon class="st8" points="334.8,206.7 333.2,209.7 333.2,211.3 334.8,210.2 336.6,207 	"/>
	<path class="st4" d="M284.1,112.1c0,0-0.3-0.2-0.6-0.8c-0.4-0.8-0.6-1.7-0.5-2.6c0.1-1.3,0.5-2.6,1.3-3.8c0.9-1.4,2.2-2.5,3.7-3.1
		c1.6-0.6,3.3-0.6,4.9,0.1c1.2,0.6,2.2,1.7,2.5,3.1c0.2,0.9,0.1,1.8-0.2,2.7c-0.1,0.3-0.3,0.6-0.6,0.8c0,0,0.2-0.3,0.4-0.9
		c0.3-0.8,0.3-1.7,0.1-2.5c-0.4-1.2-1.2-2.2-2.4-2.7c-1.4-0.6-3-0.7-4.4-0.1c-1.4,0.6-2.7,1.6-3.5,2.9c-0.7,1-1.2,2.2-1.3,3.5
		c-0.1,0.9,0,1.7,0.4,2.5C283.9,111.8,284.1,112.1,284.1,112.1z"/>
	<path class="st9" d="M311.4,142.9c0.1-4.1,0.2-8.3,0.2-8.3s4.9-0.7,6-7.4c1.1-6.5,0.3-21.5,0.3-21.5l0,0c-7-3.4-15.3-1.6-20.4,4.2
		l0,0l-0.1,32.9c0,3.8,3.1,6.9,6.9,7l0,0C308.1,149.8,311.3,146.8,311.4,142.9z"/>
	<path class="st4" d="M316.3,116.7c0,0.4-0.3,0.8-0.8,0.8c0,0,0,0,0,0c-0.5,0-0.9-0.3-0.9-0.8s0.3-0.9,0.8-0.9
		C315.8,115.8,316.2,116.2,316.3,116.7C316.3,116.7,316.3,116.7,316.3,116.7z"/>
	<path class="st4" d="M317.6,115.8c-0.1,0.1-0.7-0.4-1.6-0.4c-0.9,0-1.5,0.4-1.6,0.3s0.1-0.2,0.3-0.5c0.4-0.3,0.8-0.4,1.3-0.4
		c0.5,0,0.9,0.2,1.3,0.5C317.6,115.5,317.7,115.7,317.6,115.8z"/>
	<path class="st4" d="M306.7,116.7c0,0.4-0.3,0.8-0.8,0.8c0,0,0,0,0,0c-0.5,0-0.9-0.3-0.9-0.8c0-0.5,0.3-0.9,0.8-0.9
		C306.3,115.8,306.7,116.2,306.7,116.7C306.7,116.7,306.7,116.7,306.7,116.7z"/>
	<path class="st4" d="M307.9,115.9c-0.1,0.1-0.7-0.4-1.6-0.4c-0.9,0-1.5,0.4-1.6,0.3s0.1-0.2,0.3-0.5c0.4-0.3,0.8-0.4,1.3-0.4
		c0.5,0,0.9,0.2,1.3,0.5C307.8,115.7,307.9,115.9,307.9,115.9z"/>
	<path class="st4" d="M311.2,123.5c0.5-0.1,0.9-0.2,1.4-0.2c0.2,0,0.4,0,0.5-0.2c0-0.2,0-0.5-0.1-0.7c-0.2-0.6-0.4-1.2-0.6-1.8
		c-0.6-1.6-1.1-3.2-1.4-4.8c0.7,1.5,1.3,3.1,1.8,4.7c0.2,0.7,0.4,1.3,0.6,1.9c0.1,0.3,0.2,0.7,0.1,1c-0.1,0.2-0.2,0.3-0.4,0.3
		c-0.1,0-0.3,0-0.4,0C312.1,123.6,311.7,123.6,311.2,123.5z"/>
	<path class="st11" d="M311.6,134.6c-3-0.1-6-1-8.5-2.8c0,0,2,4.8,8.4,4.4L311.6,134.6z"/>
	<path class="st11" d="M310.9,125.8c-0.1-0.6-0.5-1-1-1.3c-0.4-0.2-0.8-0.2-1.1,0c-0.4,0.2-0.6,0.6-0.5,1c0.1,0.4,0.5,0.8,0.9,0.8
		c0.4,0.1,0.9,0,1.3-0.1c0.1,0,0.2-0.1,0.3-0.1C310.9,126.1,310.9,126,310.9,125.8"/>
	<path class="st4" d="M308.7,123.4c0.1,0,0.1,1,0.9,1.8s1.8,0.7,1.8,0.8c0,0.1-0.2,0.2-0.7,0.2c-1.2,0-2.1-0.9-2.2-2.1
		C308.5,123.7,308.6,123.4,308.7,123.4z"/>
	<path class="st4" d="M301.3,105.2c2.2,3.9,8.2,8.2,12.6,9.3c-0.5-0.8-3.1-2.9-3.6-3.7c1.9,1.8,4.7,4.3,7.4,4.5
		c0.3,0.1,0.6,0,0.9-0.1c0.3-0.3,0.5-0.7,0.5-1.1c0.2-2.2,0.2-4.5,0-6.7c-0.1-1.8-0.9-3.5-2.1-4.9c-1.6-1.6-4-2.1-6.3-2.2
		c-1.9-0.2-3.9,0-5.7,0.6c-1.8,0.7-3.2,2.2-3.6,4.1"/>
	<path class="st4" d="M302.8,106c0,0,2,7.7-3,12.8c0,0-0.7,7.2-4.1,10.7c0,0-1.8-8.8-1.9-12.2c-0.1-3.4-1.6-16,9.7-14.5L302.8,106z"
		/>
	<path class="st4" d="M295,111.5c0.9-2.1,0.5-4.5-1-6.2c-1.5-1.7-3.7-2.5-5.9-2.3c-2.2,0.3-4.2,1.4-5.6,3.1c-1.1,1.3-1.8,3-1.8,4.7
		c0.2,2.4,1.6,4.4,3.8,5.3c2.2,0.9,4.6,0.8,6.7-0.2c2.1-1,3.9-2.6,5.1-4.6"/>
	<polygon class="st6" points="287.3,106 284,99.7 284,98.5 285.1,99.1 288.4,105.5 	"/>
	<path class="st6" d="M289.5,105.4c0-0.1,0-7.6,0-7.6c0.1-0.3,0.4-0.6,0.7-0.5c0.3,0,0.6,0.3,0.6,0.6v7.7L289.5,105.4z"/>
	<path class="st12" d="M289.5,105.4c0-0.1,0-7.6,0-7.6c0.1-0.3,0.4-0.6,0.7-0.5c0.3,0,0.6,0.3,0.6,0.6v7.7L289.5,105.4z"/>
	<polygon class="st6" points="289.9,105.5 289.9,97.8 290.4,97.8 290.4,105.5 	"/>
	<path class="st8" d="M289.5,97.9h1.3c0,0-0.1-0.6-0.6-0.6C289.9,97.2,289.6,97.5,289.5,97.9z"/>
	<path class="st8" d="M284,99.7c0.1,0.1,0.3,0.1,0.4,0c0.2-0.1,0.2-0.3,0.2-0.3s0.3,0.1,0.5,0s0-0.3,0-0.3l-0.8-0.4l-0.3,0.2
		L284,99.7z"/>
	<path class="st4" d="M294,107.9c0.2,0.4,0.4,0.8,0.5,1.2c0.8,2.9-0.3,6-2.7,7.8c-1.7,1.3-4,1.8-6.1,1.2c-1.1-0.3-2.1-0.8-2.9-1.6
		c-0.8-0.7-1.4-1.6-1.7-2.6c-0.7-1.7-0.6-3.5,0.1-5.1c0.5-1.1,1.2-2,2.1-2.8c0.3-0.3,0.6-0.6,1-0.8c0,0-0.3,0.3-0.9,0.9
		c-0.8,0.8-1.5,1.7-1.9,2.8c-1.3,3.3,0.2,7,3.5,8.3c0.3,0.1,0.6,0.2,0.9,0.3c2,0.5,4.1,0.1,5.7-1.1c1.3-1,2.3-2.4,2.7-4
		c0.3-1.1,0.3-2.2,0.1-3.4C294.1,108.3,293.9,107.9,294,107.9z"/>
	<path class="st4" d="M309.1,111.2c0.1,0-0.2,0.6-1.1,0.9c-0.5,0.1-1.1,0.1-1.6-0.1c-0.6-0.2-1.1-0.6-1.6-1c-0.9-0.7-1.5-1.7-2-2.7
		c-0.2-0.4-0.4-0.9-0.4-1.3c0.7,1.4,1.6,2.6,2.7,3.7c0.7,0.8,1.7,1.2,2.8,1.2C308.4,111.6,308.8,111.4,309.1,111.2z"/>
	<path class="st9" d="M299.9,118.7c-0.7-0.2-1.4-0.1-2,0.1c-0.7,0.2-1.2,0.7-1.5,1.3c-0.3,0.6-0.3,1.3-0.1,2
		c0.2,0.7,0.6,1.2,1.1,1.7c0.3,0.4,0.7,0.7,1.2,0.8c0.5,0.2,1,0.1,1.4-0.2"/>
	<path class="st11" d="M299.4,122.8c0.1,0-0.2,0.4-0.8,0.2c-0.3-0.1-0.6-0.4-0.8-0.7c-0.2-0.4-0.3-0.7-0.3-1.1
		c0-0.4,0.1-0.8,0.3-1.2c0.2-0.3,0.5-0.5,0.9-0.5c0.6,0,0.8,0.4,0.8,0.5s-0.3-0.2-0.7-0.1c-0.5,0.2-0.9,0.7-0.8,1.3
		c0.1,0.7,0.3,1.3,0.7,1.5S299.4,122.7,299.4,122.8z"/>
	<path class="st6" d="M297.2,124.1c-0.2,0.4-0.3,0.7-0.3,1.1c0,0.4,0.2,0.8,0.4,1.1c0.3,0.3,0.8,0.5,1.3,0.4
		c0.5-0.1,0.8-0.5,0.9-0.9c0.1-0.4,0-0.8-0.2-1.2c-0.4-0.6-0.8-0.9-0.8-0.9c0.1-0.1,0.6,0,1.1,0.7c0.3,0.4,0.4,0.9,0.3,1.4
		c-0.1,0.7-0.6,1.2-1.3,1.3c-0.6,0.2-1.3-0.1-1.7-0.6c-0.3-0.4-0.5-0.9-0.4-1.4C296.7,124.3,297.2,124,297.2,124.1z"/>
	<path class="st4" d="M293.2,113.4c-0.9-2.1-0.4-4.6,1.3-6.2c-0.4,1-0.8,2-1.1,3C293.2,111.3,293.2,112.4,293.2,113.4z"/>
	<polygon class="st8" points="309.7,213.4 310.8,212.2 338.5,212.2 339.4,213.5 	"/>
	<polygon class="st4" points="209.5,216 244.7,377.8 248.8,377.8 213.2,216 	"/>
	<polyline class="st4" points="245.6,216 209.5,377.8 213,377.8 248.8,216 245.6,216 	"/>
	<polygon class="st4" points="216.3,356.4 241.7,356.4 241.7,353.1 217.4,353.1 	"/>
	<polygon class="st4" points="418.7,216 453.9,378.3 458,378.3 422.4,216 	"/>
	<polyline class="st4" points="454.8,216 418.7,378.3 422.3,378.3 458,216 454.8,216 	"/>
	<polygon class="st4" points="425.5,356.8 450.9,356.8 450.9,353.5 426.6,353.5 	"/>
	<polygon class="st4" points="421.4,171.2 407,213.4 341.6,213.4 342.1,211.2 368.5,210.4 380.7,171.2 	"/>
	<path class="st3" d="M392.4,191c-0.4,1.7,0.3,3.4,1.6,3.8s2.8-0.8,3.2-2.5s-0.3-3.4-1.7-3.8S392.9,189.3,392.4,191z"/>
	<polygon class="st3" points="395.3,200.1 396.6,203.6 410,197.2 408.8,193.6 	"/>
	<polygon class="st8" points="396.3,200.4 397.2,202.3 409,196.8 408.4,194.4 	"/>
	<path class="st3" d="M409.2,180.7c0,2.3-1.9,4.2-4.2,4.2s-4.2-1.9-4.2-4.2s1.9-4.2,4.2-4.2l0,0
		C407.3,176.4,409.2,178.3,409.2,180.7z"/>
	<path class="st6" d="M404.2,177.3c-1.5,0.4-2.6,1.8-2.5,3.4c0.1,1.6,1.2,2.9,2.7,3.4c0.7,0.2,1.4,0.2,2.1-0.1
		c0.6-0.3,1.1-0.9,1.4-1.6c0.5-0.9,0.6-1.8,0.4-2.8c-0.4-1.7-2.1-2.8-3.8-2.4c-0.4,0.1-0.8,0.3-1.2,0.5"/>
	<polygon class="st3" points="380.3,198.7 384.4,196.9 387.2,199.1 385.2,204.1 379.9,202 	"/>
	<polygon class="st6" points="380.7,199 384.3,197.4 386.6,199.3 384.9,203.5 380.5,201.8 	"/>
	<rect x="189.6" y="213.4" class="st4" width="285.6" height="2.8"/>
	<path class="st6" d="M439.7,193.5c-3.1-3.3-5-7.6-5.2-12.1c-0.1-2.1,0.2-4.5,1.7-6.1c2-2,5.3-2.1,7.4-0.1c2,2,2,5.2,1.5,8
		c-0.7,4.1-2.8,7.2-5.2,10.6"/>
	<path class="st6" d="M444.3,193.5c0.8-3.3,2.7-6.2,5.4-8.2c1.2-1,2.9-1.6,4.5-1.4c2.1,0.5,3.5,2.5,3.1,4.6
		c-0.4,2.1-2.4,3.4-4.4,4.2c-2.9,1.2-5.6,1.1-8.8,1.1"/>
	<path class="st4" d="M439.7,202.6c-0.2-3.1-0.2-6.3-0.1-9.4c0-3.1,0.1-6.3,0.5-9.4c0.2,3.1,0.2,6.3,0.1,9.4
		C440.2,196.3,440,199.5,439.7,202.6z"/>
	<path class="st4" d="M453.4,187.9c-0.6,0.5-1.2,1-1.9,1.4c-1.2,0.8-2.9,1.9-4.8,3s-3.7,2-5,2.7c-0.7,0.4-1.4,0.7-2.2,0.9
		c0.6-0.5,1.3-0.9,2-1.2l4.9-2.8l4.9-2.9C452,188.6,452.7,188.2,453.4,187.9z"/>
	<polyline class="st8" points="430.7,201 449.7,202 447.8,213.5 432.6,213.5 430.7,201 	"/>
	<path class="st4" d="M439.9,198.7c-1.4-0.1-2.7-0.5-3.9-1.1c-1.3-0.4-2.5-1.1-3.6-2C434.9,196.5,437.4,197.6,439.9,198.7z"/>
</g>
</svg>
