<svg xmlns="http://www.w3.org/2000/svg" viewBox="0 0 565.15 374.3"><defs><style>.cls-1{fill:#ebebeb;}.cls-2{fill:#f5f5f5;}.cls-3{fill:#e0e0e0;}.cls-4{fill:#fff;}.cls-5{fill:#263238;}.cls-6{fill:#e8505b;}.cls-10,.cls-7{opacity:0.2;}.cls-8{fill:#455a64;}.cls-9{fill:#ffbe9d;}.cls-11{fill:#eb996e;}.cls-12{opacity:0.3;}</style></defs><title>Designergirl</title><g id="Background_Complete" data-name="Background Complete"><path class="cls-1" d="M429.75,313.94c-.3.88,10,40,10,40l7.06-1.47-9.71-38.53Z" transform="translate(-6.91 -5.3)"/><polygon class="cls-2" points="477.55 303.05 463.43 348.64 471.67 348.64 485.19 306.29 477.55 303.05"/><polygon class="cls-1" points="490.49 295.99 474.31 348.64 482.55 348.64 498.14 299.23 490.49 295.99"/><polygon class="cls-3" points="427.84 345.41 436.08 373.94 477.55 373.94 485.19 345.41 427.84 345.41"/><path class="cls-3" d="M456.14,350.71a1.31,1.31,0,0,1-.09-.3c-.06-.22-.13-.51-.22-.87l-.8-3.37-2.85-12.46c-2.37-10.58-5.65-25.21-9.3-41.55l.25.21h-7.26l.25-.32c3.68,16.35,7,31,9.37,41.59,1.16,5.26,2.09,9.51,2.75,12.49l.72,3.39c.08.37.13.66.18.88a1.77,1.77,0,0,1,0,.31,1.31,1.31,0,0,1-.09-.3c-.06-.22-.13-.51-.23-.87-.19-.8-.46-1.93-.81-3.37-.69-3-1.69-7.21-2.91-12.46-2.43-10.58-5.78-25.21-9.53-41.54l-.07-.32h7.8l0,.2c3.6,16.35,6.82,31,9.15,41.59,1.14,5.26,2.05,9.51,2.69,12.49.3,1.45.54,2.58.71,3.39.07.37.13.66.17.88A1.77,1.77,0,0,1,456.14,350.71Z" transform="translate(-6.91 -5.3)"/><rect class="cls-2" x="113.71" y="13.05" width="70.23" height="48.9"/><rect class="cls-3" x="113.71" y="13.05" width="70.23" height="6.11"/><path class="cls-4" d="M124.43,21.58a.74.74,0,1,1-.73-.76A.75.75,0,0,1,124.43,21.58Z" transform="translate(-6.91 -5.3)"/><path class="cls-4" d="M127.4,21.58a.74.74,0,1,1-.73-.76A.75.75,0,0,1,127.4,21.58Z" transform="translate(-6.91 -5.3)"/><path class="cls-4" d="M130.37,21.58a.73.73,0,1,1-1.46,0,.73.73,0,1,1,1.46,0Z" transform="translate(-6.91 -5.3)"/><rect class="cls-3" x="120.39" y="25.16" width="10.01" height="24.01"/><rect class="cls-1" x="135.82" y="25.16" width="10.01" height="24.01"/><rect class="cls-4" x="151.25" y="25.16" width="10.01" height="24.01"/><rect class="cls-1" x="166.68" y="25.34" width="10.01" height="24.01"/><rect class="cls-1" x="119.23" y="51.82" width="60.66" height="5.49"/><polygon class="cls-3" points="171.57 55.47 172.88 62.08 173.95 60.24 176.25 63.53 177.41 62.79 175.1 59.49 177.22 59.19 171.57 55.47"/><rect class="cls-2" x="48.87" y="78.86" width="122.95" height="85.62"/><rect class="cls-3" x="48.87" y="78.86" width="122.95" height="10.7"/><path class="cls-4" d="M62.46,89.82a1.29,1.29,0,1,1-1.29-1.34A1.32,1.32,0,0,1,62.46,89.82Z" transform="translate(-6.91 -5.3)"/><path class="cls-4" d="M67.66,89.82a1.29,1.29,0,1,1-1.28-1.34A1.32,1.32,0,0,1,67.66,89.82Z" transform="translate(-6.91 -5.3)"/><path class="cls-4" d="M72.86,89.82a1.28,1.28,0,1,1-1.28-1.34A1.31,1.31,0,0,1,72.86,89.82Z" transform="translate(-6.91 -5.3)"/><polygon class="cls-3" points="492.32 114.03 492.32 137.56 530.61 138.61 529.93 114.69 492.32 114.03"/><polygon class="cls-1" points="492.32 114.03 492.29 111.68 529.96 112.19 529.96 115.53 492.32 114.03"/><polygon class="cls-1" points="495.69 119.95 496.1 124.74 501.21 124.8 501.34 120.19 495.69 119.95"/><polygon class="cls-2" points="503.3 123.23 503.02 121.23 514.35 121.95 514.12 124.03 503.3 123.23"/><polygon class="cls-1" points="520.57 120.84 521.52 125.81 527.35 125.51 527.01 121.22 520.57 120.84"/><polygon class="cls-1" points="495.77 127.85 496.18 132.64 501.29 132.7 501.42 128.09 495.77 127.85"/><polygon class="cls-2" points="503.32 130.78 503.09 129.13 511.36 129.88 511.23 131.58 503.32 130.78"/><polygon class="cls-1" points="520.65 128.74 521.59 133.71 527.42 133.41 527.08 129.12 520.65 128.74"/></g><g id="Floor"><path class="cls-5" d="M572.06,378.44c0,.15-126.52.26-282.56.26s-282.59-.11-282.59-.26,126.49-.26,282.59-.26S572.06,378.3,572.06,378.44Z" transform="translate(-6.91 -5.3)"/></g><g id="Plant"><path class="cls-6" d="M65.85,185.41c-6.56.63-10,8.41-9.82,15s2.42,13.15,1.28,19.63c-1.45,8.24-8.17,14.85-9.43,23.11-1.49,9.75,4.88,18.89,6.33,28.64.7,4.75.24,9.69,1.7,14.26a18.21,18.21,0,0,0,18.8,12.18,18.23,18.23,0,0,0,15.61-16.07c.63-7.52-3.56-14.9-2.52-22.37.78-5.53,4.37-10.57,4-16.14-.41-6.62-6.19-11.68-7.94-18.08s.76-13.17.45-19.8c-.57-11.89-6.59-20.54-18.49-20.36" transform="translate(-6.91 -5.3)"/><path class="cls-7" d="M65.85,185.41c-6.56.63-10,8.41-9.82,15s2.42,13.15,1.28,19.63c-1.45,8.24-8.17,14.85-9.43,23.11-1.49,9.75,4.88,18.89,6.33,28.64.7,4.75.24,9.69,1.7,14.26a18.21,18.21,0,0,0,18.8,12.18,18.23,18.23,0,0,0,15.61-16.07c.63-7.52-3.56-14.9-2.52-22.37.78-5.53,4.37-10.57,4-16.14-.41-6.62-6.19-11.68-7.94-18.08s.76-13.17.45-19.8c-.57-11.89-6.59-20.54-18.49-20.36" transform="translate(-6.91 -5.3)"/><path class="cls-6" d="M29,240.44c-1.81,10.87,2.2,24.05,7.22,33.86a52.23,52.23,0,0,0,23.12,22.83c1.11.55,2.51,1.05,3.53.33A3.52,3.52,0,0,0,64,294.71a54.27,54.27,0,0,0-8.43-32.95A54.28,54.28,0,0,0,29,240.44" transform="translate(-6.91 -5.3)"/><path class="cls-5" d="M71.71,320.89a2.93,2.93,0,0,1-.27-.63c-.18-.48-.4-1.09-.66-1.84-.56-1.6-1.4-3.92-2.47-6.76a235.18,235.18,0,0,0-9.51-21.72,232.83,232.83,0,0,0-11.72-20.62c-1.63-2.56-3-4.62-3.94-6l-1.07-1.63a2.89,2.89,0,0,1-.34-.59,2.47,2.47,0,0,1,.44.52l1.17,1.57c1,1.36,2.43,3.38,4.11,5.92a199.57,199.57,0,0,1,11.91,20.58,200,200,0,0,1,9.36,21.85c1,2.87,1.8,5.2,2.29,6.84.22.76.4,1.38.55,1.87A2.91,2.91,0,0,1,71.71,320.89Z" transform="translate(-6.91 -5.3)"/><path class="cls-5" d="M71.38,216.16a5.31,5.31,0,0,1,.05,1.05q0,1.13,0,3v11.13c0,9.4,0,22.38.07,36.72s.24,27.32.37,36.72c0,4.66.1,8.44.13,11.13,0,1.27,0,2.28,0,3a7,7,0,0,1,0,1,4.8,4.8,0,0,1-.09-1c0-.74-.08-1.75-.13-3-.08-2.69-.19-6.48-.33-11.13-.24-9.4-.47-22.38-.55-36.73s0-27.32.11-36.72c.08-4.66.15-8.44.2-11.13q.06-1.91.09-3A7.81,7.81,0,0,1,71.38,216.16Z" transform="translate(-6.91 -5.3)"/><polygon class="cls-8" points="48.87 300.39 52.16 372.37 75.18 372.37 77.74 303.68 48.87 300.39"/><path class="cls-5" d="M84,323.55a3.74,3.74,0,0,1-1,.36,20.37,20.37,0,0,1-3,.56,23,23,0,0,1-4.47.09,28.59,28.59,0,0,1-5.4-1,48.55,48.55,0,0,0-5.27-1.23,14.19,14.19,0,0,0-4.36,0,10.88,10.88,0,0,0-3.75,1.44,3,3,0,0,1,.86-.71A8.38,8.38,0,0,1,60.37,322a13.59,13.59,0,0,1,4.5-.09,47.08,47.08,0,0,1,5.34,1.2,27.39,27.39,0,0,0,9.7,1C82.41,323.89,83.93,323.46,84,323.55Z" transform="translate(-6.91 -5.3)"/><path class="cls-5" d="M83.35,331.44s-.27-.3-.83-.73a5.67,5.67,0,0,0-2.76-1.06,9.7,9.7,0,0,0-4.38.51c-1.61.5-3.32,1.31-5.27,1.8a15.26,15.26,0,0,1-10-1,13.08,13.08,0,0,1-2.63-1.61,4.18,4.18,0,0,1-.83-.77,26,26,0,0,0,3.61,2,15.6,15.6,0,0,0,9.75.83c1.88-.47,3.6-1.27,5.26-1.76a9.81,9.81,0,0,1,4.58-.42,5.54,5.54,0,0,1,2.82,1.27,3.58,3.58,0,0,1,.57.63C83.32,331.35,83.36,331.43,83.35,331.44Z" transform="translate(-6.91 -5.3)"/><path class="cls-5" d="M83.62,341.24s-.08.06-.25.12a3.12,3.12,0,0,1-.8.19,6.33,6.33,0,0,1-2.94-.44c-1.2-.43-2.49-1.19-3.95-1.9a24.17,24.17,0,0,0-5-1.77,25.13,25.13,0,0,0-9.56-.43c-2.44.35-3.89.89-3.92.8a3.58,3.58,0,0,1,1-.43,20.22,20.22,0,0,1,2.86-.73,23.64,23.64,0,0,1,14.8,2.13c1.48.75,2.73,1.53,3.87,2a6.66,6.66,0,0,0,2.8.59C83.24,341.32,83.61,341.19,83.62,341.24Z" transform="translate(-6.91 -5.3)"/><path class="cls-5" d="M57.72,347.86c0-.05.37.1,1.05.13a5.87,5.87,0,0,0,2.73-.67A22.59,22.59,0,0,0,65,344.88a10.84,10.84,0,0,1,2.24-1.32,9.15,9.15,0,0,1,2.73-.64,20.3,20.3,0,0,1,5.32.53c1.59.32,3,.62,4.23.76a15.84,15.84,0,0,0,2.88.1,5.48,5.48,0,0,1,1.06-.09,3.78,3.78,0,0,1-1,.29,12.72,12.72,0,0,1-2.94.07c-1.23-.1-2.69-.36-4.28-.66a21.6,21.6,0,0,0-5.19-.48,9.08,9.08,0,0,0-2.58.59,11.06,11.06,0,0,0-2.15,1.24,20.62,20.62,0,0,1-3.64,2.38,5.5,5.5,0,0,1-2.9.54A4,4,0,0,1,58,348C57.8,347.92,57.71,347.88,57.72,347.86Z" transform="translate(-6.91 -5.3)"/><path class="cls-5" d="M83.3,354.11a7.38,7.38,0,0,0-3.57-.91c-2.3-.05-5.4,1.2-9,1.35a29.56,29.56,0,0,1-9.14-.82,27,27,0,0,1-2.66-.83,4.47,4.47,0,0,1-.93-.43c0-.09,1.39.42,3.67.9a33.52,33.52,0,0,0,9,.66,32.64,32.64,0,0,0,4.94-.7,16.84,16.84,0,0,1,4.12-.49,6.43,6.43,0,0,1,2.73.66A2.16,2.16,0,0,1,83.3,354.11Z" transform="translate(-6.91 -5.3)"/></g><g id="Windows"><rect class="cls-4" x="211.66" y="0.26" width="259.41" height="165.52"/><path class="cls-5" d="M478,171.08c0-1.68-.08-64.43-.2-165.52l.2.21-259.39.05h0l.26-.26c0,58.72,0,114.65,0,165.52l-.24-.24,259.41.24-259.41.24h-.24v-.24c0-50.87,0-106.8,0-165.52V5.3h.28L478,5.35h.21v.21C478.06,106.65,478,169.4,478,171.08Z" transform="translate(-6.91 -5.3)"/><polygon class="cls-6" points="211.66 4.97 211.51 13.46 470.79 13.92 471.08 4.97 211.66 4.97"/><polygon class="cls-5" points="454.2 39.44 453.23 93.21 494.73 94.42 495.94 40.03 454.2 39.44"/><polygon class="cls-8" points="454.38 44.52 484.68 44.69 484.43 42.01 495.86 42.44 495.94 40.03 454.2 39.44 454.38 44.52"/><polygon class="cls-6" points="455.98 41.96 455.94 43.41 463.53 43.42 463.22 42 455.98 41.96"/><polygon class="cls-6" points="465.38 41.98 465.34 43.43 472.93 43.44 472.62 42.03 465.38 41.98"/><polygon class="cls-6" points="474.98 42.17 474.94 43.62 482.53 43.63 482.22 42.21 474.98 42.17"/><polygon class="cls-8" points="456.68 47.02 456.36 74.15 482.12 75.07 481.24 47.81 456.68 47.02"/><path class="cls-6" d="M488.06,54.78a14.4,14.4,0,0,1-.89,1.25c-.58.81-1.37,2-2.34,3.54-.49.76-1,1.6-1.65,2.48a15.85,15.85,0,0,0-1.67,3c-.51,1.11-1,2.31-1.57,3.55a11.8,11.8,0,0,1-2.38,3.6l-.3.28-.18-.37a41.59,41.59,0,0,1-2.3-5.88,25.08,25.08,0,0,1-1-5l.53.2a26.77,26.77,0,0,0-4.5,7.09c-.58,1.16-1.12,2.26-1.69,3.26l-1.61,2.73-2.34,3.87a9.16,9.16,0,0,1-.91,1.37,10.22,10.22,0,0,1,.73-1.48c.55-1,1.28-2.35,2.17-4l1.54-2.76c.54-1,1.06-2.1,1.62-3.27a26.86,26.86,0,0,1,4.55-7.29l.47-.48.06.68a24,24,0,0,0,.95,4.89,42,42,0,0,0,2.25,5.79l-.48-.09a11.5,11.5,0,0,0,2.27-3.4L481,64.8a16,16,0,0,1,1.77-3c.63-.86,1.19-1.68,1.71-2.43,1-1.49,1.86-2.68,2.49-3.45A6.55,6.55,0,0,1,488.06,54.78Z" transform="translate(-6.91 -5.3)"/><rect class="cls-8" x="490.12" y="54.68" width="3.31" height="3.31" transform="translate(-6.43 -9.29) rotate(0.47)"/><polygon class="cls-6" points="487.42 49.96 487.56 51.45 493.92 51.43 493.82 50.4 487.42 49.96"/><rect class="cls-8" x="490.58" y="59.61" width="3.31" height="3.31" transform="translate(-6.39 -9.31) rotate(0.47)"/><polygon class="cls-6" points="487.88 54.89 488.02 56.38 494.38 56.36 494.28 55.33 487.88 54.89"/><rect class="cls-8" x="490.42" y="65.29" width="3.31" height="3.31" transform="translate(-6.34 -9.31) rotate(0.47)"/><polygon class="cls-6" points="487.72 60.57 487.86 62.06 494.22 62.04 494.12 61.01 487.72 60.57"/><polygon class="cls-8" points="457.04 76.99 488 77.58 487.89 80.35 456.88 79.21 457.04 76.99"/><polygon class="cls-6" points="488 77.58 491.68 77.61 491.57 80.38 487.89 80.35 488 77.58"/><polygon class="cls-8" points="457.52 82.09 491.82 82.64 491.8 85.8 457.36 84.31 457.52 82.09"/><polygon class="cls-6" points="473.91 82.32 477.6 82.34 477.49 85.11 473.81 85.08 473.91 82.32"/><polygon class="cls-8" points="457.98 87.02 488.94 87.61 488.83 90.38 457.82 89.24 457.98 87.02"/><polygon class="cls-6" points="488.94 87.61 492.62 87.64 492.51 90.41 488.83 90.38 488.94 87.61"/><polygon class="cls-5" points="195.35 2.25 201.27 1.98 201.8 85.6 196.31 84.81 195.35 2.25"/><polygon class="cls-6" points="196.45 5.33 197.04 9.31 199.16 9.13 199.49 4.82 196.45 5.33"/><polygon class="cls-6" points="197.23 46.61 197.82 50.59 199.94 50.4 200.27 46.1 197.23 46.61"/><polygon class="cls-6" points="196.66 11.86 200.03 11.64 200.42 15.96 196.79 15.96 196.66 11.86"/><polygon class="cls-6" points="196.94 25.51 199.86 25.4 200.18 30.12 197.03 29.98 196.94 25.51"/><polygon class="cls-6" points="197.15 32.26 200.07 32.15 200.39 36.87 197.24 36.73 197.15 32.26"/><polygon class="cls-6" points="197.38 39.26 200.31 39.15 200.62 43.87 197.48 43.73 197.38 39.26"/><polygon class="cls-6" points="197.58 54.46 200.5 54.35 200.82 59.06 197.67 58.93 197.58 54.46"/><polygon class="cls-6" points="196.86 18.53 200.27 18.87 200.43 23.29 197.2 23.26 196.86 18.53"/><rect class="cls-5" x="211.66" y="0.26" width="259.41" height="4.71"/><path class="cls-6" d="M223.42,7.7a.94.94,0,1,1-1-.85A.94.94,0,0,1,223.42,7.7Z" transform="translate(-6.91 -5.3)"/><path class="cls-6" d="M227.16,7.77a.93.93,0,1,1-1-.86A.93.93,0,0,1,227.16,7.77Z" transform="translate(-6.91 -5.3)"/><path class="cls-6" d="M230.91,7.8a.93.93,0,1,1-1-.85A.93.93,0,0,1,230.91,7.8Z" transform="translate(-6.91 -5.3)"/><polygon class="cls-8" points="228.42 1.81 228.56 3.58 241.05 3.6 240.72 1.85 228.42 1.81"/><polygon class="cls-8" points="243.64 2.06 243.87 3.83 252.62 3.65 252.25 1.91 243.64 2.06"/><polygon class="cls-8" points="256.97 2.3 257.16 4.07 265.91 4.12 265.58 2.37 256.97 2.3"/><polygon class="cls-4" points="251 34.27 256.88 175.4 430.99 176.44 429.13 38.25 251 34.27"/><path class="cls-8" d="M257.91,39.57h.83l2.46,0,9.63.19,36.42.75L436,43.32h.23v.23c.56,41.15,1.2,88.07,1.88,137.67,0,.17,0,.34,0,.51V182h-.26l-174.12-1.08h-.2v-.2c-1.73-42.59-3.16-77.89-4.16-102.56-.49-12.31-.87-22-1.13-28.54-.13-3.28-.22-5.79-.29-7.49s-.08-2.55-.08-2.55,0,.89.13,2.6.19,4.23.34,7.53c.29,6.59.71,16.26,1.24,28.58,1.06,24.63,2.56,59.89,4.38,102.41l-.21-.21,174.11,1-.26.26c0-.17,0-.34,0-.52-.66-49.59-1.28-96.51-1.83-137.67l.23.24-128.62-3-36.48-.88-9.68-.24-2.49-.07Z" transform="translate(-6.91 -5.3)"/><polygon class="cls-5" points="250.9 32.85 251.03 38.29 429.13 38.25 429.13 33.56 250.9 32.85"/><polygon class="cls-3" points="402.74 51.27 403.93 59.94 421.3 60 420.47 52.02 402.74 51.27"/><polygon class="cls-8" points="402.78 53.35 420.51 54.11 420.47 52.02 402.74 51.27 402.78 53.35"/><rect class="cls-6" x="413.61" y="60.1" width="2.69" height="2.69" transform="translate(-7.86 1.49) rotate(-0.94)"/><rect class="cls-5" x="413.18" y="60.54" width="2.69" height="2.69" transform="matrix(1, -0.02, 0.02, 1, -7.86, 1.48)"/><rect class="cls-6" x="412.33" y="61.28" width="2.69" height="2.69" transform="translate(-7.87 1.47) rotate(-0.94)"/><polygon class="cls-5" points="412.05 56.01 411.93 57.38 419.63 57.18 419.55 56.32 412.05 56.01"/><polygon class="cls-3" points="402.91 61.34 404.09 70.01 421.46 70.07 420.64 62.09 402.91 61.34"/><polygon class="cls-8" points="402.94 63.43 420.67 64.18 420.64 62.09 402.91 61.34 402.94 63.43"/><rect class="cls-6" x="413.77" y="70.18" width="2.69" height="2.69" transform="translate(-8.02 1.49) rotate(-0.94)"/><rect class="cls-5" x="413.35" y="70.62" width="2.69" height="2.69" transform="matrix(1, -0.02, 0.02, 1, -8.03, 1.49)"/><rect class="cls-6" x="412.5" y="71.35" width="2.69" height="2.69" transform="translate(-8.04 1.46) rotate(-0.93)"/><polygon class="cls-5" points="412.22 66.08 412.1 67.45 419.8 67.26 419.71 66.39 412.22 66.08"/><rect class="cls-8" x="275.89" y="82.14" width="4.2" height="4.2" transform="translate(-7.26 -4.12) rotate(-0.24)"/><rect class="cls-8" x="419.51" y="83.26" width="4.2" height="4.2" transform="translate(-7.26 -3.51) rotate(-0.24)"/><rect class="cls-8" x="419.01" y="146.35" width="4.2" height="4.2" transform="translate(-7.54 -3.5) rotate(-0.24)"/><rect class="cls-8" x="278.5" y="141.66" width="4.2" height="4.2" transform="translate(-7.52 -4.1) rotate(-0.24)"/><rect class="cls-8" x="349.81" y="83.94" width="2.76" height="2.76" transform="translate(428.12 -271.52) rotate(89.76)"/><rect class="cls-8" x="277.18" y="114.19" width="2.76" height="2.76" transform="translate(386.05 -168.78) rotate(89.76)"/><rect class="cls-8" x="420.09" y="111.81" width="2.76" height="2.76" transform="translate(525.97 -314.05) rotate(89.76)"/><rect class="cls-8" x="348.24" y="144.75" width="2.76" height="2.76" transform="translate(487.37 -209.41) rotate(89.76)"/><path class="cls-8" d="M421.61,85.36l-.74,0h-2.1l-8,0-30-.2-103.19-1,.61-.62c.65,18.7,1.36,39,2.09,60,0,.21,0,.42,0,.62l-.61-.6,141,3.72-.46.45c.39-19.23.71-34.79.93-45.57.13-5.4.23-9.6.3-12.47.05-1.43.08-2.52.1-3.28,0-.36,0-.64,0-.84a1.36,1.36,0,0,1,0-.3s0,.34,0,1v3.2c0,2.84-.05,7-.08,12.37-.11,10.84-.26,26.5-.45,45.85v.45h-.45l-141-3.37-.59,0,0-.59c0-.2,0-.41,0-.62-.72-21-1.4-41.34-2-60l0-.63h.63l103.59,1.54,29.85.53,7.93.17,2,.06A4.37,4.37,0,0,1,421.61,85.36Z" transform="translate(-6.91 -5.3)"/><polygon class="cls-5" points="416.36 147.6 418.73 158.25 420.49 154.62 424.73 153.95 416.36 147.6"/><rect class="cls-6" x="377" y="153.88" width="5.65" height="5.65"/><rect class="cls-3" x="385.05" y="153.88" width="5.65" height="5.65"/><rect class="cls-8" x="393.1" y="153.88" width="5.65" height="5.65"/><rect class="cls-5" x="401.16" y="153.88" width="5.65" height="5.65"/><polygon class="cls-6" points="410.03 137.62 280.12 133.83 277.99 82.46 410.03 84.23 410.03 137.62"/><polygon class="cls-3" points="310.93 117.92 283.62 117.36 282.72 95.01 310.93 95.4 310.93 117.92"/><polygon class="cls-8" points="444.77 150.72 448.39 193.69 483.76 194.28 481.06 153.13 444.77 150.72"/><polygon class="cls-5" points="444.52 148.88 444.98 153.24 481.16 154.55 480.96 150.29 444.52 148.88"/><polygon class="cls-5" points="453.75 161.16 455.55 184.84 476.01 185.9 474.92 161.31 453.75 161.16"/><path class="cls-3" d="M480.6,185.72a22,22,0,0,1-4.38.29c-2.72.07-6.5.11-10.74.1h-.42l0-.42c0-.46-.09-.94-.13-1.44-.42-4.55-.75-8.68-.94-11.67a25.24,25.24,0,0,1-.12-4.86,25,25,0,0,1,.77,4.8c.35,3,.79,7.09,1.2,11.65.05.49.09,1,.14,1.44l-.46-.42c4.24,0,8,.1,10.74.2A21.64,21.64,0,0,1,480.6,185.72Z" transform="translate(-6.91 -5.3)"/><path class="cls-6" d="M464.43,187c.2.16.12.6-.18,1s-.71.57-.91.41-.12-.59.18-1S464.23,186.84,464.43,187Z" transform="translate(-6.91 -5.3)"/><path class="cls-6" d="M469.5,180.51c.2.15-.21,1-.91,1.9s-1.43,1.5-1.63,1.34.21-1,.91-1.9S469.3,180.35,469.5,180.51Z" transform="translate(-6.91 -5.3)"/><path class="cls-6" d="M474.56,174c.2.16-.2,1-.9,1.91s-1.43,1.49-1.63,1.34.2-1,.9-1.91S474.36,173.87,474.56,174Z" transform="translate(-6.91 -5.3)"/><path class="cls-6" d="M478.18,169.39c.21.16.12.59-.18,1s-.7.57-.9.41-.12-.59.18-1S478,169.23,478.18,169.39Z" transform="translate(-6.91 -5.3)"/><polygon class="cls-6" points="447.26 155.36 447.5 157.25 455.48 157.37 455.79 155.41 447.26 155.36"/><polygon class="cls-3" points="442.3 20.28 443.48 28.95 460.86 29.01 460.03 21.03 442.3 20.28"/><polygon class="cls-8" points="442.33 22.36 460.06 23.12 460.03 21.03 442.3 20.28 442.33 22.36"/><rect class="cls-6" x="453.17" y="29.12" width="2.69" height="2.69" transform="matrix(1, -0.02, 0.02, 1, -7.34, 2.13)"/><rect class="cls-5" x="452.74" y="29.55" width="2.69" height="2.69" transform="matrix(1, -0.02, 0.02, 1, -7.35, 2.13)"/><rect class="cls-6" x="451.89" y="30.29" width="2.69" height="2.69" transform="translate(-7.36 2.11) rotate(-0.94)"/><polygon class="cls-5" points="451.61 25.02 451.49 26.39 459.19 26.2 459.11 25.33 451.61 25.02"/></g><g id="Character"><path class="cls-6" d="M216.12,243.42v-4.95s-.19-6.34,8.33-6.93,38.32-.06,38.32-.06,8.84-.22,8.84,5.41v6.73Z" transform="translate(-6.91 -5.3)"/><path class="cls-7" d="M216.12,243.42v-4.95s-.19-6.34,8.33-6.93,38.32-.06,38.32-.06,8.84-.22,8.84,5.41v6.73Z" transform="translate(-6.91 -5.3)"/><path class="cls-5" d="M216.12,243.42s25.89,1.6,27.23,6.72h4.81s3.16-5.31,23.45-6.52Z" transform="translate(-6.91 -5.3)"/><path class="cls-5" d="M225,378.21h40.46L250,368.05l-.21-58.88h7.53v-1.56h-7.54L249.73,291l-1.4-3.94-.2-43.44h-4.71c-.16.89,0,43.32,0,43.32L242,290.7v16.91H229.75v1.56H242v58.88Z" transform="translate(-6.91 -5.3)"/><path class="cls-5" d="M239.55,155.46a17,17,0,0,1-25.2-4,12.3,12.3,0,0,1-2.06-8.21,7.89,7.89,0,0,1,5.09-6.42c1.09-.35,2.26-.4,3.37-.7a3.77,3.77,0,0,0,2.65-2c.52-1.35-.22-2.88,0-4.3.41-2.33,3.13-3.37,4.57-5.24,1.92-2.49,1.33-6,.65-9.08l2.09-1.79Z" transform="translate(-6.91 -5.3)"/><path class="cls-9" d="M269.62,159.91s17.56,24.09,18.53,24.71c3,1.91,33.63,13.74,33.63,13.74l-1.69,10.56s-39-11.09-41.33-12.73-18.21-25.72-18.21-25.72Z" transform="translate(-6.91 -5.3)"/><path class="cls-6" d="M211.23,172.92l1.49-19.61c2.48-13.79,20.12-12.62,20.12-12.62l15.17-.24s10.55.32,16.57,8.88c4.91,7,10.23,14.31,10.23,14.31l-11.35,11.5-3.95-6.93a9.22,9.22,0,0,1,1.8,6.61c-.47,5.26-4.33,6.27-4.33,6.27l1.72,35.54-47.95-.44,7.94-18.29-1.56-25.62Z" transform="translate(-6.91 -5.3)"/><path class="cls-6" d="M229.75,173.1c.43-.06.87.51,1.09,1.26s.17,1.48-.23,1.65-1-.34-1.26-1.2S229.32,173.17,229.75,173.1Z" transform="translate(-6.91 -5.3)"/><path class="cls-6" d="M231.21,154.11c.42.06.66,1.44.52,3.09s-.6,3-1,3-.67-1.4-.53-3.1S230.78,154.05,231.21,154.11Z" transform="translate(-6.91 -5.3)"/><path class="cls-6" d="M228.42,167.61a.72.72,0,0,1-.49-1.09.72.72,0,0,1,1.16-.3.78.78,0,0,1-.67,1.39Z" transform="translate(-6.91 -5.3)"/><path class="cls-6" d="M240.74,155.7c.42.08.62.9.44,1.82s-.67,1.61-1.09,1.53-.63-.9-.45-1.82S240.31,155.62,240.74,155.7Z" transform="translate(-6.91 -5.3)"/><path class="cls-6" d="M254.12,157.16c.08.42-.64.9-1.6.83s-1.61-.64-1.47-1.05.83-.55,1.58-.51S254.05,156.73,254.12,157.16Z" transform="translate(-6.91 -5.3)"/><path class="cls-6" d="M256.47,155.12c-.26.34-1.21.06-2.11-.63s-1.42-1.53-1.16-1.87,1.21-.06,2.11.63S256.73,154.78,256.47,155.12Z" transform="translate(-6.91 -5.3)"/><path class="cls-6" d="M258.7,153.55c-.42,0-.78-1.05-.44-2.31s1.17-2,1.54-1.79.24,1.15,0,2.19S259.14,153.55,258.7,153.55Z" transform="translate(-6.91 -5.3)"/><path class="cls-6" d="M263.6,152.51c.32.29,0,1.15-.7,1.91s-1.52,1.15-1.84.85,0-1.14.69-1.91S263.28,152.22,263.6,152.51Z" transform="translate(-6.91 -5.3)"/><path class="cls-6" d="M261.31,158.81c-.08.42-1,.61-2.1.42s-1.9-.7-1.82-1.13,1-.61,2.1-.41S261.38,158.38,261.31,158.81Z" transform="translate(-6.91 -5.3)"/><path class="cls-6" d="M248.92,157.81c-.09.42-.92.6-1.85.39s-1.61-.72-1.52-1.14.92-.59,1.85-.39S249,157.39,248.92,157.81Z" transform="translate(-6.91 -5.3)"/><path class="cls-6" d="M250.7,153.81c-.22.37-1,.31-1.8-.14s-1.23-1.13-1-1.5,1-.31,1.8.15S250.91,153.44,250.7,153.81Z" transform="translate(-6.91 -5.3)"/><path class="cls-6" d="M256.36,150.76c-.37.2-1.08-.39-1.32-1.41s.15-1.87.58-1.85.76.7.95,1.5S256.75,150.56,256.36,150.76Z" transform="translate(-6.91 -5.3)"/><path class="cls-6" d="M263.13,148.7a1.08,1.08,0,1,1-1.17.56A.93.93,0,0,1,263.13,148.7Z" transform="translate(-6.91 -5.3)"/><path class="cls-6" d="M267.06,154.65c.12.42-.25.88-.82,1a1,1,0,0,1-1.23-.48c-.11-.42.26-.88.83-1A.94.94,0,0,1,267.06,154.65Z" transform="translate(-6.91 -5.3)"/><path class="cls-6" d="M248.72,146.87c.23-.36,1.31-.06,2.18.91s1.06,2.06.68,2.26-1.11-.42-1.84-1.22S248.47,147.23,248.72,146.87Z" transform="translate(-6.91 -5.3)"/><path class="cls-6" d="M258.54,144.8c.43,0,.78.54.78,1.21s-.35,1.21-.78,1.21-.78-.54-.78-1.21S258.11,144.8,258.54,144.8Z" transform="translate(-6.91 -5.3)"/><path class="cls-6" d="M241.85,153c.13-.41,1.12-.45,2.2-.08s1.84,1,1.7,1.4-1.13.44-2.2.08S241.71,153.38,241.85,153Z" transform="translate(-6.91 -5.3)"/><path class="cls-6" d="M246.29,149.47c-.3.31-.92.18-1.39-.28s-.59-1.08-.29-1.39.93-.18,1.39.28S246.6,149.17,246.29,149.47Z" transform="translate(-6.91 -5.3)"/><path class="cls-6" d="M253.29,143.13c.43,0,.82.59.88,1.38s-.24,1.48-.67,1.51-.83-.59-.89-1.39S252.86,143.16,253.29,143.13Z" transform="translate(-6.91 -5.3)"/><path class="cls-6" d="M234.77,152.51c.4.15.43,1.06,0,2s-1,1.63-1.4,1.47-.43-1.06,0-2S234.37,152.35,234.77,152.51Z" transform="translate(-6.91 -5.3)"/><path class="cls-6" d="M237.62,152.21c.42-.08.91.64,1.1,1.6s0,1.82-.44,1.9-.91-.64-1.1-1.6S237.19,152.29,237.62,152.21Z" transform="translate(-6.91 -5.3)"/><path class="cls-6" d="M243.66,150.77c0,.43-.85.73-1.85.68s-1.78-.45-1.75-.88.84-.74,1.84-.68S243.68,150.33,243.66,150.77Z" transform="translate(-6.91 -5.3)"/><path class="cls-6" d="M232.29,150.33c.09.42-.49.9-1.31,1.08s-1.54,0-1.63-.44.49-.91,1.3-1.09S232.2,149.91,232.29,150.33Z" transform="translate(-6.91 -5.3)"/><path class="cls-6" d="M237.6,148.72c.15.41-.27.94-.95,1.19s-1.34.14-1.49-.27.27-.94.94-1.19S237.45,148.32,237.6,148.72Z" transform="translate(-6.91 -5.3)"/><path class="cls-6" d="M232.86,147.3c0,.43-1.14.89-2.64.76s-2.59-.78-2.47-1.19,1.26-.47,2.6-.36S232.81,146.87,232.86,147.3Z" transform="translate(-6.91 -5.3)"/><path class="cls-6" d="M235.42,145.28c-.17.4-1.39.25-2.72-.33s-2.28-1.37-2.1-1.77,1.39-.25,2.72.33S235.59,144.88,235.42,145.28Z" transform="translate(-6.91 -5.3)"/><path class="cls-6" d="M249.82,143.32c.18.4-.27,1-.94,1.43s-1.39.62-1.68.3,0-1.09.82-1.61S249.64,142.93,249.82,143.32Z" transform="translate(-6.91 -5.3)"/><path class="cls-6" d="M227.63,144.19c-.16.4-.79.53-1.41.28s-1-.77-.85-1.17.8-.52,1.42-.28S227.79,143.79,227.63,144.19Z" transform="translate(-6.91 -5.3)"/><path class="cls-6" d="M249.16,187.92c0,.43-1,.81-2.3.86s-2.34-.28-2.35-.71,1-.81,2.3-.86S249.15,187.49,249.16,187.92Z" transform="translate(-6.91 -5.3)"/><path class="cls-6" d="M251.5,185.18c-.31.3-1.11,0-1.78-.71s-1-1.49-.65-1.79,1.1,0,1.77.71S251.81,184.88,251.5,185.18Z" transform="translate(-6.91 -5.3)"/><path class="cls-6" d="M253.77,183.81c-.42.08-.94-.78-.85-1.94s.72-1.93,1.12-1.79.5,1,.43,1.91S254.2,183.73,253.77,183.81Z" transform="translate(-6.91 -5.3)"/><path class="cls-6" d="M255.64,185.8c.29.32.06,1-.44,1.53s-1.15.81-1.49.55-.22-1,.35-1.62S255.36,185.47,255.64,185.8Z" transform="translate(-6.91 -5.3)"/><path class="cls-6" d="M254.68,192.46c-.43,0-.76-.67-.62-1.45s.66-1.27,1.07-1.14.58.76.46,1.42S255.11,192.47,254.68,192.46Z" transform="translate(-6.91 -5.3)"/><path class="cls-6" d="M250.88,190a.64.64,0,1,1-.6,1.13.67.67,0,1,1,.6-1.13Z" transform="translate(-6.91 -5.3)"/><path class="cls-6" d="M257.37,178.44c.41.14.42,1.12-.13,2.09s-1.39,1.47-1.72,1.2-.12-1.11.36-2S257,178.29,257.37,178.44Z" transform="translate(-6.91 -5.3)"/><path class="cls-6" d="M254.17,178c0,.43-.82.82-1.89.88s-1.95-.24-2-.67.82-.83,1.88-.89S254.15,177.59,254.17,178Z" transform="translate(-6.91 -5.3)"/><path class="cls-6" d="M247.21,185c-.33.27-.93.09-1.32-.41s-.45-1.11-.11-1.38.93-.09,1.33.41S247.55,184.69,247.21,185Z" transform="translate(-6.91 -5.3)"/><path class="cls-6" d="M240.87,188.3c-.29.31-1.28-.17-1.93-1.26s-.6-2.18-.19-2.3,1,.6,1.54,1.5S241.18,188,240.87,188.3Z" transform="translate(-6.91 -5.3)"/><path class="cls-6" d="M237.57,188.25c-.11.42-.73.62-1.39.45s-1.09-.65-1-1.07.73-.62,1.38-.44S237.68,187.84,237.57,188.25Z" transform="translate(-6.91 -5.3)"/><path class="cls-6" d="M215.63,211.66c-.42-.06-.63-1.08-.46-2.27s.66-2.1,1.09-2,.63,1.08.46,2.27S216.06,211.72,215.63,211.66Z" transform="translate(-6.91 -5.3)"/><path class="cls-6" d="M221.52,211c-.39.19-1.2-.71-1.8-2s-.78-2.49-.39-2.67,1.2.71,1.8,2S221.91,210.8,221.52,211Z" transform="translate(-6.91 -5.3)"/><path class="cls-6" d="M226.69,207.36c-.28.32-1.38-.16-2.53-1s-2-1.71-1.75-2.08,1.44-.06,2.66.81S227,207,226.69,207.36Z" transform="translate(-6.91 -5.3)"/><path class="cls-6" d="M218.76,201.27c.4.16.46.95.14,1.75s-.92,1.33-1.32,1.16-.46-.94-.13-1.74S218.36,201.11,218.76,201.27Z" transform="translate(-6.91 -5.3)"/><path class="cls-6" d="M226.9,211.92c-.34.26-1.07-.12-1.63-.86s-.72-1.54-.38-1.8,1.07.12,1.63.86S227.25,211.66,226.9,211.92Z" transform="translate(-6.91 -5.3)"/><path class="cls-6" d="M218.33,213.52c-.43.06-.85-.44-1-1.11s.18-1.28.6-1.34.85.44,1,1.12S218.76,213.46,218.33,213.52Z" transform="translate(-6.91 -5.3)"/><path class="cls-6" d="M234.89,205.64c-.11.42-1.49.49-3.08.16s-2.84-1-2.77-1.37,1.44-.5,3.08-.16S235,205.22,234.89,205.64Z" transform="translate(-6.91 -5.3)"/><path class="cls-6" d="M233.93,211.79c-.28.33-1.4-.14-2.51-1.06s-1.79-1.92-1.51-2.26,1.39.14,2.5,1.06S234.2,211.45,233.93,211.79Z" transform="translate(-6.91 -5.3)"/><path class="cls-6" d="M239.53,210.05c-.13.42-1.07.49-2.1.17s-1.77-.91-1.64-1.33,1.07-.48,2.1-.16S239.65,209.64,239.53,210.05Z" transform="translate(-6.91 -5.3)"/><path class="cls-6" d="M244,211.08c0,.44-.6.83-1.31,1.16s-1.42.53-1.73.23.07-1.2,1.08-1.65S244,210.66,244,211.08Z" transform="translate(-6.91 -5.3)"/><path class="cls-6" d="M242.57,207.34c-.21.38-1,.32-1.84-.13s-1.29-1.12-1.08-1.5,1-.32,1.84.14S242.78,207,242.57,207.34Z" transform="translate(-6.91 -5.3)"/><path class="cls-6" d="M247.12,206.89a1.4,1.4,0,0,1-.29,1.33c-.3.42-.71.8-1.14.75s-.68-.86-.15-1.63S246.94,206.5,247.12,206.89Z" transform="translate(-6.91 -5.3)"/><path class="cls-6" d="M251.78,210.38c0,.43-.81.8-1.84.84s-1.88-.3-1.89-.73.81-.8,1.84-.84S251.77,209.94,251.78,210.38Z" transform="translate(-6.91 -5.3)"/><path class="cls-6" d="M252.45,207.88c-.17.39-1,.42-1.82.06s-1.37-1-1.2-1.37,1-.42,1.82-.06S252.62,207.48,252.45,207.88Z" transform="translate(-6.91 -5.3)"/><path class="cls-6" d="M255.63,209.09c-.42-.05-.69-.71-.43-1.41s.89-1,1.25-.8a1.14,1.14,0,0,1,.22,1.34C256.47,208.75,256.06,209.15,255.63,209.09Z" transform="translate(-6.91 -5.3)"/><path class="cls-6" d="M230.34,168.32c.36-.24,1.15.33,1.77,1.27s.83,1.89.47,2.13-1.15-.33-1.77-1.27S230,168.55,230.34,168.32Z" transform="translate(-6.91 -5.3)"/><path class="cls-6" d="M236.91,166.91c.37.23.06,1.36-.68,2.52s-1.64,1.91-2,1.68-.06-1.36.68-2.52S236.55,166.68,236.91,166.91Z" transform="translate(-6.91 -5.3)"/><path class="cls-6" d="M240.53,171.29c.16.4-.57,1.05-1.63,1.45s-2,.39-2.18,0,.58-1.05,1.63-1.45S240.38,170.89,240.53,171.29Z" transform="translate(-6.91 -5.3)"/><path class="cls-6" d="M239.57,178.3c-.26.35-1.21.08-2-.7s-1.17-1.7-.84-2,1.14.13,1.9.84S239.83,178,239.57,178.3Z" transform="translate(-6.91 -5.3)"/><path class="cls-6" d="M233.79,181.08c-.42.11-1-1-.93-2.44s.83-2.47,1.22-2.32.41,1.2.34,2.41S234.21,181,233.79,181.08Z" transform="translate(-6.91 -5.3)"/><path class="cls-6" d="M235.6,174.34c-.12.41-.8.59-1.52.38s-1.22-.7-1.1-1.12.8-.58,1.52-.38S235.71,173.92,235.6,174.34Z" transform="translate(-6.91 -5.3)"/><path class="cls-6" d="M241.61,166.31c.35.25,0,1.33-1,2.22s-2.09,1.15-2.31.78.41-1.16,1.26-1.93S241.26,166.06,241.61,166.31Z" transform="translate(-6.91 -5.3)"/><path class="cls-6" d="M232.89,163.7c.42-.09.94.66,1,1.7s-.39,1.85-.82,1.8-.69-.82-.74-1.71S232.47,163.8,232.89,163.7Z" transform="translate(-6.91 -5.3)"/><path class="cls-6" d="M238.62,160.93c.42.1.54,1.08.11,2.15s-1.19,1.7-1.56,1.49-.27-1.11.11-2.07S238.2,160.83,238.62,160.93Z" transform="translate(-6.91 -5.3)"/><path class="cls-6" d="M245.84,170.53c0,.43-.58.84-1.4.92s-1.5-.21-1.55-.64.59-.84,1.4-.92S245.8,170.1,245.84,170.53Z" transform="translate(-6.91 -5.3)"/><path class="cls-6" d="M243.63,176.11c-.15.4-1,.49-2,.18s-1.59-.88-1.47-1.3,1-.5,2-.18S243.79,175.71,243.63,176.11Z" transform="translate(-6.91 -5.3)"/><path class="cls-6" d="M237.59,182.43c-.37.21-1.07-.35-1.36-1.32s0-1.82.43-1.84.84.61,1.07,1.4S238,182.22,237.59,182.43Z" transform="translate(-6.91 -5.3)"/><path class="cls-6" d="M233.6,186.17c-.43,0-.81-.56-.85-1.31s.27-1.37.7-1.39.81.56.86,1.3S234,186.14,233.6,186.17Z" transform="translate(-6.91 -5.3)"/><path class="cls-6" d="M243.49,184.25c-.4.18-1.08-.48-1.67-1.39s-.91-1.8-.59-2.09,1.24.22,1.9,1.24S243.88,184.07,243.49,184.25Z" transform="translate(-6.91 -5.3)"/><path class="cls-6" d="M248.06,180.6c-.21.38-1.2.22-2.26-.21s-1.88-1-1.77-1.44,1.19-.49,2.36,0S248.28,180.23,248.06,180.6Z" transform="translate(-6.91 -5.3)"/><path class="cls-6" d="M248.38,176a1.34,1.34,0,0,1-1.37-.1c-.47-.26-.88-.64-.86-1.08s.79-.73,1.59-.3S248.73,175.75,248.38,176Z" transform="translate(-6.91 -5.3)"/><path class="cls-6" d="M235.44,157.19c.42.07.61,1.05.5,2.21s-.48,2.08-.92,2.06-.75-1-.63-2.22S235,157.12,235.44,157.19Z" transform="translate(-6.91 -5.3)"/><path class="cls-6" d="M244.39,160.57c.32.29,0,1.19-.76,2s-1.61,1.27-1.93,1,0-1.19.76-2S244.07,160.28,244.39,160.57Z" transform="translate(-6.91 -5.3)"/><path class="cls-6" d="M245.74,162.68a.75.75,0,0,1,1,.1.74.74,0,0,1-.2,1,.7.7,0,1,1-.84-1.12Z" transform="translate(-6.91 -5.3)"/><path class="cls-6" d="M221.77,159.68c-.13.4-1.24.39-2.41-.14s-1.9-1.36-1.68-1.73,1.24-.19,2.33.31S221.92,159.27,221.77,159.68Z" transform="translate(-6.91 -5.3)"/><path class="cls-6" d="M216.92,168.16c-.4.16-1-.44-1.25-1.38s0-1.75.44-1.8.86.59,1.07,1.42S217.32,168,216.92,168.16Z" transform="translate(-6.91 -5.3)"/><path class="cls-6" d="M223.07,164.44c-.33.29-1.11-.08-1.76-.81s-.9-1.56-.58-1.85,1.11.08,1.76.82S223.39,164.16,223.07,164.44Z" transform="translate(-6.91 -5.3)"/><path class="cls-6" d="M220.14,151.55c.31.3-.25,1.37-1.24,2.37s-2.06,1.59-2.36,1.29.25-1.37,1.24-2.38S219.83,151.25,220.14,151.55Z" transform="translate(-6.91 -5.3)"/><path class="cls-6" d="M215.55,149.69c.4.15.46,1.05.11,2s-.95,1.66-1.35,1.52-.46-1.05-.12-2S215.14,149.55,215.55,149.69Z" transform="translate(-6.91 -5.3)"/><path class="cls-6" d="M215.72,157.19c.24.36-.11,1-.68,1.61s-1.22,1-1.59.73-.23-1.1.47-1.82S215.49,156.83,215.72,157.19Z" transform="translate(-6.91 -5.3)"/><path class="cls-6" d="M214,156.13c-.39.17-.91-.17-.94-.79s.46-1,.87-.87a1,1,0,0,1,.69.8A1,1,0,0,1,214,156.13Z" transform="translate(-6.91 -5.3)"/><path class="cls-6" d="M222.6,155.13c.06.43-.67.88-1.63,1s-1.78-.11-1.84-.54.67-.88,1.63-1S222.54,154.7,222.6,155.13Z" transform="translate(-6.91 -5.3)"/><path class="cls-6" d="M219.37,147.75c.35.25.15,1.12-.44,1.95s-1.35,1.3-1.71,1.05-.15-1.12.44-1.95S219,147.5,219.37,147.75Z" transform="translate(-6.91 -5.3)"/><path class="cls-6" d="M222.21,169.75c-.3.3-1.25-.19-1.81-1.29s-.41-2.15,0-2.22.93.64,1.38,1.51S222.53,169.45,222.21,169.75Z" transform="translate(-6.91 -5.3)"/><path class="cls-6" d="M213.3,171.29c-.42,0-.84-.62-.77-1.49s.59-1.45,1-1.34.61.76.55,1.47S213.74,171.25,213.3,171.29Z" transform="translate(-6.91 -5.3)"/><path class="cls-6" d="M219.13,171.2c-.13.41-.92.54-1.77.28s-1.44-.81-1.32-1.22.92-.54,1.77-.28S219.25,170.79,219.13,171.2Z" transform="translate(-6.91 -5.3)"/><path class="cls-6" d="M226.5,169.15c-.33.29-1.13-.09-1.8-.84s-.95-1.59-.63-1.88,1.13.09,1.8.84S226.82,168.86,226.5,169.15Z" transform="translate(-6.91 -5.3)"/><path class="cls-6" d="M228.21,157.35c0,.43-.92.83-2.1.9s-2.16-.23-2.19-.66.92-.83,2.1-.9S228.18,156.92,228.21,157.35Z" transform="translate(-6.91 -5.3)"/><path class="cls-6" d="M225.9,149.79c.21.38-.4,1.12-1.36,1.66s-1.9.67-2.12.3.4-1.12,1.36-1.66S225.69,149.42,225.9,149.79Z" transform="translate(-6.91 -5.3)"/><path class="cls-6" d="M217.26,145.81a1.13,1.13,0,0,1-1,1.9,1,1,0,0,1-.19-1.31C216.35,145.87,216.88,145.61,217.26,145.81Z" transform="translate(-6.91 -5.3)"/><path class="cls-6" d="M224.33,145.65c.31.3,0,1.14-.72,1.88s-1.53,1.09-1.84.79,0-1.13.71-1.87S224,145.35,224.33,145.65Z" transform="translate(-6.91 -5.3)"/><path class="cls-6" d="M228.71,153.44c.09.42-.62.91-1.57,1.09s-1.78,0-1.86-.44.62-.91,1.57-1.09S228.63,153,228.71,153.44Z" transform="translate(-6.91 -5.3)"/><path class="cls-6" d="M229.32,163.75c-.25.36-1.16.15-2.1-.37s-1.59-1.2-1.41-1.6,1.17-.33,2.18.24S229.57,163.4,229.32,163.75Z" transform="translate(-6.91 -5.3)"/><path class="cls-6" d="M255.08,171.12c-.13.42-1.22.44-2.43.06s-2.09-1-2-1.44,1.22-.43,2.43-.05S255.21,170.71,255.08,171.12Z" transform="translate(-6.91 -5.3)"/><path class="cls-6" d="M255.44,175.26c-.29.32-1.05.11-1.71-.47s-1-1.31-.67-1.63,1.05-.12,1.7.46S255.72,174.94,255.44,175.26Z" transform="translate(-6.91 -5.3)"/><path class="cls-6" d="M256.09,165.78c.15.4-.77,1.16-2,1.68s-2.47.63-2.65.24.74-1.14,2.06-1.68S256,165.37,256.09,165.78Z" transform="translate(-6.91 -5.3)"/><path class="cls-6" d="M257.82,168.56c0,.43-.59.8-1.35.82s-1.39-.32-1.4-.75.6-.8,1.35-.82S257.81,168.13,257.82,168.56Z" transform="translate(-6.91 -5.3)"/><path class="cls-6" d="M259.81,174.08c-.4.17-1-.29-1.63-.76S257,172.38,257,172c0-.21.29-.37.69-.38a2.4,2.4,0,0,1,1.42.51,2.33,2.33,0,0,1,.86,1.23C260.09,173.7,260,174,259.81,174.08Z" transform="translate(-6.91 -5.3)"/><path class="cls-6" d="M259.85,178.17c-.34.26-1.13-.17-1.76-1s-.87-1.68-.53-1.95,1.13.18,1.76,1S260.19,177.9,259.85,178.17Z" transform="translate(-6.91 -5.3)"/><path class="cls-6" d="M244.08,166.31c.21-.37,1.41-.1,2.67.62s2.1,1.6,1.89,2-1.41.1-2.67-.61S243.87,166.69,244.08,166.31Z" transform="translate(-6.91 -5.3)"/><path class="cls-6" d="M249.12,160.07c.43,0,.84,1.19.92,2.7s-.21,2.76-.64,2.79-.84-1.19-.92-2.71S248.69,160.09,249.12,160.07Z" transform="translate(-6.91 -5.3)"/><path class="cls-6" d="M255.54,161.17c.26.34-.29,1.22-1.24,2s-1.93,1.06-2.2.72.29-1.21,1.24-1.95S255.27,160.83,255.54,161.17Z" transform="translate(-6.91 -5.3)"/><path class="cls-6" d="M261.84,162.5c.1.42-.8,1-2,1.29s-2.28.2-2.38-.22.8-1,2-1.3S261.73,162.08,261.84,162.5Z" transform="translate(-6.91 -5.3)"/><path class="cls-6" d="M263.6,167.61c-.13.41-1.07.49-2.11.18s-1.78-.91-1.66-1.32,1.07-.49,2.11-.18S263.72,167.2,263.6,167.61Z" transform="translate(-6.91 -5.3)"/><path class="cls-6" d="M267.69,163.58c.07.42-.6.88-1.48,1s-1.65-.11-1.72-.53.6-.88,1.49-1S267.63,163.15,267.69,163.58Z" transform="translate(-6.91 -5.3)"/><path class="cls-6" d="M265.32,169.4c.18.39-.32,1-1.17,1.19s-1.56-.12-1.57-.55.54-.81,1.22-1S265.14,169,265.32,169.4Z" transform="translate(-6.91 -5.3)"/><path class="cls-6" d="M267.43,168.67c-.41.13-.93-.37-1-1.15s.45-1.33.87-1.23.67.61.69,1.16A1.18,1.18,0,0,1,267.43,168.67Z" transform="translate(-6.91 -5.3)"/><path class="cls-6" d="M264.65,157.5c.42.08.6,1,.4,2.11s-.71,1.9-1.14,1.82-.6-1-.4-2.11S264.22,157.42,264.65,157.5Z" transform="translate(-6.91 -5.3)"/><path class="cls-6" d="M268.42,160.61c-.43,0-.72-.69-.65-1.45s.48-1.33.91-1.29.72.69.65,1.45S268.85,160.65,268.42,160.61Z" transform="translate(-6.91 -5.3)"/><path class="cls-6" d="M271.06,164.74c-.43,0-.86-.6-1-1.46s.16-1.6.59-1.65.86.6,1,1.46S271.49,164.68,271.06,164.74Z" transform="translate(-6.91 -5.3)"/><path class="cls-6" d="M213.65,166.94c-.43,0-.83-1.35-.77-3.05s.53-3,1-3,.65,1.41.6,3.05S214.08,166.93,213.65,166.94Z" transform="translate(-6.91 -5.3)"/><path class="cls-6" d="M218.59,164.45c-.37.23-1.29-.57-2.07-1.79s-1.11-2.4-.75-2.63,1.29.57,2.07,1.79S219,164.22,218.59,164.45Z" transform="translate(-6.91 -5.3)"/><path class="cls-6" d="M251.39,176.05c-.37.21-1.3-.74-2.08-2.12s-1.09-2.67-.71-2.88,1.31.74,2.08,2.12S251.77,175.84,251.39,176.05Z" transform="translate(-6.91 -5.3)"/><g class="cls-10"><path class="cls-4" d="M229.75,173.1c.43-.06.87.51,1.09,1.26s.17,1.48-.23,1.65-1-.34-1.26-1.2S229.32,173.17,229.75,173.1Z" transform="translate(-6.91 -5.3)"/><path class="cls-4" d="M231.21,154.11c.42.06.66,1.44.52,3.09s-.6,3-1,3-.67-1.4-.53-3.1S230.78,154.05,231.21,154.11Z" transform="translate(-6.91 -5.3)"/><path class="cls-4" d="M228.42,167.61a.72.72,0,0,1-.49-1.09.72.72,0,0,1,1.16-.3.78.78,0,0,1-.67,1.39Z" transform="translate(-6.91 -5.3)"/><path class="cls-4" d="M240.74,155.7c.42.08.62.9.44,1.82s-.67,1.61-1.09,1.53-.63-.9-.45-1.82S240.31,155.62,240.74,155.7Z" transform="translate(-6.91 -5.3)"/><path class="cls-4" d="M254.12,157.16c.08.42-.64.9-1.6.83s-1.61-.64-1.47-1.05.83-.55,1.58-.51S254.05,156.73,254.12,157.16Z" transform="translate(-6.91 -5.3)"/><path class="cls-4" d="M256.47,155.12c-.26.34-1.21.06-2.11-.63s-1.42-1.53-1.16-1.87,1.21-.06,2.11.63S256.73,154.78,256.47,155.12Z" transform="translate(-6.91 -5.3)"/><path class="cls-4" d="M258.7,153.55c-.42,0-.78-1.05-.44-2.31s1.17-2,1.54-1.79.24,1.15,0,2.19S259.14,153.55,258.7,153.55Z" transform="translate(-6.91 -5.3)"/><path class="cls-4" d="M263.6,152.51c.32.29,0,1.15-.7,1.91s-1.52,1.15-1.84.85,0-1.14.69-1.91S263.28,152.22,263.6,152.51Z" transform="translate(-6.91 -5.3)"/><path class="cls-4" d="M261.31,158.81c-.08.42-1,.61-2.1.42s-1.9-.7-1.82-1.13,1-.61,2.1-.41S261.38,158.38,261.31,158.81Z" transform="translate(-6.91 -5.3)"/><path class="cls-4" d="M248.92,157.81c-.09.42-.92.6-1.85.39s-1.61-.72-1.52-1.14.92-.59,1.85-.39S249,157.39,248.92,157.81Z" transform="translate(-6.91 -5.3)"/><path class="cls-4" d="M250.7,153.81c-.22.37-1,.31-1.8-.14s-1.23-1.13-1-1.5,1-.31,1.8.15S250.91,153.44,250.7,153.81Z" transform="translate(-6.91 -5.3)"/><path class="cls-4" d="M256.36,150.76c-.37.2-1.08-.39-1.32-1.41s.15-1.87.58-1.85.76.7.95,1.5S256.75,150.56,256.36,150.76Z" transform="translate(-6.91 -5.3)"/><path class="cls-4" d="M263.13,148.7a1.08,1.08,0,1,1-1.17.56A.93.93,0,0,1,263.13,148.7Z" transform="translate(-6.91 -5.3)"/><path class="cls-4" d="M267.06,154.65c.12.42-.25.88-.82,1a1,1,0,0,1-1.23-.48c-.11-.42.26-.88.83-1A.94.94,0,0,1,267.06,154.65Z" transform="translate(-6.91 -5.3)"/><path class="cls-4" d="M248.72,146.87c.23-.36,1.31-.06,2.18.91s1.06,2.06.68,2.26-1.11-.42-1.84-1.22S248.47,147.23,248.72,146.87Z" transform="translate(-6.91 -5.3)"/><path class="cls-4" d="M258.54,144.8c.43,0,.78.54.78,1.21s-.35,1.21-.78,1.21-.78-.54-.78-1.21S258.11,144.8,258.54,144.8Z" transform="translate(-6.91 -5.3)"/><path class="cls-4" d="M241.85,153c.13-.41,1.12-.45,2.2-.08s1.84,1,1.7,1.4-1.13.44-2.2.08S241.71,153.38,241.85,153Z" transform="translate(-6.91 -5.3)"/><path class="cls-4" d="M246.29,149.47c-.3.31-.92.18-1.39-.28s-.59-1.08-.29-1.39.93-.18,1.39.28S246.6,149.17,246.29,149.47Z" transform="translate(-6.91 -5.3)"/><path class="cls-4" d="M253.29,143.13c.43,0,.82.59.88,1.38s-.24,1.48-.67,1.51-.83-.59-.89-1.39S252.86,143.16,253.29,143.13Z" transform="translate(-6.91 -5.3)"/><path class="cls-4" d="M234.77,152.51c.4.15.43,1.06,0,2s-1,1.63-1.4,1.47-.43-1.06,0-2S234.37,152.35,234.77,152.51Z" transform="translate(-6.91 -5.3)"/><path class="cls-4" d="M237.62,152.21c.42-.08.91.64,1.1,1.6s0,1.82-.44,1.9-.91-.64-1.1-1.6S237.19,152.29,237.62,152.21Z" transform="translate(-6.91 -5.3)"/><path class="cls-4" d="M243.66,150.77c0,.43-.85.73-1.85.68s-1.78-.45-1.75-.88.84-.74,1.84-.68S243.68,150.33,243.66,150.77Z" transform="translate(-6.91 -5.3)"/><path class="cls-4" d="M232.29,150.33c.09.42-.49.9-1.31,1.08s-1.54,0-1.63-.44.49-.91,1.3-1.09S232.2,149.91,232.29,150.33Z" transform="translate(-6.91 -5.3)"/><path class="cls-4" d="M237.6,148.72c.15.41-.27.94-.95,1.19s-1.34.14-1.49-.27.27-.94.94-1.19S237.45,148.32,237.6,148.72Z" transform="translate(-6.91 -5.3)"/><path class="cls-4" d="M232.86,147.3c0,.43-1.14.89-2.64.76s-2.59-.78-2.47-1.19,1.26-.47,2.6-.36S232.81,146.87,232.86,147.3Z" transform="translate(-6.91 -5.3)"/><path class="cls-4" d="M235.42,145.28c-.17.4-1.39.25-2.72-.33s-2.28-1.37-2.1-1.77,1.39-.25,2.72.33S235.59,144.88,235.42,145.28Z" transform="translate(-6.91 -5.3)"/><path class="cls-4" d="M249.82,143.32c.18.4-.27,1-.94,1.43s-1.39.62-1.68.3,0-1.09.82-1.61S249.64,142.93,249.82,143.32Z" transform="translate(-6.91 -5.3)"/><path class="cls-4" d="M227.63,144.19c-.16.4-.79.53-1.41.28s-1-.77-.85-1.17.8-.52,1.42-.28S227.79,143.79,227.63,144.19Z" transform="translate(-6.91 -5.3)"/><path class="cls-4" d="M249.16,187.92c0,.43-1,.81-2.3.86s-2.34-.28-2.35-.71,1-.81,2.3-.86S249.15,187.49,249.16,187.92Z" transform="translate(-6.91 -5.3)"/><path class="cls-4" d="M251.5,185.18c-.31.3-1.11,0-1.78-.71s-1-1.49-.65-1.79,1.1,0,1.77.71S251.81,184.88,251.5,185.18Z" transform="translate(-6.91 -5.3)"/><path class="cls-4" d="M253.77,183.81c-.42.08-.94-.78-.85-1.94s.72-1.93,1.12-1.79.5,1,.43,1.91S254.2,183.73,253.77,183.81Z" transform="translate(-6.91 -5.3)"/><path class="cls-4" d="M255.64,185.8c.29.32.06,1-.44,1.53s-1.15.81-1.49.55-.22-1,.35-1.62S255.36,185.47,255.64,185.8Z" transform="translate(-6.91 -5.3)"/><path class="cls-4" d="M254.68,192.46c-.43,0-.76-.67-.62-1.45s.66-1.27,1.07-1.14.58.76.46,1.42S255.11,192.47,254.68,192.46Z" transform="translate(-6.91 -5.3)"/><path class="cls-4" d="M250.88,190a.64.64,0,1,1-.6,1.13.67.67,0,1,1,.6-1.13Z" transform="translate(-6.91 -5.3)"/><path class="cls-4" d="M257.37,178.44c.41.14.42,1.12-.13,2.09s-1.39,1.47-1.72,1.2-.12-1.11.36-2S257,178.29,257.37,178.44Z" transform="translate(-6.91 -5.3)"/><path class="cls-4" d="M254.17,178c0,.43-.82.82-1.89.88s-1.95-.24-2-.67.82-.83,1.88-.89S254.15,177.59,254.17,178Z" transform="translate(-6.91 -5.3)"/><path class="cls-4" d="M247.21,185c-.33.27-.93.09-1.32-.41s-.45-1.11-.11-1.38.93-.09,1.33.41S247.55,184.69,247.21,185Z" transform="translate(-6.91 -5.3)"/><path class="cls-4" d="M240.87,188.3c-.29.31-1.28-.17-1.93-1.26s-.6-2.18-.19-2.3,1,.6,1.54,1.5S241.18,188,240.87,188.3Z" transform="translate(-6.91 -5.3)"/><path class="cls-4" d="M237.57,188.25c-.11.42-.73.62-1.39.45s-1.09-.65-1-1.07.73-.62,1.38-.44S237.68,187.84,237.57,188.25Z" transform="translate(-6.91 -5.3)"/><path class="cls-4" d="M215.63,211.66c-.42-.06-.63-1.08-.46-2.27s.66-2.1,1.09-2,.63,1.08.46,2.27S216.06,211.72,215.63,211.66Z" transform="translate(-6.91 -5.3)"/><path class="cls-4" d="M221.52,211c-.39.19-1.2-.71-1.8-2s-.78-2.49-.39-2.67,1.2.71,1.8,2S221.91,210.8,221.52,211Z" transform="translate(-6.91 -5.3)"/><path class="cls-4" d="M226.69,207.36c-.28.32-1.38-.16-2.53-1s-2-1.71-1.75-2.08,1.44-.06,2.66.81S227,207,226.69,207.36Z" transform="translate(-6.91 -5.3)"/><path class="cls-4" d="M218.76,201.27c.4.16.46.95.14,1.75s-.92,1.33-1.32,1.16-.46-.94-.13-1.74S218.36,201.11,218.76,201.27Z" transform="translate(-6.91 -5.3)"/><path class="cls-4" d="M226.9,211.92c-.34.26-1.07-.12-1.63-.86s-.72-1.54-.38-1.8,1.07.12,1.63.86S227.25,211.66,226.9,211.92Z" transform="translate(-6.91 -5.3)"/><path class="cls-4" d="M218.33,213.52c-.43.06-.85-.44-1-1.11s.18-1.28.6-1.34.85.44,1,1.12S218.76,213.46,218.33,213.52Z" transform="translate(-6.91 -5.3)"/><path class="cls-4" d="M234.89,205.64c-.11.42-1.49.49-3.08.16s-2.84-1-2.77-1.37,1.44-.5,3.08-.16S235,205.22,234.89,205.64Z" transform="translate(-6.91 -5.3)"/><path class="cls-4" d="M233.93,211.79c-.28.33-1.4-.14-2.51-1.06s-1.79-1.92-1.51-2.26,1.39.14,2.5,1.06S234.2,211.45,233.93,211.79Z" transform="translate(-6.91 -5.3)"/><path class="cls-4" d="M239.53,210.05c-.13.42-1.07.49-2.1.17s-1.77-.91-1.64-1.33,1.07-.48,2.1-.16S239.65,209.64,239.53,210.05Z" transform="translate(-6.91 -5.3)"/><path class="cls-4" d="M244,211.08c0,.44-.6.83-1.31,1.16s-1.42.53-1.73.23.07-1.2,1.08-1.65S244,210.66,244,211.08Z" transform="translate(-6.91 -5.3)"/><path class="cls-4" d="M242.57,207.34c-.21.38-1,.32-1.84-.13s-1.29-1.12-1.08-1.5,1-.32,1.84.14S242.78,207,242.57,207.34Z" transform="translate(-6.91 -5.3)"/><path class="cls-4" d="M247.12,206.89a1.4,1.4,0,0,1-.29,1.33c-.3.42-.71.8-1.14.75s-.68-.86-.15-1.63S246.94,206.5,247.12,206.89Z" transform="translate(-6.91 -5.3)"/><path class="cls-4" d="M251.78,210.38c0,.43-.81.8-1.84.84s-1.88-.3-1.89-.73.81-.8,1.84-.84S251.77,209.94,251.78,210.38Z" transform="translate(-6.91 -5.3)"/><path class="cls-4" d="M252.45,207.88c-.17.39-1,.42-1.82.06s-1.37-1-1.2-1.37,1-.42,1.82-.06S252.62,207.48,252.45,207.88Z" transform="translate(-6.91 -5.3)"/><path class="cls-4" d="M255.63,209.09c-.42-.05-.69-.71-.43-1.41s.89-1,1.25-.8a1.14,1.14,0,0,1,.22,1.34C256.47,208.75,256.06,209.15,255.63,209.09Z" transform="translate(-6.91 -5.3)"/><path class="cls-4" d="M230.34,168.32c.36-.24,1.15.33,1.77,1.27s.83,1.89.47,2.13-1.15-.33-1.77-1.27S230,168.55,230.34,168.32Z" transform="translate(-6.91 -5.3)"/><path class="cls-4" d="M236.91,166.91c.37.23.06,1.36-.68,2.52s-1.64,1.91-2,1.68-.06-1.36.68-2.52S236.55,166.68,236.91,166.91Z" transform="translate(-6.91 -5.3)"/><path class="cls-4" d="M240.53,171.29c.16.4-.57,1.05-1.63,1.45s-2,.39-2.18,0,.58-1.05,1.63-1.45S240.38,170.89,240.53,171.29Z" transform="translate(-6.91 -5.3)"/><path class="cls-4" d="M239.57,178.3c-.26.35-1.21.08-2-.7s-1.17-1.7-.84-2,1.14.13,1.9.84S239.83,178,239.57,178.3Z" transform="translate(-6.91 -5.3)"/><path class="cls-4" d="M233.79,181.08c-.42.11-1-1-.93-2.44s.83-2.47,1.22-2.32.41,1.2.34,2.41S234.21,181,233.79,181.08Z" transform="translate(-6.91 -5.3)"/><path class="cls-4" d="M235.6,174.34c-.12.41-.8.59-1.52.38s-1.22-.7-1.1-1.12.8-.58,1.52-.38S235.71,173.92,235.6,174.34Z" transform="translate(-6.91 -5.3)"/><path class="cls-4" d="M241.61,166.31c.35.25,0,1.33-1,2.22s-2.09,1.15-2.31.78.41-1.16,1.26-1.93S241.26,166.06,241.61,166.31Z" transform="translate(-6.91 -5.3)"/><path class="cls-4" d="M232.89,163.7c.42-.09.94.66,1,1.7s-.39,1.85-.82,1.8-.69-.82-.74-1.71S232.47,163.8,232.89,163.7Z" transform="translate(-6.91 -5.3)"/><path class="cls-4" d="M238.62,160.93c.42.1.54,1.08.11,2.15s-1.19,1.7-1.56,1.49-.27-1.11.11-2.07S238.2,160.83,238.62,160.93Z" transform="translate(-6.91 -5.3)"/><path class="cls-4" d="M245.84,170.53c0,.43-.58.84-1.4.92s-1.5-.21-1.55-.64.59-.84,1.4-.92S245.8,170.1,245.84,170.53Z" transform="translate(-6.91 -5.3)"/><path class="cls-4" d="M243.63,176.11c-.15.4-1,.49-2,.18s-1.59-.88-1.47-1.3,1-.5,2-.18S243.79,175.71,243.63,176.11Z" transform="translate(-6.91 -5.3)"/><path class="cls-4" d="M237.59,182.43c-.37.21-1.07-.35-1.36-1.32s0-1.82.43-1.84.84.61,1.07,1.4S238,182.22,237.59,182.43Z" transform="translate(-6.91 -5.3)"/><path class="cls-4" d="M233.6,186.17c-.43,0-.81-.56-.85-1.31s.27-1.37.7-1.39.81.56.86,1.3S234,186.14,233.6,186.17Z" transform="translate(-6.91 -5.3)"/><path class="cls-4" d="M243.49,184.25c-.4.18-1.08-.48-1.67-1.39s-.91-1.8-.59-2.09,1.24.22,1.9,1.24S243.88,184.07,243.49,184.25Z" transform="translate(-6.91 -5.3)"/><path class="cls-4" d="M248.06,180.6c-.21.38-1.2.22-2.26-.21s-1.88-1-1.77-1.44,1.19-.49,2.36,0S248.28,180.23,248.06,180.6Z" transform="translate(-6.91 -5.3)"/><path class="cls-4" d="M248.38,176a1.34,1.34,0,0,1-1.37-.1c-.47-.26-.88-.64-.86-1.08s.79-.73,1.59-.3S248.73,175.75,248.38,176Z" transform="translate(-6.91 -5.3)"/><path class="cls-4" d="M235.44,157.19c.42.07.61,1.05.5,2.21s-.48,2.08-.92,2.06-.75-1-.63-2.22S235,157.12,235.44,157.19Z" transform="translate(-6.91 -5.3)"/><path class="cls-4" d="M244.39,160.57c.32.29,0,1.19-.76,2s-1.61,1.27-1.93,1,0-1.19.76-2S244.07,160.28,244.39,160.57Z" transform="translate(-6.91 -5.3)"/><path class="cls-4" d="M245.74,162.68a.75.75,0,0,1,1,.1.74.74,0,0,1-.2,1,.7.7,0,1,1-.84-1.12Z" transform="translate(-6.91 -5.3)"/><path class="cls-4" d="M221.77,159.68c-.13.4-1.24.39-2.41-.14s-1.9-1.36-1.68-1.73,1.24-.19,2.33.31S221.92,159.27,221.77,159.68Z" transform="translate(-6.91 -5.3)"/><path class="cls-4" d="M216.92,168.16c-.4.16-1-.44-1.25-1.38s0-1.75.44-1.8.86.59,1.07,1.42S217.32,168,216.92,168.16Z" transform="translate(-6.91 -5.3)"/><path class="cls-4" d="M223.07,164.44c-.33.29-1.11-.08-1.76-.81s-.9-1.56-.58-1.85,1.11.08,1.76.82S223.39,164.16,223.07,164.44Z" transform="translate(-6.91 -5.3)"/><path class="cls-4" d="M220.14,151.55c.31.3-.25,1.37-1.24,2.37s-2.06,1.59-2.36,1.29.25-1.37,1.24-2.38S219.83,151.25,220.14,151.55Z" transform="translate(-6.91 -5.3)"/><path class="cls-4" d="M215.55,149.69c.4.15.46,1.05.11,2s-.95,1.66-1.35,1.52-.46-1.05-.12-2S215.14,149.55,215.55,149.69Z" transform="translate(-6.91 -5.3)"/><path class="cls-4" d="M215.72,157.19c.24.36-.11,1-.68,1.61s-1.22,1-1.59.73-.23-1.1.47-1.82S215.49,156.83,215.72,157.19Z" transform="translate(-6.91 -5.3)"/><path class="cls-4" d="M214,156.13c-.39.17-.91-.17-.94-.79s.46-1,.87-.87a1,1,0,0,1,.69.8A1,1,0,0,1,214,156.13Z" transform="translate(-6.91 -5.3)"/><path class="cls-4" d="M222.6,155.13c.06.43-.67.88-1.63,1s-1.78-.11-1.84-.54.67-.88,1.63-1S222.54,154.7,222.6,155.13Z" transform="translate(-6.91 -5.3)"/><path class="cls-4" d="M219.37,147.75c.35.25.15,1.12-.44,1.95s-1.35,1.3-1.71,1.05-.15-1.12.44-1.95S219,147.5,219.37,147.75Z" transform="translate(-6.91 -5.3)"/><path class="cls-4" d="M222.21,169.75c-.3.3-1.25-.19-1.81-1.29s-.41-2.15,0-2.22.93.64,1.38,1.51S222.53,169.45,222.21,169.75Z" transform="translate(-6.91 -5.3)"/><path class="cls-4" d="M213.3,171.29c-.42,0-.84-.62-.77-1.49s.59-1.45,1-1.34.61.76.55,1.47S213.74,171.25,213.3,171.29Z" transform="translate(-6.91 -5.3)"/><path class="cls-4" d="M219.13,171.2c-.13.41-.92.54-1.77.28s-1.44-.81-1.32-1.22.92-.54,1.77-.28S219.25,170.79,219.13,171.2Z" transform="translate(-6.91 -5.3)"/><path class="cls-4" d="M226.5,169.15c-.33.29-1.13-.09-1.8-.84s-.95-1.59-.63-1.88,1.13.09,1.8.84S226.82,168.86,226.5,169.15Z" transform="translate(-6.91 -5.3)"/><path class="cls-4" d="M228.21,157.35c0,.43-.92.83-2.1.9s-2.16-.23-2.19-.66.92-.83,2.1-.9S228.18,156.92,228.21,157.35Z" transform="translate(-6.91 -5.3)"/><path class="cls-4" d="M225.9,149.79c.21.38-.4,1.12-1.36,1.66s-1.9.67-2.12.3.4-1.12,1.36-1.66S225.69,149.42,225.9,149.79Z" transform="translate(-6.91 -5.3)"/><path class="cls-4" d="M217.26,145.81a1.13,1.13,0,0,1-1,1.9,1,1,0,0,1-.19-1.31C216.35,145.87,216.88,145.61,217.26,145.81Z" transform="translate(-6.91 -5.3)"/><path class="cls-4" d="M224.33,145.65c.31.3,0,1.14-.72,1.88s-1.53,1.09-1.84.79,0-1.13.71-1.87S224,145.35,224.33,145.65Z" transform="translate(-6.91 -5.3)"/><path class="cls-4" d="M228.71,153.44c.09.42-.62.91-1.57,1.09s-1.78,0-1.86-.44.62-.91,1.57-1.09S228.63,153,228.71,153.44Z" transform="translate(-6.91 -5.3)"/><path class="cls-4" d="M229.32,163.75c-.25.36-1.16.15-2.1-.37s-1.59-1.2-1.41-1.6,1.17-.33,2.18.24S229.57,163.4,229.32,163.75Z" transform="translate(-6.91 -5.3)"/><path class="cls-4" d="M255.08,171.12c-.13.42-1.22.44-2.43.06s-2.09-1-2-1.44,1.22-.43,2.43-.05S255.21,170.71,255.08,171.12Z" transform="translate(-6.91 -5.3)"/><path class="cls-4" d="M255.44,175.26c-.29.32-1.05.11-1.71-.47s-1-1.31-.67-1.63,1.05-.12,1.7.46S255.72,174.94,255.44,175.26Z" transform="translate(-6.91 -5.3)"/><path class="cls-4" d="M256.09,165.78c.15.4-.77,1.16-2,1.68s-2.47.63-2.65.24.74-1.14,2.06-1.68S256,165.37,256.09,165.78Z" transform="translate(-6.91 -5.3)"/><path class="cls-4" d="M257.82,168.56c0,.43-.59.8-1.35.82s-1.39-.32-1.4-.75.6-.8,1.35-.82S257.81,168.13,257.82,168.56Z" transform="translate(-6.91 -5.3)"/><path class="cls-4" d="M259.81,174.08c-.4.17-1-.29-1.63-.76S257,172.38,257,172c0-.21.29-.37.69-.38a2.4,2.4,0,0,1,1.42.51,2.33,2.33,0,0,1,.86,1.23C260.09,173.7,260,174,259.81,174.08Z" transform="translate(-6.91 -5.3)"/><path class="cls-4" d="M259.85,178.17c-.34.26-1.13-.17-1.76-1s-.87-1.68-.53-1.95,1.13.18,1.76,1S260.19,177.9,259.85,178.17Z" transform="translate(-6.91 -5.3)"/><path class="cls-4" d="M244.08,166.31c.21-.37,1.41-.1,2.67.62s2.1,1.6,1.89,2-1.41.1-2.67-.61S243.87,166.69,244.08,166.31Z" transform="translate(-6.91 -5.3)"/><path class="cls-4" d="M249.12,160.07c.43,0,.84,1.19.92,2.7s-.21,2.76-.64,2.79-.84-1.19-.92-2.71S248.69,160.09,249.12,160.07Z" transform="translate(-6.91 -5.3)"/><path class="cls-4" d="M255.54,161.17c.26.34-.29,1.22-1.24,2s-1.93,1.06-2.2.72.29-1.21,1.24-1.95S255.27,160.83,255.54,161.17Z" transform="translate(-6.91 -5.3)"/><path class="cls-4" d="M261.84,162.5c.1.42-.8,1-2,1.29s-2.28.2-2.38-.22.8-1,2-1.3S261.73,162.08,261.84,162.5Z" transform="translate(-6.91 -5.3)"/><path class="cls-4" d="M263.6,167.61c-.13.41-1.07.49-2.11.18s-1.78-.91-1.66-1.32,1.07-.49,2.11-.18S263.72,167.2,263.6,167.61Z" transform="translate(-6.91 -5.3)"/><path class="cls-4" d="M267.69,163.58c.07.42-.6.88-1.48,1s-1.65-.11-1.72-.53.6-.88,1.49-1S267.63,163.15,267.69,163.58Z" transform="translate(-6.91 -5.3)"/><path class="cls-4" d="M265.32,169.4c.18.39-.32,1-1.17,1.19s-1.56-.12-1.57-.55.54-.81,1.22-1S265.14,169,265.32,169.4Z" transform="translate(-6.91 -5.3)"/><path class="cls-4" d="M267.43,168.67c-.41.13-.93-.37-1-1.15s.45-1.33.87-1.23.67.61.69,1.16A1.18,1.18,0,0,1,267.43,168.67Z" transform="translate(-6.91 -5.3)"/><path class="cls-4" d="M264.65,157.5c.42.08.6,1,.4,2.11s-.71,1.9-1.14,1.82-.6-1-.4-2.11S264.22,157.42,264.65,157.5Z" transform="translate(-6.91 -5.3)"/><path class="cls-4" d="M268.42,160.61c-.43,0-.72-.69-.65-1.45s.48-1.33.91-1.29.72.69.65,1.45S268.85,160.65,268.42,160.61Z" transform="translate(-6.91 -5.3)"/><path class="cls-4" d="M271.06,164.74c-.43,0-.86-.6-1-1.46s.16-1.6.59-1.65.86.6,1,1.46S271.49,164.68,271.06,164.74Z" transform="translate(-6.91 -5.3)"/><path class="cls-4" d="M213.65,166.94c-.43,0-.83-1.35-.77-3.05s.53-3,1-3,.65,1.41.6,3.05S214.08,166.93,213.65,166.94Z" transform="translate(-6.91 -5.3)"/><path class="cls-4" d="M218.59,164.45c-.37.23-1.29-.57-2.07-1.79s-1.11-2.4-.75-2.63,1.29.57,2.07,1.79S219,164.22,218.59,164.45Z" transform="translate(-6.91 -5.3)"/><path class="cls-4" d="M251.39,176.05c-.37.21-1.3-.74-2.08-2.12s-1.09-2.67-.71-2.88,1.31.74,2.08,2.12S251.77,175.84,251.39,176.05Z" transform="translate(-6.91 -5.3)"/></g><path class="cls-5" d="M228.42,154.62c.09,0,.21,3.79.26,8.46s0,8.45,0,8.45-.21-3.78-.27-8.45S228.33,154.63,228.42,154.62Z" transform="translate(-6.91 -5.3)"/><path class="cls-5" d="M229.58,157.68a7.81,7.81,0,0,1-.44,1.51,7.27,7.27,0,0,1-.47,1.5,2.92,2.92,0,0,1,.17-1.59C229.09,158.24,229.5,157.63,229.58,157.68Z" transform="translate(-6.91 -5.3)"/><path class="cls-5" d="M247.69,140.76a.91.91,0,0,1,.08.26,4,4,0,0,1,.14.77,7.21,7.21,0,0,1-.27,2.83,7.59,7.59,0,0,1-2.31,3.54,7.43,7.43,0,0,1-9.64-.25,7.46,7.46,0,0,1-2.12-3.65,7.14,7.14,0,0,1-.13-2.85,5.45,5.45,0,0,1,.17-.75c.06-.17.09-.26.1-.25a8.42,8.42,0,0,0,.07,3.8,7.38,7.38,0,0,0,2.1,3.49,7.24,7.24,0,0,0,9.27.24,7.5,7.5,0,0,0,2.28-3.38A8.22,8.22,0,0,0,247.69,140.76Z" transform="translate(-6.91 -5.3)"/><path class="cls-5" d="M256.31,160.69a6.37,6.37,0,0,1,.67,1.2l1.5,3,1.5,3a6.5,6.5,0,0,1,.57,1.26,6,6,0,0,1-.77-1.15c-.43-.74-1-1.77-1.58-2.93s-1.08-2.24-1.42-3A5.85,5.85,0,0,1,256.31,160.69Z" transform="translate(-6.91 -5.3)"/><path class="cls-6" d="M288,372.45l-1.62-9.05-17,2.93,2.23,13.27,1.06-.11c4.73-.55,24-3.13,27-4.62C303,373.21,288,372.45,288,372.45Z" transform="translate(-6.91 -5.3)"/><path class="cls-6" d="M277.79,378.4a6,6,0,0,0-2.79-3.24,5.81,5.81,0,0,0-4.18-.55l.81,4.74Z" transform="translate(-6.91 -5.3)"/><path class="cls-6" d="M295.39,373.07s5.3.59,4.81,1.53-19.86,4.28-28.54,5l0-.38,22.64-3.7S294.4,373.29,295.39,373.07Z" transform="translate(-6.91 -5.3)"/><path class="cls-5" d="M271.35,379.25l.3,0,.85-.09,3.1-.4c2.63-.35,6.24-.89,10.22-1.57s7.57-1.38,10.16-1.92l3.07-.66.83-.19.28-.08a.92.92,0,0,0-.29,0l-.84.15-3.08.6c-2.59.5-6.19,1.17-10.16,1.85s-7.59,1.24-10.21,1.64l-3.09.46-.85.13Z" transform="translate(-6.91 -5.3)"/><path class="cls-5" d="M294.3,375.78a8.06,8.06,0,0,1,.32-1.57,7.9,7.9,0,0,1,.85-1.36,2.34,2.34,0,0,0-1,1.28A2.31,2.31,0,0,0,294.3,375.78Z" transform="translate(-6.91 -5.3)"/><path class="cls-5" d="M288.86,374.1c.05,0,.24-.31.42-.74a1.86,1.86,0,0,0,.23-.82c-.05,0-.24.31-.42.74S288.8,374.08,288.86,374.1Z" transform="translate(-6.91 -5.3)"/><path class="cls-5" d="M287.36,373.61s.28-.19.53-.5.41-.59.36-.63-.28.19-.53.5S287.31,373.58,287.36,373.61Z" transform="translate(-6.91 -5.3)"/><path class="cls-5" d="M286.21,372.16a2,2,0,0,0,.91,0,2.2,2.2,0,0,0,.87-.24,2,2,0,0,0-.91,0A1.88,1.88,0,0,0,286.21,372.16Z" transform="translate(-6.91 -5.3)"/><path class="cls-5" d="M285.72,371.08a1.65,1.65,0,0,0,1,.12,1.71,1.71,0,0,0,1-.31,5.06,5.06,0,0,0-1,.1A6.08,6.08,0,0,0,285.72,371.08Z" transform="translate(-6.91 -5.3)"/><path class="cls-5" d="M289.18,372.52a2.85,2.85,0,0,0,1.09-.19,6.42,6.42,0,0,0,1.11-.46,3,3,0,0,0,.62-.38.58.58,0,0,0,.21-.39.43.43,0,0,0-.24-.41,2,2,0,0,0-2.37,1,1.9,1.9,0,0,0-.23.79.69.69,0,0,0,0,.3,3.05,3.05,0,0,1,.34-1,1.9,1.9,0,0,1,.83-.77,1.66,1.66,0,0,1,1.31-.13c.2.09.16.31,0,.46a3.67,3.67,0,0,1-.57.36,6.5,6.5,0,0,1-1.07.49C289.59,372.42,289.17,372.49,289.18,372.52Z" transform="translate(-6.91 -5.3)"/><path class="cls-5" d="M289.47,372.53a1.07,1.07,0,0,0,0-.78A1.63,1.63,0,0,0,289,371a1.11,1.11,0,0,0-1-.4.43.43,0,0,0-.25.56,1.13,1.13,0,0,0,.27.45,2.9,2.9,0,0,0,.62.57,1.68,1.68,0,0,0,.7.34s-.25-.16-.61-.45a3.93,3.93,0,0,1-.57-.58c-.19-.2-.36-.6-.09-.7s.59.15.79.34a1.78,1.78,0,0,1,.43.66A4.78,4.78,0,0,1,289.47,372.53Z" transform="translate(-6.91 -5.3)"/><path class="cls-5" d="M270.9,374.55s.48-.13,1.26-.17a5.52,5.52,0,0,1,2.93.65,5.66,5.66,0,0,1,2.13,2.12c.38.69.49,1.17.53,1.16a1,1,0,0,0-.06-.34,4.79,4.79,0,0,0-.34-.89,5.4,5.4,0,0,0-2.16-2.23,5.27,5.27,0,0,0-3-.62,4.48,4.48,0,0,0-.93.18C271,374.48,270.9,374.53,270.9,374.55Z" transform="translate(-6.91 -5.3)"/><path class="cls-5" d="M271.44,367.18a32.26,32.26,0,0,0,.46,3.51,27.63,27.63,0,0,0,.66,3.48,32.26,32.26,0,0,0-.46-3.51A27.63,27.63,0,0,0,271.44,367.18Z" transform="translate(-6.91 -5.3)"/><path class="cls-5" d="M279.64,376.38a9.28,9.28,0,0,0,2.52-.18,9.91,9.91,0,0,0,2.45-.62c0-.06-1.11.19-2.48.41S279.64,376.32,279.64,376.38Z" transform="translate(-6.91 -5.3)"/><path class="cls-5" d="M276.31,377c0,.05.13.22.29.45s.26.45.32.44,0-.28-.15-.55S276.34,376.9,276.31,377Z" transform="translate(-6.91 -5.3)"/><path class="cls-5" d="M274.79,375.6s.11.21.31.36.4.23.44.18-.11-.21-.31-.35S274.83,375.56,274.79,375.6Z" transform="translate(-6.91 -5.3)"/><path class="cls-5" d="M272.87,375.2c0,.06.25,0,.52.06s.46.15.5.1-.14-.26-.47-.31S272.85,375.15,272.87,375.2Z" transform="translate(-6.91 -5.3)"/><path class="cls-5" d="M271.54,375.08c0,.06.1.13.25.16s.28,0,.29-.05-.1-.12-.25-.15S271.55,375,271.54,375.08Z" transform="translate(-6.91 -5.3)"/><path class="cls-8" d="M270.34,217.3s54.65,9.15,50.35,25.62-36.59,56-36.59,56L263.66,286s30.22-37.52,29.06-38.76S250.18,237,250.18,237L241,213.38Z" transform="translate(-6.91 -5.3)"/><path class="cls-5" d="M256.36,233.74c0,.14-.38.19-.78.12s-.72-.26-.69-.4.37-.19.78-.12S256.39,233.6,256.36,233.74Z" transform="translate(-6.91 -5.3)"/><path class="cls-5" d="M262.09,234.88c0,.14-.7.13-1.49,0s-1.4-.4-1.37-.54.69-.13,1.48,0S262.12,234.74,262.09,234.88Z" transform="translate(-6.91 -5.3)"/><path class="cls-5" d="M267.79,236.12c0,.14-.69.11-1.48-.06s-1.4-.43-1.37-.57.7-.11,1.48.06S267.82,236,267.79,236.12Z" transform="translate(-6.91 -5.3)"/><path class="cls-5" d="M273.47,237.46c0,.14-.69.1-1.48-.09s-1.39-.45-1.35-.59.69-.1,1.48.09S273.51,237.32,273.47,237.46Z" transform="translate(-6.91 -5.3)"/><path class="cls-5" d="M279.13,238.9c0,.14-.7.09-1.48-.11s-1.38-.48-1.34-.62.69-.09,1.47.11S279.17,238.76,279.13,238.9Z" transform="translate(-6.91 -5.3)"/><path class="cls-5" d="M284.76,240.43c0,.14-.7.08-1.47-.13s-1.38-.51-1.34-.65.7-.07,1.48.14S284.8,240.3,284.76,240.43Z" transform="translate(-6.91 -5.3)"/><path class="cls-5" d="M290.37,242.07c0,.13-.7.06-1.47-.17s-1.37-.52-1.33-.66.7-.07,1.47.16S290.41,241.93,290.37,242.07Z" transform="translate(-6.91 -5.3)"/><path class="cls-5" d="M296,243.8c-.05.13-.71,0-1.47-.19s-1.36-.55-1.32-.69.7,0,1.47.19S296,243.66,296,243.8Z" transform="translate(-6.91 -5.3)"/><path class="cls-5" d="M297.4,248.06c-.14-.09.23-.68.55-1.33s.17-1.24.33-1.31.17.11.28.39a1.6,1.6,0,0,1-.13,1.13C298,247.73,297.5,248.13,297.4,248.06Z" transform="translate(-6.91 -5.3)"/><path class="cls-5" d="M293.93,252.76c-.11-.09.18-.68.66-1.33s1-1.11,1.08-1-.18.68-.66,1.33S294.05,252.84,293.93,252.76Z" transform="translate(-6.91 -5.3)"/><path class="cls-5" d="M290.48,257.46c-.12-.08.17-.68.65-1.33s1-1.1,1.08-1-.18.68-.66,1.33S290.59,257.55,290.48,257.46Z" transform="translate(-6.91 -5.3)"/><path class="cls-5" d="M287,262.16c-.12-.08.17-.68.65-1.33s1-1.1,1.08-1-.18.68-.66,1.33S287.13,262.25,287,262.16Z" transform="translate(-6.91 -5.3)"/><path class="cls-5" d="M283.56,266.86c-.12-.08.17-.68.65-1.33s1-1.1,1.08-1-.18.68-.66,1.33S283.67,267,283.56,266.86Z" transform="translate(-6.91 -5.3)"/><path class="cls-5" d="M280.1,271.56c-.12-.08.18-.68.65-1.32s1-1.11,1.08-1-.18.69-.66,1.33S280.21,271.65,280.1,271.56Z" transform="translate(-6.91 -5.3)"/><path class="cls-5" d="M276.64,276.27c-.12-.09.18-.68.65-1.33s1-1.11,1.08-1-.18.68-.66,1.32S276.75,276.35,276.64,276.27Z" transform="translate(-6.91 -5.3)"/><path class="cls-5" d="M273.18,281c-.12-.09.18-.68.65-1.33s1-1.11,1.08-1-.18.68-.66,1.33S273.3,281.05,273.18,281Z" transform="translate(-6.91 -5.3)"/><path class="cls-5" d="M270.56,284.53c-.12-.09,0-.43.23-.76s.54-.54.66-.45,0,.42-.24.76S270.68,284.61,270.56,284.53Z" transform="translate(-6.91 -5.3)"/><path class="cls-5" d="M299.66,244.85a13.61,13.61,0,0,1-3.46,1.45,13.41,13.41,0,0,1-3.62,1,13.39,13.39,0,0,1,3.46-1.45A14.16,14.16,0,0,1,299.66,244.85Z" transform="translate(-6.91 -5.3)"/><path class="cls-5" d="M300.35,246.72a12.4,12.4,0,0,1-4,.73,12.73,12.73,0,0,1-4.07-.06,21.57,21.57,0,0,1,4-.46A22.14,22.14,0,0,1,300.35,246.72Z" transform="translate(-6.91 -5.3)"/><path class="cls-5" d="M284.41,300.32l-12.31-7.95s-1-10.16-3.34-12.77l19.56,15.74Z" transform="translate(-6.91 -5.3)"/><path class="cls-8" d="M212.44,215.63s-3.35,10.7,7.46,26.85l36.42,56.35L264.57,372l27-2.41-9.14-81.08-38.36-71.89Z" transform="translate(-6.91 -5.3)"/><path class="cls-5" d="M215.29,217.64c-.15,0-.26-.33-.26-.76s.12-.76.26-.74.26.35.26.75S215.43,217.63,215.29,217.64Z" transform="translate(-6.91 -5.3)"/><path class="cls-5" d="M216.22,223.58c-.14,0-.39-.6-.56-1.42s-.2-1.51-.06-1.53.4.61.57,1.42S216.36,223.54,216.22,223.58Z" transform="translate(-6.91 -5.3)"/><path class="cls-5" d="M218.16,229.29c-.14.05-.48-.54-.78-1.32s-.43-1.46-.29-1.5.48.54.77,1.32S218.29,229.23,218.16,229.29Z" transform="translate(-6.91 -5.3)"/><path class="cls-5" d="M220.84,234.68c-.13.07-.56-.46-1-1.19s-.59-1.4-.46-1.46.54.48.92,1.22S221,234.61,220.84,234.68Z" transform="translate(-6.91 -5.3)"/><path class="cls-5" d="M224,239.8c-.12.08-.58-.43-1-1.13s-.71-1.34-.59-1.41.58.43,1,1.13S224.14,239.72,224,239.8Z" transform="translate(-6.91 -5.3)"/><path class="cls-5" d="M227.32,244.84c-.12.08-.59-.42-1-1.11s-.73-1.32-.61-1.4.59.42,1.05,1.11S227.44,244.76,227.32,244.84Z" transform="translate(-6.91 -5.3)"/><path class="cls-5" d="M230.68,249.86c-.12.08-.6-.42-1.06-1.11s-.75-1.32-.63-1.4.6.42,1.06,1.11S230.8,249.78,230.68,249.86Z" transform="translate(-6.91 -5.3)"/><path class="cls-5" d="M234.06,254.86c-.12.08-.59-.42-1.06-1.11s-.75-1.31-.63-1.39.59.41,1.06,1.1S234.18,254.78,234.06,254.86Z" transform="translate(-6.91 -5.3)"/><path class="cls-5" d="M237.46,259.84c-.12.08-.59-.41-1.06-1.1s-.76-1.31-.64-1.39.6.41,1.07,1.1S237.58,259.76,237.46,259.84Z" transform="translate(-6.91 -5.3)"/><path class="cls-5" d="M240.87,264.82c-.12.08-.6-.41-1.07-1.1s-.76-1.31-.64-1.39.6.41,1.07,1.1S241,264.74,240.87,264.82Z" transform="translate(-6.91 -5.3)"/><path class="cls-5" d="M244.28,269.8c-.12.08-.6-.41-1.07-1.1s-.76-1.31-.64-1.39.6.41,1.07,1.1S244.39,269.72,244.28,269.8Z" transform="translate(-6.91 -5.3)"/><path class="cls-5" d="M247.68,274.78c-.12.08-.59-.41-1.06-1.1s-.76-1.31-.64-1.39.6.41,1.07,1.09S247.8,274.69,247.68,274.78Z" transform="translate(-6.91 -5.3)"/><path class="cls-5" d="M251.08,279.76c-.12.08-.6-.41-1.07-1.1s-.75-1.31-.63-1.39.6.41,1.06,1.1S251.19,279.68,251.08,279.76Z" transform="translate(-6.91 -5.3)"/><path class="cls-5" d="M254.45,284.77c-.12.08-.59-.42-1.06-1.11s-.74-1.32-.62-1.4.59.42,1,1.11S254.57,284.69,254.45,284.77Z" transform="translate(-6.91 -5.3)"/><path class="cls-5" d="M257.77,289.81c-.12.07-.59-.43-1-1.12s-.72-1.33-.6-1.41.59.42,1,1.12S257.89,289.73,257.77,289.81Z" transform="translate(-6.91 -5.3)"/><path class="cls-5" d="M260.8,295c-.12,0-.46-.51-.88-1.23s-.67-1.35-.54-1.43.58.44,1,1.17S261,295,260.8,295Z" transform="translate(-6.91 -5.3)"/><path class="cls-5" d="M261.53,301c-.15,0-.34-.64-.43-1.47s-.05-1.51.09-1.52.33.64.43,1.46S261.67,301,261.53,301Z" transform="translate(-6.91 -5.3)"/><path class="cls-5" d="M262.17,307c-.14,0-.33-.64-.41-1.47s-.05-1.51.09-1.53.33.65.42,1.47S262.32,307,262.17,307Z" transform="translate(-6.91 -5.3)"/><path class="cls-5" d="M262.81,313c-.15,0-.33-.64-.42-1.47s0-1.51.1-1.53.33.65.42,1.48S263,313,262.81,313Z" transform="translate(-6.91 -5.3)"/><path class="cls-5" d="M263.43,319c-.14,0-.33-.65-.42-1.48s0-1.51.11-1.52.33.64.41,1.47S263.57,319,263.43,319Z" transform="translate(-6.91 -5.3)"/><path class="cls-5" d="M264.05,325c-.15,0-.33-.64-.42-1.47s0-1.52.11-1.53.33.64.41,1.47S264.19,325,264.05,325Z" transform="translate(-6.91 -5.3)"/><path class="cls-5" d="M264.66,331c-.14,0-.33-.64-.41-1.47s0-1.51.1-1.52.33.64.42,1.47S264.8,331,264.66,331Z" transform="translate(-6.91 -5.3)"/><path class="cls-5" d="M265.27,337c-.14,0-.33-.65-.41-1.48s0-1.51.11-1.53.32.65.41,1.48S265.41,337,265.27,337Z" transform="translate(-6.91 -5.3)"/><path class="cls-5" d="M265.88,343c-.14,0-.33-.65-.41-1.48s0-1.51.11-1.52.32.64.41,1.47S266,343,265.88,343Z" transform="translate(-6.91 -5.3)"/><path class="cls-5" d="M266.49,349c-.15,0-.33-.65-.41-1.47s0-1.52.1-1.53.33.64.41,1.47S266.63,349,266.49,349Z" transform="translate(-6.91 -5.3)"/><path class="cls-5" d="M267.09,355c-.14,0-.33-.64-.41-1.47s0-1.51.11-1.53.33.65.41,1.48S267.23,355,267.09,355Z" transform="translate(-6.91 -5.3)"/><path class="cls-5" d="M267.69,361c-.14,0-.32-.65-.41-1.48s0-1.51.11-1.53.33.65.41,1.48S267.84,361,267.69,361Z" transform="translate(-6.91 -5.3)"/><path class="cls-5" d="M268.3,367c-.15,0-.33-.64-.41-1.47s0-1.51.11-1.53.32.65.4,1.48S268.44,367,268.3,367Z" transform="translate(-6.91 -5.3)"/><path class="cls-5" d="M268.75,371.5c-.15,0-.3-.31-.34-.72s0-.75.19-.77.29.31.33.72S268.89,371.49,268.75,371.5Z" transform="translate(-6.91 -5.3)"/><path class="cls-5" d="M283.41,297.15c-.1,0-.23-1.46-.63-3.8a44.18,44.18,0,0,0-2.44-8.89,51.09,51.09,0,0,0-4.24-8.21c-1.24-2-2-3.26-2-3.3a3.71,3.71,0,0,1,.67.8c.4.53,1,1.31,1.62,2.3a43.37,43.37,0,0,1,4.42,8.22,38.33,38.33,0,0,1,2.32,9c.14,1.18.23,2.14.26,2.81A4.62,4.62,0,0,1,283.41,297.15Z" transform="translate(-6.91 -5.3)"/><polygon class="cls-5" points="256.17 362.74 256.99 367.52 285.49 364.26 284.67 358.56 256.17 362.74"/><path class="cls-5" d="M247.81,213.52a10.06,10.06,0,0,1-.06,1.89c-.08,1.2-.22,2.91-.4,5v-.09a47.89,47.89,0,0,0,2.79,6.48c1.72,3.43,3.39,6.5,4.49,8.78.55,1.14,1,2.07,1.25,2.73a4.66,4.66,0,0,1,.37,1,4.14,4.14,0,0,1-.55-1c-.39-.72-.85-1.6-1.4-2.64-1.18-2.23-2.89-5.27-4.63-8.72a42.47,42.47,0,0,1-2.75-6.58l0,0v-.05c.23-2,.43-3.74.59-4.93A10.14,10.14,0,0,1,247.81,213.52Z" transform="translate(-6.91 -5.3)"/><path class="cls-9" d="M282.63,202.34c-.15-2.17-5.53-4-7.7-4.6l0,0-.69-.15-.25-.07h0l-41.35-8.82-4.61-16.13H213.12c.37.74,3.43,27.31,11.45,29.18s42.37,4.66,42.37,4.66l2.56.27s0,0,0,.06c0,1.4,1.49,1.54,3.09,1.61,4,.16,5.12-1.55,5.12-1.55h0a9.63,9.63,0,0,0,2.21-2.69s.89,2.72,1.27,4.33c.53,2.31,1.45,2,1.45,2S282.73,203.87,282.63,202.34Z" transform="translate(-6.91 -5.3)"/><path class="cls-11" d="M275.68,207.24a9.73,9.73,0,0,1-3.12,0,9.14,9.14,0,0,1-3.07-.52,9.68,9.68,0,0,1,3.11,0A9.88,9.88,0,0,1,275.68,207.24Z" transform="translate(-6.91 -5.3)"/><path class="cls-11" d="M276.86,205.39s.14-.09.39,0a1,1,0,0,1,.76.58.84.84,0,0,1-.14.95c-.19.19-.37.18-.38.15s.11-.12.2-.28a.72.72,0,0,0,0-.69C277.46,205.52,276.84,205.48,276.86,205.39Z" transform="translate(-6.91 -5.3)"/><path class="cls-11" d="M278.46,203.48c0-.1.66-.07.94.61s-.22,1.18-.27,1.09.18-.48,0-1S278.44,203.56,278.46,203.48Z" transform="translate(-6.91 -5.3)"/><path class="cls-8" d="M275.68,198l4-7.18c.58-.12.89,0,1,.37l-3.86,7.22Z" transform="translate(-6.91 -5.3)"/><polygon class="cls-8" points="264.19 201.42 262.58 204.43 262.58 206 264.19 204.9 266 201.68 264.19 201.42"/><path class="cls-5" d="M220.38,112.11s-.28-.22-.57-.79a5.26,5.26,0,0,1-.54-2.62,7.48,7.48,0,0,1,1.31-3.75,8.05,8.05,0,0,1,3.72-3.13,6,6,0,0,1,4.85.14,4.72,4.72,0,0,1,2.51,3.06,4.1,4.1,0,0,1-.24,2.67,1.83,1.83,0,0,1-.57.8s.18-.31.38-.88a4.15,4.15,0,0,0,.08-2.5,4.46,4.46,0,0,0-2.38-2.72,5.55,5.55,0,0,0-4.44-.08,7.84,7.84,0,0,0-3.52,2.91,7.41,7.41,0,0,0-1.33,3.5,5.69,5.69,0,0,0,.35,2.52C220.22,111.81,220.42,112.09,220.38,112.11Z" transform="translate(-6.91 -5.3)"/><path class="cls-9" d="M247.71,142.93c.07-4.05.22-8.31.22-8.31s4.89-.67,6-7.44c1.07-6.46.3-21.49.3-21.49h0a17.2,17.2,0,0,0-20.4,4.17h0l-.11,32.92a7,7,0,0,0,6.87,7h0A7,7,0,0,0,247.71,142.93Z" transform="translate(-6.91 -5.3)"/><path class="cls-5" d="M252.58,116.68a.81.81,0,0,1-.8.85.84.84,0,1,1,.8-.85Z" transform="translate(-6.91 -5.3)"/><path class="cls-5" d="M253.92,115.76c-.1.11-.71-.41-1.59-.44s-1.53.41-1.62.29.06-.25.34-.46a2.12,2.12,0,0,1,1.3-.37,2.09,2.09,0,0,1,1.27.49C253.88,115.5,254,115.71,253.92,115.76Z" transform="translate(-6.91 -5.3)"/><path class="cls-5" d="M243,116.68a.81.81,0,0,1-.8.85.84.84,0,1,1,.8-.85Z" transform="translate(-6.91 -5.3)"/><path class="cls-5" d="M244.2,115.93c-.1.11-.71-.41-1.59-.44s-1.53.41-1.62.29.06-.25.34-.46a2.05,2.05,0,0,1,1.3-.37,2.09,2.09,0,0,1,1.27.49C244.16,115.67,244.25,115.88,244.2,115.93Z" transform="translate(-6.91 -5.3)"/><path class="cls-5" d="M247.5,123.47a5.65,5.65,0,0,1,1.43-.22c.22,0,.43,0,.47-.21a1.3,1.3,0,0,0-.13-.72c-.21-.59-.42-1.21-.64-1.85a33.36,33.36,0,0,1-1.41-4.84,32.92,32.92,0,0,1,1.77,4.71c.21.65.41,1.27.61,1.86a1.51,1.51,0,0,1,.1,1,.58.58,0,0,1-.38.34,1.33,1.33,0,0,1-.38,0A5.13,5.13,0,0,1,247.5,123.47Z" transform="translate(-6.91 -5.3)"/><path class="cls-11" d="M247.93,134.62a15.62,15.62,0,0,1-8.48-2.78s2,4.76,8.37,4.38Z" transform="translate(-6.91 -5.3)"/><path class="cls-11" d="M247.18,125.78a1.71,1.71,0,0,0-1-1.26,1.37,1.37,0,0,0-1.14,0,1,1,0,0,0-.52,1,1.14,1.14,0,0,0,.91.84,3.19,3.19,0,0,0,1.3-.09,1,1,0,0,0,.34-.13.3.3,0,0,0,.14-.31" transform="translate(-6.91 -5.3)"/><path class="cls-5" d="M245,123.44c.14,0,.13,1,.93,1.77s1.82.69,1.83.83-.23.19-.66.18a2.32,2.32,0,0,1-2.25-2.11C244.83,123.68,244.94,123.43,245,123.44Z" transform="translate(-6.91 -5.3)"/><path class="cls-5" d="M237.62,105.17c2.19,3.94,8.2,8.17,12.57,9.28-.49-.81-3.12-2.86-3.61-3.67,1.94,1.82,4.71,4.26,7.35,4.53a1.37,1.37,0,0,0,.92-.12,1.48,1.48,0,0,0,.5-1.13,35.39,35.39,0,0,0,0-6.67,7.76,7.76,0,0,0-2.13-4.86c-1.64-1.6-4-2.08-6.34-2.25a12.53,12.53,0,0,0-5.68.63,5.75,5.75,0,0,0-3.65,4.13" transform="translate(-6.91 -5.3)"/><path class="cls-5" d="M239.07,106s2,7.71-3,12.78c0,0-.66,7.25-4.1,10.66,0,0-1.79-8.83-1.85-12.25s-1.59-16,9.66-14.49Z" transform="translate(-6.91 -5.3)"/><path class="cls-5" d="M231.35,111.48a5.92,5.92,0,0,0-1-6.17,7,7,0,0,0-5.92-2.27,8.63,8.63,0,0,0-5.65,3.08,7.08,7.08,0,0,0-1.79,4.69,6.33,6.33,0,0,0,3.8,5.35,8.34,8.34,0,0,0,6.71-.17,12.28,12.28,0,0,0,5.08-4.56" transform="translate(-6.91 -5.3)"/><polygon class="cls-6" points="216.67 100.72 213.44 94.36 213.44 93.18 214.53 93.76 217.84 100.17 216.67 100.72"/><path class="cls-6" d="M225.87,105.44c0-.09,0-7.58,0-7.58a.7.7,0,0,1,.72-.54.63.63,0,0,1,.6.57v7.7Z" transform="translate(-6.91 -5.3)"/><path class="cls-12" d="M225.87,105.44c0-.09,0-7.58,0-7.58a.7.7,0,0,1,.72-.54.63.63,0,0,1,.6.57v7.7Z" transform="translate(-6.91 -5.3)"/><polygon class="cls-6" points="219.31 100.18 219.29 92.53 219.78 92.53 219.78 100.23 219.31 100.18"/><path class="cls-8" d="M225.87,97.86l1.32,0s-.07-.61-.6-.61A.71.71,0,0,0,225.87,97.86Z" transform="translate(-6.91 -5.3)"/><path class="cls-8" d="M220.34,99.66a.57.57,0,0,0,.41,0c.18-.07.19-.33.19-.33s.34.1.47,0,0-.3,0-.3l-.77-.41-.33.18Z" transform="translate(-6.91 -5.3)"/><path class="cls-5" d="M230.3,107.88a3.25,3.25,0,0,1,.47,1.18,7.46,7.46,0,0,1-2.7,7.82,7.1,7.1,0,0,1-6.14,1.23,6.94,6.94,0,0,1-2.94-1.58,6.6,6.6,0,0,1-1.74-2.57,6.53,6.53,0,0,1,.14-5.13,8.32,8.32,0,0,1,2.11-2.77,3.45,3.45,0,0,1,1-.75s-.33.31-.89.89a9,9,0,0,0-1.92,2.77,6.39,6.39,0,0,0,4.34,8.64,6.67,6.67,0,0,0,5.72-1.12,7,7,0,0,0,2.7-4,8.09,8.09,0,0,0,.1-3.36C230.43,108.31,230.26,107.89,230.3,107.88Z" transform="translate(-6.91 -5.3)"/><path class="cls-5" d="M245.42,111.15c.07,0-.17.64-1.09.89a2.65,2.65,0,0,1-1.58-.11,5.38,5.38,0,0,1-1.6-1,7.79,7.79,0,0,1-2-2.71,2.68,2.68,0,0,1-.36-1.35,14.9,14.9,0,0,0,2.7,3.67,3.52,3.52,0,0,0,2.76,1.15A3.1,3.1,0,0,0,245.42,111.15Z" transform="translate(-6.91 -5.3)"/><path class="cls-9" d="M236.22,118.67a3.82,3.82,0,0,0-2,.07,2.65,2.65,0,0,0-1.54,1.32,2.79,2.79,0,0,0-.07,2,4.71,4.71,0,0,0,1.11,1.74,3.1,3.1,0,0,0,1.21.85,1.52,1.52,0,0,0,1.42-.18" transform="translate(-6.91 -5.3)"/><path class="cls-11" d="M235.73,122.77c.08,0-.22.43-.84.25a1.35,1.35,0,0,1-.75-.69,3.15,3.15,0,0,1-.31-1.14,1.78,1.78,0,0,1,.32-1.18,1.18,1.18,0,0,1,.91-.51c.64,0,.82.45.75.47s-.29-.19-.71-.1a1.14,1.14,0,0,0-.75,1.29c.06.7.31,1.35.68,1.52S235.69,122.72,235.73,122.77Z" transform="translate(-6.91 -5.3)"/><path class="cls-6" d="M233.53,124.09a3.71,3.71,0,0,0-.32,1.13,1.56,1.56,0,0,0,.43,1.08,1.29,1.29,0,0,0,1.27.37,1.22,1.22,0,0,0,.92-.92,1.65,1.65,0,0,0-.17-1.16c-.35-.62-.81-.86-.76-.93s.56,0,1.07.74a1.9,1.9,0,0,1,.33,1.44,1.67,1.67,0,0,1-1.27,1.34,1.73,1.73,0,0,1-1.74-.56,1.77,1.77,0,0,1-.44-1.42C233,124.33,233.5,124,233.53,124.09Z" transform="translate(-6.91 -5.3)"/><path class="cls-5" d="M229.49,113.42a5.58,5.58,0,0,1,1.26-6.19,26.59,26.59,0,0,0-1.08,3A24.78,24.78,0,0,0,229.49,113.42Z" transform="translate(-6.91 -5.3)"/><polygon class="cls-8" points="239.1 208.08 240.22 206.94 267.9 206.94 268.77 208.22 239.1 208.08"/><polygon class="cls-5" points="138.92 210.71 174.12 372.54 178.24 372.54 142.58 210.71 138.92 210.71"/><polyline class="cls-5" points="175.04 210.71 138.92 372.54 142.45 372.54 178.24 210.71 175.04 210.71"/><polygon class="cls-5" points="145.71 351.07 171.07 351.07 171.07 347.78 146.8 347.78 145.71 351.07"/><polygon class="cls-5" points="348.14 210.71 383.34 373.01 387.46 373.01 351.8 210.71 348.14 210.71"/><polyline class="cls-5" points="384.26 210.71 348.14 373.01 351.68 373.01 387.46 210.71 384.26 210.71"/><polygon class="cls-5" points="354.93 351.48 380.29 351.48 380.29 348.18 356.02 348.18 354.93 351.48"/><polygon class="cls-5" points="350.81 165.91 336.38 208.08 271.02 208.08 271.5 205.91 297.93 205.09 310.11 165.88 350.81 165.91"/><path class="cls-4" d="M328.76,191c-.43,1.72.31,3.42,1.65,3.78s2.78-.75,3.22-2.48-.31-3.42-1.66-3.78S329.19,189.29,328.76,191Z" transform="translate(-6.91 -5.3)"/><polygon class="cls-4" points="324.71 194.77 326.05 198.28 339.43 191.86 338.16 188.34 324.71 194.77"/><polygon class="cls-8" points="325.75 195.09 326.63 197.04 338.45 191.52 337.8 189.12 325.75 195.09"/><path class="cls-4" d="M345.53,180.68a4.25,4.25,0,1,1-4.25-4.25A4.25,4.25,0,0,1,345.53,180.68Z" transform="translate(-6.91 -5.3)"/><path class="cls-6" d="M340.55,177.27A3.51,3.51,0,0,0,338,180.7a3.78,3.78,0,0,0,2.68,3.4,2.87,2.87,0,0,0,2.06-.11,3.3,3.3,0,0,0,1.42-1.55,4.24,4.24,0,0,0,.43-2.79,3.21,3.21,0,0,0-5-1.9" transform="translate(-6.91 -5.3)"/><polygon class="cls-4" points="309.75 193.36 313.83 191.56 316.66 193.79 314.6 198.79 309.35 196.68 309.75 193.36"/><polygon class="cls-6" points="310.1 193.74 313.71 192.06 316.03 194.01 314.32 198.16 309.87 196.47 310.1 193.74"/><rect class="cls-5" x="119.03" y="208.08" width="285.62" height="2.76"/><path class="cls-6" d="M376,193.53a19.18,19.18,0,0,1-5.24-12.12c-.12-2.15.21-4.48,1.68-6.07a5.35,5.35,0,0,1,7.41-.13c2,2,2,5.21,1.51,8-.74,4.12-2.82,7.17-5.17,10.64" transform="translate(-6.91 -5.3)"/><path class="cls-6" d="M380.58,193.48a14.24,14.24,0,0,1,5.44-8.2,6.11,6.11,0,0,1,4.47-1.42,4,4,0,0,1,3.1,4.58c-.44,2.06-2.44,3.38-4.37,4.19-2.88,1.21-5.63,1.15-8.76,1.09" transform="translate(-6.91 -5.3)"/><path class="cls-5" d="M376,202.58a85.91,85.91,0,0,1-.06-9.38,84.18,84.18,0,0,1,.45-9.37,84.27,84.27,0,0,1,.07,9.38A82.82,82.82,0,0,1,376,202.58Z" transform="translate(-6.91 -5.3)"/><path class="cls-5" d="M389.72,187.92a9.78,9.78,0,0,1-1.87,1.41c-1.2.8-2.89,1.87-4.8,3s-3.68,2-5,2.68a9.51,9.51,0,0,1-2.16.93,12,12,0,0,1,2-1.25l4.88-2.81,4.87-2.85A11.42,11.42,0,0,1,389.72,187.92Z" transform="translate(-6.91 -5.3)"/><polyline class="cls-8" points="360.12 195.74 379.08 196.69 377.2 208.21 362 208.21 360.12 195.74"/><path class="cls-5" d="M376.24,198.67a11.13,11.13,0,0,1-3.93-1.12,11.51,11.51,0,0,1-3.56-2,192.78,192.78,0,0,1,7.49,3.12Z" transform="translate(-6.91 -5.3)"/></g></svg>