<svg xmlns="http://www.w3.org/2000/svg" viewBox="0 0 623.19 432.88"><defs><style>.cls-1{isolation:isolate;}.cls-2{fill:#ebebeb;}.cls-10,.cls-3{fill:#e6e6e6;}.cls-4{fill:#f1f0f0;}.cls-15,.cls-5{fill:#fafbfb;}.cls-17,.cls-6{fill:#fff;}.cls-15,.cls-7{opacity:0.4;}.cls-8{fill:#e0e0e0;}.cls-9{fill:#f5f5f5;}.cls-10{opacity:0.7;mix-blend-mode:multiply;}.cls-11{fill:#263238;}.cls-12{fill:#f5877e;}.cls-13,.cls-17{opacity:0.2;}.cls-14{fill:#91d8f4;}.cls-16{fill:#f15959;}.cls-18{opacity:0.1;}</style></defs><title>know</title><g class="cls-1"><g id="Layer_1" data-name="Layer 1"><rect class="cls-2" x="65.58" y="373.56" width="517.39" height="0.26"/><rect class="cls-2" x="476.21" y="390.21" width="54.91" height="0.26"/><rect class="cls-2" x="347.61" y="386.97" width="60.7" height="0.26"/><rect class="cls-2" x="458.99" y="385.48" width="19.86" height="0.26"/><rect class="cls-2" x="169.54" y="382.34" width="44.7" height="0.26"/><rect class="cls-2" x="147.8" y="382.34" width="15.98" height="0.26"/><rect class="cls-2" x="201.62" y="386.71" width="56.08" height="0.26"/><path class="cls-2" d="M310.83,327.41H111a5.92,5.92,0,0,1-5.91-5.91V40.63a5.91,5.91,0,0,1,5.91-5.9H310.83a5.91,5.91,0,0,1,5.91,5.9V321.5A5.92,5.92,0,0,1,310.83,327.41ZM111,35a5.66,5.66,0,0,0-5.65,5.65V321.5a5.65,5.65,0,0,0,5.65,5.65H310.83a5.65,5.65,0,0,0,5.65-5.65V40.63A5.66,5.66,0,0,0,310.83,35Z"/><path class="cls-2" d="M534.65,327.41H334.84a5.92,5.92,0,0,1-5.91-5.91V40.63a5.91,5.91,0,0,1,5.91-5.9H534.65a5.91,5.91,0,0,1,5.91,5.9V321.5A5.92,5.92,0,0,1,534.65,327.41ZM334.84,35a5.66,5.66,0,0,0-5.65,5.65V321.5a5.65,5.65,0,0,0,5.65,5.65H534.65a5.65,5.65,0,0,0,5.65-5.65V40.63A5.66,5.66,0,0,0,534.65,35Z"/><rect class="cls-3" x="352.94" y="48.22" width="147.1" height="137.67"/><rect class="cls-4" x="354.01" y="48.22" width="153.98" height="137.67"/><rect class="cls-3" x="352.94" y="185.89" width="147.1" height="6.78"/><rect class="cls-4" x="367.24" y="185.89" width="153.98" height="6.78"/><rect class="cls-5" x="373.28" y="51.19" width="115.43" height="131.74" transform="translate(548.05 -313.94) rotate(90)"/><polygon class="cls-6" points="386.33 174.77 399.97 59.34 446.6 59.34 432.96 174.77 386.33 174.77"/><rect class="cls-3" x="438.45" y="116.35" width="115.43" height="1.41" transform="translate(613.22 -379.1) rotate(90)"/><g class="cls-7"><polygon class="cls-8" points="510.62 60.55 360.87 60.55 359.85 57.18 509.59 57.18 510.62 60.55"/><polygon class="cls-8" points="510.62 66.17 360.87 66.17 359.85 62.8 509.59 62.8 510.62 66.17"/><polygon class="cls-8" points="510.62 71.79 360.87 71.79 359.85 68.42 509.59 68.42 510.62 71.79"/><polygon class="cls-8" points="510.62 77.41 360.87 77.41 359.85 74.03 509.59 74.03 510.62 77.41"/><polygon class="cls-8" points="510.62 83.03 360.87 83.03 359.85 79.65 509.59 79.65 510.62 83.03"/><polygon class="cls-8" points="510.62 88.65 360.87 88.65 359.85 85.27 509.59 85.27 510.62 88.65"/><polygon class="cls-8" points="510.62 94.27 360.87 94.27 359.85 90.89 509.59 90.89 510.62 94.27"/><polygon class="cls-8" points="510.62 99.89 360.87 99.89 359.85 96.51 509.59 96.51 510.62 99.89"/><polygon class="cls-8" points="510.62 105.5 360.87 105.5 359.85 102.13 509.59 102.13 510.62 105.5"/><polygon class="cls-8" points="510.62 111.12 360.87 111.12 359.85 107.75 509.59 107.75 510.62 111.12"/><polygon class="cls-8" points="510.62 116.74 360.87 116.74 359.85 113.37 509.59 113.37 510.62 116.74"/><polygon class="cls-8" points="510.62 122.36 360.87 122.36 359.85 118.98 509.59 118.98 510.62 122.36"/><polygon class="cls-8" points="510.62 127.98 360.87 127.98 359.85 124.6 509.59 124.6 510.62 127.98"/><polygon class="cls-8" points="510.62 133.6 360.87 133.6 359.85 130.22 509.59 130.22 510.62 133.6"/><polygon class="cls-8" points="510.62 139.22 360.87 139.22 359.85 135.84 509.59 135.84 510.62 139.22"/><polygon class="cls-8" points="510.62 144.84 360.87 144.84 359.85 141.46 509.59 141.46 510.62 144.84"/><polygon class="cls-8" points="510.62 150.45 360.87 150.45 359.85 147.08 509.59 147.08 510.62 150.45"/><polygon class="cls-8" points="510.62 156.07 360.87 156.07 359.85 152.7 509.59 152.7 510.62 156.07"/></g><rect class="cls-3" x="149.45" y="51.98" width="121.72" height="120.81"/><rect class="cls-4" x="150.7" y="51.98" width="127.05" height="120.81"/><rect class="cls-6" x="159.68" y="54.72" width="109.09" height="115.32" transform="translate(326.6 -101.84) rotate(90)"/><rect class="cls-3" x="216.98" y="112.02" width="109.09" height="0.72" transform="translate(383.9 -159.14) rotate(90)"/><rect class="cls-4" x="144.54" y="231" width="33.05" height="136.13"/><rect class="cls-4" x="150.89" y="367.13" width="126.92" height="6.42"/><rect class="cls-9" x="177.59" y="231" width="106.56" height="136.13" transform="translate(461.75 598.13) rotate(180)"/><rect class="cls-4" x="190.59" y="282.44" width="80.57" height="33.25" transform="translate(461.75 598.13) rotate(180)"/><rect class="cls-4" x="190.59" y="321.76" width="80.57" height="33.25" transform="translate(461.75 676.76) rotate(180)"/><rect class="cls-4" x="190.59" y="243.13" width="80.57" height="33.25" transform="translate(461.75 519.51) rotate(180)"/><rect class="cls-4" x="177.59" y="219.82" width="110.97" height="11.18"/><rect class="cls-3" x="139.92" y="219.82" width="37.67" height="11.18" transform="translate(317.51 450.82) rotate(180)"/><rect class="cls-4" x="157.26" y="195.76" width="32.85" height="24.06" transform="translate(347.37 415.59) rotate(180)"/><rect class="cls-9" x="190.11" y="195.76" width="58.29" height="24.06"/><rect class="cls-10" x="157.26" y="200.8" width="91.48" height="2.7" transform="translate(406 404.31) rotate(180)"/><rect class="cls-4" x="155.45" y="194.13" width="34.67" height="7.81" transform="translate(345.56 396.07) rotate(180)"/><rect class="cls-9" x="190.11" y="194.13" width="60.1" height="7.81"/><polygon class="cls-4" points="508.78 219.82 397.77 219.82 409.86 373.56 520.87 373.56 508.78 219.82"/><polygon class="cls-9" points="514.51 219.82 403.5 219.82 415.59 373.56 526.6 373.56 514.51 219.82"/><polygon class="cls-6" points="435.38 352.11 426.66 241.27 494.72 241.27 503.44 352.11 435.38 352.11"/><circle class="cls-3" cx="396.18" cy="347.93" r="25.63" transform="translate(-129.98 382.04) rotate(-45)"/><path class="cls-10" d="M408.73,332.65c-1.53-1.58-2.14-3.47-1.36-4.22s2.63-.06,4.16,1.52,2.14,3.47,1.36,4.21S410.25,334.23,408.73,332.65Z"/><path class="cls-10" d="M398.08,327.85c-2.16-.42-3.74-1.61-3.54-2.67s2.12-1.57,4.28-1.16,3.74,1.61,3.54,2.66S400.24,328.26,398.08,327.85Z"/><path class="cls-10" d="M400.27,336.79c-2.08-.73-3.4-2.35-2.95-3.62s2.49-1.72,4.57-1,3.39,2.35,2.94,3.62S402.34,337.52,400.27,336.79Z"/><ellipse id="_Path_" data-name="&lt;Path&gt;" class="cls-9" cx="324.27" cy="408.57" rx="200.63" ry="11.72"/><path class="cls-11" d="M280.13,142.57C267,138,272.24,101,240.63,120.85c-7.16,4.52-15.86,34.11-9.85,41C239.17,171.42,295.64,148,280.13,142.57Z"/><path class="cls-12" d="M243.12,177.71c-.26.49-.42.76-.63,1.11l-.59,1c-.41.63-.84,1.23-1.28,1.83a41.91,41.91,0,0,1-2.84,3.4,33.44,33.44,0,0,1-7,5.7,26.42,26.42,0,0,1-8.67,3.44,24,24,0,0,1-4.7.48c-.79,0-1.56-.06-2.34-.09l-1.16-.13-.58-.07c-.22,0-.54-.09-.81-.15a11.59,11.59,0,0,1-5.21-2.83,20.21,20.21,0,0,1-3.12-3.72,39.74,39.74,0,0,1-3.82-7.71,75.53,75.53,0,0,1-4-15.79l4.46-1a113.25,113.25,0,0,0,5.83,14,37.47,37.47,0,0,0,3.75,6,12.87,12.87,0,0,0,2.1,2.13,3.56,3.56,0,0,0,1.65.79l1.36.07c.53,0,1.06,0,1.58-.06a17.66,17.66,0,0,0,3.08-.5A19.71,19.71,0,0,0,226,183a27,27,0,0,0,5-4.33,32.32,32.32,0,0,0,2.19-2.62c.34-.46.67-.92,1-1.39l.46-.69.36-.58Z"/><path class="cls-11" d="M245.62,167c-9.27,0-16.64,8.61-16.64,8.61l11.34,15.32s9.18-8.64,10.16-13.52C251.49,172.28,251.22,166.93,245.62,167Z"/><path class="cls-12" d="M200.4,165.33l4.07-6.73-9.42.25s-.74,4.43,1.74,7.24Z"/><polygon class="cls-12" points="204.1 150.73 197.14 152.21 195.05 158.85 204.47 158.6 204.1 150.73"/><polygon class="cls-12" points="292.3 399.02 283.41 399.87 278.88 379.15 287.77 378.3 292.3 399.02"/><polygon class="cls-12" points="372.98 372.19 366.25 378.18 350.22 364.51 356.95 358.53 372.98 372.19"/><path class="cls-11" d="M363.82,377l3.91-9.34a.71.71,0,0,1,.84-.43l7.84,2a1.45,1.45,0,0,1,.92,1.95c-1.42,3.23-2.27,4.72-4,8.83-1.06,2.53-3,8.27-4.49,11.76s-5,2.23-4.69.65c1.33-7.1.51-10.88-.42-13.85A2.44,2.44,0,0,1,363.82,377Z"/><path class="cls-11" d="M282.29,397.18H293a.88.88,0,0,1,.84.65l2.33,8.45a1.33,1.33,0,0,1-1.31,1.7c-3.73-.07-5.56-.29-10.26-.29-2.89,0-10.36.3-14.36.3s-4.72-3.95-3.1-4.3c7.24-1.61,11.42-3.82,13.66-5.93A2.18,2.18,0,0,1,282.29,397.18Z"/><polygon class="cls-13" points="278.88 379.16 281.21 389.83 290.29 389.83 287.77 378.31 278.88 379.16"/><polygon class="cls-13" points="356.96 358.53 350.22 364.52 358.49 371.56 365.22 365.57 356.96 358.53"/><path class="cls-11" d="M236.93,169.45s-3.73,2.61,18.73,51.24l35.26-9.82c-4.59-14.18-7.07-23-8.41-54.38a107.79,107.79,0,0,0-15.52,2.2,115.69,115.69,0,0,0-16,4.46C244.28,165.69,236.93,169.45,236.93,169.45Z"/><path class="cls-12" d="M260.39,141.11c.42,5.43,2,15.15,6.6,17.58a30.42,30.42,0,0,1-7.33,22.13c-12.24-6.35-8.68-17.67-8.68-17.67,5.37-3,4-7.19,1.92-10.92Z"/><path class="cls-13" d="M262.26,151.44l-6.14-2.09a10,10,0,0,0,.91,3.51c1,2,4.47,2.77,6.9,2.52A19.87,19.87,0,0,1,262.26,151.44Z"/><path class="cls-12" d="M242.55,135.42c2.38,8.62,3.2,12.32,8.56,15.88,8.05,5.34,18.12.54,18.37-8.61.22-8.25-3.7-21-13-22.64A12.2,12.2,0,0,0,242.55,135.42Z"/><path class="cls-11" d="M255.4,118.65c-.7,5.85-5.06,26-13.3,25.84-6.8-5.93-3.44-17.1-1.34-21.63S255.4,118.65,255.4,118.65Z"/><path class="cls-11" d="M251.94,122.79c4.14,2.2,12.28,3.17,11-.2s-.92-6.15-6.52-6.08S251.94,122.79,251.94,122.79Z"/><path class="cls-12" d="M242.86,143.59a6.53,6.53,0,0,0,3.24,3.79c2.05,1,3.51-.7,3.3-2.86-.18-2-1.48-4.83-3.71-5A2.93,2.93,0,0,0,242.86,143.59Z"/><path class="cls-14" d="M255.66,220.69s-2,71.22,3.67,98.1c5.94,28,17.52,67.94,17.52,67.94l16.89-.82s-8.17-50.71-10.16-72.33c-2.73-29.79-2.1-100.08-2.1-100.08Z"/><path class="cls-15" d="M255.66,220.69s-2,71.22,3.67,98.1c5.94,28,17.52,67.94,17.52,67.94l16.89-.82s-8.17-50.71-10.16-72.33c-2.73-29.79-2.1-100.08-2.1-100.08Z"/><path class="cls-13" d="M281.43,240.29c-2.62-6.59-4.93-10.22-5.22-3.65-.6,13.89,1.83,29.78,5.62,37.65C281.58,262.51,281.48,250.5,281.43,240.29Z"/><polygon class="cls-11" points="294.92 386.73 275.67 387.66 273.4 380.62 294.26 378.99 294.92 386.73"/><path class="cls-14" d="M265,218.1s21.63,58.17,36.2,90.29c11.77,25.95,53.49,62.2,53.49,62.2l9.47-8S334,321.26,325.84,303.66c-26-56.34-19.25-80.2-34.92-92.79Z"/><path class="cls-15" d="M265,218.1s21.63,58.17,36.2,90.29c11.77,25.95,53.49,62.2,53.49,62.2l9.47-8S334,321.26,325.84,303.66c-26-56.34-19.25-80.2-34.92-92.79Z"/><polygon class="cls-11" points="364.91 362.48 354.32 371.84 348.93 367.94 361.42 357.29 364.91 362.48"/><path class="cls-14" d="M290.87,208.66l2.47,2.71c.19.21,0,.54-.44.66l-37,10.29c-.32.09-.63,0-.7-.19l-1.2-3.07c-.08-.21.14-.47.49-.57l35.7-9.94A.66.66,0,0,1,290.87,208.66Z"/><path class="cls-11" d="M287.19,214l.95-.27c.19-.05.31-.19.26-.31l-1.59-4c0-.12-.24-.17-.43-.12l-.95.27c-.19,0-.31.19-.26.31l1.58,4C286.8,214,287,214,287.19,214Z"/><path class="cls-11" d="M258.71,221.91l1-.26c.19-.06.31-.2.26-.31l-1.59-4c0-.11-.24-.16-.43-.11l-1,.26c-.19.06-.31.2-.26.31l1.59,4A.36.36,0,0,0,258.71,221.91Z"/><path class="cls-11" d="M273,218l.95-.27c.19-.05.31-.19.27-.31l-1.59-4c-.05-.12-.24-.17-.43-.12l-1,.27c-.19,0-.31.19-.26.31l1.59,4C272.56,218,272.76,218,273,218Z"/><path class="cls-11" d="M256.32,135.08c.15.71.64,1.2,1.11,1.11s.72-.76.57-1.47-.65-1.21-1.11-1.11S256.17,134.36,256.32,135.08Z"/><path class="cls-11" d="M264.35,133.38c.15.71.65,1.21,1.12,1.11s.72-.75.57-1.46-.65-1.21-1.11-1.11S264.21,132.67,264.35,133.38Z"/><path class="cls-11" d="M264.73,132l1.6-.85S265.74,132.67,264.73,132Z"/><path class="cls-16" d="M262.49,135.05a19.43,19.43,0,0,0,3.49,4,3.16,3.16,0,0,1-2.44,1Z"/><path class="cls-11" d="M261.71,143.36a.21.21,0,0,0-.17-.38,5.79,5.79,0,0,1-5.06-1.24.21.21,0,0,0-.3.3,6.09,6.09,0,0,0,5.45,1.36Z"/><path class="cls-11" d="M253.51,132.93a.79.79,0,0,0,.14-.17,3.39,3.39,0,0,1,2.38-2,.42.42,0,0,0,.36-.48.43.43,0,0,0-.48-.37,4.29,4.29,0,0,0-3,2.44.43.43,0,0,0,.21.57A.44.44,0,0,0,253.51,132.93Z"/><path class="cls-11" d="M267.38,128.84l.06-.05a.43.43,0,0,0,0-.6,4.21,4.21,0,0,0-3.7-1.23.41.41,0,0,0-.32.5.42.42,0,0,0,.5.33,3.36,3.36,0,0,1,2.92,1A.42.42,0,0,0,267.38,128.84Z"/><path class="cls-12" d="M288.83,164.63c.8.92,1.8,2,2.73,3s1.93,2,2.93,3c2,1.95,4,3.84,6.18,5.59A63.92,63.92,0,0,0,314.32,185c4.56,2.06,10.1,2.95,15.66,3.34,2.79.21,5.62.28,8.47.22s5.74-.16,8.51-.37l.84,4.48a84.61,84.61,0,0,1-17.93,2.6,63,63,0,0,1-9.28-.34,39.11,39.11,0,0,1-9.44-2.24,54.5,54.5,0,0,1-8.51-4.15,69.31,69.31,0,0,1-7.66-5.28,88.71,88.71,0,0,1-7-6c-1.1-1.07-2.17-2.16-3.23-3.27s-2-2.23-3.11-3.55Z"/><path class="cls-12" d="M345.83,193.14l8.91-1.4-7.36-7s-3.49,2.83-3.49,6.58Z"/><polygon class="cls-12" points="359.53 184.64 353.34 181.15 347.38 184.74 354.74 191.74 359.53 184.64"/><path class="cls-11" d="M282.51,156.49c3.83.09,11.46,11.08,11.46,11.08l-11,13.61s-6.39-9-6.18-13.94C277,162.05,278.14,156.39,282.51,156.49Z"/><path class="cls-14" d="M362.12,381.93a1.47,1.47,0,0,1-.31-.15.69.69,0,0,1-.39-.62c0-1.15,2.65-3,3-3.2a.2.2,0,0,1,.23,0,.22.22,0,0,1,.1.21c-.2,1.19-.68,3.24-1.72,3.72A1.14,1.14,0,0,1,362.12,381.93Zm2.07-3.32c-1.05.77-2.36,1.93-2.35,2.54a.35.35,0,0,0,.19.27.8.8,0,0,0,.78.09C363.37,381.25,363.87,380.18,364.19,378.61Z"/><path class="cls-14" d="M360.79,379.21a1,1,0,0,1-.23-.12.74.74,0,0,1-.27-.89,1.1,1.1,0,0,1,.61-.72c1.18-.57,3.58.42,3.68.46a.21.21,0,0,1,.13.17.23.23,0,0,1-.08.2A5.73,5.73,0,0,1,360.79,379.21Zm3.17-1a4.79,4.79,0,0,0-2.87-.3.69.69,0,0,0-.39.46c-.08.26,0,.36.1.42.52.35,2.26,0,3.23-.55Z"/><path class="cls-14" d="M277.55,398.94a3.56,3.56,0,0,1-2.09-.5,1.32,1.32,0,0,1-.54-1,.61.61,0,0,1,.27-.59c1-.65,4.61,1,5.33,1.34a.22.22,0,0,1,.12.22.21.21,0,0,1-.17.18A14.33,14.33,0,0,1,277.55,398.94Zm-1.7-1.84a.77.77,0,0,0-.42.09c-.05,0-.09.08-.08.2a.86.86,0,0,0,.37.71c.63.48,2.1.54,4,.19A13.13,13.13,0,0,0,275.85,397.1Z"/><path class="cls-14" d="M280.43,398.58l-.08,0c-1.21-.49-3.64-2.44-3.51-3.45,0-.22.18-.5.73-.57,2.12-.25,3,3.61,3.06,3.78a.22.22,0,0,1-.07.21A.21.21,0,0,1,280.43,398.58ZM277.77,395h-.15c-.22,0-.34.09-.35.19-.08.59,1.6,2.13,2.83,2.81C279.82,397,279.05,395,277.77,395Z"/><path class="cls-11" d="M256.69,133.69l1.6-.85S257.7,134.36,256.69,133.69Z"/><path class="cls-14" d="M309.71,230.85s-18.39,15-11.55,48.07c4,19.49,16.2,29.39,26.85,27.23s18-16,14.09-35.54C332.51,237.51,309.71,230.85,309.71,230.85Z"/><path class="cls-17" d="M309.71,230.85s-18.39,15-11.55,48.07c4,19.49,16.2,29.39,26.85,27.23s18-16,14.09-35.54C332.51,237.51,309.71,230.85,309.71,230.85Z"/><path class="cls-14" d="M425.63,166.74s-33.77-7.51-65.43,30.09c-18.67,22.17-19.05,45-7,55.26s34.55,6.14,53.39-15.89C438.54,198.84,425.63,166.74,425.63,166.74Z"/><path class="cls-14" d="M381.29,17.53s-7.54,2.08-9.89,12.94c-1.38,6.41,1,11,4.46,11.79s7.56-2.43,9-8.83C387.27,22.58,381.29,17.53,381.29,17.53Z"/><path class="cls-14" d="M321.48,352a162.06,162.06,0,0,1-6-47.3,186,186,0,0,1,6.77-45.83,222.84,222.84,0,0,1,7.14-21.55c1.35-3.5,2.8-7,4.31-10.38.73-1.72,1.55-3.39,2.33-5.09l1.15-2.46,1.14-2.38c6-12.68,11.76-25.43,17-38.38a391.88,391.88,0,0,0,13.59-39.46,241.67,241.67,0,0,0,8-40.78,147.25,147.25,0,0,0-1.29-41.49A103.72,103.72,0,0,0,360,18.05a106,106,0,0,1,20.19,37.74,153.42,153.42,0,0,1,6.15,43,252.67,252.67,0,0,1-3.6,43.44,409.93,409.93,0,0,1-9.51,42.44c-3.86,13.95-8.29,27.7-13,41.29l-.88,2.55-.45,1.27-.4,1.2c-.52,1.61-1.09,3.2-1.57,4.81q-1.52,4.83-2.8,9.67A194.1,194.1,0,0,0,350,265a155.54,155.54,0,0,0-1.38,38.69,126.17,126.17,0,0,0,8.81,36.22Z"/><path class="cls-13" d="M321.48,352a162.06,162.06,0,0,1-6-47.3,186,186,0,0,1,6.77-45.83,222.84,222.84,0,0,1,7.14-21.55c1.35-3.5,2.8-7,4.31-10.38.73-1.72,1.55-3.39,2.33-5.09l1.15-2.46,1.14-2.38c6-12.68,11.76-25.43,17-38.38a391.88,391.88,0,0,0,13.59-39.46,241.67,241.67,0,0,0,8-40.78,147.25,147.25,0,0,0-1.29-41.49A103.72,103.72,0,0,0,360,18.05a106,106,0,0,1,20.19,37.74,153.42,153.42,0,0,1,6.15,43,252.67,252.67,0,0,1-3.6,43.44,409.93,409.93,0,0,1-9.51,42.44c-3.86,13.95-8.29,27.7-13,41.29l-.88,2.55-.45,1.27-.4,1.2c-.52,1.61-1.09,3.2-1.57,4.81q-1.52,4.83-2.8,9.67A194.1,194.1,0,0,0,350,265a155.54,155.54,0,0,0-1.38,38.69,126.17,126.17,0,0,0,8.81,36.22Z"/><path class="cls-14" d="M392.8,315l-1.06,11.84-6.89,76.92a5.26,5.26,0,0,1-5.24,4.79H292.25a5.26,5.26,0,0,1-5.24-4.79l-6.89-76.92L279.06,315Z"/><rect class="cls-14" x="376.98" y="371.15" width="27.73" height="1.03" transform="translate(-14.17 727.84) rotate(-84.89)"/><rect class="cls-14" x="389.82" y="346" width="6.55" height="1.03" transform="translate(12.93 707.17) rotate(-84.89)"/><path class="cls-14" d="M318.76,71.35s-19.51,26,.39,67.65c11.73,24.56,31.14,33.74,44.57,27.38s18.64-27.17,7.09-51.83C351.23,72.75,318.76,71.35,318.76,71.35Z"/><path class="cls-13" d="M318.76,71.35s-19.51,26,.39,67.65c11.73,24.56,31.14,33.74,44.57,27.38s18.64-27.17,7.09-51.83C351.23,72.75,318.76,71.35,318.76,71.35Z"/><polygon class="cls-13" points="392.8 315.03 391.74 326.87 280.12 326.87 279.06 315.03 392.8 315.03"/><rect class="cls-14" x="269.82" y="300.43" width="132.21" height="20.52" rx="2.39"/><circle class="cls-14" cx="423.97" cy="97.12" r="41.43" transform="translate(26.81 274.45) rotate(-36.96)"/><path class="cls-18" d="M457.21,107.41a33.94,33.94,0,1,0-60.7,11.08,34.8,34.8,0,1,1,60.7-11.08Z"/><path class="cls-5" d="M436.74,103.13l-4.13,8.76a2.67,2.67,0,0,1-1.61,1.42,2.8,2.8,0,0,1-2.18-.11l-7.71-3.64-2.91,6.17a2.65,2.65,0,0,1-1.6,1.44,2.72,2.72,0,0,1-2.13-.1,2.8,2.8,0,0,1-1.48-1.6,2.68,2.68,0,0,1,.09-2.15l2.94-6.24-7.65-3.61a2.8,2.8,0,0,1,2.39-5.06l17.89,8.45,1.72-3.64L412.54,94.8a2.76,2.76,0,0,1-1.45-1.57,2.69,2.69,0,0,1,.12-2.15l4.12-8.74A2.78,2.78,0,0,1,419.05,81l7.59,3.58,2.92-6.17a2.75,2.75,0,0,1,3.81-1.3,2.8,2.8,0,0,1,1.31,3.71L431.76,87l7.77,3.66A2.83,2.83,0,0,1,441,92.29a2.69,2.69,0,0,1-.07,2.14,2.77,2.77,0,0,1-1.63,1.46,2.74,2.74,0,0,1-2.19-.1l-17.88-8.44L417.52,91l17.83,8.42a2.76,2.76,0,0,1,1.46,1.61A2.61,2.61,0,0,1,436.74,103.13Z"/></g></g></svg>