<svg id="Layer_1" data-name="Layer 1" xmlns="http://www.w3.org/2000/svg" xmlns:xlink="http://www.w3.org/1999/xlink" viewBox="0 0 623.19 432.88"><defs><style>.cls-1,.cls-10{fill:none;}.cls-2{clip-path:url(#clip-path);}.cls-3{clip-path:url(#clip-path-2);}.cls-4{fill:#e0e0e0;}.cls-5{fill:#fafbfb;}.cls-6{fill:#ebebeb;}.cls-13,.cls-15,.cls-7{fill:#fff;}.cls-8{fill:#f5f5f5;}.cls-9{fill:#263238;}.cls-10{stroke:#e0e0e0;stroke-linecap:round;stroke-linejoin:round;stroke-width:3px;}.cls-11{fill:#455b64;}.cls-12{fill:#91d8f4;}.cls-13{opacity:0.2;}.cls-14{opacity:0.6;}.cls-15,.cls-19{opacity:0.4;}.cls-16,.cls-20{opacity:0.3;}.cls-17{fill:#fbbd9d;}.cls-18{fill:#ec996f;}</style><clipPath id="clip-path"><rect class="cls-1" x="95.45" y="-457.16" width="475.54" height="431.89"/></clipPath><clipPath id="clip-path-2"><rect class="cls-1" x="95.45" y="-457.16" width="475.54" height="622.76"/></clipPath></defs><title>know</title><g class="cls-2"><g class="cls-3"><image width="526" height="716" transform="matrix(0.95, -0.03, 0.03, 0.89, 71.91, -457.49)" xlink:href="../../Screen%20Shot%202019-09-30%20at%2012.18.25%20AM.png"/></g></g><circle class="cls-4" cx="431.46" cy="92.36" r="35.75" transform="translate(242.57 491.11) rotate(-76.74)"/><path class="cls-5" d="M447.69,93.46a6.75,6.75,0,0,1-1.27.08l-3.47.07c-2.95,0-7.06.07-11.69.08H431v-.23c0-.74,0-1.52,0-2.32,0-5.18,0-9.86.07-13.26,0-1.63.06-3,.08-4a7.3,7.3,0,0,1,.09-1.48,9.8,9.8,0,0,1,.09,1.48c0,1,0,2.38.07,4,0,3.4.07,8.08.07,13.26v2.32l-.23-.23c4.63,0,8.74,0,11.69.08l3.47.07A6.75,6.75,0,0,1,447.69,93.46Z"/><path class="cls-5" d="M431.37,62.48a10.34,10.34,0,0,1,.23,3,10.24,10.24,0,0,1-.23,3,9.66,9.66,0,0,1-.24-3A9.75,9.75,0,0,1,431.37,62.48Z"/><path class="cls-5" d="M447.65,67.31a9.49,9.49,0,0,1-1.93,2.25,9.49,9.49,0,0,1-2.25,1.93,9.49,9.49,0,0,1,1.93-2.25A9.49,9.49,0,0,1,447.65,67.31Z"/><path class="cls-5" d="M457.18,77.71a12.42,12.42,0,0,1-2.47,1.65,12,12,0,0,1-2.59,1.42A8.06,8.06,0,0,1,454.47,79,7.91,7.91,0,0,1,457.18,77.71Z"/><path class="cls-5" d="M462.76,93.15a36.57,36.57,0,0,1-8.19,0,36.57,36.57,0,0,1,8.19,0Z"/><path class="cls-5" d="M406,92.6a31.32,31.32,0,0,1-7.74,0,32.67,32.67,0,0,1,7.74,0Z"/><path class="cls-5" d="M410,104.1a16.87,16.87,0,0,1-2.92,2.65,16.86,16.86,0,0,1-3.21,2.29,16.87,16.87,0,0,1,2.92-2.65A17.06,17.06,0,0,1,410,104.1Z"/><path class="cls-5" d="M419.9,113a25.48,25.48,0,0,1-2,3.44,25.85,25.85,0,0,1-2.11,3.38,12.86,12.86,0,0,1,1.72-3.61A12.63,12.63,0,0,1,419.9,113Z"/><path class="cls-5" d="M431.37,124.45a17.8,17.8,0,0,1-.24-4.09,17.92,17.92,0,0,1,.24-4.1,19,19,0,0,1,.23,4.1A18.89,18.89,0,0,1,431.37,124.45Z"/><path class="cls-5" d="M449,119a12,12,0,0,1-3.38-2.32,12.12,12.12,0,0,1-2.75-3,40.27,40.27,0,0,1,3.05,2.68A36.88,36.88,0,0,1,449,119Z"/><path class="cls-5" d="M457.3,110.07a13.71,13.71,0,0,1-2.71-2.38A14.42,14.42,0,0,1,452.2,105a14.44,14.44,0,0,1,2.72,2.38A14.57,14.57,0,0,1,457.3,110.07Z"/><path class="cls-5" d="M409.62,81.59a10.87,10.87,0,0,1-2.39-2.06,10.44,10.44,0,0,1-2.07-2.4,11.1,11.1,0,0,1,2.39,2.07A11.1,11.1,0,0,1,409.62,81.59Z"/><path class="cls-5" d="M419.84,70.82a10.26,10.26,0,0,1-2.35-2,10.53,10.53,0,0,1-2-2.34,10.5,10.5,0,0,1,2.36,2A10.89,10.89,0,0,1,419.84,70.82Z"/><path class="cls-4" d="M20.06,176.2l.57,0,1.62,0,6.14-.07,21.9-.19-.19.19c-.06-10.91-.13-24-.2-38.16,0-.06.44.43.23.23H46.07l-4,0-7.77,0-14.41,0,.21-.2c0,11.29,0,20.8,0,27.52,0,3.34,0,6,0,7.82,0,.9,0,1.59,0,2.09,0,.22,0,.4,0,.54s0,.19,0,.19,0,0,0-.16,0-.31,0-.52c0-.49,0-1.17,0-2.05,0-1.82-.05-4.45-.09-7.78-.05-6.74-.13-16.3-.22-27.65v-.21h.21l14.4-.08,7.77,0,4,0h4.06c-.21-.2.29.28.23.24,0,14.12.09,27.25.12,38.16v.19H28.27l-6.09,0-1.59,0A5.12,5.12,0,0,1,20.06,176.2Z"/><rect class="cls-6" x="33.27" y="175.28" width="4.19" height="1.02" transform="matrix(1, 0, 0, 1, -0.72, 0.15)"/><rect class="cls-4" x="30.7" y="151.33" width="9.17" height="13.24" transform="translate(-0.65 0.15) rotate(-0.23)"/><rect class="cls-6" x="33.7" y="137.45" width="4.19" height="0.87" transform="translate(-0.56 0.15) rotate(-0.23)"/><rect class="cls-7" x="509.66" y="72.53" width="31.13" height="20.98" transform="translate(-5.49 49.97) rotate(-5.42)"/><path class="cls-4" d="M541.71,92a2.46,2.46,0,0,1-.06-.39c0-.28-.07-.65-.13-1.12-.1-1-.25-2.41-.44-4.21-.37-3.65-.9-8.84-1.54-15.15l.2.17-31,3c-.05.06.39-.47.2-.25h0v.15l0,.18,0,.34.07.7c0,.46.08.92.13,1.38.08.92.17,1.83.26,2.74.17,1.81.33,3.59.5,5.34.32,3.5.64,6.86.94,10l-.23-.19,22.28-2,6.4-.55L541.1,92l.45,0h.16a5,5,0,0,1-.56.08l-1.67.18-6.34.66-22.4,2.23-.21,0,0-.21c-.3-3.18-.63-6.54-1-10q-.26-2.62-.51-5.34c-.09-.9-.18-1.82-.26-2.73,0-.46-.09-.92-.13-1.39l-.07-.69,0-.35,0-.17v-.16h0c-.18.22.26-.31.21-.26l31-2.89.18,0,0,.18c.56,6.37,1,11.61,1.35,15.29.15,1.78.27,3.19.35,4.18l.08,1.08C541.71,91.89,541.71,92,541.71,92Z"/><path class="cls-4" d="M539.73,71.11a10.77,10.77,0,0,1-1,1.18l-2.71,3.12c-2.31,2.63-5.54,6.26-9.15,10.28l-.13.14-.17-.1-.82-.53c-4.75-3-9-5.79-12.12-7.8L510,75l-1-.68a2.49,2.49,0,0,1-.33-.26,1.63,1.63,0,0,1,.38.18l1,.61c.95.57,2.2,1.35,3.73,2.28,3.13,1.95,7.44,4.67,12.19,7.69l.82.53-.3,0c3.62-4,6.89-7.61,9.26-10.18,1.15-1.24,2.1-2.26,2.82-3A8.75,8.75,0,0,1,539.73,71.11Z"/><path class="cls-4" d="M366.36,67.29a1.66,1.66,0,0,0,.78-.29,1.51,1.51,0,0,0,.54-.81,8.47,8.47,0,0,0,.05-1.39c0-2.17,0-5.23,0-9,0-1,0-1.95,0-3l0-1.59a4.72,4.72,0,0,0,0-.77,1.24,1.24,0,0,0-.33-.63,1.26,1.26,0,0,0-.63-.34,7.11,7.11,0,0,0-.82,0h-5.43l-16.36,0a1.24,1.24,0,0,0-1.2,1.14c0,.71,0,1.41,0,2.11,0,1.42,0,2.81-.06,4.18,0,2.73-.09,5.37-.13,7.88,0,.32,0,.63,0,.94a1.33,1.33,0,0,0,.18.77,1.23,1.23,0,0,0,.59.49,2.07,2.07,0,0,0,.81.08h3.47l6.22,0,9,.07,2.45,0,.63,0,.22,0s-.07,0-.22,0l-.63,0-2.45,0-9,.08-6.22,0h-3.47a2.76,2.76,0,0,1-1-.1,1.55,1.55,0,0,1-.79-.66,1.7,1.7,0,0,1-.25-1c0-.31,0-.62,0-.93,0-2.52.06-5.16.1-7.89,0-1.37,0-2.76,0-4.17,0-.71,0-1.43,0-2.15A1.7,1.7,0,0,1,344.23,49l16.36,0H366a6.9,6.9,0,0,1,.89,0,1.57,1.57,0,0,1,1.26,1.28,5,5,0,0,1,0,.85q0,.81,0,1.59c0,1,0,2-.06,3-.09,3.77-.15,6.84-.2,9a8.83,8.83,0,0,1-.1,1.43,1.54,1.54,0,0,1-.62.85,1.37,1.37,0,0,1-.61.22A.48.48,0,0,1,366.36,67.29Z"/><polygon class="cls-4" points="356.24 56.75 359.27 58.59 356.18 60.41 353.08 62.22 353.15 58.56 353.21 54.91 356.24 56.75"/><polygon class="cls-6" points="103.82 47.99 59.82 47.99 59.82 105.37 103.82 106.47 103.82 47.99"/><polygon class="cls-5" points="100.66 50.04 62.16 50.04 62.16 102.07 100.66 103.37 100.66 50.04"/><polygon class="cls-4" points="94.18 59.49 68.63 58.52 68.63 94.89 94.18 94.89 94.18 59.49"/><polygon class="cls-8" points="68.63 94.89 94.18 76.2 68.63 58.52 68.63 94.89"/><path class="cls-6" d="M431.7,354.34c-16.1-11.25-19.75-32.13-19.12-50.9.11-3.13-.24-6.44,1.25-9.19s5-4.62,7.78-3.3c2.33,1.09,3.34,3.8,4.64,6a18.32,18.32,0,0,0,7.35,7c2,1,4.46,1.66,6.43.58,2.71-1.49,3-5.23,3-8.34q-.06-8.72-.11-17.43a29,29,0,0,1,.94-9.25c1-3,3.11-5.71,6.07-6.54s6.63.88,7.26,3.93a29.49,29.49,0,0,1,.09,3.88c.08,1.29.69,2.73,1.91,3.09s2.5-.52,3.43-1.43c3.21-3.15,5.4-7.2,7.44-11.24s4-8.15,6.93-11.58,7-6.16,11.42-6.41,9.22,2.5,10.35,6.88-1.43,8.85-4.22,12.41a69.76,69.76,0,0,1-14.49,13.81,5.73,5.73,0,0,0-2.42,2.6c-.68,2.08,1.29,4.14,3.34,4.83,2.33.77,4.85.53,7.28.81s5.06,1.36,6,3.66c1.28,3.18-1.39,6.52-4,8.71a59.48,59.48,0,0,1-17.64,10.18c-2.29.84-4.7,1.57-6.55,3.18s1,7.32,2.14,9.51,0,0,2.4-.45,4.55-1.74,6.84-2.61c4.28-1.61,9.81-1.32,12.55,2.38a9.82,9.82,0,0,1,1,8.72,22.72,22.72,0,0,1-4.72,7.7,59.88,59.88,0,0,1-25.59,18c-9.93,3.44-19.14,4.37-29,.76"/><path class="cls-4" d="M431.46,368.26a137,137,0,0,1,5.09-25.69,279.27,279.27,0,0,1,11.08-30.06l3.31-7.73c1.09-2.53,2.18-5,3.39-7.44A139.61,139.61,0,0,1,462.08,284c2.67-4.12,5.35-8,7.89-11.5s5-6.81,7.32-9.69A110.56,110.56,0,0,1,489.36,250c1.53-1.39,2.76-2.43,3.6-3.12l1-.78a2.19,2.19,0,0,1,.34-.25,2.87,2.87,0,0,1-.31.3L493,247c-.82.72-2,1.79-3.53,3.2a116,116,0,0,0-11.91,12.85c-2.31,2.89-4.72,6.16-7.25,9.71s-5.18,7.39-7.83,11.52a141,141,0,0,0-7.69,13.31c-1.2,2.39-2.27,4.88-3.37,7.42s-2.19,5.12-3.3,7.73a284.84,284.84,0,0,0-11.11,30,139.14,139.14,0,0,0-5.19,25.57"/><path class="cls-4" d="M454.49,297.32a6.66,6.66,0,0,1-.3-1.33c-.17-.86-.36-2.12-.58-3.67-.44-3.1-.9-7.41-1.4-12.16s-1-9-1.5-12.12c-.23-1.55-.44-2.8-.59-3.66a6.3,6.3,0,0,1-.18-1.35,5.85,5.85,0,0,1,.39,1.31c.22.85.49,2.09.78,3.63.59,3.08,1.18,7.37,1.67,12.13s.9,8.93,1.23,12.17c.16,1.46.29,2.69.4,3.68A6.14,6.14,0,0,1,454.49,297.32Z"/><path class="cls-4" d="M494.56,289.83a9.31,9.31,0,0,1-1.6.19c-1,.09-2.52.22-4.35.43-3.67.39-8.72,1.12-14.26,2.16s-10.5,2.22-14.07,3.17c-1.79.46-3.23.87-4.22,1.15a10.47,10.47,0,0,1-1.57.39,8.41,8.41,0,0,1,1.5-.6c1-.35,2.4-.82,4.18-1.34,3.55-1.05,8.53-2.28,14.08-3.34a142.16,142.16,0,0,1,14.32-2c1.85-.16,3.34-.22,4.38-.25A8.84,8.84,0,0,1,494.56,289.83Z"/><path class="cls-4" d="M437,341.84a2.11,2.11,0,0,1-.28-.49l-.68-1.45c-.59-1.26-1.4-3.11-2.36-5.4-1.93-4.59-4.4-11-7-18.14s-5-13.57-6.88-18.19l-2.19-5.47c-.23-.6-.43-1.09-.58-1.5a1.89,1.89,0,0,1-.17-.53,1.93,1.93,0,0,1,.27.49c.19.39.41.87.69,1.44.59,1.27,1.39,3.11,2.36,5.41,1.93,4.59,4.4,11,7,18.14s5,13.57,6.87,18.19l2.19,5.47.59,1.49A2,2,0,0,1,437,341.84Z"/><path class="cls-4" d="M490.28,324.68a2.3,2.3,0,0,1-.53.22l-1.54.51-5.71,1.85c-4.81,1.56-11.43,3.8-18.75,6.27s-14,4.65-18.82,6.12c-2.42.73-4.39,1.3-5.75,1.67l-1.58.41a2.15,2.15,0,0,1-.56.11,1.85,1.85,0,0,1,.53-.22l1.54-.52,5.7-1.85c4.82-1.56,11.44-3.79,18.76-6.27s14-4.65,18.81-6.11c2.43-.73,4.39-1.3,5.76-1.67l1.58-.42A2.27,2.27,0,0,1,490.28,324.68Z"/><path class="cls-9" d="M19.9,389.11c0-.13,130.25-.23,290.89-.23s290.92.1,290.92.23-130.23.23-290.92.23S19.9,389.23,19.9,389.11Z"/><path class="cls-4" d="M122.87,149.46s-16.63,179.62,18,237.36l308.36,3.65s-51.08-155.7-46.65-245.71Z"/><path class="cls-6" d="M122.87,149.46s-19.54,185.21,41.35,224.79H461.41s-52.75-90.41-56.9-224.79Z"/><rect class="cls-9" x="121.37" y="106.15" width="289.13" height="46.36"/><path class="cls-10" d="M147.2,106.51S150.12,96,160.74,96c9,0,13.54,7.26,13.54,13.92s-4.11,13.71-13.54,14.22"/><rect class="cls-9" x="142.91" y="105.98" width="14.27" height="6.37"/><path class="cls-10" d="M202.13,106.51S205,96,215.67,96c9.05,0,13.54,7.26,13.54,13.92s-4.12,13.71-13.54,14.22"/><rect class="cls-9" x="197.84" y="105.98" width="14.27" height="6.37"/><path class="cls-10" d="M257.06,106.51S260,96,270.6,96c9,0,13.53,7.26,13.53,13.92S280,123.67,270.6,124.18"/><rect class="cls-9" x="252.77" y="105.98" width="14.27" height="6.37"/><path class="cls-10" d="M312,106.51S314.9,96,325.52,96c9.05,0,13.54,7.26,13.54,13.92s-4.11,13.71-13.54,14.22"/><rect class="cls-9" x="307.69" y="105.98" width="14.27" height="6.37"/><path class="cls-10" d="M366.91,106.51S369.83,96,380.45,96C389.5,96,394,103.3,394,110s-4.11,13.71-13.54,14.22"/><rect class="cls-9" x="362.62" y="105.98" width="14.27" height="6.37"/><path class="cls-8" d="M121.39,154.23s-3.2,206.41,63.71,206.41l274.83.09S420.65,320.66,409,154.23Z"/><path class="cls-9" d="M420.72,335.16c-.06-.18-.35-1-1-2.83s-1.66-4.58-2.86-8.21c-2.46-7.24-5.89-17.95-9.83-31.78-7.91-27.64-17.45-67.92-24.88-117.58l.19.16-233,0h-2.22l.23-.26c4.2,29.89,8.5,59,15.48,86.29a310.39,310.39,0,0,0,12.64,39.21,228.23,228.23,0,0,0,17.48,34.85l-.18-.1,228,.21-228,.21h-.12l-.06-.1A229.54,229.54,0,0,1,175,300.36a311.06,311.06,0,0,1-12.67-39.25c-7-27.32-11.3-56.46-15.5-86.34l0-.27h2.49l233,.05h.16l0,.16c7.38,49.64,16.87,89.92,24.71,117.57,3.91,13.83,7.31,24.55,9.74,31.8S420.6,334.8,420.72,335.16Z"/><path class="cls-9" d="M396,254.83c0,.13-52.48.23-117.2.23s-117.21-.1-117.21-.23,52.46-.23,117.21-.23S396,254.7,396,254.83Z"/><path class="cls-9" d="M408.66,297.7c0,.13-52.49.23-117.23.23s-117.24-.1-117.24-.23,52.48-.23,117.24-.23S408.66,297.57,408.66,297.7Z"/><path class="cls-9" d="M388.1,213.51c0,.13-52.48.23-117.2.23s-117.21-.1-117.21-.23,52.47-.23,117.21-.23S388.1,213.38,388.1,213.51Z"/><path class="cls-9" d="M230.93,335.16a3.29,3.29,0,0,1-.14-.4c-.1-.29-.23-.68-.39-1.19-.33-1.07-.82-2.61-1.43-4.59-1.25-4-3-9.78-5.09-16.94-4.19-14.34-9.73-34.22-15.09-56.37-2.67-11.08-5-21.67-7.09-31.34s-3.74-18.39-5-25.75c-.68-3.67-1.25-7-1.74-9.92s-.92-5.45-1.23-7.51-.56-3.65-.73-4.75c-.07-.53-.13-.94-.17-1.24s0-.43,0-.43,0,.14.09.42.13.71.23,1.23l.81,4.74c.34,2.06.78,4.58,1.31,7.49s1.1,6.25,1.8,9.92c1.34,7.34,3.11,16.05,5.13,25.71s4.46,20.25,7.13,31.32c5.35,22.15,10.85,42,14.95,56.39,2.06,7.17,3.76,13,4.95,17,.58,2,1,3.54,1.35,4.61.15.52.26.92.34,1.21S230.93,335.16,230.93,335.16Z"/><path class="cls-9" d="M276.42,335.16a3.29,3.29,0,0,1-.14-.4l-.38-1.19-1.4-4.6c-1.22-4-2.92-9.8-5-17-4.13-14.35-9.7-34.22-15.12-56.36s-9.7-42.34-12.33-57c-.67-3.67-1.25-7-1.72-9.93s-.9-5.45-1.19-7.51-.54-3.65-.7-4.76c-.07-.53-.13-.94-.17-1.24s0-.43,0-.43,0,.14.09.42l.21,1.23c.19,1.11.45,2.7.78,4.75s.77,4.58,1.28,7.5,1.09,6.24,1.79,9.91c2.71,14.68,7,34.87,12.45,57s10.94,42,15,56.38l4.86,17,1.32,4.63.33,1.2A3.57,3.57,0,0,1,276.42,335.16Z"/><path class="cls-9" d="M323.93,335.16s-.06-.13-.15-.4-.22-.68-.39-1.19c-.34-1.07-.83-2.61-1.45-4.59-1.27-4-3-9.76-5.19-16.91-4.27-14.32-10-34.15-15.54-56.27s-9.7-42.37-12.12-57.12c-.61-3.68-1.15-7-1.56-10s-.8-5.47-1-7.54-.44-3.66-.58-4.78c-.06-.53-.11-.94-.14-1.24s0-.43,0-.43,0,.14.08.42l.18,1.24c.16,1.11.38,2.71.67,4.76s.67,4.6,1.12,7.53,1,6.27,1.63,9.95c2.5,14.72,6.69,34.94,12.24,57.05s11.21,42,15.4,56.29c2.13,7.15,3.85,12.94,5.05,17l1.37,4.61c.15.52.26.92.35,1.21S323.93,335.16,323.93,335.16Z"/><path class="cls-9" d="M371.44,335.16s-.06-.13-.15-.4-.23-.68-.4-1.19c-.35-1.06-.86-2.6-1.5-4.57-1.31-4-3.13-9.74-5.36-16.88-4.41-14.28-10.35-34.07-16-56.18-2.84-11.05-5.29-21.65-7.29-31.33-1-4.83-1.87-9.46-2.69-13.78-.37-2.16-.73-4.26-1.08-6.27s-.67-3.94-.92-5.79c-2.25-14.79-2.81-24-2.81-24s0,.15.06.43.09.71.15,1.24c.12,1.11.3,2.72.53,4.78s.56,4.61.94,7.56.89,6.28,1.45,10c.27,1.84.6,3.77,1,5.78s.71,4.1,1.09,6.26c.85,4.32,1.69,8.93,2.74,13.76,2,9.68,4.48,20.26,7.32,31.31,5.63,22.09,11.53,41.89,15.86,56.2L369.56,329c.61,2,1.08,3.52,1.41,4.6.16.51.27.91.36,1.2S371.44,335.16,371.44,335.16Z"/><path class="cls-11" d="M199.85,190.62s2,19.47,9.73,31.62h45.49s-11.06-19.69-12.4-33.37l-1-7.67H199.13Z"/><path class="cls-5" d="M237.63,194c0,.13-6.48.24-14.47.24s-14.47-.11-14.47-.24,6.47-.23,14.47-.23S237.63,193.91,237.63,194Z"/><path class="cls-5" d="M239.08,199c0,.13-6.48.24-14.47.24s-14.48-.11-14.48-.24,6.48-.23,14.48-.23S239.08,198.83,239.08,199Z"/><path class="cls-5" d="M240.52,203.87c0,.13-6.48.23-14.47.23s-14.47-.1-14.47-.23,6.48-.23,14.47-.23S240.52,203.75,240.52,203.87Z"/><path class="cls-5" d="M242,208.79c0,.13-6.48.24-14.47.24s-14.47-.11-14.47-.24,6.48-.23,14.47-.23S242,208.67,242,208.79Z"/><path class="cls-9" d="M356,238.59s2,19.47,9.73,31.62h45.49s-11.06-19.69-12.4-33.36l-1-7.68H355.3Z"/><path class="cls-4" d="M393.8,241c0,.13-6.48.23-14.47.23s-14.47-.1-14.47-.23,6.48-.23,14.47-.23S393.8,240.9,393.8,241Z"/><path class="cls-4" d="M395.25,246c0,.13-6.48.23-14.47.23s-14.47-.1-14.47-.23,6.47-.23,14.47-.23S395.25,245.82,395.25,246Z"/><path class="cls-4" d="M396.69,250.87c0,.13-6.48.23-14.47.23s-14.47-.1-14.47-.23,6.48-.23,14.47-.23S396.69,250.74,396.69,250.87Z"/><path class="cls-4" d="M398.14,255.79c0,.13-6.48.23-14.47.23s-14.47-.1-14.47-.23,6.48-.23,14.47-.23S398.14,255.66,398.14,255.79Z"/><path class="cls-12" d="M326.67,178.37c.47.38-5.42,8.22-14.32,16.35s-17.2,13.33-17.54,12.83,7.23-6.5,16-14.54S326.16,177.94,326.67,178.37Z"/><path class="cls-12" d="M335.3,208.28c-.38.54-10.32-5.94-22.56-13.92s-22.15-14.49-21.82-15.05,10.81,5.09,23.09,13.12S335.66,207.78,335.3,208.28Z"/><path class="cls-12" d="M249.46,204.67c-.39-.51,6.15-6.14,14.61-12.58s15.63-11.24,16-10.74-6.16,6.14-14.62,12.58S249.84,205.18,249.46,204.67Z"/><path class="cls-12" d="M285.39,207.42c-.41.53-9.12-5.61-20.17-12.66s-20.26-12.41-20-13,10.06,3.91,21.2,11.05S285.77,206.94,285.39,207.42Z"/><path class="cls-12" d="M287.89,259.26c0-.08.45-.18,1.35-.24a15.12,15.12,0,0,1,3.89.39,17.8,17.8,0,0,1,5.72,2.45,18.2,18.2,0,0,1,5.74,6,19.53,19.53,0,0,1,2.62,9.74,21.25,21.25,0,0,1-.71,5.63,21,21,0,0,1-2.43,5.53,22.85,22.85,0,0,1-23.28,10.15,23.14,23.14,0,0,1-12.26-6.21,21,21,0,0,1-5.92-11.37,21.59,21.59,0,0,1,1.06-11.54,18.63,18.63,0,0,1,6-8.09,19.88,19.88,0,0,1,7.44-3.62,18.39,18.39,0,0,1,6.2-.52,8.59,8.59,0,0,1,1.19.15c.38.07.73.11,1,.19.64.18,1.17.3,1.59.47.83.34,1.24.55,1.21.63s-1.81-.52-5.07-.54a18.82,18.82,0,0,0-5.81.86,19.7,19.7,0,0,0-6.77,3.65,17.16,17.16,0,0,0-3,3.25,16.57,16.57,0,0,0-2.22,4.24,20,20,0,0,0-.76,10.48,19.13,19.13,0,0,0,5.41,10.14,21.12,21.12,0,0,0,11.08,5.55,20.72,20.72,0,0,0,12.28-1.52,21,21,0,0,0,8.81-7.5,19,19,0,0,0,2.26-4.93,19.24,19.24,0,0,0,.75-5.09,18.06,18.06,0,0,0-2.12-8.93,17.28,17.28,0,0,0-5.06-5.72,17.84,17.84,0,0,0-5.22-2.65C289.78,259.31,287.89,259.48,287.89,259.26Z"/><path class="cls-12" d="M161.53,249.67c-.49-.39,5.11-8,13-16.61s14.82-15,15.39-14.4-5.87,7.41-13.68,16S162,250.09,161.53,249.67Z"/><path class="cls-12" d="M197.55,246.05c-.33.54-9.42-4.47-20.29-11.19s-19.42-12.61-19.09-13.15,9.33,4.46,20.2,11.18S197.89,245.5,197.55,246.05Z"/><path class="cls-12" d="M284,266.31l3.48,5a1.55,1.55,0,0,0,1.26.66l6.08,0a1.53,1.53,0,0,1,1.23,2.45l-3.67,4.85a1.53,1.53,0,0,0-.23,1.4l1.91,5.77a1.53,1.53,0,0,1-1.95,1.93l-5.74-2a1.51,1.51,0,0,0-1.41.21l-4.9,3.6a1.52,1.52,0,0,1-2.43-1.26l.12-6.08a1.52,1.52,0,0,0-.64-1.27L272.13,278a1.53,1.53,0,0,1,.45-2.71l5.81-1.76a1.54,1.54,0,0,0,1-1l1.84-5.79A1.53,1.53,0,0,1,284,266.31Z"/><path class="cls-12" d="M378.55,178.58c.43.48-7.31,8.1-17.28,17s-18.41,15.78-18.83,15.3,7.31-8.09,17.28-17S378.13,178.11,378.55,178.58Z"/><path class="cls-12" d="M384.35,206c-.28.57-11.13-4.28-24.21-10.85S336.66,182.83,337,182.26s11.13,4.28,24.22,10.85S384.64,205.45,384.35,206Z"/><polygon class="cls-11" points="367.75 188.81 420.72 188.81 433.44 198.64 422.23 207.84 371.44 207.78 367.75 188.81"/><path class="cls-13" d="M284,266.31l3.48,5a1.55,1.55,0,0,0,1.26.66l6.08,0a1.53,1.53,0,0,1,1.23,2.45l-3.67,4.85a1.53,1.53,0,0,0-.23,1.4l1.91,5.77a1.53,1.53,0,0,1-1.95,1.93l-5.74-2a1.51,1.51,0,0,0-1.41.21l-4.9,3.6a1.52,1.52,0,0,1-2.43-1.26l.12-6.08a1.52,1.52,0,0,0-.64-1.27L272.13,278a1.53,1.53,0,0,1,.45-2.71l5.81-1.76a1.54,1.54,0,0,0,1-1l1.84-5.79A1.53,1.53,0,0,1,284,266.31Z"/><path class="cls-12" d="M507.3,384.64l0-7.47,14,0,.06,10.94-.87.06c-3.87.22-19.66.83-22.25.05C495.4,387.33,507.3,384.64,507.3,384.64Z"/><g class="cls-14"><path class="cls-7" d="M516.33,388.16a4.86,4.86,0,0,1,1.79-3,4.77,4.77,0,0,1,3.27-1v3.92Z"/></g><g class="cls-14"><path class="cls-7" d="M501.5,386.15s-4.16,1.21-3.64,1.89,16.5.67,23.56,0l0-.31-18.65.18S502.32,386.18,501.5,386.15Z"/></g><path class="cls-9" d="M521.49,387.66l-.24,0-.69,0-2.54.11c-2.15.08-5.12.15-8.41.16s-6.25-.05-8.4-.12l-2.55-.11-.69,0a1.22,1.22,0,0,1-.24,0h.94l2.54.05c2.15,0,5.12.08,8.4.07s6.25-.06,8.4-.11l2.55-.06h.69A.87.87,0,0,1,521.49,387.66Z"/><path class="cls-9" d="M502.75,388.22a6.91,6.91,0,0,0-.48-1.21,5.78,5.78,0,0,0-.87-1,1.83,1.83,0,0,1,1,.88A1.93,1.93,0,0,1,502.75,388.22Z"/><path class="cls-9" d="M507.14,385.79s-.24-.21-.44-.53-.34-.61-.3-.63.24.21.44.54S507.18,385.77,507.14,385.79Z"/><path class="cls-9" d="M508.27,385.19s-.25-.11-.49-.33-.41-.42-.38-.45.25.11.49.33S508.31,385.16,508.27,385.19Z"/><path class="cls-9" d="M509,383.87a3.37,3.37,0,0,1-1.46,0c0-.05.32-.09.73-.1A1.64,1.64,0,0,1,509,383.87Z"/><path class="cls-9" d="M509.23,382.94a1.45,1.45,0,0,1-.81.24,1.37,1.37,0,0,1-.84-.12,5.34,5.34,0,0,1,.83-.05A3.62,3.62,0,0,1,509.23,382.94Z"/><path class="cls-9" d="M506.67,384.57a2.69,2.69,0,0,1-.9,0,5.08,5.08,0,0,1-1-.21,2.31,2.31,0,0,1-.55-.23.45.45,0,0,1-.22-.28.36.36,0,0,1,.13-.36,1.68,1.68,0,0,1,2.34,1.08.6.6,0,0,1,0,.25,2.41,2.41,0,0,0-.41-.77,1.62,1.62,0,0,0-.77-.5,1.37,1.37,0,0,0-1.07.08c-.14.1-.09.27.07.36a2.31,2.31,0,0,0,.51.22,6,6,0,0,0,.92.24C506.32,384.54,506.67,384.55,506.67,384.57Z"/><path class="cls-9" d="M506.43,384.62a.94.94,0,0,1-.1-.63,1.41,1.41,0,0,1,.24-.65.89.89,0,0,1,.75-.46.35.35,0,0,1,.28.41,1.11,1.11,0,0,1-.15.4,2.92,2.92,0,0,1-.43.55,1.28,1.28,0,0,1-.51.36s.18-.16.42-.44a3.4,3.4,0,0,0,.38-.54c.12-.19.21-.54,0-.58s-.45.21-.59.39a1.38,1.38,0,0,0-.25.58A3.55,3.55,0,0,0,506.43,384.62Z"/><path class="cls-9" d="M521.59,384.09s-.41,0-1,0a4.42,4.42,0,0,0-3.66,2.93c-.21.6-.23,1-.27,1a1,1,0,0,1,0-.28,4.72,4.72,0,0,1,.15-.76,4.39,4.39,0,0,1,1.42-2.09,4.31,4.31,0,0,1,2.35-.92,4.42,4.42,0,0,1,.77,0Z"/><path class="cls-9" d="M520.13,377.83a26.58,26.58,0,0,1,.12,2.87,28,28,0,0,1,0,2.88,22.39,22.39,0,0,1-.13-2.87A23.52,23.52,0,0,1,520.13,377.83Z"/><path class="cls-9" d="M514.84,386.34a8.39,8.39,0,0,1-2.05.2,7.32,7.32,0,0,1-2-.16c0-.05.92,0,2,0S514.83,386.29,514.84,386.34Z"/><path class="cls-9" d="M517.58,386.33s-.07.19-.16.4-.15.4-.2.4-.07-.22,0-.47S517.55,386.3,517.58,386.33Z"/><path class="cls-9" d="M518.62,385s-.06.18-.21.33-.28.24-.32.2.06-.17.2-.32S518.58,385,518.62,385Z"/><path class="cls-9" d="M520.09,384.45c0,.05-.19.05-.4.12s-.35.18-.39.15.08-.22.34-.31S520.11,384.41,520.09,384.45Z"/><path class="cls-9" d="M521.15,384.17c0,.05-.07.12-.18.16s-.23.05-.24,0,.06-.12.18-.16S521.13,384.13,521.15,384.17Z"/><polygon class="cls-12" points="459.81 137.79 583.08 142.76 583.08 171.19 457.99 166.59 459.81 137.79"/><path class="cls-12" d="M437.79,148.36s-7-.83-8.68,2.19c0,0,1.42,3.84,8.38,3.52Z"/><path class="cls-9" d="M437.17,147l-.7,7.86,8.45.83s3.47.28,7.47,4.59S458,166.6,458,166.6l1.83-28.81L454.25,143a13.54,13.54,0,0,1-3.74,2.48,21.74,21.74,0,0,1-5.27,1.77A61.35,61.35,0,0,1,437.17,147Z"/><path class="cls-9" d="M583.08,142.76s7.44,4.25,6,15.25c-1.28,9.48-6,13.18-6,13.18Z"/><polygon class="cls-15" points="459.22 148.29 583.08 152.82 583.08 160.51 458.76 155.57 459.22 148.29"/><g class="cls-16"><path d="M530.41,142.49c1.93.13,3.22,2,4.92,2.93s3.71.91,5.36,1.84a5.31,5.31,0,0,1,1.07,8.46c-1.45,1.38-3.79,2.13-4.21,4.09-.19.87-.31,2.19-1.19,2.06-.49-.07-.73-.63-1.08-1a2.15,2.15,0,0,0-2.83.33,13.79,13.79,0,0,0-1.74,2.61,3,3,0,0,1-2.54,1.58c0,1.17,0,2.59,0,3.75l-6.08-.29.68-24.75Z"/></g><path class="cls-12" d="M550.21,385.09l0-7.48h-14l-.06,10.94.87.06c3.86.21,19.66.83,22.25,0C562.11,387.78,550.21,385.09,550.21,385.09Z"/><g class="cls-14"><path class="cls-7" d="M541.17,388.61a4.8,4.8,0,0,0-1.78-3,4.74,4.74,0,0,0-3.27-1v3.92Z"/></g><g class="cls-14"><path class="cls-7" d="M556,386.6s4.17,1.2,3.65,1.89-16.51.67-23.56,0l0-.31,18.65.18S555.19,386.63,556,386.6Z"/></g><path class="cls-9" d="M536,388.11l.24,0,.69.05,2.55.11c2.15.08,5.12.15,8.4.16s6.26-.05,8.41-.13l2.54-.1.69,0,.24,0a.87.87,0,0,0-.24,0h-.69l-2.55,0c-2.15,0-5.12.08-8.4.08s-6.25-.06-8.4-.11l-2.54-.06H536Z"/><path class="cls-9" d="M554.76,388.67a5.43,5.43,0,0,1,.48-1.21,6.11,6.11,0,0,1,.87-1,1.91,1.91,0,0,0-1,.89A1.88,1.88,0,0,0,554.76,388.67Z"/><path class="cls-9" d="M550.37,386.24s.23-.21.44-.54.34-.6.3-.62-.24.21-.45.53S550.33,386.22,550.37,386.24Z"/><path class="cls-9" d="M549.23,385.64s.25-.11.5-.33.41-.42.38-.45-.26.11-.5.32S549.2,385.61,549.23,385.64Z"/><path class="cls-9" d="M548.52,384.32a1.69,1.69,0,0,0,.73.09,1.73,1.73,0,0,0,.73-.07,3,3,0,0,0-1.46,0Z"/><path class="cls-9" d="M548.27,383.39a1.45,1.45,0,0,0,.82.23,1.35,1.35,0,0,0,.84-.11,4.68,4.68,0,0,0-.83-.06A4,4,0,0,0,548.27,383.39Z"/><path class="cls-9" d="M550.84,385a2.69,2.69,0,0,0,.9,0,6,6,0,0,0,1-.21,2.81,2.81,0,0,0,.55-.23.45.45,0,0,0,.22-.28.36.36,0,0,0-.13-.36,1.66,1.66,0,0,0-2.05.48,1.78,1.78,0,0,0-.29.6c0,.16,0,.24,0,.24a2.55,2.55,0,0,1,.41-.76,1.62,1.62,0,0,1,.77-.5,1.42,1.42,0,0,1,1.07.07c.14.11.09.28-.07.37a2.31,2.31,0,0,1-.51.22,7.55,7.55,0,0,1-.93.24C551.19,385,550.84,385,550.84,385Z"/><path class="cls-9" d="M551.08,385.07a1,1,0,0,0,.1-.63,1.39,1.39,0,0,0-.25-.66.9.9,0,0,0-.74-.46.37.37,0,0,0-.28.42,1,1,0,0,0,.15.4,2.57,2.57,0,0,0,.43.55,1.28,1.28,0,0,0,.51.36s-.18-.16-.43-.45a3.15,3.15,0,0,1-.37-.54c-.13-.19-.21-.53,0-.57s.45.2.59.38a1.47,1.47,0,0,1,.25.59A3.55,3.55,0,0,1,551.08,385.07Z"/><path class="cls-9" d="M535.92,384.54s.4,0,1,0a4.38,4.38,0,0,1,3.66,2.93c.21.6.23,1,.26,1a.68.68,0,0,0,0-.28,3,3,0,0,0-.15-.76,4.29,4.29,0,0,0-1.41-2.09,4.34,4.34,0,0,0-2.35-.92,3.6,3.6,0,0,0-.77,0A.77.77,0,0,0,535.92,384.54Z"/><path class="cls-9" d="M537.38,378.28a23.66,23.66,0,0,0-.12,2.87,22.48,22.48,0,0,0,0,2.88,23.91,23.91,0,0,0,.12-2.88A22.37,22.37,0,0,0,537.38,378.28Z"/><path class="cls-9" d="M542.67,386.79a8.18,8.18,0,0,0,2,.2,8.4,8.4,0,0,0,2-.16c0-.05-.92,0-2,0S542.67,386.74,542.67,386.79Z"/><path class="cls-9" d="M539.92,386.78s.08.19.17.4.15.4.19.39.08-.22,0-.46S540,386.74,539.92,386.78Z"/><path class="cls-9" d="M538.89,385.49s.06.18.2.32.29.24.33.21-.06-.18-.21-.32S538.92,385.46,538.89,385.49Z"/><path class="cls-9" d="M537.41,384.9c0,.05.2,0,.4.12s.36.18.39.15-.08-.23-.33-.31S537.4,384.86,537.41,384.9Z"/><path class="cls-9" d="M536.36,384.62s.06.12.18.16.22.05.24,0-.06-.11-.18-.16S536.38,384.58,536.36,384.62Z"/><path class="cls-17" d="M499.7,175.56s-21.72,9.18-22.42,8.83-1.19-17.13-1.19-17.13l-10.84-.4s-2,25.64,4.48,29.8c8.9,5.68,30.45-6.15,30.45-6.15Z"/><path class="cls-17" d="M510.63,169.54c0-2.71-.05-5.08-.05-5.08s-5.48-.58-5.81-6,0-18,0-18l10-4.88,11,8.32-1.15,25.87a7,7,0,0,1-7,6.67h0A7,7,0,0,1,510.63,169.54Z"/><path class="cls-9" d="M505.94,149.62a.7.7,0,1,0,.7-.7A.7.7,0,0,0,505.94,149.62Z"/><path class="cls-9" d="M505.27,148.86c.09.09.6-.35,1.35-.39s1.31.32,1.39.22-.05-.21-.3-.38a1.79,1.79,0,0,0-1.11-.29,1.89,1.89,0,0,0-1.08.42C505.3,148.64,505.23,148.82,505.27,148.86Z"/><path class="cls-9" d="M514,149.62a.7.7,0,1,0,.7-.7A.7.7,0,0,0,514,149.62Z"/><path class="cls-9" d="M513.57,148.86c.09.09.61-.35,1.35-.39s1.32.32,1.39.22,0-.21-.3-.38a1.79,1.79,0,0,0-1.11-.29,1.89,1.89,0,0,0-1.08.42C513.6,148.64,513.53,148.82,513.57,148.86Z"/><path class="cls-9" d="M510.87,155.18c0,.07-.47.11-1.23.12a1,1,0,0,1-.34,0,.52.52,0,0,1-.37-.3,1.26,1.26,0,0,1,.07-.83l.48-1.56a19.21,19.21,0,0,1,1.51-3.93,18.87,18.87,0,0,1-1.07,4.07l-.52,1.55a1,1,0,0,0-.11.56c0,.09.16.13.36.14A3.44,3.44,0,0,1,510.87,155.18Z"/><path class="cls-18" d="M514.47,155.55c0,.62,1,1.07,2.12,1.09s2.12-.38,2.16-1-.92-1.22-2.13-1.25S514.45,154.94,514.47,155.55Z"/><path class="cls-7" d="M513.34,155.89c.76-.5-2.09,1.25-3.62,1.25a2.09,2.09,0,0,0,2.49.7C513.8,157.17,513.34,155.89,513.34,155.89Z"/><path class="cls-18" d="M510.33,164.46a13.58,13.58,0,0,0,7.2-2.43s-1.63,4-7.09,3.77Z"/><path class="cls-9" d="M533.77,148.44l0,1c-.12-1-.4-3.29-.56-3.91-3-11.34-12.93-13.45-14.9-13.45s-5.81-1.16-11.2,4.44a10.48,10.48,0,0,0-2.43,11.62l.9-.84,7.95-2.05c-.63-2.14.3-4.8.82-6l0-.05c1.59,8.13,10.55,9,10.55,9l-.7,15.1C534.86,160.94,533.77,148.44,533.77,148.44Z"/><path class="cls-9" d="M533.5,147.89a2.9,2.9,0,0,1,2.18-2.86,5.3,5.3,0,0,1,3.78.6,4.46,4.46,0,0,1,2.51,2.85c.3,1.57-.72,3.07-1.73,4.31a8.78,8.78,0,0,1-2.11,2.06,3.32,3.32,0,0,1-2.83.43,3.54,3.54,0,0,1-1.78-1.68,6.49,6.49,0,0,1,1.39-7.88"/><path class="cls-9" d="M513.93,134.92a20.62,20.62,0,0,1-2.52.84,13.4,13.4,0,0,0-5.17,3.39,13.58,13.58,0,0,0-3,5.4,21.6,21.6,0,0,1-.65,2.58,5,5,0,0,1,0-2.73,11.9,11.9,0,0,1,8.63-9.27A5.1,5.1,0,0,1,513.93,134.92Z"/><path class="cls-17" d="M526.4,155a6.59,6.59,0,0,1,.29-2.69,2.54,2.54,0,0,1,1.95-1.69,2.16,2.16,0,0,1,2.21,1.79,2.64,2.64,0,0,1-1.34,2.61,3.48,3.48,0,0,1-3,.09"/><path class="cls-18" d="M528,154.53c0-.07.21-.15.47-.38a1.46,1.46,0,0,0,0-2.27c-.25-.24-.47-.33-.45-.4s.28-.08.65.14a1.63,1.63,0,0,1,.78,1.42,1.66,1.66,0,0,1-.83,1.38C528.28,154.63,528,154.58,528,154.53Z"/><path class="cls-9" d="M511.34,149.27s0-.09,0-.27a3.24,3.24,0,0,1,.08-.79,4.22,4.22,0,0,1,1.54-2.45,4.42,4.42,0,0,1,4.2-.69,4.46,4.46,0,0,1,0,8.41,4.42,4.42,0,0,1-4.2-.69,4.22,4.22,0,0,1-1.54-2.45,3.24,3.24,0,0,1-.08-.79c0-.18,0-.28,0-.28s0,.38.22,1a4.23,4.23,0,0,0,1.56,2.24,4.06,4.06,0,1,0,0-6.51,4.23,4.23,0,0,0-1.56,2.24C511.38,148.9,511.38,149.28,511.34,149.27Z"/><path class="cls-9" d="M501.52,149.27s0-.09,0-.27a3.13,3.13,0,0,1,.07-.79,4.33,4.33,0,0,1,1.54-2.45,4.42,4.42,0,0,1,4.2-.69,4.46,4.46,0,0,1,0,8.41,4.42,4.42,0,0,1-4.2-.69,4.33,4.33,0,0,1-1.54-2.45,3.13,3.13,0,0,1-.07-.79c0-.18,0-.28,0-.28s0,.38.22,1a4.23,4.23,0,0,0,1.56,2.24,4.06,4.06,0,1,0,0-6.51,4.23,4.23,0,0,0-1.56,2.24C501.56,148.9,501.56,149.28,501.52,149.27Z"/><path class="cls-9" d="M510,149.41c0-.13.35-.23.78-.23s.78.1.78.23-.35.23-.78.23S510,149.54,510,149.41Z"/><path class="cls-9" d="M519.71,150.17a15.68,15.68,0,0,1,3.81.51,16.3,16.3,0,0,1,3.73,1,15.78,15.78,0,0,1-3.82-.51A16.3,16.3,0,0,1,519.71,150.17Z"/><polyline class="cls-9" points="495.09 238.43 501.89 382.1 523.7 382.55 518.04 258.4 532.81 382.03 555.08 382.58 537.64 236.86"/><path class="cls-11" d="M512.16,382.31c-.12,0-1.69-32.1-3.5-71.7s-3.17-71.73-3-71.74,1.7,32.1,3.5,71.71S512.29,382.3,512.16,382.31Z"/><path class="cls-11" d="M544.71,381.15c-.12,0-4-31.16-8.75-69.63s-8.42-69.68-8.29-69.7,4,31.16,8.75,69.64S544.84,381.14,544.71,381.15Z"/><path class="cls-11" d="M543.2,205l11.19-14-13.74-13.85h0a24.31,24.31,0,0,0-9.48-6.14,19.6,19.6,0,0,0-5.44-1.1v-1.11l-6,.12s-.31.94-.64,2c-.32.86-.47,2.61-.86,2.61s-1-1.75-1.58-2.62c-.55-1.1-1-2.08-1-2.08l-5.56-.26V170a34,34,0,0,0-10.49,3.13h0l-20.5,8.32,6.57,18.12,13.91-4.68c-.09.25-.19.5-.26.76a9.06,9.06,0,0,0,.51,6.19,8.78,8.78,0,0,0,1.75,2.48L501.26,219l-6.17,19.48,42.55.44-4.83-21L535,197Z"/><path class="cls-9" d="M515.46,169.08a3.81,3.81,0,0,1-.3,1.28c-.14.45-.29.9-.44,1.35-.09.26-.16.5-.28.81a.9.9,0,0,1-.38.44.64.64,0,0,1-.65-.05,21.18,21.18,0,0,1-3.59-2.68,21.68,21.68,0,0,1,3.82,2.28c.32.31.48-.49.68-.94l.54-1.32A3.73,3.73,0,0,1,515.46,169.08Z"/><path class="cls-9" d="M526.23,170.22a12.31,12.31,0,0,1-3.64,3.7l-.31.22-.19.14-.13-.2a11.21,11.21,0,0,1-2-4.39c.12,0,.87,1.94,2.38,4.13l-.32-.06.3-.21C524.62,171.9,526.13,170.13,526.23,170.22Z"/><path class="cls-9" d="M516.44,238.7a5,5,0,0,1-.05-.66c0-.48,0-1.11-.06-1.9,0-1.65,0-4,0-7,.11-5.89.39-14,.73-23s.65-17.09.87-23c.08-2.91.14-5.28.18-7q0-1.17,0-1.89a3.16,3.16,0,0,1,0-.67,5,5,0,0,1,0,.66c0,.48,0,1.12.06,1.9,0,1.65,0,4,0,7-.11,5.89-.39,14-.73,23s-.65,17.08-.87,23c-.08,2.91-.14,5.28-.18,7,0,.79,0,1.42,0,1.9A3.1,3.1,0,0,1,516.44,238.7Z"/><path class="cls-9" d="M521.76,184.3c0-.06.37-.12.7.31a1.08,1.08,0,0,1,.18.88,1,1,0,0,1-.87.72,1,1,0,0,1-1-.44,1,1,0,0,1-.09-.89c.19-.5.57-.56.57-.5s-.2.21-.26.58a.82.82,0,0,0,.13.58.7.7,0,0,0,1.14-.18.77.77,0,0,0-.05-.58C522,184.44,521.74,184.36,521.76,184.3Z"/><path class="cls-9" d="M521.91,199c0-.06.32-.11.61.25a.87.87,0,0,1-.55,1.43.86.86,0,0,1-.91-.4.87.87,0,0,1,0-.81c.26-.41.63-.35.6-.29s-.21.14-.3.43a.44.44,0,0,0,.52.61.52.52,0,0,0,.35-.79C522.11,199.15,521.89,199.07,521.91,199Z"/><path class="cls-9" d="M489,198.22a17.42,17.42,0,0,1-1.09-2.58l-2.46-6.27-2.58-6.22a17.5,17.5,0,0,1-1-2.61,15.19,15.19,0,0,1,1.31,2.48c.74,1.56,1.72,3.74,2.71,6.18s1.79,4.69,2.34,6.33A16.49,16.49,0,0,1,489,198.22Z"/><path class="cls-9" d="M552.66,189.12a89,89,0,0,1-6.19,6.73,90.59,90.59,0,0,1-6.52,6.41c-.09-.08,2.68-3.1,6.19-6.73A90.59,90.59,0,0,1,552.66,189.12Z"/><path class="cls-12" d="M523.37,203.46h18.88a5.68,5.68,0,0,1,5.68,5.68v36.1a0,0,0,0,1,0,0H517.69a0,0,0,0,1,0,0v-36.1A5.68,5.68,0,0,1,523.37,203.46Z" transform="translate(420.88 791.53) rotate(-101.67)"/><path class="cls-12" d="M573.11,200.59,527.74,210h0a3.42,3.42,0,0,1,2.66-4l38.67-8a3.42,3.42,0,0,1,4,2.66Z"/><g class="cls-19"><path d="M550.83,205.18a13.88,13.88,0,0,1-2.42.67c-1.52.36-3.61.82-5.94,1.3s-4.43.89-6,1.17a14.33,14.33,0,0,1-2.5.35,12.52,12.52,0,0,1,2.43-.67c1.51-.36,3.61-.82,5.93-1.3s4.43-.89,6-1.17A14.57,14.57,0,0,1,550.83,205.18Z"/></g><g class="cls-16"><path d="M552.54,216.85c-.1-.7-.21-1.4-.31-2.1A110.14,110.14,0,0,0,537.63,229a17.23,17.23,0,0,0-3.22,4.82,6.37,6.37,0,0,0,.24,5.62l11.79-2.62Z"/></g><path class="cls-17" d="M564.33,223.27a13.62,13.62,0,0,0-.06-17.94l-11.34-12.85-9,11.14c.4.27,9.7,11.31,9.7,11.31l-14.2,17.71c-2.19,2.73-3.38,6.57-2.25,9.88l1.9,4a5.83,5.83,0,0,0,7.65,2.81l3.4-1.53a1.26,1.26,0,0,0,.31-2.1l-.83-.72a2.91,2.91,0,0,0-2.21-.71l-4.33.44-.2-.8h0Z"/><path class="cls-18" d="M550.82,246.25a8.91,8.91,0,0,1-1.37.52,10.1,10.1,0,0,1-3.48.82,2.9,2.9,0,0,1-1.83-.92,4.45,4.45,0,0,1-.94-1.34,2.29,2.29,0,0,1-.33-1.45c.08,0,.16.54.61,1.3a5.4,5.4,0,0,0,.95,1.18,2.54,2.54,0,0,0,1.57.76,12.39,12.39,0,0,0,3.36-.67A3.23,3.23,0,0,1,550.82,246.25Z"/><path class="cls-18" d="M549.61,245a12.45,12.45,0,0,1-3.26,1.15,3.51,3.51,0,0,1-2.5-.24c-.59-.33-.76-.74-.71-.76s.3.25.85.47a3.81,3.81,0,0,0,2.26.08A13,13,0,0,1,549.61,245Z"/><path class="cls-17" d="M70.9,227.73c-.41-.11-8.48,11.76-8.75,22a25.38,25.38,0,0,0,.11,3,37.78,37.78,0,0,0,2.54,10.4c6.83,17.24,13.87,37.69,14,42.34.36,14.36,6.56,78.79,6.56,78.79l13.62.36,2.17-79.14L96.3,227.08Z"/><path class="cls-18" d="M96.91,237.91s18.41,59.77,17.25,79.07S99,384.31,99,384.31Z"/><path class="cls-9" d="M65.39,227.82s-10.26,13.2-3.1,34c7.09,20.63,2,45.81,2,45.81s9.07-6.81,15.5-3.8c7.32,3.42,12.2,7.51,21.28,3.54,9.49-4.14,17-6.47,25.67,1.63l-13.39-46.72-7.74-29.75Z"/><path class="cls-18" d="M119.12,212.38c-2.25-.21-6.29-20.83-6.29-20.83l-16.61,5.56s-.5,3.13,9.5,23.12c0,0,5.89,10.48,13.25,10Z"/><path class="cls-12" d="M95.21,171.84s12.58-1.24,18.43,14h0l0,.15c.11.28.21.58.31.87l4.9,13.77-13.49,6.73,0,1.53,1.47,27.64-43-8.14,3.47-5c3.34-4.61,2.59-11.09,1.22-16.61l-.47-1.89-5.82,3a39.19,39.19,0,0,1-3.15-19.21c0-.17,0-.33,0-.5a19.32,19.32,0,0,1,20.57-17.49Z"/><g class="cls-16"><path d="M74.59,187.77c2.37,9,6.75,17.92,11.16,26.07.42.79,1.36,1.68,2,1.1.51-.44.24-1.26-.07-1.86L74.59,187.77"/></g><path class="cls-9" d="M104.32,192.65a11,11,0,0,1,.87,2.09c.47,1.32,1.13,3.11,1.76,5.17a7.93,7.93,0,0,1,.33,3.05,7.49,7.49,0,0,1-.76,2.38,7.34,7.34,0,0,1-1.22,1.92c-.06,0,.37-.79.92-2a7.62,7.62,0,0,0,.63-2.3,7.72,7.72,0,0,0-.34-2.87l-1.63-5.2A11.14,11.14,0,0,1,104.32,192.65Z"/><path class="cls-9" d="M100.79,146.88a10.46,10.46,0,0,0,5,8.92,24.51,24.51,0,0,1,2.48,1.47,3.13,3.13,0,0,1,1.33,2.44c-.07,1.5-1.59,2.45-2.92,3.14a3.72,3.72,0,1,1-5.36,5.14,6.84,6.84,0,0,1-5,6.08,9.53,9.53,0,0,1-8-1.64,16,16,0,0,1-5.1-6.61"/><path class="cls-9" d="M108.08,152.61a.91.91,0,0,1,.16.65,2,2,0,0,1-.92,1.58,2.79,2.79,0,0,1-2.71,0,5.85,5.85,0,0,1-2.28-2.39,14.67,14.67,0,0,1-1.9-5.59,7.44,7.44,0,0,1,0-2.44c.08,0,.1.93.37,2.39a16.33,16.33,0,0,0,2,5.39,5.52,5.52,0,0,0,2.07,2.24,2.48,2.48,0,0,0,2.33.08,2,2,0,0,0,.92-1.32C108.12,152.85,108,152.62,108.08,152.61Z"/><path class="cls-17" d="M93.87,172.55c.19-3.41.43-6.8.43-6.8s5.45-.57,5.78-6,0-17.86,0-17.86l-9.92-4.85-10.92,8.27,1.11,27.12a6.76,6.76,0,0,0,6.35,6.47h0A6.76,6.76,0,0,0,93.87,172.55Z"/><path class="cls-9" d="M99,151a.7.7,0,1,1-.7-.69A.69.69,0,0,1,99,151Z"/><path class="cls-9" d="M99.67,150.24c-.09.09-.61-.35-1.35-.39s-1.3.32-1.38.22,0-.21.3-.38a1.91,1.91,0,0,1,1.11-.29,1.76,1.76,0,0,1,1.06.43C99.64,150,99.71,150.2,99.67,150.24Z"/><path class="cls-9" d="M91,151a.69.69,0,1,1-.69-.69A.69.69,0,0,1,91,151Z"/><path class="cls-9" d="M91.41,150.24c-.09.09-.6-.35-1.34-.39s-1.31.32-1.39.22.06-.21.3-.38a1.93,1.93,0,0,1,1.11-.29,1.79,1.79,0,0,1,1.07.43C91.38,150,91.45,150.2,91.41,150.24Z"/><path class="cls-9" d="M94.1,156.48a5.42,5.42,0,0,1,1.21-.15c.19,0,.38,0,.42-.17a.93.93,0,0,0-.1-.6c-.16-.51-.33-1-.51-1.53-.35-1.09-.66-2.09-.86-2.81A4.89,4.89,0,0,1,94,150a6.14,6.14,0,0,1,.47,1.13c.26.7.59,1.69,1,2.78.16.53.32,1,.49,1.54a1.18,1.18,0,0,1,.06.77.6.6,0,0,1-.63.28A4.83,4.83,0,0,1,94.1,156.48Z"/><path class="cls-7" d="M91.64,157.23c-.76-.5,2.08,1.24,3.6,1.24a2.06,2.06,0,0,1-2.47.7C91.18,158.5,91.64,157.23,91.64,157.23Z"/><path class="cls-18" d="M94.3,165.75a13.53,13.53,0,0,1-7.16-2.41s1.62,4,7,3.74Z"/><path class="cls-9" d="M97.8,137.94c-5.35-5.57-9-4.41-11.13-4.41A16.9,16.9,0,0,0,75,140.29h0c-1.49,1.56-3.63,6.62-3.87,8.41a42.34,42.34,0,0,0,0,5.4,6.56,6.56,0,0,1-1.78,5c-.85.75-2,1.19-2.57,2.21A2.87,2.87,0,0,0,68,164.73a6.54,6.54,0,0,0,3.86.79,5.46,5.46,0,0,0,4.4,5.8,5.29,5.29,0,0,0,3.88-1A29.69,29.69,0,0,0,83,172.78c.23-7.87.05-15.74-.49-23.59,3.6-.64,10.07-2.58,11.2-8.36,1.44,3.29,3.62,5.08,6.53,7.57C100.23,148.4,103.16,143.51,97.8,137.94Z"/><path class="cls-9" d="M82.89,147.1a9,9,0,0,1,2.21,0,11.55,11.55,0,0,0,5.13-.6,4.85,4.85,0,0,0,2.14-1.74,6.07,6.07,0,0,0,.86-2.12c.25-1.31.12-2.17.21-2.17a4.59,4.59,0,0,1,.12,2.22,6,6,0,0,1-.82,2.32A5.07,5.07,0,0,1,90.42,147a10.56,10.56,0,0,1-5.34.5A12.22,12.22,0,0,1,82.89,147.1Z"/><path class="cls-9" d="M68.82,160.33a3.16,3.16,0,0,0,.89-.12,2.43,2.43,0,0,0,1.46-1.76,5.9,5.9,0,0,0-.66-3.49,13.39,13.39,0,0,1-.76-2.11,7,7,0,0,1-.16-2.43,10,10,0,0,1,1.62-4.35,16.36,16.36,0,0,1,2.44-2.88c.77-.74,1.43-1.29,1.9-1.67a3.73,3.73,0,0,1,.75-.54c0,.06-.93.94-2.41,2.45a17.26,17.26,0,0,0-2.31,2.88,9.78,9.78,0,0,0-1.51,4.16,6.84,6.84,0,0,0,.13,2.27,15,15,0,0,0,.72,2,6.09,6.09,0,0,1,.58,3.74,2.5,2.5,0,0,1-1.74,1.85,1.63,1.63,0,0,1-.71,0C68.9,160.39,68.82,160.35,68.82,160.33Z"/><path class="cls-12" d="M98.52,386.34l0-1.76-14-.27,0,5.48.87.06c3.86.22,19.66.83,22.24,0C110.41,389,98.52,386.34,98.52,386.34Z"/><g class="cls-14"><path class="cls-7" d="M89.48,389.86a4.87,4.87,0,0,0-1.78-3,4.69,4.69,0,0,0-3.27-1v3.91Z"/></g><g class="cls-14"><path class="cls-7" d="M104.31,387.85s4.17,1.21,3.65,1.9-16.51.66-23.56,0l0-.31,18.65.18S103.5,387.89,104.31,387.85Z"/></g><path class="cls-9" d="M84.32,389.36l.24,0,.69,0,2.55.11c2.15.08,5.12.15,8.4.16s6.26-.05,8.41-.12l2.54-.1.69,0,.24,0h-.93l-2.55,0c-2.15,0-5.12.08-8.4.07s-6.25-.06-8.4-.11l-2.54-.06h-.94Z"/><path class="cls-9" d="M103.07,389.92a5.43,5.43,0,0,1,.48-1.21,4.94,4.94,0,0,1,.87-1,1.83,1.83,0,0,0-1,.88A1.88,1.88,0,0,0,103.07,389.92Z"/><path class="cls-9" d="M98.67,387.5s.24-.22.45-.54.33-.6.29-.63a1.81,1.81,0,0,0-.44.54C98.77,387.19,98.63,387.47,98.67,387.5Z"/><path class="cls-9" d="M97.54,386.89s.25-.11.49-.32.42-.42.39-.46-.26.11-.5.33S97.51,386.86,97.54,386.89Z"/><path class="cls-9" d="M96.83,385.57c0,.05.32.09.73.1a1.64,1.64,0,0,0,.73-.08,1.56,1.56,0,0,0-.73-.09C97.15,385.49,96.83,385.52,96.83,385.57Z"/><path class="cls-9" d="M96.58,384.64a1.46,1.46,0,0,0,.82.24,1.44,1.44,0,0,0,.84-.11,3.79,3.79,0,0,0-.83-.06A4.5,4.5,0,0,0,96.58,384.64Z"/><path class="cls-9" d="M99.15,386.27a2.37,2.37,0,0,0,.9,0,5.08,5.08,0,0,0,1-.21,2.49,2.49,0,0,0,.55-.23.47.47,0,0,0,.22-.27.33.33,0,0,0-.14-.36,1.64,1.64,0,0,0-2,.48,1.62,1.62,0,0,0-.29.6.49.49,0,0,0,0,.24,2.92,2.92,0,0,1,.42-.77,1.63,1.63,0,0,1,.76-.5,1.4,1.4,0,0,1,1.08.08c.14.1.08.27-.07.37a2.87,2.87,0,0,1-.51.21,6.1,6.1,0,0,1-.93.24C99.49,386.25,99.15,386.25,99.15,386.27Z"/><path class="cls-9" d="M99.38,386.32a.84.84,0,0,0,.11-.63,1.47,1.47,0,0,0-.25-.65.89.89,0,0,0-.75-.46.35.35,0,0,0-.27.41.8.8,0,0,0,.15.4,2.55,2.55,0,0,0,.42.55c.28.28.51.38.52.36s-.18-.16-.43-.44a3.6,3.6,0,0,1-.38-.54c-.12-.19-.2-.53,0-.58s.46.21.6.39a1.52,1.52,0,0,1,.25.58A2.93,2.93,0,0,1,99.38,386.32Z"/><path class="cls-9" d="M84.23,385.8s.4,0,1,0a4.42,4.42,0,0,1,3.67,2.93c.21.6.23,1,.26,1a.68.68,0,0,0,0-.28,3.82,3.82,0,0,0-.15-.76,4.27,4.27,0,0,0-3.77-3,4.46,4.46,0,0,0-.77,0A.78.78,0,0,0,84.23,385.8Z"/><path class="cls-9" d="M91,388a8.18,8.18,0,0,0,2,.2,7.42,7.42,0,0,0,2-.16c0-.05-.92,0-2,0S91,388,91,388Z"/><path class="cls-9" d="M88.23,388s.08.2.17.41.14.39.19.39.07-.22,0-.46S88.26,388,88.23,388Z"/><path class="cls-9" d="M87.2,386.74s.06.18.2.33.29.24.32.21,0-.18-.2-.33S87.23,386.71,87.2,386.74Z"/><path class="cls-9" d="M85.72,386.15c0,.05.2.05.4.12s.36.18.39.15-.08-.22-.33-.31S85.71,386.11,85.72,386.15Z"/><path class="cls-9" d="M84.67,385.87c0,.05.06.12.18.16s.22.05.24,0-.07-.12-.18-.16S84.68,385.83,84.67,385.87Z"/><path class="cls-20" d="M69,220.08S70.57,232.4,82.56,232a183.18,183.18,0,0,0,23.91-2.7l-.12-2.33Z"/><path class="cls-17" d="M138.44,212.26c-1.07-1.71-8.4,2.37-9,2.67s-1.11-.62-.51-.86c.86-.35,9.8-4.18,8.77-5.87-.57-.94-2.15.24-2.15.24s-8.1,4.21-8.56,3.39,4.21-3.45,5.84-4.23,1.91-1.84,1-2.28c-.64-.29-5.71,2-7.31,2.77s-5.95,3.08-4.72.21,1.09-5.54.55-6.24a1,1,0,0,0-1.68.77,11.36,11.36,0,0,1-.67,3.08,7.27,7.27,0,0,1-1.17,2.24c-.6.78-1.15,1.42-1.62,2-4.68,1.63-18,5.76-30.47,4.62-2.25-.2-8-15.26-8-15.26l-15.51,8s-.28.83,6.79,14.6c9.63,18.73,53.12-.71,53.12-.71v0a93,93,0,0,0,9.75-2.49c4.37-1.58,4.24-2,4-2.45-.73-1.29-7.8,2.48-6.75.79S139.25,213.57,138.44,212.26Z"/></svg>