<svg id="Layer_1" data-name="Layer 1" xmlns="http://www.w3.org/2000/svg" viewBox="0 0 623.19 432.88"><defs><style>.cls-1{fill:#ebebeb;}.cls-2{fill:#e6e6e6;}.cls-3{fill:#f5f5f5;}.cls-4{fill:#fafbfb;}.cls-15,.cls-17,.cls-5{fill:#fff;}.cls-6{fill:#f1f0f0;}.cls-7{fill:#e0e0e0;}.cls-8{fill:#fabfbf;}.cls-16,.cls-9{fill:#91d8f4;}.cls-10{opacity:0.4;}.cls-11,.cls-15{opacity:0.3;}.cls-12{fill:#263238;}.cls-13,.cls-16{opacity:0.2;}.cls-14{fill:#f48380;}.cls-17{opacity:0.1;}.cls-18{opacity:0.56;}</style></defs><title>know</title><rect class="cls-1" x="51.12" y="377.59" width="534.55" height="0.27"/><rect class="cls-1" x="496.7" y="394.8" width="35.41" height="0.27"/><rect class="cls-1" x="407.54" y="394.8" width="75.7" height="0.27"/><rect class="cls-1" x="345.27" y="384.87" width="20.52" height="0.27"/><rect class="cls-1" x="107.21" y="386.67" width="36.66" height="0.27"/><rect class="cls-1" x="153.39" y="386.67" width="66.66" height="0.27"/><rect class="cls-1" x="252.47" y="391.18" width="39.36" height="0.27"/><path class="cls-1" d="M304.51,329.91H98.07a6.11,6.11,0,0,1-6.1-6.1V33.63a6.11,6.11,0,0,1,6.1-6.11H304.51a6.11,6.11,0,0,1,6.1,6.11V323.81A6.1,6.1,0,0,1,304.51,329.91ZM98.07,27.79a5.84,5.84,0,0,0-5.83,5.84V323.81a5.84,5.84,0,0,0,5.83,5.84H304.51a5.85,5.85,0,0,0,5.84-5.84V33.63a5.85,5.85,0,0,0-5.84-5.84Z"/><path class="cls-1" d="M535.75,329.91H329.31a6.11,6.11,0,0,1-6.1-6.1V33.63a6.11,6.11,0,0,1,6.1-6.11H535.75a6.12,6.12,0,0,1,6.11,6.11V323.81A6.11,6.11,0,0,1,535.75,329.91ZM329.31,27.79a5.84,5.84,0,0,0-5.83,5.84V323.81a5.84,5.84,0,0,0,5.83,5.84H535.75a5.85,5.85,0,0,0,5.84-5.84V33.63a5.85,5.85,0,0,0-5.84-5.84Z"/><rect class="cls-2" x="132.2" y="49.65" width="145.07" height="125.69" transform="translate(409.47 225) rotate(180)"/><rect class="cls-3" x="128.97" y="49.65" width="145.07" height="125.69" transform="translate(403.02 225) rotate(180)"/><rect class="cls-4" x="143.15" y="45.75" width="116.71" height="133.5" transform="translate(314.01 -89.01) rotate(90)"/><polygon class="cls-5" points="214.72 170.85 238.91 54.14 188.3 54.14 164.12 170.85 214.72 170.85"/><rect class="cls-2" x="77.62" y="111.28" width="116.71" height="2.44" transform="translate(248.48 -23.48) rotate(90)"/><rect class="cls-3" x="131.37" y="143.9" width="140.29" height="6.03" transform="translate(403.02 293.82) rotate(180)"/><rect class="cls-6" x="270.55" y="270.76" width="23.16" height="100.47" transform="translate(564.27 641.99) rotate(180)"/><rect class="cls-6" x="119.25" y="371.23" width="170.02" height="6.37" transform="translate(408.52 748.82) rotate(180)"/><rect class="cls-3" x="114.8" y="270.76" width="155.75" height="100.47"/><rect class="cls-6" x="123.91" y="283.13" width="137.53" height="32.95"/><rect class="cls-6" x="123.91" y="325.91" width="137.53" height="32.95"/><path class="cls-3" d="M155.61,301.86h74.13A2.26,2.26,0,0,0,232,299.6h0a2.26,2.26,0,0,0-2.26-2.26H155.61a2.27,2.27,0,0,0-2.26,2.26h0A2.27,2.27,0,0,0,155.61,301.86Z"/><path class="cls-3" d="M155.61,344.65h74.13a2.26,2.26,0,0,0,2.26-2.26h0a2.26,2.26,0,0,0-2.26-2.26H155.61a2.26,2.26,0,0,0-2.26,2.26h0A2.27,2.27,0,0,0,155.61,344.65Z"/><path class="cls-1" d="M512.57,115.35c13.19-3.64,17.7-27.57-15.64-37.34C504.29,102.08,489.57,121.69,512.57,115.35Z"/><path class="cls-7" d="M515.49,125.74c10.39-11.24.56-36.66-36.9-26.27C499.78,118,497.36,145.34,515.49,125.74Z"/><path class="cls-4" d="M505.22,128.62c-8.71-8.62,3.76-38.6,32.5-24.7C521.44,119.48,520.4,143.65,505.22,128.62Z"/><polygon class="cls-2" points="496.54 145.41 521.87 145.41 523.78 128.28 494.63 128.28 496.54 145.41"/><path class="cls-2" d="M494.35,131.34h29.72a1.89,1.89,0,0,0,1.89-1.89h0a1.89,1.89,0,0,0-1.89-1.89H494.35a1.88,1.88,0,0,0-1.89,1.89h0A1.89,1.89,0,0,0,494.35,131.34Z"/><polygon class="cls-4" points="283.45 348.57 283.45 348.57 283.45 348.57 283.45 348.57 283.45 319.55 307.63 319.55 307.63 319.55 307.63 319.55 307.63 319.55 307.63 290.52 331.8 290.52 331.8 290.52 331.8 261.5 355.98 261.5 355.98 232.48 380.16 232.48 380.16 232.48 380.16 232.48 380.16 232.48 380.16 203.46 404.34 203.46 404.34 203.46 404.34 203.46 404.34 203.46 404.34 174.43 428.51 174.43 428.51 174.43 428.51 174.43 428.51 174.43 428.51 145.41 452.69 145.41 585.67 145.41 585.67 377.59 283.45 377.59 259.27 377.59 259.27 348.57 283.45 348.57"/><polygon class="cls-7" points="416.43 348.57 416.43 348.57 416.43 348.57 416.43 348.57 416.43 319.55 440.6 319.55 440.6 319.55 440.6 319.55 440.6 319.55 440.6 290.52 464.78 290.52 464.78 290.52 464.78 261.5 488.96 261.5 488.96 232.48 513.14 232.48 513.14 232.48 513.14 232.48 513.14 232.48 513.14 203.46 537.31 203.46 537.31 203.46 537.31 203.46 537.31 203.46 537.31 174.43 561.49 174.43 561.49 174.43 561.49 174.43 561.49 174.43 561.49 145.41 585.67 145.41 585.67 174.43 585.67 377.59 416.43 377.59 392.25 377.59 392.25 348.57 416.43 348.57"/><rect class="cls-1" x="257.84" y="348.57" width="134.4" height="8.71"/><rect class="cls-1" x="282.02" y="319.55" width="134.4" height="8.71"/><rect class="cls-1" x="306.2" y="290.52" width="134.4" height="8.71"/><rect class="cls-1" x="330.38" y="261.5" width="134.4" height="8.71"/><rect class="cls-1" x="354.56" y="232.48" width="134.4" height="8.71"/><rect class="cls-1" x="378.73" y="203.46" width="134.4" height="8.71"/><rect class="cls-1" x="402.91" y="174.43" width="134.4" height="8.71"/><rect class="cls-1" x="427.09" y="145.41" width="134.4" height="8.71"/><ellipse id="_Path_" data-name="&lt;Path&gt;" class="cls-3" cx="318.4" cy="413.77" rx="207.29" ry="12.11"/><path class="cls-8" d="M408.94,138.36c-.18,3.2-.55,6.15-1,9.2s-1,6-1.63,9a101.47,101.47,0,0,1-5.4,17.72l-1,2.15-.24.54-.12.27c0,.09-.07.16-.16.34a8.85,8.85,0,0,1-1.24,1.86,7.14,7.14,0,0,1-4.49,2.38,9.22,9.22,0,0,1-3.88-.4,19.33,19.33,0,0,1-5-2.56,43.67,43.67,0,0,1-3.8-3A88.53,88.53,0,0,1,369,162l3.55-3c2.08,2,4.26,4,6.43,5.87s4.4,3.72,6.65,5.34A35.81,35.81,0,0,0,389,172.4a11.39,11.39,0,0,0,3,1.28c.37.08.63,0,.51,0a1.12,1.12,0,0,0-.68.3c-.06.06-.06,0-.05,0l.35-.9.74-1.94a114.14,114.14,0,0,0,4.34-16.42c.56-2.8,1-5.65,1.38-8.49s.73-5.75,1-8.46Z"/><path class="cls-9" d="M402.47,126.59c-4,1-6.77,17.42-6.77,17.42l11,7.46s10.52-16.54,7.46-20.92C411,126,408.28,125.11,402.47,126.59Z"/><path class="cls-9" d="M402.47,126.59c-4,1-6.77,17.42-6.77,17.42l11,7.46s10.52-16.54,7.46-20.92C411,126,408.28,125.11,402.47,126.59Z"/><path class="cls-10" d="M402.47,126.59c-4,1-6.77,17.42-6.77,17.42l11,7.46s10.52-16.54,7.46-20.92C411,126,408.28,125.11,402.47,126.59Z"/><polygon class="cls-11" points="402.83 130.26 399.77 146.78 405.94 150.97 402.83 130.26"/><path class="cls-8" d="M372.76,158.31l-5.23-8.25-3,9.37s4.28,4.5,8.16,3.42Z"/><polygon class="cls-8" points="359.88 147.33 357.82 155.31 364.57 159.43 367.53 150.06 359.88 147.33"/><polygon class="cls-8" points="424.02 402.56 414.36 402.56 413.71 380.18 423.38 380.18 424.02 402.56"/><polygon class="cls-8" points="509.33 357.66 501.96 363.92 485.1 348.87 492.47 342.61 509.33 357.66"/><path class="cls-12" d="M499.94,363.17l7.15-8.18a.76.76,0,0,1,1-.15l7.29,4.72a1.56,1.56,0,0,1,.27,2.3c-2.54,2.81-3.9,4-7,7.63-1.93,2.22-4.53,5.65-7.19,8.71s-5.84.58-5-.94c3.76-6.77,2.85-9.15,2.92-12.48A2.49,2.49,0,0,1,499.94,363.17Z"/><path class="cls-12" d="M414,401.44h10.86a.78.78,0,0,1,.77.66l1.24,8.6a1.56,1.56,0,0,1-1.55,1.72c-3.79-.07-5.62-.29-10.39-.29-2.94,0-9,.3-13.08.3s-4.27-4-2.58-4.37c7.58-1.63,10.56-3.88,13.11-6A2.52,2.52,0,0,1,414,401.44Z"/><polygon class="cls-13" points="413.71 380.18 414.05 391.72 423.72 391.72 423.38 380.18 413.71 380.18"/><polygon class="cls-13" points="492.47 342.61 485.1 348.87 493.8 356.63 501.17 350.37 492.47 342.61"/><path class="cls-9" d="M402.47,126.59s-4.61,1.63,4.62,58.35h39.26c-.66-16-.68-25.83,7-58.63a115.34,115.34,0,0,0-16.67-2.19,124.69,124.69,0,0,0-17.83,0C411.15,124.82,402.47,126.59,402.47,126.59Z"/><path class="cls-10" d="M402.47,126.59s-4.61,1.63,4.62,58.35h39.26c-.66-16-.68-25.83,7-58.63a115.34,115.34,0,0,0-16.67-2.19,124.69,124.69,0,0,0-17.83,0C411.15,124.82,402.47,126.59,402.47,126.59Z"/><path class="cls-5" d="M436.64,124.11a126.1,126.1,0,0,0-17.83,0c-1,.09-1.95.2-2.92.31a4.76,4.76,0,0,0-.54,4.17c1.25,3.11,5.77,3.48,9.06,3.48,12.15,0,14.21-7.1,14.29-7.4l.12-.43C438.09,124.2,437.37,124.14,436.64,124.11Z"/><path class="cls-8" d="M434.87,104c-1.12,5.74-2.25,16.25,1.77,20.08,0,0-1.57,5.82-12.23,5.82-11.72,0-5.6-5.82-5.6-5.82,6.4-1.53,6.23-6.28,5.12-10.73Z"/><path class="cls-13" d="M430.41,107.86l-6.48,5.52a17.85,17.85,0,0,1,.55,3.17c2.44-.36,5.8-3,6.06-5.6A8.5,8.5,0,0,0,430.41,107.86Z"/><path class="cls-12" d="M428.21,72.85c-1-3.36-1.86-8.67,4.15-11-2.34-2.86-2.91-8.25,0-11.45s7.27-2,7.27-2,1.28-7.82,10.79-6.45,5.27,7.66,5.27,7.66,13-2.57,13.83,9.65-6.58,10.71-6.58,10.71,5.79,4.85,2.59,10.19-10.62,3.49-10.62,3.49-3.49,9.43-11.7,4.07S428.21,72.85,428.21,72.85Z"/><path class="cls-12" d="M409,79.94c-3.22,4.14-1.8,8.84,1,10.65,6.9,4.41,16.87-14.06,14.28-16.27S412.16,75.8,409,79.94Z"/><path class="cls-9" d="M437.91,70.08c-4.54-1.83-9.13.08-10.56,2.85-3.5,6.72,12.38,18.83,17,10.43C447.05,78.37,442.59,72,437.91,70.08Z"/><path class="cls-8" d="M436,90.62c.33,9.59.68,13.64-3.67,19-6.54,8-18.39,6.36-21.57-2.94-2.87-8.37-2.93-22.64,6-27.33A13.08,13.08,0,0,1,436,90.62Z"/><path class="cls-12" d="M434.55,95.68c-4.24-1.59-5.35-6.59-4.65-8.51-2.12-.08-6.82-.85-8.58-3.5-3.33,2.09-10.38,4.27-11.15.72S420.05,71.67,428.09,71c9.55-.84,19,8.56,16.55,17.55S434.55,95.68,434.55,95.68Z"/><path class="cls-12" d="M407.09,184.94s-7.63,74.47-7,104c.66,30.66,11.89,100.6,11.89,100.6h13.07s-2.07-68.15-.91-98.26c1.26-32.83,11.69-106.29,11.69-106.29Z"/><polygon class="cls-9" points="426.2 389.96 410.86 389.96 409.73 385.06 426.91 384.46 426.2 389.96"/><path class="cls-13" d="M424,203.47c-9.64,19.4-1.93,54.79,1.48,68,1.75-19.77,4.69-43.94,7-61.69C431,199.68,428.47,194.52,424,203.47Z"/><path class="cls-12" d="M417.46,184.94s8.89,77.42,15.61,102.27c8,29.51,57.5,69.23,57.5,69.23l10.05-8.54s-35.9-43.14-42-58.68c-13-33.18-1.87-82.63-12.27-104.28Z"/><polygon class="cls-9" points="502.22 347.44 489.76 358.03 485.1 355.24 499.2 342.12 502.22 347.44"/><path class="cls-12" d="M421.77,94.67c.07.78-.28,1.45-.78,1.5s-1-.55-1.06-1.32.28-1.45.79-1.5S421.7,93.9,421.77,94.67Z"/><path class="cls-12" d="M413,95.51c.07.78-.28,1.45-.79,1.5s-1-.55-1-1.32.28-1.45.78-1.49S412.92,94.74,413,95.51Z"/><path class="cls-12" d="M412.17,94.22l-1.91-.36S411.35,95.22,412.17,94.22Z"/><path class="cls-14" d="M415.44,96.62a20.59,20.59,0,0,1-2.29,5.22,3.36,3.36,0,0,0,2.82.26Z"/><path class="cls-12" d="M420.28,104.66a6.9,6.9,0,0,1-1.29.23.23.23,0,0,1-.25-.2.23.23,0,0,1,.21-.25,6.16,6.16,0,0,0,4.78-2.89.23.23,0,0,1,.31-.09.22.22,0,0,1,.1.3A6.42,6.42,0,0,1,420.28,104.66Z"/><path class="cls-8" d="M438.24,97.29a7,7,0,0,1-2.65,4.65c-1.95,1.5-3.84,0-4.06-2.35-.2-2.08.58-5.38,2.91-6A3.15,3.15,0,0,1,438.24,97.29Z"/><path class="cls-12" d="M422.71,89.17a.46.46,0,0,1-.36,0,3.63,3.63,0,0,0-3.29-.32.46.46,0,0,1-.61-.21.47.47,0,0,1,.21-.62,4.56,4.56,0,0,1,4.16.37.45.45,0,0,1-.11.83Z"/><path class="cls-12" d="M408.7,91.84a.42.42,0,0,1-.33,0,.45.45,0,0,1-.19-.62,4.56,4.56,0,0,1,3.39-2.45.46.46,0,0,1,.08.92,3.6,3.6,0,0,0-2.66,2A.5.5,0,0,1,408.7,91.84Z"/><path class="cls-8" d="M457.32,136.74A154.27,154.27,0,0,1,463,153.06a101.84,101.84,0,0,1,3.54,17.15c.19,1.47.24,3,.31,4.54v.38l0,.5c0,.31-.05.62-.09.9a11.27,11.27,0,0,1-.37,1.59,15.63,15.63,0,0,1-1.05,2.57,37.2,37.2,0,0,1-5.42,7.58A92.1,92.1,0,0,1,447.07,200l-3.13-3.43c3.56-4.15,7.16-8.42,10.2-12.79a35.18,35.18,0,0,0,3.74-6.46,8.4,8.4,0,0,0,.42-1.35,2.67,2.67,0,0,0,.07-.47c0-.07,0-.1,0-.14s0,0,0,0l0-.14c-.14-1.27-.24-2.52-.47-3.81A118.76,118.76,0,0,0,454,155.71c-1.63-5.17-3.46-10.42-5.38-15.42Z"/><path class="cls-9" d="M453.31,126.31c3.93,1.2,8.66,14.75,8.66,14.75L446.71,152s-5.57-11.31-3.92-16.4C444.52,130.28,448.82,125,453.31,126.31Z"/><path class="cls-10" d="M453.31,126.31c3.93,1.2,8.66,14.75,8.66,14.75L446.71,152s-5.57-11.31-3.92-16.4C444.52,130.28,448.82,125,453.31,126.31Z"/><path class="cls-9" d="M497.3,367.83a1.32,1.32,0,0,1-1-.52.76.76,0,0,1-.18-.77c.35-1.18,3.71-2.14,4.09-2.25a.24.24,0,0,1,.24.08.23.23,0,0,1,0,.25c-.6,1.14-1.79,3.07-3,3.21Zm2.48-2.94c-1.33.43-3.06,1.17-3.25,1.79a.33.33,0,0,0,.1.33.87.87,0,0,0,.76.36C498.05,367.3,498.93,366.38,499.78,364.89Z"/><path class="cls-9" d="M498.72,364.93c-1.11,0-2.37-.22-2.8-.78a.8.8,0,0,1,0-1,1.22,1.22,0,0,1,.87-.53c1.38-.18,3.5,1.64,3.58,1.72a.23.23,0,0,1,.08.22.23.23,0,0,1-.15.17A5.36,5.36,0,0,1,498.72,364.93Zm-1.7-1.86h-.14a.75.75,0,0,0-.55.34c-.17.24-.11.37,0,.46.41.54,2.31.74,3.47.53A5.8,5.8,0,0,0,497,363.07Z"/><path class="cls-9" d="M410.4,403.13a3.63,3.63,0,0,1-2.35-.59,1.29,1.29,0,0,1-.41-1.12.74.74,0,0,1,.39-.61c1.18-.65,5,1.32,5.47,1.55a.23.23,0,0,1,.12.24.23.23,0,0,1-.18.19A16.78,16.78,0,0,1,410.4,403.13Zm-1.73-2a.84.84,0,0,0-.42.09.28.28,0,0,0-.16.24.85.85,0,0,0,.27.74c.59.53,2.18.62,4.32.26A12.39,12.39,0,0,0,408.67,401.13Z"/><path class="cls-9" d="M413.39,402.79a.15.15,0,0,1-.09,0c-1.15-.52-3.43-2.6-3.25-3.7,0-.26.22-.58.86-.64a1.66,1.66,0,0,1,1.27.39c1.21,1,1.43,3.61,1.44,3.72a.23.23,0,0,1-.09.21A.23.23,0,0,1,413.39,402.79Zm-2.3-3.92H411c-.41,0-.44.21-.45.26-.11.66,1.44,2.3,2.61,3a5.3,5.3,0,0,0-1.23-3A1.2,1.2,0,0,0,411.09,398.87Z"/><path class="cls-9" d="M446.94,182.64l1,3.51c.14.27-.18.55-.64.55H406.89c-.35,0-.64-.17-.67-.39l-.35-3.52c0-.24.28-.45.67-.45H446.3A.71.71,0,0,1,446.94,182.64Z"/><path class="cls-15" d="M446.94,182.64l1,3.51c.14.27-.18.55-.64.55H406.89c-.35,0-.64-.17-.67-.39l-.35-3.52c0-.24.28-.45.67-.45H446.3A.71.71,0,0,1,446.94,182.64Z"/><path class="cls-12" d="M441.6,187.08h1.06c.21,0,.38-.11.36-.24l-.5-4.57c0-.13-.2-.24-.41-.24h-1.06c-.22,0-.38.11-.36.24l.5,4.57C441.2,187,441.39,187.08,441.6,187.08Z"/><path class="cls-12" d="M409.89,187.08H411c.21,0,.37-.11.36-.24l-.5-4.57c0-.13-.2-.24-.41-.24h-1.07c-.21,0-.37.11-.36.24l.5,4.57C409.49,187,409.67,187.08,409.89,187.08Z"/><path class="cls-12" d="M425.74,187.08h1.07c.21,0,.37-.11.36-.24l-.5-4.57c0-.13-.2-.24-.42-.24h-1.06c-.21,0-.37.11-.36.24l.5,4.57C425.34,187,425.53,187.08,425.74,187.08Z"/><path class="cls-12" d="M420.94,93.38,419,93S420.13,94.38,420.94,93.38Z"/><path class="cls-16" d="M385.55,229.52a98.25,98.25,0,1,1,56-127.17A98.25,98.25,0,0,1,385.55,229.52Z"/><path class="cls-17" d="M367.77,41.31l-77,175q-1.79-1.35-3.52-2.78A97.12,97.12,0,0,1,268,192.08h0L334.52,40.9A97.34,97.34,0,0,1,367.77,41.31Z"/><path class="cls-17" d="M422.56,71.68,350.11,236.21a98.1,98.1,0,0,1-43.41-10.06L385.81,46.46A98.38,98.38,0,0,1,422.56,71.68Z"/><path class="cls-9" d="M269.09,71.75a104.51,104.51,0,1,1,14.69,147.07A104.51,104.51,0,0,1,269.09,71.75Zm155.15,127a96,96,0,1,0-135,13.5A96,96,0,0,0,424.24,198.71Z"/><path class="cls-9" d="M433.46,198.35c10.3,6.15,20.09,12.91,29.71,19.87s19,14.24,28.23,21.68,18.28,15.12,27,23.18q6.57,6,12.86,12.37c4.19,4.25,8.32,8.57,12.19,13.2A6,6,0,0,1,536,297.8c-5.3-2.88-10.35-6.07-15.34-9.34S510.75,281.8,506,278.3c-9.62-7-18.93-14.31-28.05-21.89S459.79,241.08,451.06,233s-17.3-16.32-25.36-25.2a6.19,6.19,0,0,1,7.76-9.48Z"/><path class="cls-8" d="M445,195.44,434.64,197l7.39,6.48s5.84-2.12,6.41-6.1Z"/><polygon class="cls-8" points="429.06 202.92 435.55 208.01 443.47 202.84 434.64 197.01 429.06 202.92"/><path class="cls-9" d="M380.23,214.18h0a13.58,13.58,0,0,1,12.52-8.9h85.58a10.11,10.11,0,0,1,10.39,11.48L466.62,402.3a13.46,13.46,0,0,1-13.13,11.47H181.92a10.11,10.11,0,0,1-10.39-11.47L190.1,246.45A13.45,13.45,0,0,1,203.22,235H351A31.71,31.71,0,0,0,380.23,214.18Z"/><polygon class="cls-6" points="176.46 405.23 460.2 405.23 476.37 214.31 192.63 214.31 176.46 405.23"/><polygon class="cls-7" points="176.46 405.23 460.2 405.23 471.9 214.31 192.63 214.31 176.46 405.23"/><polygon class="cls-6" points="176.46 405.23 460.2 405.23 469.95 208.25 186.21 208.25 176.46 405.23"/><polygon class="cls-7" points="176.46 405.23 460.2 405.23 464.06 208.25 186.21 208.25 176.46 405.23"/><polygon class="cls-6" points="176.46 405.23 460.2 405.23 461.89 202.91 178.15 202.91 176.46 405.23"/><polygon class="cls-7" points="176.46 405.23 460.2 405.23 454.38 206.74 172.46 206.74 176.46 405.23"/><polygon class="cls-6" points="176.46 405.23 460.2 405.23 451.78 208.25 168.04 208.25 176.46 405.23"/><polygon class="cls-7" points="176.46 405.23 460.2 405.23 446.79 211.22 163.05 211.22 176.46 405.23"/><polygon class="cls-6" points="176.46 405.23 460.2 405.23 444.65 212.88 160.91 212.88 176.46 405.23"/><path class="cls-9" d="M318.55,226.23h0c.18-5.34,4.2-9.12,9.67-9.12H413.8c6.5,0,12.79,5.26,14.05,11.76L461.66,402c1.27,6.5-3,11.76-9.46,11.76H180.63c-6.49,0-12.79-5.26-14-11.76L138.71,259.29c-1.27-6.49,3-11.76,9.46-11.76H296C308.74,247.53,318.11,238.7,318.55,226.23Z"/><path class="cls-13" d="M318.55,226.23h0c.18-5.34,4.2-9.12,9.67-9.12H413.8c6.5,0,12.79,5.26,14.05,11.76L461.66,402c1.27,6.5-3,11.76-9.46,11.76H180.63c-6.49,0-12.79-5.26-14-11.76L138.71,259.29c-1.27-6.49,3-11.76,9.46-11.76H296C308.74,247.53,318.11,238.7,318.55,226.23Z"/><g class="cls-18"><path class="cls-5" d="M255.74,365.64q-6.7,5-19,5.59l-15.69.72-.45,23.2-15.64.72,1.24-64.53,32.36-1.48q11.18-.51,17.74,4.18t6.36,15.14Q262.44,360.61,255.74,365.64ZM244.17,343q-3-2-8.34-1.77l-14.19.65-.37,19,14.19-.66c3.6-.16,6.4-1.06,8.43-2.7S247,353.34,247,350,246.13,344.28,244.17,343Z"/><path class="cls-5" d="M317.72,327.63a23,23,0,0,1,12.69,7.6,24.94,24.94,0,0,1,5.17,10.18A42.37,42.37,0,0,1,336.81,356q-.26,12.87-6.46,22.07-8.42,12.42-25.51,13.2l-32.49,1.49,1.24-64.52,32.49-1.49A45,45,0,0,1,317.72,327.63Zm-29.06,11.13-.81,42.11,14.55-.66q11.16-.51,15.74-10.13a30.14,30.14,0,0,0,2.65-12.41q.18-9.85-3.32-15t-14.26-4.62Z"/><path class="cls-5" d="M347.11,325l53.73-2.46-.22,11.34-38.08,1.75-.29,14.84,33.38-1.53-.21,11.2L362,361.64l-.51,27.05-15.65.72Z"/></g></svg>