<svg id="Layer_1" data-name="Layer 1" xmlns="http://www.w3.org/2000/svg" viewBox="0 0 623.19 432.88"><defs><style>.cls-1{fill:#ebebeb;}.cls-2{fill:#e0e0e0;}.cls-3{fill:#f5f5f5;}.cls-4{fill:#455b64;}.cls-5{fill:#263238;}.cls-6{fill:#91d8f4;}.cls-7{opacity:0.3;}.cls-8{fill:#fff;}.cls-9{fill:#fafbfb;}.cls-10{fill:#fbbd9d;}.cls-11{fill:#ec996f;}.cls-12{fill:#010101;}.cls-13{fill:#393b48;}.cls-13,.cls-14,.cls-15,.cls-16,.cls-18{fill-rule:evenodd;}.cls-14{fill:#1d1925;}.cls-15{fill:#292f3d;}.cls-16{fill:#dc1f27;}.cls-17{fill:#e2584e;}.cls-18{fill:#2f3442;}</style></defs><title>know</title><path class="cls-1" d="M128.13,293.17c21.12-18.5,23-48.75,19.19-75.32-.64-4.43-.67-9.18-3.22-12.85s-7.78-5.8-11.56-3.48c-3.14,1.92-4.15,5.93-5.65,9.31A26.13,26.13,0,0,1,117.55,222c-2.67,1.79-6.08,3.07-9,1.84-4.07-1.7-5.11-6.95-5.57-11.38l-2.58-24.78c-.46-4.43-.95-8.95-2.79-13s-5.31-7.62-9.65-8.33-9.28,2.29-9.7,6.72c-.17,1.84.41,3.67.49,5.52s-.56,4-2.24,4.69-3.63-.35-5.09-1.5c-5.06-4-8.8-9.38-12.33-14.79s-7-11-11.67-15.38-10.85-7.65-17.23-7.31-12.71,5-13.62,11.4,3.42,12.35,7.94,17A99.62,99.62,0,0,0,47.2,190c1.51.83,3.14,1.74,3.85,3.32,1.29,2.84-1.19,6.08-4,7.37-3.18,1.47-6.8,1.52-10.21,2.31s-7,2.72-7.92,6.13c-1.32,4.72,3,9.05,7.06,11.74a85,85,0,0,0,26.65,11.7c3.39.84,6.93,1.5,9.81,3.5s4.9,5.81,3.66,9.1-5.21,4.74-8.69,4.49S60.68,247.85,57.3,247c-6.34-1.63-14.15-.34-17.47,5.35-2.18,3.74-1.88,8.57-.12,12.55s4.76,7.24,7.91,10.2c11,10.37,24.52,18.2,39.17,21.54s27.88,3.22,41.34-3.46"/><path class="cls-2" d="M130.66,312.91a195.91,195.91,0,0,0-11.25-35.7,400.39,400.39,0,0,0-20.46-41L93,225.77c-2-3.43-3.88-6.83-6-10A198.3,198.3,0,0,0,74,198c-4.44-5.45-8.85-10.46-13-15.11S52.8,174,49,170.24A157.58,157.58,0,0,0,29.87,154c-2.4-1.74-4.31-3-5.61-3.87l-1.49-1a3,3,0,0,0-.52-.3,3.81,3.81,0,0,0,.47.37l1.45,1c1.27.89,3.14,2.22,5.51,4a165.74,165.74,0,0,1,18.93,16.38c3.75,3.75,7.68,8,11.82,12.67S69,193,73.37,198.45a203,203,0,0,1,13,17.72c2.08,3.2,4,6.57,6,10l5.9,10.46a409.08,409.08,0,0,1,20.48,40.87A198.92,198.92,0,0,1,130.1,313"/><path class="cls-2" d="M86.82,215.72a9.52,9.52,0,0,0,.22-1.93c.1-1.25.18-3.06.25-5.3.14-4.48.12-10.67.07-17.5s0-13,.24-17.46c.09-2.23.19-4,.27-5.28a8.55,8.55,0,0,0,0-1.95,8.27,8.27,0,0,0-.35,1.91c-.18,1.24-.37,3-.54,5.28-.36,4.47-.52,10.67-.47,17.51s.11,12.82.16,17.48c0,2.1,0,3.87,0,5.29A8.63,8.63,0,0,0,86.82,215.72Z"/><path class="cls-2" d="M28.72,211.36a12,12,0,0,0,2.3,0c1.47,0,3.61-.08,6.25-.07,5.27,0,12.56.23,20.59.84s15.27,1.51,20.5,2.3c2.61.37,4.72.73,6.18,1a11.33,11.33,0,0,0,2.28.3,12.35,12.35,0,0,0-2.22-.62c-1.45-.33-3.54-.78-6.15-1.23-5.22-.94-12.48-1.91-20.53-2.55a204.54,204.54,0,0,0-20.66-.6c-2.65.07-4.79.21-6.26.34A12.12,12.12,0,0,0,28.72,211.36Z"/><path class="cls-2" d="M118.59,276.24a2.79,2.79,0,0,0,.31-.73c.21-.59.45-1.3.75-2.17.64-1.89,1.49-4.64,2.51-8,2-6.82,4.53-16.34,7.15-26.87s5-20.07,6.91-26.93c.93-3.33,1.69-6.07,2.25-8.11.25-.88.44-1.61.61-2.21a3.07,3.07,0,0,0,.15-.79,2.78,2.78,0,0,0-.31.74l-.75,2.16c-.64,1.89-1.49,4.64-2.5,8.05-2,6.83-4.53,16.34-7.16,26.88s-5,20.06-6.91,26.92c-.93,3.33-1.69,6.08-2.25,8.11l-.6,2.21A2.89,2.89,0,0,0,118.59,276.24Z"/><path class="cls-2" d="M40.26,260.21a2.91,2.91,0,0,0,.78.22l2.28.5,8.39,1.73c7.08,1.46,16.84,3.6,27.63,6s20.57,4.42,27.69,5.74c3.56.66,6.44,1.16,8.44,1.47l2.31.34a2.76,2.76,0,0,0,.81.06,4,4,0,0,0-.79-.22l-2.27-.5-8.39-1.73c-7.09-1.46-16.85-3.6-27.63-6s-20.57-4.42-27.69-5.74c-3.56-.66-6.44-1.16-8.44-1.47l-2.31-.34A2.76,2.76,0,0,0,40.26,260.21Z"/><polygon class="cls-1" points="137.89 188.81 197.8 226.83 173.32 268.44 111.94 228.06 137.89 188.81"/><path class="cls-2" d="M197.8,226.83a.66.66,0,0,1-.22.06l-.66.13-2.55.46L185,229.09l-31.29,5.13-.21,0-.08-.21c-.16-.45-.33-1-.5-1.44l-10.7-30.94c-1.33-3.93-2.41-7.13-3.18-9.39-.36-1.08-.64-1.94-.84-2.56-.08-.27-.15-.49-.21-.67a.91.91,0,0,1-.05-.24.9.9,0,0,1,.1.22l.26.65.93,2.53c.8,2.25,1.94,5.43,3.34,9.34,2.79,7.94,6.61,18.84,10.84,30.89.17.49.34,1,.5,1.44l-.28-.17,31.31-5,9.45-1.44,2.56-.37.67-.08A.58.58,0,0,1,197.8,226.83Z"/><path class="cls-2" d="M111.94,228.06c0-.14,8.1-2.29,18.16-4.81s18.25-4.44,18.29-4.3-8.1,2.29-18.16,4.81S112,228.2,111.94,228.06Z"/><path class="cls-2" d="M173.32,268.44c-.14,0-1.51-8.08-3.07-18.09s-2.69-18.16-2.55-18.18,1.51,8.08,3.07,18.1S173.47,268.42,173.32,268.44Z"/><polygon class="cls-3" points="535.23 214.22 592.61 204.89 600.26 243.69 540.7 252.37 535.23 214.22"/><path class="cls-2" d="M592.61,204.89a4.93,4.93,0,0,1-.43.6l-1.31,1.68c-1.18,1.49-2.84,3.56-4.88,6.12l-16.35,20.18-.14.17-.19-.11-1.09-.61-23.38-13.13-7.06-4-1.9-1.12a5.28,5.28,0,0,1-.65-.42,3.19,3.19,0,0,1,.7.33l2,1,7.14,3.89,23.45,13,1.09.61-.32.06,16.47-20.08,5-6,1.38-1.61A3.29,3.29,0,0,1,592.61,204.89Z"/><path class="cls-2" d="M540.7,252.37c-.12-.08,3.67-5.84,8.47-12.85s8.77-12.64,8.89-12.56-3.67,5.83-8.46,12.85S540.82,252.45,540.7,252.37Z"/><path class="cls-2" d="M600.26,243.69c-.09.11-5.35-4.09-11.75-9.37s-11.52-9.67-11.43-9.78,5.36,4.09,11.76,9.38S600.36,243.58,600.26,243.69Z"/><polygon class="cls-4" points="375.61 209.09 473.71 182.8 493.85 248.91 391.82 274.45 375.61 209.09"/><path class="cls-5" d="M391.82,274.45c-.12-.06,5.28-10.22,12.06-22.68s12.39-22.51,12.52-22.44-5.28,10.22-12.06,22.68S392,274.52,391.82,274.45Z"/><path class="cls-5" d="M493.84,248.91c-.08.12-9.94-6.34-22-14.43S450,219.73,450.05,219.61s9.95,6.34,22,14.44S493.92,248.79,493.84,248.91Z"/><path class="cls-5" d="M375.61,209.09l.33.13.93.44,3.58,1.72,13.12,6.42,43.2,21.34.53.26-.34.1c10.13-15.7,19.28-29.88,25.91-40.17,3.32-5.1,6-9.24,7.89-12.13l2.17-3.28.58-.84a1.75,1.75,0,0,1,.21-.28,3.48,3.48,0,0,1-.17.31L473,184c-.49.79-1.19,1.91-2.09,3.33-1.84,2.91-4.49,7.08-7.75,12.21-6.6,10.32-15.71,24.53-25.78,40.26l-.13.19-.2-.1-.53-.26-43.13-21.48-13.05-6.57-3.53-1.81-.92-.48A1.84,1.84,0,0,1,375.61,209.09Z"/><polygon class="cls-4" points="37.19 190.97 133.46 200.6 129.12 266.29 29.61 254.67 37.19 190.97"/><path class="cls-5" d="M29.61,254.67c-.09-.11,8.13-7.35,18.38-16.16s18.63-15.88,18.72-15.77-8.14,7.34-18.38,16.16S29.7,254.78,29.61,254.67Z"/><path class="cls-5" d="M129.12,266.28c-.12.09-6.74-9-14.79-20.27S99.85,225.51,100,225.42s6.74,9,14.79,20.28S129.23,266.2,129.12,266.28Z"/><path class="cls-5" d="M37.18,191s.1.07.25.23.4.41.69.7l2.61,2.74c2.28,2.41,5.53,5.87,9.53,10.13l31.3,33.57.38.41-.34,0,36.62-27.06,11.12-8.14,3-2.19.79-.56a1.12,1.12,0,0,1,.29-.17,2.34,2.34,0,0,1-.26.21l-.76.6-3,2.27-11,8.28L81.91,239.14l-.19.14-.16-.17-.38-.41L50,205l-9.41-10.25L38,192l-.65-.74Z"/><path class="cls-6" d="M586.86,135.64s-8.63-5.61-18.94,15-14.17,32.52-14.17,32.52-2.73,4.33-5.72,1.54-7.09-10.74-12.11-9.26c-5.2,1.53-6.87,7.37-5.8,15.91s2.71,27.34,2.85,29.05-.8,4.13-3.13,2.56S514,206.65,507.4,213.46s.25,30.13,1,32.7.21,3.66-1,4.31-5.28-4.75-9.29-8.79-9.36-8-12.85-3.78-4.48,21.8,12.45,50.14l8.7,12.62,15.36-1c32.75-4.11,46-15.68,47.18-21.05s-5.23-7.14-10.89-7.81-12.4-.55-12.64-1.91.33-2.42,2.78-3.44,25.06-10,26.36-19.37-18.64-10.95-21.32-11.82-1.31-3.13.09-4.05,17.26-11.21,24.65-15.62,11-9.33,9-14.37c-1.92-4.87-10.72-3.22-14.75-3.85s-2.31-5.45-2.31-5.45,7-10.37,16.92-31.19-.08-24.21-.08-24.21"/><path class="cls-5" d="M577.61,154.1s-.06.16-.19.45l-.59,1.29c-.53,1.16-1.31,2.82-2.3,4.95-2,4.29-5,10.48-8.64,18.11-7.34,15.26-17.67,36.26-29.16,59.42s-21.86,44.14-29.29,59.36l-8.79,18-2.39,4.9-.63,1.27c-.15.28-.24.42-.24.42s.06-.15.19-.44.33-.74.59-1.3c.53-1.15,1.31-2.81,2.3-4.94,2-4.29,5-10.48,8.64-18.11,7.34-15.26,17.67-36.27,29.16-59.43s21.86-44.13,29.29-59.35l8.79-18,2.39-4.9.63-1.27C577.52,154.24,577.61,154.1,577.61,154.1Z"/><path class="cls-5" d="M541.23,186.82a4.24,4.24,0,0,1,.41,1c.23.67.53,1.66.89,2.88.72,2.44,1.62,5.84,2.55,9.61s1.7,7.08,2.33,9.67c.28,1.15.52,2.12.72,2.92a4.11,4.11,0,0,1,.21,1.09,5.61,5.61,0,0,1-.41-1c-.22-.68-.53-1.66-.88-2.89-.69-2.45-1.55-5.86-2.48-9.63l-2.39-9.64-.74-2.93A4.71,4.71,0,0,1,541.23,186.82Z"/><path class="cls-5" d="M549.75,214.29c0-.14,6.89-2.31,15.48-4.86s15.58-4.49,15.62-4.36-6.89,2.32-15.48,4.86S549.8,214.43,549.75,214.29Z"/><path class="cls-5" d="M530.51,249.06a5.15,5.15,0,0,1,1.13-.07l3.08,0c2.6,0,6.18-.06,10.13-.25s7.53-.46,10.12-.68l3.07-.26a5.12,5.12,0,0,1,1.13,0,4.52,4.52,0,0,1-1.11.24c-.72.12-1.76.27-3,.42-2.58.32-6.16.66-10.13.84s-7.57.17-10.16.1c-1.31,0-2.36-.09-3.08-.15A4.54,4.54,0,0,1,530.51,249.06Z"/><path class="cls-5" d="M517.34,225.91a4.55,4.55,0,0,1,.61.85c.37.56.88,1.39,1.51,2.41,1.25,2.05,3,4.9,4.81,8.06s3.5,6,4.68,8.13c.59,1,1,1.9,1.37,2.49a3.51,3.51,0,0,1,.43,1,4.13,4.13,0,0,1-.61-.85c-.37-.56-.88-1.38-1.51-2.41-1.25-2-3-4.89-4.81-8s-3.5-6-4.68-8.13c-.58-1.05-1-1.9-1.36-2.5A3.64,3.64,0,0,1,517.34,225.91Z"/><path class="cls-5" d="M496.45,254.45a6.76,6.76,0,0,1,.77,1.09l1.95,3.09c1.62,2.61,3.83,6.24,6.24,10.27s4.58,7.69,6.12,10.36c.72,1.26,1.32,2.33,1.8,3.16a7.39,7.39,0,0,1,.6,1.2,6.35,6.35,0,0,1-.78-1.09l-1.94-3.09c-1.62-2.61-3.83-6.24-6.24-10.27s-4.58-7.69-6.12-10.35l-1.8-3.17A6.45,6.45,0,0,1,496.45,254.45Z"/><path class="cls-5" d="M513.71,282.81a7.24,7.24,0,0,1,1.43-.13l3.9-.16c3.29-.14,7.83-.36,12.84-.73s9.54-.81,12.82-1.15l3.88-.41a6.69,6.69,0,0,1,1.43-.08,8.29,8.29,0,0,1-1.4.28c-.91.16-2.23.35-3.87.57-3.27.44-7.8.95-12.82,1.31s-9.58.53-12.87.57c-1.65,0-3,0-3.91,0A8.59,8.59,0,0,1,513.71,282.81Z"/><path class="cls-6" d="M85.27,247.17c-4.75.65-9,3.29-12.44,6.65-1.84,1.8-3.57,3.95-3.89,6.5s1.35,5.49,3.91,5.69a6.62,6.62,0,0,0,4.21-1.6c3-2.16,6-5.05,9.69-4.92,2.11.07,4.24,1.15,6.25.5a4.77,4.77,0,0,0,3-4.92,8.16,8.16,0,0,0-3-5.26A9.18,9.18,0,0,0,85.27,247.17Z"/><g class="cls-7"><path d="M85.27,247.17c-4.75.65-9,3.29-12.44,6.65-1.84,1.8-3.57,3.95-3.89,6.5s1.35,5.49,3.91,5.69a6.62,6.62,0,0,0,4.21-1.6c3-2.16,6-5.05,9.69-4.92,2.11.07,4.24,1.15,6.25.5a4.77,4.77,0,0,0,3-4.92,8.16,8.16,0,0,0-3-5.26A9.18,9.18,0,0,0,85.27,247.17Z"/></g><path class="cls-6" d="M82.44,226.15c0,4.54-4.85,6.44-8.07,5.93s-5.93-2.64-8.47-4.69c-5.81-4.68-11.83-9.64-14.77-16.5A12.26,12.26,0,0,1,50,204.38a6.36,6.36,0,0,1,3.79-5.12c2.48-.91,5.22.22,7.52,1.51a52.36,52.36,0,0,1,17.16,15.44c2.09,3,3.93,6.31,4,9.94"/><g class="cls-7"><path class="cls-8" d="M82.44,226.15c0,4.54-4.85,6.44-8.07,5.93s-5.93-2.64-8.47-4.69c-5.81-4.68-11.83-9.64-14.77-16.5A12.26,12.26,0,0,1,50,204.38a6.36,6.36,0,0,1,3.79-5.12c2.48-.91,5.22.22,7.52,1.51a52.36,52.36,0,0,1,17.16,15.44c2.09,3,3.93,6.31,4,9.94"/></g><path class="cls-6" d="M91.36,226.41c-4.24-1.12-7.49-4.82-8.88-9a24,24,0,0,1-.1-13,39.57,39.57,0,0,1,6.33-14A14.1,14.1,0,0,1,93,186.22a6.22,6.22,0,0,1,5.81-.39c2.66,1.37,3.42,4.77,3.74,7.74a100.48,100.48,0,0,1,.49,15.8c-.2,4.24-.74,8.66-3.12,12.17s-5.84,5.74-9.14,4.7"/><path class="cls-5" d="M114.81,272a8,8,0,0,1-1.16-1.25l-3-3.52a66.8,66.8,0,0,0-4.73-4.94,53.36,53.36,0,0,0-6.6-5.13,29.63,29.63,0,0,0-7.49-3.57,15.23,15.23,0,0,0-6.68-.55,14.53,14.53,0,0,0-4.33,1.39,8.11,8.11,0,0,1-1.52.77,7.32,7.32,0,0,1,1.39-1,13,13,0,0,1,4.38-1.63A15.08,15.08,0,0,1,92,253a29.06,29.06,0,0,1,7.7,3.61,49.16,49.16,0,0,1,6.66,5.24,59.08,59.08,0,0,1,4.67,5.09c1.24,1.52,2.2,2.79,2.85,3.67A7.47,7.47,0,0,1,114.81,272Z"/><path class="cls-5" d="M112.51,269.25a3.06,3.06,0,0,1-.49-.61c-.33-.49-.76-1.1-1.28-1.84-1.11-1.6-2.73-3.9-4.81-6.69C101.79,254.51,95.79,247,88.78,239S75,224.16,70,219.39c-1.25-1.2-2.41-2.27-3.44-3.19s-1.9-1.73-2.64-2.36l-1.68-1.49a3.53,3.53,0,0,1-.56-.55,3.26,3.26,0,0,1,.65.45l1.77,1.38c.77.6,1.67,1.37,2.72,2.28S69,217.85,70.31,219a253.37,253.37,0,0,1,19,19.53c7,8,13,15.58,17,21.26,2,2.83,3.6,5.18,4.65,6.83.48.77.86,1.41,1.17,1.91A3.58,3.58,0,0,1,112.51,269.25Z"/><path class="cls-5" d="M101.81,254.08a14.93,14.93,0,0,1-1.34-1.93c-.79-1.28-1.87-3.18-3-5.61a84.89,84.89,0,0,1-3.63-8.75,83.74,83.74,0,0,1-3.11-11.18,58.18,58.18,0,0,1-.86-21,27.65,27.65,0,0,1,.76-3.57c.13-.52.23-1,.38-1.44l.43-1.18a15.09,15.09,0,0,1,.89-2.17c.18.06-1.22,3.13-2,8.43a61.58,61.58,0,0,0,1.06,20.79,86.24,86.24,0,0,0,3,11.1c1.12,3.37,2.37,6.31,3.46,8.76s2.13,4.36,2.85,5.68A15.29,15.29,0,0,1,101.81,254.08Z"/><rect class="cls-5" x="110.17" y="94.33" width="400.73" height="265" rx="14.57"/><path class="cls-5" d="M93.41,339.73H527.58a0,0,0,0,1,0,0v14.53a8.66,8.66,0,0,1-8.66,8.66H102.07a8.66,8.66,0,0,1-8.66-8.66V339.73A0,0,0,0,1,93.41,339.73Z"/><rect class="cls-4" x="120.93" y="104.86" width="378.1" height="223.79"/><polygon class="cls-4" points="271.04 339.73 276.42 348.3 352.23 348.3 357.24 339.73 271.04 339.73"/><rect class="cls-1" x="128.72" y="112.44" width="363.3" height="215.5" rx="3.27"/><rect class="cls-9" x="128.72" y="128.23" width="363.3" height="199.71"/><path class="cls-4" d="M158.51,120.76a2.9,2.9,0,1,1-2.9-2.9A2.9,2.9,0,0,1,158.51,120.76Z"/><path class="cls-4" d="M140.93,120.76a2.91,2.91,0,1,1-2.9-2.9A2.9,2.9,0,0,1,140.93,120.76Z"/><path class="cls-4" d="M149.37,120.76a2.9,2.9,0,1,1-2.9-2.9A2.9,2.9,0,0,1,149.37,120.76Z"/><path class="cls-4" d="M507.46,339.73c0,.15-88.94.26-198.63.26s-198.66-.11-198.66-.26,88.93-.26,198.66-.26S507.46,339.59,507.46,339.73Z"/><path class="cls-9" d="M200.32,316.39a51,51,0,0,1,.24-7.28,52.3,52.3,0,0,1,.76-7.24,49.3,49.3,0,0,1-.24,7.28A52.3,52.3,0,0,1,200.32,316.39Z"/><path class="cls-6" d="M455.15,297c-20.4-31.56-41.6-67-41.6-67-18.43-22.49-33.32-30.34-62.37-31.57h0l-56.53-.23c-11.11.62-36.92-5.11-60.85,29.23l-.1-.16s-21.2,35.39-41.6,67c-22.88,35.39-9.19,72.13,15.25,74.28,24.71,2.16,40,2.82,48.24,3l-.39,15.84,131.07-.22-1.34-17.74c13.15,0,49.55-.14,54.93-.81C464.19,365.64,478,332.41,455.15,297Zm-197.72-7-.82,36.77-22.92.07Zm130,39.5L391,294.55l22.56,35Z"/><path class="cls-5" d="M349,196.82a6.39,6.39,0,0,1,0,.82,21.4,21.4,0,0,1-.17,2.36,28.87,28.87,0,0,1-.71,3.66,31,31,0,0,1-1.7,4.66,28.63,28.63,0,0,1-7.85,10.12A25.61,25.61,0,0,1,324,224.06a24.19,24.19,0,0,1-15.08-4,25.77,25.77,0,0,1-8.41-9.66,26.57,26.57,0,0,1-2.57-8.27,22.36,22.36,0,0,1-.19-2.35,4.81,4.81,0,0,1,0-.83,6.73,6.73,0,0,1,.1.82c0,.54.13,1.32.28,2.33a27.4,27.4,0,0,0,2.7,8.13,25.66,25.66,0,0,0,8.34,9.43A23.92,23.92,0,0,0,324,223.55a25.4,25.4,0,0,0,14.3-5.48,28.71,28.71,0,0,0,7.82-9.91,31.55,31.55,0,0,0,1.75-4.57,32.59,32.59,0,0,0,.79-3.62c.15-1,.24-1.8.26-2.33A4.87,4.87,0,0,1,349,196.82Z"/><path class="cls-5" d="M390.57,299.51c-.14,0,.4-15.1,1.22-33.7s1.6-33.7,1.74-33.69-.4,15.09-1.22,33.71S390.72,299.52,390.57,299.51Z"/><path class="cls-5" d="M260.11,232.12a2.31,2.31,0,0,1,.06.6l.05,1.72c0,1.5,0,3.67,0,6.35,0,5.36-.14,12.77-.52,20.94s-.93,15.56-1.42,20.9c-.24,2.67-.46,4.83-.63,6.32-.09.7-.16,1.26-.21,1.71a2.07,2.07,0,0,1-.11.59,2.3,2.3,0,0,1,0-.6c0-.45.07-1,.12-1.72.11-1.56.27-3.71.47-6.33.39-5.34.88-12.73,1.26-20.89s.57-15.57.67-20.92c.05-2.63.09-4.78.12-6.35,0-.7,0-1.27.05-1.72A3.92,3.92,0,0,1,260.11,232.12Z"/><path class="cls-5" d="M380.08,368.11a4.18,4.18,0,0,1-.1-.75c-.05-.53-.12-1.24-.21-2.15-.16-1.93-.39-4.66-.68-8.07-.54-6.91-1.3-16.56-2.18-27.66l0-.28h.27l12.9.2,36.53.67,11.07.26,3,.1.78,0,.27,0a.8.8,0,0,1-.27,0h-3.79l-11.07-.09-36.53-.52-12.9-.22.25-.27c.8,11.11,1.5,20.76,2,27.68.23,3.41.41,6.15.54,8.07.05.92.09,1.64.12,2.17A6.08,6.08,0,0,1,380.08,368.11Z"/><path class="cls-5" d="M436.72,323c0,.09-1.41,0-3.67.12a36.59,36.59,0,0,0-16.74,5.09c-1.94,1.16-3.06,2-3.11,1.95s.23-.26.73-.67a21.37,21.37,0,0,1,2.19-1.59A32.43,32.43,0,0,1,433,322.7a22.12,22.12,0,0,1,2.71.1A3.2,3.2,0,0,1,436.72,323Z"/><path class="cls-5" d="M263.08,371.83a.59.59,0,0,1,0-.23c0-.18,0-.4.07-.67.08-.63.19-1.48.32-2.57.31-2.28.75-5.51,1.29-9.52,1.14-8.11,2.72-19.35,4.51-32l.25.29-7-.09c-14.49-.1-27.6.16-37.09.11-4.75,0-8.59-.07-11.25-.13l-3.05-.1-.8,0-.27,0a.85.85,0,0,1,.27,0l.8,0h3.06l11.23,0c9.49-.05,22.61-.37,37.1-.27l7,.1h.29l0,.29c-1.85,12.69-3.5,23.93-4.68,32-.61,4-1.1,7.23-1.44,9.49-.18,1.09-.31,1.94-.41,2.56l-.12.66A.79.79,0,0,1,263.08,371.83Z"/><path class="cls-5" d="M233.11,327.24a12.06,12.06,0,0,1-2-1.72,62.83,62.83,0,0,1-4.37-4.65,61.39,61.39,0,0,1-3.88-5.05,12,12,0,0,1-1.38-2.26,14.8,14.8,0,0,1,1.67,2c1,1.29,2.38,3,4,4.94s3.12,3.54,4.23,4.72A13.75,13.75,0,0,1,233.11,327.24Z"/><path class="cls-9" d="M291.72,242a71.6,71.6,0,0,1-4.11-7.58,75.19,75.19,0,0,1-3.65-7.81,69.2,69.2,0,0,1,4.11,7.58A70.75,70.75,0,0,1,291.72,242Z"/><path class="cls-9" d="M347.86,241.25a13.14,13.14,0,0,1-2,2.08,56.55,56.55,0,0,1-5.34,4.41,57.8,57.8,0,0,1-5.82,3.76,14.4,14.4,0,0,1-2.58,1.26,18.32,18.32,0,0,1,2.39-1.58c1.49-.94,3.53-2.27,5.71-3.85s4-3.13,5.4-4.27A19.62,19.62,0,0,1,347.86,241.25Z"/><path class="cls-9" d="M374.83,236.37a80.17,80.17,0,0,1-5.71-7.1,77.22,77.22,0,0,1-5.29-7.42,83.2,83.2,0,0,1,5.71,7.11A76.43,76.43,0,0,1,374.83,236.37Z"/><path class="cls-9" d="M373,271.43a44.91,44.91,0,0,1-5.87,3.5,47.23,47.23,0,0,1-6.12,3,44.91,44.91,0,0,1,5.87-3.5A46.52,46.52,0,0,1,373,271.43Z"/><path class="cls-9" d="M411.88,274.34a87,87,0,0,1-.07-9.52,88.45,88.45,0,0,1,.46-9.51,88.64,88.64,0,0,1,.06,9.52A90.18,90.18,0,0,1,411.88,274.34Z"/><path class="cls-9" d="M428,301.55a102.09,102.09,0,0,1-10.25.88c-5.68.34-10.28.5-10.29.36a98.67,98.67,0,0,1,10.25-.88C423.39,301.57,428,301.41,428,301.55Z"/><path class="cls-9" d="M454.1,321.74a94.14,94.14,0,0,1-.89-9.77,89.79,89.79,0,0,1-.37-9.8,94.14,94.14,0,0,1,.89,9.77A89.79,89.79,0,0,1,454.1,321.74Z"/><path class="cls-9" d="M443.1,347.08a100.6,100.6,0,0,1-7.26,7.3,100.43,100.43,0,0,1-7.63,6.92,102,102,0,0,1,7.27-7.3C439.59,350.08,443,347,443.1,347.08Z"/><path class="cls-9" d="M399.69,355.21a6.13,6.13,0,0,1-1.86-.81,21.2,21.2,0,0,1-3.95-2.86,21.57,21.57,0,0,1-3.2-3.69,6,6,0,0,1-1-1.78,32.82,32.82,0,0,0,10,9.14Z"/><path class="cls-9" d="M285.73,264.7a76.41,76.41,0,0,1-6.58,6,76.15,76.15,0,0,1-6.92,5.57,78.29,78.29,0,0,1,6.58-6A74.1,74.1,0,0,1,285.73,264.7Z"/><path class="cls-9" d="M313.37,278.34a16.78,16.78,0,0,1-4-9c.15,0,.69,2.12,1.8,4.6S313.49,278.25,313.37,278.34Z"/><path class="cls-9" d="M264.91,209.38c.09.11-3.63,3.26-8.3,7s-8.53,6.73-8.62,6.62,3.62-3.25,8.3-7S264.82,209.27,264.91,209.38Z"/><path class="cls-9" d="M245.73,261.85c-.15,0-1.28-3.29-3.19-7.16s-3.83-6.83-3.7-6.92a9,9,0,0,1,1.4,1.84,42.42,42.42,0,0,1,2.77,4.85,44.81,44.81,0,0,1,2.13,5.15A8.55,8.55,0,0,1,245.73,261.85Z"/><path class="cls-9" d="M237.79,283.85a11.3,11.3,0,0,1-2.49,1,40.88,40.88,0,0,1-6.33,1.58,39.52,39.52,0,0,1-6.51.55,11.16,11.16,0,0,1-2.69-.18,18.88,18.88,0,0,1,2.68-.18,60.52,60.52,0,0,0,6.43-.7,61.49,61.49,0,0,0,6.31-1.42A19.82,19.82,0,0,1,237.79,283.85Z"/><path class="cls-9" d="M216.75,339.38c.07.12-3.79,2.68-8.62,5.73a99.46,99.46,0,0,1-8.9,5.28c-.07-.12,3.78-2.68,8.62-5.72A101.18,101.18,0,0,1,216.75,339.38Z"/><path class="cls-9" d="M244,359.52c-.13.05-2.15-5.18-4.49-11.68s-4.15-11.8-4-11.85,2.14,5.18,4.49,11.68S244.18,359.47,244,359.52Z"/><path class="cls-9" d="M273.42,317.61a49.68,49.68,0,0,1-3.24-6.39,49,49,0,0,1-2.77-6.61,98.95,98.95,0,0,1,6,13Z"/><path class="cls-9" d="M384.43,299.5a12.84,12.84,0,0,1-.84,2.25c-.56,1.36-1.33,3.24-2.14,5.34s-1.5,4-2,5.4a12.82,12.82,0,0,1-.9,2.22,10.38,10.38,0,0,1,.55-2.34c.41-1.42,1-3.36,1.87-5.47s1.64-4,2.29-5.3A9.84,9.84,0,0,1,384.43,299.5Z"/><path class="cls-9" d="M291.15,380.56a18.8,18.8,0,0,1-2.75,0,57.77,57.77,0,0,0-6.59.31A59.76,59.76,0,0,0,275.3,382a19.44,19.44,0,0,1-2.69.57,11.1,11.1,0,0,1,2.6-.92,40,40,0,0,1,6.54-1.26,40.91,40.91,0,0,1,6.66-.16A11.49,11.49,0,0,1,291.15,380.56Z"/><path class="cls-9" d="M318,382.49c-.14.08-1.68-2.72-4.26-5.66s-5.11-4.88-5-5a6.78,6.78,0,0,1,1.75,1.15,27.86,27.86,0,0,1,6.62,7.62A6.71,6.71,0,0,1,318,382.49Z"/><path class="cls-9" d="M347.75,374.65a101.08,101.08,0,0,1-12.47,7.51,49.2,49.2,0,0,1,6.1-4A52.07,52.07,0,0,1,347.75,374.65Z"/><path class="cls-9" d="M379.26,381.09a19.48,19.48,0,0,1-4.43-.2,19.77,19.77,0,0,1-4.38-.72,18.2,18.2,0,0,1,4.43.2A18.83,18.83,0,0,1,379.26,381.09Z"/><path class="cls-5" d="M341.17,128.71a4.43,4.43,0,0,0,6.52,4.88c2.83-1.65,3-5.69,2.22-8.87s-2.05-6.55-.87-9.6c.91-2.34,3.06-3.91,4.7-5.8A14.12,14.12,0,0,0,357,97.14a11.88,11.88,0,0,0-8.68-8.86c-4.35-1-9.55.66-12.91-2.25-2.44-2.12-2.79-5.79-4.73-8.37-3-4-8.91-4.33-13.83-3.37S307,77.12,302,76.19c-4.11-.78-7.6-3.42-11.49-4.94a21.92,21.92,0,0,0-26.8,31.66,14,14,0,0,0,7.17,6.34"/><path class="cls-10" d="M324.61,221.42h0a24.91,24.91,0,0,1-26.86-22.69c-.67-7.82-1.22-14.41-1.22-14.41s-20-1.69-21.6-21.42-1.39-62.74-1.39-62.74v-2.6c22.17-11.43,48.93-7.79,69.72,6l.26,4.07,3.93,88.64A24.89,24.89,0,0,1,324.61,221.42Z"/><path class="cls-5" d="M283.19,131a2.9,2.9,0,0,0-.17-5.41,2.6,2.6,0,0,0-2,.06,2.9,2.9,0,0,0,.16,5.41A2.67,2.67,0,0,0,283.19,131Z"/><path class="cls-5" d="M276.1,126.88c.33.33,2.17-1.3,4.89-1.51s4.79,1.07,5.06.7c.14-.17-.21-.76-1.12-1.36a6.73,6.73,0,0,0-7.95.65C276.19,126.1,275.94,126.74,276.1,126.88Z"/><path class="cls-5" d="M308.88,126.34a2.87,2.87,0,1,0,4,.66A2.88,2.88,0,0,0,308.88,126.34Z"/><path class="cls-5" d="M305.08,127.34c.34.32,2.17-1.3,4.89-1.51s4.79,1.06,5.07.69c.14-.16-.21-.76-1.12-1.35a6.73,6.73,0,0,0-7.95.65C305.17,126.56,304.92,127.2,305.08,127.34Z"/><path class="cls-5" d="M295.75,150.55c0-.2-1.7-.41-4.47-.59-.71,0-1.3-.14-1.39-.55a3.84,3.84,0,0,1,.36-2.1l1.76-5.67c2.42-8.09,4.07-14.73,3.68-14.85s-2.67,6.34-5.09,14.43c-.57,2-1.11,3.86-1.65,5.71a4.57,4.57,0,0,0-.18,3,1.83,1.83,0,0,0,1.28,1,4.4,4.4,0,0,0,1.22.07C294,150.91,295.75,150.75,295.75,150.55Z"/><path class="cls-8" d="M304.8,152.94c2.71-1.89-7.52,4.69-13.07,4.81,0,0,3.53,4.85,9.08,2.37C306.57,157.54,304.8,152.94,304.8,152.94Z"/><path class="cls-11" d="M296.48,184s12.55.14,25.24-9.13c0,0-5.09,14.64-24.93,14.25Z"/><path class="cls-10" d="M343.22,120.81c.43-.16,14.65-2.13,13.44,14.69s-17.79,10-17.78,9.55S343.22,120.81,343.22,120.81Z"/><path class="cls-11" d="M344.45,139.52c.08-.05.28.23.76.49a3,3,0,0,0,2.19.2c1.82-.52,3.52-3.24,3.82-6.26a9.86,9.86,0,0,0-.52-4.26,3.39,3.39,0,0,0-2.05-2.4,1.49,1.49,0,0,0-1.78.68c-.26.45-.18.79-.27.82s-.34-.31-.16-1a1.87,1.87,0,0,1,.74-1,2.22,2.22,0,0,1,1.65-.32,4.15,4.15,0,0,1,2.88,2.83,10,10,0,0,1,.68,4.76c-.35,3.38-2.32,6.43-4.8,7a3.16,3.16,0,0,1-2.65-.64C344.45,139.93,344.39,139.55,344.45,139.52Z"/><path class="cls-5" d="M316.57,116.7c-.43.61-3.39-.87-7.27-.84s-6.85,1.37-7.27.76c-.19-.28.35-1.09,1.64-1.88a11.29,11.29,0,0,1,11.28.06C316.23,115.62,316.77,116.43,316.57,116.7Z"/><path class="cls-5" d="M285.62,117.86c-.17.71-2.28.81-4.76.89s-4.61.06-4.81-.65,1.88-1.88,4.74-1.95S285.79,117.17,285.62,117.86Z"/><path class="cls-5" d="M269.32,108.54s12.15,5.34,27.39-3c10-5.47,21.79-8.4,24.48-6.45s3.64,12.44,13.85,15.13c0,0,.06,20.06,8,19s1.81-31.86,1.81-31.86L326.1,88.92l-21.48-3.23-23.43,3.49-13.07,8.6Z"/><path class="cls-5" d="M345.68,84.59a16.7,16.7,0,0,0-4.4,1,16.3,16.3,0,0,0-3.7,2.58c-.05,0,.19-.51.77-1.14a8.29,8.29,0,0,1,2.72-1.91,8.11,8.11,0,0,1,3.25-.71A2.78,2.78,0,0,1,345.68,84.59Z"/><path class="cls-5" d="M337.16,77a5.34,5.34,0,0,1,.44,1.79,18.64,18.64,0,0,1,.17,4.46,13.19,13.19,0,0,1-1.14,4.32,5,5,0,0,1-1,1.57,9.21,9.21,0,0,1,.65-1.71,16.09,16.09,0,0,0,1-4.23,26,26,0,0,0,0-4.37A8.26,8.26,0,0,1,337.16,77Z"/><path class="cls-4" d="M336.37,85.6a5.1,5.1,0,0,1-.13.54,9.74,9.74,0,0,1-.56,1.51,12.39,12.39,0,0,1-8,6.7,11.14,11.14,0,0,1-5.34.09,12.61,12.61,0,0,1-5.47-2.78,11.78,11.78,0,0,1-3.69-5.79,9,9,0,0,1-.21-3.73,6.17,6.17,0,0,1,1.79-3.49,5.13,5.13,0,0,1,3.77-1.52,4.8,4.8,0,0,1,3.62,2.14,6.44,6.44,0,0,1,1.18,4.21,8.39,8.39,0,0,1-1.68,4.2,17.08,17.08,0,0,1-7.58,5.4,21.86,21.86,0,0,1-9.71,1.31,20.35,20.35,0,0,1-9.61-3.46,12,12,0,0,1-3.62-3.88,8,8,0,0,1-.9-2.57,7.14,7.14,0,0,1,.15-2.76,6.68,6.68,0,0,1,1.23-2.49,5,5,0,0,1,2.31-1.61,6.39,6.39,0,0,1,5.42,1,9.36,9.36,0,0,1,3.4,4.39,10.88,10.88,0,0,1,.58,5.44,12.18,12.18,0,0,1-6.13,8.45,15.46,15.46,0,0,1-10,1.69,18.44,18.44,0,0,1-9-3.91,10.72,10.72,0,0,1-2.89-3.8,8.71,8.71,0,0,1-.68-4.6,6.42,6.42,0,0,1,2.05-4,4.87,4.87,0,0,1,7.65.92,6.38,6.38,0,0,1,1,3.95,8.21,8.21,0,0,1-3.83,6.39A11.11,11.11,0,0,1,274.8,95a14.66,14.66,0,0,1-5.87-1.82c-3.38-1.89-5.39-5-5.6-7.73A8,8,0,0,1,265,79.54a6.38,6.38,0,0,1,1.18-1.1l.47-.29a7.76,7.76,0,0,0-1.57,1.46,8,8,0,0,0-1.56,5.77c.24,2.66,2.22,5.68,5.55,7.5a14.3,14.3,0,0,0,5.75,1.75,10.74,10.74,0,0,0,6.48-1.42,7.85,7.85,0,0,0,3.63-6.1,6,6,0,0,0-.95-3.7,4.45,4.45,0,0,0-7-.82,6,6,0,0,0-1.89,3.75,8.2,8.2,0,0,0,.66,4.35,10.21,10.21,0,0,0,2.78,3.63,17.92,17.92,0,0,0,8.73,3.78,15,15,0,0,0,9.7-1.64,11.69,11.69,0,0,0,5.87-8.09,10.32,10.32,0,0,0-.56-5.18,8.78,8.78,0,0,0-3.2-4.14,5.9,5.9,0,0,0-5-.94A4.58,4.58,0,0,0,292,79.56a6,6,0,0,0-1.13,2.29,6.66,6.66,0,0,0-.14,2.55,7.3,7.3,0,0,0,.84,2.4,11.54,11.54,0,0,0,3.47,3.72,19.8,19.8,0,0,0,9.36,3.37,21.32,21.32,0,0,0,9.49-1.26,16.53,16.53,0,0,0,7.38-5.22,7.93,7.93,0,0,0,1.6-4,6,6,0,0,0-1.08-3.93,4.37,4.37,0,0,0-3.29-2,4.74,4.74,0,0,0-3.48,1.39,5.75,5.75,0,0,0-1.68,3.26,8.45,8.45,0,0,0,.19,3.58,11.38,11.38,0,0,0,3.55,5.63,12.31,12.31,0,0,0,5.32,2.75,10.88,10.88,0,0,0,5.21,0,12.09,12.09,0,0,0,4-1.87,12.37,12.37,0,0,0,4-4.63,10.87,10.87,0,0,0,.6-1.49C336.3,85.78,336.37,85.6,336.37,85.6Z"/><path class="cls-4" d="M355.93,105.32s0,.06-.13.14a3.32,3.32,0,0,1-.44.37,7.4,7.4,0,0,1-1.92,1.07,8.55,8.55,0,0,1-3.44.58,8,8,0,0,1-4.37-1.44,8.71,8.71,0,0,1-3.35-4.46,5.52,5.52,0,0,1-.25-3.16,2.71,2.71,0,0,1,.9-1.49,1.79,1.79,0,0,1,1.81-.22A2.69,2.69,0,0,1,346,98a4.48,4.48,0,0,1,.43,1.78,7.76,7.76,0,0,1-.82,3.58,7.85,7.85,0,0,1-6.05,4.42,8,8,0,0,1-7.05-2.58,4.27,4.27,0,0,1-1-3.54,3,3,0,0,1,2.45-2.51,3.48,3.48,0,0,1,3.12,1.28,4.71,4.71,0,0,1,.95,3,6.53,6.53,0,0,1-2.53,4.94,6.27,6.27,0,0,1-4.37,1.39,6.91,6.91,0,0,1-3.29-1.17,6.34,6.34,0,0,1-1.57-1.54,3.53,3.53,0,0,1-.37-.67,7.79,7.79,0,0,0,2.05,2,6.83,6.83,0,0,0,3.19,1.05,6,6,0,0,0,4.13-1.39,6.16,6.16,0,0,0,2.33-4.65,4.22,4.22,0,0,0-.88-2.74,3,3,0,0,0-2.69-1.1,2.53,2.53,0,0,0-2,2.13,3.78,3.78,0,0,0,.95,3.12,7.44,7.44,0,0,0,12.24-1.73,7.52,7.52,0,0,0,.79-3.35,3.08,3.08,0,0,0-1.4-2.68,1.33,1.33,0,0,0-1.33.15,2.2,2.2,0,0,0-.74,1.23,5.11,5.11,0,0,0,.21,2.92,8.45,8.45,0,0,0,3.15,4.29,7.81,7.81,0,0,0,4.18,1.45,8.54,8.54,0,0,0,3.35-.48A10.6,10.6,0,0,0,355.93,105.32Z"/><polygon class="cls-4" points="282 305.75 365.88 307.19 366.82 364.26 280.01 361.33 282 305.75"/><polyline class="cls-5" points="282 305.75 325.42 272.34 365.88 307.19"/><path class="cls-5" d="M280,361.34c-.11-.11,6.79-7.27,15.39-16s15.66-15.74,15.77-15.64-6.79,7.27-15.4,16S280.11,361.44,280,361.34Z"/><path class="cls-5" d="M366.82,364.26c-.11.1-6.47-7.24-14.21-16.39s-13.92-16.64-13.81-16.74,6.47,7.25,14.21,16.4S366.93,364.17,366.82,364.26Z"/><polyline class="cls-5" points="365.88 307.19 322.95 339.8 282 305.75"/><polygon class="cls-1" points="286.15 308.97 286.63 284.57 360.12 284.57 360.27 311.28 322.95 339.36 286.15 308.97"/><path class="cls-10" d="M281.27,326.3S280,339,283.08,338.92c5.37-.1,25.94-5.38,27.38-1.42s-5.26,7.67-5.26,7.67,6.57,1.24,3.34,4.66-14.26,20.28-21.35,20.62c-10.2.51-23.33-2.93-23.33-2.93l5.36-37.15Z"/><path class="cls-11" d="M307.7,343.3a4.87,4.87,0,0,1-.88.62c-.57.37-1.43.88-2.51,1.46a62.19,62.19,0,0,1-18.05,6.4c-1.21.23-2.2.38-2.88.45a3.94,3.94,0,0,1-1.07.07c0-.08,1.49-.34,3.87-.87a78.94,78.94,0,0,0,18-6.37C306.33,344,307.65,343.23,307.7,343.3Z"/><path class="cls-11" d="M307.14,352.24a4.56,4.56,0,0,1-.73.78,26.65,26.65,0,0,1-2.2,1.91,38,38,0,0,1-8.27,4.88,37.62,37.62,0,0,1-9.24,2.6,28.08,28.08,0,0,1-2.89.28,4,4,0,0,1-1.07,0c0-.09,1.5-.19,3.9-.62A41.85,41.85,0,0,0,304,354.63C306,353.2,307.08,352.17,307.14,352.24Z"/><path class="cls-10" d="M366.19,326s1.14,10.58-2.88,12c-5.06,1.78-25.94-5.38-27.38-1.42s5.25,7.67,5.25,7.67-6.57,1.24-3.33,4.66,14.26,20.28,21.35,20.62a105.49,105.49,0,0,0,20.88-1.43l-2.92-38.65Z"/><path class="cls-11" d="M338.69,342.39c0-.07,1.37.67,3.56,1.76a83.55,83.55,0,0,0,8.78,3.73,81.61,81.61,0,0,0,9.17,2.63c2.39.54,3.89.8,3.87.88a3.86,3.86,0,0,1-1.06-.07c-.69-.07-1.67-.22-2.88-.45a62.19,62.19,0,0,1-18.05-6.4c-1.08-.59-1.94-1.09-2.52-1.46A4.12,4.12,0,0,1,338.69,342.39Z"/><path class="cls-11" d="M339.84,351.33c.06-.06,1.16.93,3.08,2.36a42.53,42.53,0,0,0,8,4.72,40.09,40.09,0,0,0,8.89,2.74c2.35.42,3.83.52,3.83.61a3.92,3.92,0,0,1-1,0,24.18,24.18,0,0,1-2.84-.27,35.41,35.41,0,0,1-9-2.62,37.1,37.1,0,0,1-8-4.91,24.72,24.72,0,0,1-2.14-1.88C340.07,351.63,339.81,351.36,339.84,351.33Z"/><path class="cls-4" d="M156.6,228.79a17.87,17.87,0,0,1-4.33.26,17.87,17.87,0,0,1-4.33-.26,18.49,18.49,0,0,1,4.33-.26A18.49,18.49,0,0,1,156.6,228.79Z"/><path class="cls-4" d="M161.2,215a25.88,25.88,0,0,1,.26,5.13,25.94,25.94,0,0,1-.26,5.14,25.07,25.07,0,0,1-.26-5.14A25,25,0,0,1,161.2,215Z"/><path class="cls-4" d="M166.09,228.46a18.49,18.49,0,0,1,4.33-.26,18.49,18.49,0,0,1,4.33.26,17.87,17.87,0,0,1-4.33.26A17.87,17.87,0,0,1,166.09,228.46Z"/><path class="cls-4" d="M161.49,242.23a25.94,25.94,0,0,1-.26-5.14,25.88,25.88,0,0,1,.26-5.13,25,25,0,0,1,.26,5.13A25.07,25.07,0,0,1,161.49,242.23Z"/><path class="cls-4" d="M168.49,236.32c-.11.09-.9-.81-1.75-2a7.08,7.08,0,0,1-1.33-2.31c.12-.08.9.82,1.75,2A7,7,0,0,1,168.49,236.32Z"/><path class="cls-4" d="M168.09,220.71c.11.1-.52,1-1.4,2s-1.69,1.81-1.8,1.72.52-1,1.4-2S168,220.62,168.09,220.71Z"/><path class="cls-4" d="M158.16,224.69c-.1.1-.86-.48-1.7-1.29s-1.44-1.57-1.34-1.67.86.48,1.7,1.29S158.26,224.59,158.16,224.69Z"/><path class="cls-4" d="M157.77,231.57c.12.09-.44,1-1.24,2s-1.54,1.79-1.66,1.7.45-1,1.25-2S157.66,231.48,157.77,231.57Z"/><path class="cls-4" d="M437.62,228.72a16.25,16.25,0,0,1-5.79,0,16.25,16.25,0,0,1,5.79,0Z"/><path class="cls-4" d="M440.7,220.84a16.75,16.75,0,0,1,0,5.88,16.75,16.75,0,0,1,0-5.88Z"/><path class="cls-4" d="M444,228.53a16.25,16.25,0,0,1,5.79,0,16.25,16.25,0,0,1-5.79,0Z"/><path class="cls-4" d="M440.9,236.41a16.75,16.75,0,0,1,0-5.88,16.75,16.75,0,0,1,0,5.88Z"/><path class="cls-4" d="M445.58,233c-.11.09-.66-.38-1.23-1.07s-.94-1.3-.83-1.39.66.38,1.23,1.06S445.69,232.94,445.58,233Z"/><path class="cls-4" d="M445.31,224.1c.1.1-.3.66-.89,1.26s-1.15,1-1.25.89.29-.66.88-1.26S445.21,224,445.31,224.1Z"/><path class="cls-4" d="M438.67,226.37c-.09.11-.62-.18-1.18-.64s-.95-.94-.85-1,.62.18,1.18.65S438.76,226.26,438.67,226.37Z"/><path class="cls-4" d="M438.41,230.31c.11.1-.24.65-.78,1.24s-1.05,1-1.16.89.24-.65.78-1.24S438.3,230.21,438.41,230.31Z"/><path class="cls-4" d="M478.53,225.09l.28.69a4.86,4.86,0,0,0,2.65,2.62l.74.3-.71.29a4.83,4.83,0,0,0-2.67,2.67l-.2.5-.3-.62a4.85,4.85,0,0,0-2.7-2.45l-.65-.24.85-.41a4.84,4.84,0,0,0,2.35-2.49Z"/><path class="cls-4" d="M200.18,225.09l.29.69a4.84,4.84,0,0,0,2.64,2.62l.75.3-.72.29a4.84,4.84,0,0,0-2.66,2.67l-.2.5-.3-.62a4.83,4.83,0,0,0-2.71-2.45l-.64-.24.84-.41a4.86,4.86,0,0,0,2.36-2.49Z"/><path class="cls-4" d="M164.86,226.86l.14.34a2.41,2.41,0,0,0,1.33,1.31l.37.15-.36.15a2.41,2.41,0,0,0-1.33,1.33l-.1.25-.15-.31a2.38,2.38,0,0,0-1.35-1.22l-.33-.12.43-.21a2.42,2.42,0,0,0,1.18-1.24Z"/><path class="cls-4" d="M406.69,225.09l.29.69a4.81,4.81,0,0,0,2.64,2.62l.74.3-.71.29a4.86,4.86,0,0,0-2.67,2.67l-.2.5-.3-.62a4.78,4.78,0,0,0-2.7-2.45l-.65-.24.85-.41a4.9,4.9,0,0,0,2.36-2.49Z"/><path class="cls-12" d="M296.11,302.33a3.2,3.2,0,0,1-4.43-3.3c0-4.07,3.79-7.67,5.93-8.37a2.77,2.77,0,0,1,2.56.11,2.52,2.52,0,0,1,1,1.35,2.19,2.19,0,0,1-.13,1.65c-.23.51-.53,1.26-.74,1.81,0,.16-.19.29-.4.1a1.54,1.54,0,0,1-.49-1.8c.25-.95.95-2,.53-2.43-.6-.62-3.69,1-5.49,3.75s-1.71,5.58-.95,6.28c1,1,3.26-.46,4.41-2.75-.6.11-1.21.23-1.66.27a1.66,1.66,0,0,1-1.82-.91c-.1-.19,0-.31.19-.31,1.48,0,2.92-.49,4.07-.51a1.67,1.67,0,0,1,1.73,1c.09.21.05.34-.19.3a6.13,6.13,0,0,0-1.33,0C299.37,300.36,297.06,302.06,296.11,302.33Z"/><path class="cls-12" d="M305.63,295.36c.23-.16.38-.19.51,0,.36.4.81,1.23.27,1.86a10,10,0,0,0-2.09,3.14c-.3,1-.08,1.73.47,1.74.74,0,1.65-1.13,2.26-2.5.07-.15.19-.17.26,0a1.62,1.62,0,0,1-.09,1.18,2.86,2.86,0,0,1-2.54,1.86c-1.36-.06-1.91-1.31-1.44-2.73a11.92,11.92,0,0,1,2.27-3.47,4.08,4.08,0,0,1-2.21.72c-.72,1.33-2.54,4-2.9,5.74,0,.17-.15.27-.32.1a2,2,0,0,1,0-2.41c.43-.83,1.7-2.62,2.4-3.62-1.08-.7.57-2.94,1.27-3s.44,1.08,0,2.28A4.58,4.58,0,0,0,305.63,295.36Z"/><path class="cls-12" d="M313.63,294.9c.17-.24.32-.28.45-.11a2.06,2.06,0,0,1,0,2.1c-.42.85-1.36,2.28-1.82,3.28s-.49,1.88.15,1.84,1.82-1.33,2.49-2.64c.09-.17.22-.19.3,0a1.64,1.64,0,0,1-.17,1.17,3.41,3.41,0,0,1-2.73,2,1.48,1.48,0,0,1-1.55-1.56,3.32,3.32,0,0,1-2.37,1.48c-1.76,0-2.13-2.4-.55-4.7s3-3.09,4-3.09a1.16,1.16,0,0,1,1.15,1.37A12.72,12.72,0,0,1,313.63,294.9Zm-1.52.78c-.61-.06-2,1.17-3,2.86s-1.25,3.3-.51,3.32,1.76-1.2,2.72-2.86C312.49,296.91,312.66,295.74,312.11,295.68Z"/><path class="cls-12" d="M319.88,302c.78,0,1.8-1.31,2.46-2.62.1-.17.23-.17.31,0a1.74,1.74,0,0,1-.15,1.18,3.4,3.4,0,0,1-2.73,2,1.43,1.43,0,0,1-1.54-1.52,3.36,3.36,0,0,1-2.35,1.46c-1.76,0-2.1-2.4-.55-4.68s3-3.05,4-3.05a1.13,1.13,0,0,1,1.14,1.29c1-2,2.46-4.53,3.15-5.5.18-.26.35-.24.45,0,.27.63.21,1.44-.59,2.86-.91,1.63-2.73,4.76-3.67,6.77C319.25,301.27,319.24,302.05,319.88,302Zm-3.3-3.45c-1,1.63-1.23,3.28-.49,3.3s1.78-1.1,2.67-2.83c1.1-2.1,1.39-3.29.83-3.31S317.62,296.89,316.58,298.56Z"/><path class="cls-12" d="M323,302.46c-1.35-.09-1.39-1.49-1-2.74a20.51,20.51,0,0,1,2.62-4.84.28.28,0,0,1,.49,0c.42.63.32,1.48-.36,2.56a19.87,19.87,0,0,0-1.48,2.79c-.4.93-.34,1.61.1,1.65.74.05,1.78-1.27,2.8-2.92,1.19-1.93,1.74-3.24,2.35-4.06.19-.26.32-.3.47-.11a2.07,2.07,0,0,1,0,2.12c-.41.85-1.36,2.28-1.8,3.24s-.41,1.88.27,1.84,1.76-1.29,2.5-2.61c.1-.18.27-.19.34,0a1.59,1.59,0,0,1-.17,1.19,3.62,3.62,0,0,1-2.84,2,1.46,1.46,0,0,1-1.57-1.88C325.07,301.57,324.07,302.54,323,302.46Z"/><path class="cls-12" d="M336.5,294.9c.17-.24.32-.28.46-.11a2.08,2.08,0,0,1,0,2.1c-.42.85-1.37,2.28-1.82,3.28s-.49,1.88.15,1.84,1.82-1.33,2.48-2.64c.1-.17.23-.19.31,0a1.72,1.72,0,0,1-.18,1.17,3.39,3.39,0,0,1-2.72,2A1.48,1.48,0,0,1,333.6,301a3.3,3.3,0,0,1-2.37,1.48c-1.76,0-2.12-2.4-.55-4.7s3-3.09,4-3.09a1.16,1.16,0,0,1,1.16,1.37A12.89,12.89,0,0,1,336.5,294.9Zm-1.51.78c-.61-.06-2,1.17-3,2.86s-1.25,3.3-.51,3.32,1.76-1.2,2.73-2.86C335.36,296.91,335.53,295.74,335,295.68Z"/><path class="cls-12" d="M338.53,294.35c-.19-.26-.08-.4.21-.38a11.64,11.64,0,0,0,1.57-.07,24.74,24.74,0,0,1,1.44-2.35c.17-.25.36-.23.46,0a2.64,2.64,0,0,1-.25,2.14,1.17,1.17,0,0,1,1.17.57c.14.22.06.36-.22.36a5.76,5.76,0,0,0-1.48.07c-.74,1.27-1.82,3.11-2.54,4.7-.63,1.39-.42,2.56.38,2.6s1.93-1.31,2.63-2.73c.12-.23.33-.26.4,0a1.55,1.55,0,0,1-.19,1.08c-.25.55-1.5,2.22-3,2.16-1.25,0-2.26-1.44-1.35-3.62.4-.95,1.2-2.54,2-4A1.56,1.56,0,0,1,338.53,294.35Z"/><path class="cls-12" d="M341.49,299.73a23.15,23.15,0,0,1,2.42-4.6c.17-.23.31-.28.46-.11a2,2,0,0,1,0,2.06c-.4.83-1.2,2.12-1.59,3.07-.46,1.1-.42,1.84.19,1.8.85,0,1.89-1.29,2.46-2.59.09-.18.23-.16.3,0a1.33,1.33,0,0,1-.13,1.17,3.38,3.38,0,0,1-2.82,2C341.32,302.5,341,301.29,341.49,299.73Zm4.22-4.94c-.24.26-.77.21-1.06-.29a1.17,1.17,0,0,1,.1-1.4c.3-.32.85-.09,1.1.42A1.15,1.15,0,0,1,345.71,294.79Z"/><path class="cls-12" d="M357.05,302.54c-1.58,0-2-1.18-1.43-2.79.65-1.85,2.3-3.86,2-4s-1.28.42-2.5,1.75a17.62,17.62,0,0,0-2.76,4.79c-.06.13-.19.25-.36.06a1.83,1.83,0,0,1-.16-1.93,17.28,17.28,0,0,1,1.2-2.58,2.8,2.8,0,0,1-1.76.47c-.38,1.61-1.6,3.56-3,4a2,2,0,0,1-2.39-.8c-.83-1.11-.55-2.78.31-4.26a4.45,4.45,0,0,1,3-2.46,1.23,1.23,0,0,1,1.27.62c.45.61,1,.72.91,2.09a2.12,2.12,0,0,1,0,.34c1.19,0,2.43-1.4,3.45-3,.13-.21.28-.21.4,0a2.21,2.21,0,0,1,.07,1.78c.86-.89,2.11-1.91,2.75-1.83a1.36,1.36,0,0,1,.74,2c-.42.86-1.31,2.22-1.76,3.21s-.4,1.93.32,1.91,1.65-1.25,2.39-2.61a.17.17,0,0,1,.32,0,1.53,1.53,0,0,1-.19,1.19A3.47,3.47,0,0,1,357.05,302.54Zm-8.27-6.33a7.27,7.27,0,0,0-1.48,1.8c-.83,1.42-1.09,3.18-.58,3.6s1.68-.25,2.59-1.95a9.36,9.36,0,0,0,.7-1.61A2.34,2.34,0,0,1,348.78,296.21Zm1.48,0c-.09-.61-.49-.49-.57.06a1.47,1.47,0,0,0,.46,1.27A3.84,3.84,0,0,0,350.26,296.21Z"/><polygon class="cls-13" points="208.19 71.44 295.48 46.44 386.29 47.2 386.58 49.33 299.28 74.33 208.48 73.57 208.19 71.44"/><polygon class="cls-14" points="208.48 73.57 295.77 48.57 386.58 49.33 299.28 74.33 208.48 73.57"/><path class="cls-15" d="M259.18,69.16l77.36-10.53,8.17,30.6c-14.43,2-30.93-6.14-45.36-4.18-14,1.9-25.89,13.87-39.87,15.78Z"/><path class="cls-15" d="M298.72,70.25c21.3-2.9,38.3-8.08,37.83-11.52s-18.23-3.89-39.53-1-38.3,8.08-37.83,11.52S277.41,73.15,298.72,70.25Z"/><path class="cls-16" d="M373.85,47.1l1.68,12.31,7.49,55a1.35,1.35,0,0,0,1.51,1.15h0a1.35,1.35,0,0,0,1.15-1.51l-9.16-67.33-.19-1.33a1.35,1.35,0,0,0-1.51-1.15l-1.33.18-18.41,2.51Z"/><path class="cls-16" d="M382.12,98.54c4.65-.63,11.39,20.06,4,29.76C376.33,120.89,377.44,99.18,382.12,98.54Z"/><rect class="cls-17" x="379.96" y="97.07" width="4.37" height="2.52" rx="1.26" transform="translate(-9.77 52.43) rotate(-7.75)"/><path class="cls-18" d="M335.12,64.07c-19.83,11.15-44.6,19.48-72,23.21-1.25.17-2.49.33-3.74.48l.12,12.83c.4-3.47,18.78-8.69,41.77-11.82s42.11-3,43.41.22L337.79,63.3l-.18-.67C336.79,63.12,336,63.59,335.12,64.07Z"/></svg>