<svg xmlns="http://www.w3.org/2000/svg" viewBox="0 0 623.19 432.88"><defs><style>.cls-1{isolation:isolate;}.cls-13,.cls-2{fill:#91d8f4;}.cls-3{fill:#f4f8fd;}.cls-4{fill:#f5fbfe;}.cls-5{fill:#fff;}.cls-6{fill:#e4ecf8;}.cls-7{fill:#f1f6fc;}.cls-8{fill:#ce7a63;}.cls-9{fill:#13274c;}.cls-10{fill:#bc6754;}.cls-11{fill:#0c1c34;}.cls-12{fill:#bb4e3d;}.cls-13,.cls-14,.cls-15{opacity:0.9;}.cls-14,.cls-15{fill:#dde8f6;}.cls-15{mix-blend-mode:multiply;}.cls-16{opacity:0.56;}</style></defs><title>know</title><g class="cls-1"><g id="Layer_1" data-name="Layer 1"><rect class="cls-2" x="30.56" y="371.1" width="541.36" height="0.27"/><rect class="cls-2" x="396.36" y="383.19" width="11.35" height="0.27"/><rect class="cls-2" x="100.87" y="377.78" width="43.58" height="0.27"/><rect class="cls-2" x="166.1" y="378.57" width="64.05" height="0.27"/><rect class="cls-2" x="303.37" y="378.57" width="18.44" height="0.27"/><rect class="cls-2" x="454.39" y="380.29" width="59.12" height="0.27"/><rect class="cls-2" x="253.84" y="384.75" width="24.42" height="0.27"/><rect class="cls-2" x="519.82" y="380.42" width="15.5" height="0.27"/><path class="cls-2" d="M287.18,322.82H78.11a6.19,6.19,0,0,1-6.18-6.18V22.75a6.18,6.18,0,0,1,6.18-6.18H287.18a6.18,6.18,0,0,1,6.18,6.18V316.64A6.19,6.19,0,0,1,287.18,322.82ZM78.11,16.84a5.92,5.92,0,0,0-5.91,5.91V316.64a5.91,5.91,0,0,0,5.91,5.9H287.18a5.91,5.91,0,0,0,5.91-5.9V22.75a5.92,5.92,0,0,0-5.91-5.91Z"/><path class="cls-2" d="M521.37,322.82H312.3a6.19,6.19,0,0,1-6.18-6.18V22.75a6.18,6.18,0,0,1,6.18-6.18H521.37a6.18,6.18,0,0,1,6.18,6.18V316.64A6.19,6.19,0,0,1,521.37,322.82ZM312.3,16.84a5.92,5.92,0,0,0-5.91,5.91V316.64a5.91,5.91,0,0,0,5.91,5.9H521.37a5.91,5.91,0,0,0,5.91-5.9V22.75a5.92,5.92,0,0,0-5.91-5.91Z"/><rect class="cls-2" x="109.4" y="36.79" width="147.55" height="171.93" transform="translate(366.35 245.52) rotate(180)"/><rect class="cls-3" x="105.39" y="36.79" width="149.69" height="171.93" transform="translate(360.47 245.52) rotate(180)"/><rect class="cls-2" x="109.4" y="208.73" width="147.55" height="9.63" transform="translate(366.35 427.09) rotate(180)"/><rect class="cls-3" x="87.06" y="208.73" width="140.91" height="9.63" transform="translate(315.02 427.09) rotate(180)"/><rect class="cls-4" x="101.56" y="53.53" width="157.35" height="138.46" transform="translate(302.99 -57.47) rotate(90)"/><polygon class="cls-5" points="229.54 201.43 196.59 44.09 153.39 44.09 186.35 201.43 229.54 201.43"/><polygon class="cls-5" points="179.35 201.43 146.4 44.09 126.89 44.09 159.85 201.43 179.35 201.43"/><rect class="cls-2" x="40.43" y="113.68" width="141.87" height="0.71" transform="translate(225.39 2.68) rotate(90)"/><path class="cls-2" d="M261.17,36.55V97.76H245s-29.1-19-35.71-58a6.49,6.49,0,0,1,6.38-7.59h41.12A4.41,4.41,0,0,1,261.17,36.55Z"/><path class="cls-2" d="M261.17,195.89V102.7H245s-9.31,18.81-18.6,40.45a37.84,37.84,0,0,0,34.8,52.74Z"/><rect class="cls-3" x="243.82" y="97.76" width="18.37" height="4.94" rx="1.05" transform="translate(506.02 200.46) rotate(-180)"/><path class="cls-2" d="M100.8,36.55V97.76H117s29.1-19,35.71-58a6.49,6.49,0,0,0-6.38-7.59H105.21A4.41,4.41,0,0,0,100.8,36.55Z"/><path class="cls-2" d="M100.8,195.89V102.7H117s9.31,18.81,18.6,40.45a37.84,37.84,0,0,1-34.8,52.74Z"/><rect class="cls-3" x="99.78" y="97.76" width="18.37" height="4.94" rx="1.05"/><rect class="cls-2" x="430.48" y="57.9" width="65" height="117.19" transform="translate(925.96 232.99) rotate(180)"/><rect class="cls-3" x="423.2" y="57.9" width="70.62" height="117.19" transform="translate(917.02 232.99) rotate(180)"/><rect class="cls-5" x="407.2" y="88.47" width="102.62" height="56.05" transform="translate(575 -342.01) rotate(90)"/><rect class="cls-3" x="450.92" y="85.03" width="15.17" height="16.88" transform="translate(551.98 -365.03) rotate(90)"/><rect class="cls-3" x="450.92" y="108.05" width="15.17" height="16.88" transform="translate(575 -342.01) rotate(90)"/><rect class="cls-3" x="450.92" y="131.07" width="15.17" height="16.88" transform="translate(598.02 -318.99) rotate(90)"/><path class="cls-2" d="M361,147.67a35.55,35.55,0,0,0,0-71.1h-2.19v71.1Z"/><circle class="cls-3" cx="358.78" cy="112.12" r="35.55" transform="translate(-16.25 86.69) rotate(-13.48)"/><circle class="cls-5" cx="358.78" cy="112.12" r="26.8" transform="translate(-13.39 59.39) rotate(-9.29)"/><polygon class="cls-2" points="347.69 122.08 345.6 119.09 356.75 111.31 353.07 93.41 356.65 92.67 360.81 112.93 347.69 122.08"/><rect class="cls-2" x="185.93" y="249.41" width="46.46" height="125.53" transform="translate(418.33 624.35) rotate(180)"/><polygon class="cls-3" points="198.34 374.94 185.93 374.94 185.93 354.15 211.35 354.15 198.34 374.94"/><rect class="cls-2" x="464.47" y="249.41" width="46.46" height="125.53" transform="translate(975.4 624.35) rotate(180)"/><rect class="cls-3" x="185.93" y="249.41" width="289.36" height="118.37" transform="translate(661.23 617.19) rotate(180)"/><polygon class="cls-3" points="462.89 374.94 475.3 374.94 475.3 354.15 449.88 354.15 462.89 374.94"/><rect class="cls-6" x="195.56" y="259.59" width="270.12" height="43.57" transform="translate(661.23 562.75) rotate(180)"/><rect class="cls-6" x="195.56" y="313.69" width="270.12" height="43.57" transform="translate(661.23 670.94) rotate(180)"/><circle class="cls-3" cx="394.25" cy="227.45" r="9.7"/><path class="cls-3" d="M401.09,232.07a7.58,7.58,0,1,0,7.58-7.58A7.58,7.58,0,0,0,401.09,232.07Z"/><circle class="cls-3" cx="377.65" cy="232.07" r="9.7"/><circle class="cls-3" cx="361.74" cy="229.22" r="9.7"/><path class="cls-2" d="M435.38,230.49s-1.33,18.92-52.38,18.92-52.38-18.92-52.38-18.92Z"/><ellipse class="cls-7" cx="301.24" cy="409.39" rx="209.93" ry="12.26"/><polygon class="cls-8" points="193.37 387.33 199.74 393.03 211.84 380.42 205.48 374.72 193.37 387.33"/><polygon class="cls-8" points="215.17 399.19 223.19 399.19 224.24 380.6 216.21 380.6 215.17 399.19"/><path class="cls-9" d="M223.62,398.26h-9a.57.57,0,0,0-.6.54l-.44,7.14a1.43,1.43,0,0,0,1.41,1.43c3.14-.06,4.64-.24,8.6-.24,2.44,0,12.82.25,16.19.25s3.27-3.33,1.84-3.63c-6.4-1.35-14.34-3.22-16.6-5A2.26,2.26,0,0,0,223.62,398.26Z"/><path class="cls-9" d="M201.49,390.74l-7.73-5.21a.73.73,0,0,0-.89,0l-5.91,6a1.18,1.18,0,0,0,.28,1.81c4.94,3.81,8.5,6.67,11.31,9.83,3.29,3.7,5,4.22,12.59,4.22,3.5,0,5.49-2.95,4.06-3.4-12.63-4-9.26-5.74-12.32-11.6A4.41,4.41,0,0,0,201.49,390.74Z"/><path class="cls-8" d="M253.92,132.65c.15.48.39,1.2.61,1.82l.7,1.93c.48,1.29,1,2.57,1.55,3.83a78,78,0,0,0,3.63,7.33c2.66,4.66,5.9,8.87,9.71,11.57l.68.46s0,0,0,0,0,.08.16.1a4.49,4.49,0,0,0,2.09-.57,27,27,0,0,0,6.06-4.4,82.85,82.85,0,0,0,5.94-6c1.94-2.12,3.83-4.41,5.62-6.6l5.16,3.11a76.9,76.9,0,0,1-10,15.89,33.85,33.85,0,0,1-7.7,7,15.13,15.13,0,0,1-6.32,2.31,11,11,0,0,1-6.32-1.23l-1.24-.71a35.26,35.26,0,0,1-8.14-6.71,51.77,51.77,0,0,1-6-8,68.07,68.07,0,0,1-4.51-8.62c-.65-1.47-1.24-3-1.8-4.47-.28-.76-.56-1.52-.81-2.29s-.47-1.5-.73-2.46Z"/><path class="cls-2" d="M265.12,151.78l-13.85,7.67s-.41-.6-1.08-1.62c-.49-.76-1.12-1.76-1.84-2.93-4.07-6.61-10.81-18.7-9.07-23.77,2.7-7.89,12.64-7.76,17.52,1.38a142.56,142.56,0,0,1,6.34,14c.51,1.28.93,2.39,1.25,3.26C264.86,151,265.12,151.78,265.12,151.78Z"/><path class="cls-2" d="M264.39,149.78l-14.2,8.05c-.49-.76-1.12-1.76-1.84-2.93l14.79-8.38C263.65,147.8,264.07,148.91,264.39,149.78Z"/><path class="cls-2" d="M239.08,132c3.09-1.49,6.66-.24,10.41,5.69s7,15.84,7.31,18.67l-5.53,3.06S237.93,139.92,239.08,132Z"/><path class="cls-8" d="M289.74,143.43l2.76-8.83,7.17,5.26s-3.91,7.86-6.57,7.15Z"/><polygon class="cls-8" points="300.06 131.22 304.09 136.17 299.67 139.86 292.5 134.6 300.06 131.22"/><polygon class="cls-10" points="211.84 380.42 205.6 386.92 199.23 381.22 205.47 374.72 211.84 380.42"/><polygon class="cls-10" points="216.21 380.6 224.24 380.6 223.7 390.18 215.67 390.18 216.21 380.6"/><path class="cls-2" d="M251.92,195.42H209c-.3-3.83.58-16.31-.08-32.19a204,204,0,0,0-4.26-35c-.2-.86-.39-1.72-.6-2.58,0,0,2.18-.45,5.3-.9,2.58-.38,5.83-.77,9-.92a158.45,158.45,0,0,1,18.24,0c2.8.26,5.54.72,7.73,1.14,2.79.57,4.7,1.09,4.7,1.09S259.36,150.28,251.92,195.42Z"/><path class="cls-2" d="M208.91,163.23a204,204,0,0,0-4.26-35c2.87-.25,7.77,0,8.58,4.66C214.11,137.86,213,149.58,208.91,163.23Z"/><path class="cls-9" d="M251.51,195s8.45,58.53,11.34,90.39c2.32,25.55-53,101.81-53,101.81L199.2,377.15s40.37-68.33,37.26-96.78c-3-27.56-13.21-85.36-13.21-85.36Z"/><path class="cls-11" d="M236.46,280.36c-1.55-14.19-5-36.43-8-54.64,1.56-3.06,5.93-9.24,5.93-9.24,3.92,13.55,12.44,64.61.28,133.57C222,370.47,209.89,387.2,209.89,387.2l-1.66-26.33C219.94,338.85,238.61,300.06,236.46,280.36Z"/><polygon class="cls-2" points="198.55 376.54 210.54 387.82 214.4 383.68 200.69 371.18 198.55 376.54"/><path class="cls-9" d="M236.24,195s.77,61.34-.54,84.32c-1.42,25.17-8.56,108.54-8.56,108.54h-14.7s.44-81.34-.45-106.26c-1-27-3.45-86.6-3.45-86.6Z"/><polygon class="cls-2" points="211.84 387.87 227.73 387.87 228.61 382.29 211.08 383.16 211.84 387.87"/><path class="cls-8" d="M211.84,137.28l-1.91,3.29c-.64,1.12-1.27,2.26-1.88,3.41q-1.85,3.44-3.56,6.92c-1.11,2.33-2.17,4.67-3.12,7a68.39,68.39,0,0,0-2.44,7l-.13.44-.06.22c0,.07,0,0,0,0s0,.1-.06.2a4.16,4.16,0,0,0,0,1,15.46,15.46,0,0,0,.63,3,52.77,52.77,0,0,0,2.75,6.86c2.19,4.65,4.79,9.39,7.42,14l-4.75,3.71A91.24,91.24,0,0,1,194,181.28a51.9,51.9,0,0,1-4.32-7.81,25.71,25.71,0,0,1-1.58-4.82,15.57,15.57,0,0,1-.33-3.05,12.12,12.12,0,0,1,.14-1.84l.07-.45.06-.27.11-.56a78.73,78.73,0,0,1,5.37-16.61c1.14-2.62,2.38-5.17,3.71-7.68.67-1.25,1.35-2.48,2.06-3.72s1.42-2.41,2.27-3.72Z"/><path class="cls-2" d="M214.71,140.24a151.52,151.52,0,0,1-7,16.3c-.57,1.19-1.1,2.25-1.53,3.1-.76,1.51-1.24,2.42-1.24,2.42l-16.26-9,.57-1.83c.29-.86.65-2,1.11-3.31,2.7-7.72,8.24-21.49,13.66-22.28C212.16,124.45,218,130.51,214.71,140.24Z"/><path class="cls-2" d="M207.74,156.54c-.57,1.19-1.1,2.25-1.53,3.1l-16.93-8.42c.29-.86.65-2,1.11-3.31Z"/><path class="cls-2" d="M244,130.05c-.87,2.87-3.3,6.71-9.91,8.67l-1.73.52-1.77-.32C217,136.49,212,129.2,211.17,127.76l-1.82-3c2.58-.38,5.83-.77,9-.92a158.45,158.45,0,0,1,18.24,0c2.8.26,5.54.72,7.73,1.14A11.16,11.16,0,0,1,244,130.05Z"/><path class="cls-8" d="M232,131.46c-10.88-2-14.29-7.61-14.29-7.61,4-3.92,2.45-14.63,1.1-20.51l4.88,4,6.65,5.52a21.47,21.47,0,0,0-.43,2.69c-.35,3.61.58,6.89,5.88,8.14C235.74,123.74,240.14,129,232,131.46Z"/><path class="cls-10" d="M230.29,112.91a21.47,21.47,0,0,0-.43,2.69c-2.48-.5-5.79-3.14-6.13-5.67a11.32,11.32,0,0,1-.09-2.54Z"/><path class="cls-9" d="M234.8,82.83c3.95,1.79,6.16,12.94,1.12,15.33S227.3,79.44,234.8,82.83Z"/><path class="cls-8" d="M216.74,94.89c1.7,7.8,2.3,12.44,6.91,16a10.39,10.39,0,0,0,16.8-7.48c.6-7.27-2.28-18.81-10.49-21A10.51,10.51,0,0,0,216.74,94.89Z"/><path class="cls-9" d="M207.68,87.14c-3.79,1.69-1.64,6.88.94,10.19,3.59,4.59,7.38,6.73,10,4.61,2.32-1.16,3.84-8,1.82-12.2,3.57-2.34,11,.55,13.27-3.27s4-3.48,8-1,7.31-7.42-3.26-9.27c5.84,2.63,4.5,7.76.22,2.5-3-3.7-10.26-7.79-15.29-2.27C219.65,80.51,206.6,74.29,207.68,87.14Z"/><path class="cls-8" d="M214.94,103a8.59,8.59,0,0,0,5,3c2.46.42,3-1.86,1.76-4.06-1.12-2-3.76-4.59-6-4S213.35,101.12,214.94,103Z"/><path class="cls-9" d="M229.06,95.66c.1.64.52,1.12.94,1.07s.68-.61.58-1.25-.52-1.12-.94-1.07S229,95,229.06,95.66Z"/><path class="cls-9" d="M236.32,94.8c.1.64.52,1.12.94,1.07s.68-.61.59-1.25-.52-1.12-.94-1.07S236.23,94.16,236.32,94.8Z"/><path class="cls-12" d="M234.06,95.39A24.06,24.06,0,0,0,238,100.5a3.69,3.69,0,0,1-3,.94Z"/><path class="cls-9" d="M232.64,103.48a5.56,5.56,0,0,1-4-1.67.19.19,0,0,1,0-.26.19.19,0,0,1,.27,0,5.33,5.33,0,0,0,4.46,1.49.21.21,0,0,1,.22.17.19.19,0,0,1-.17.21A6.59,6.59,0,0,1,232.64,103.48Z"/><path class="cls-9" d="M226.45,93.59a.29.29,0,0,1-.18,0,.37.37,0,0,1-.15-.51A3.68,3.68,0,0,1,229,91.1a.37.37,0,0,1,.4.36.38.38,0,0,1-.36.4h0a2.89,2.89,0,0,0-2.22,1.54A.39.39,0,0,1,226.45,93.59Z"/><path class="cls-9" d="M239.06,91.94a.37.37,0,0,1-.31-.17,3.17,3.17,0,0,0-2.4-1.45.38.38,0,1,1,0-.76,3.9,3.9,0,0,1,3,1.78.38.38,0,0,1-.1.53A.36.36,0,0,1,239.06,91.94Z"/><path class="cls-2" d="M226.46,399.65a10.38,10.38,0,0,1-2.14-.28.19.19,0,0,1-.14-.15.2.2,0,0,1,.08-.19c.25-.18,2.53-1.72,3.51-1.34a.7.7,0,0,1,.43.52,1,1,0,0,1-.23,1A2.16,2.16,0,0,1,226.46,399.65Zm-1.62-.55c1.43.28,2.49.24,2.86-.14a.66.66,0,0,0,.14-.66.35.35,0,0,0-.21-.27C227.1,397.83,225.77,398.5,224.84,399.1Z"/><path class="cls-2" d="M224.36,399.37a.11.11,0,0,1-.08,0,.18.18,0,0,1-.1-.15c0-.1-.19-2.41.62-3.19a.93.93,0,0,1,.79-.26.73.73,0,0,1,.68.57c.19.87-1,2.55-1.81,3Zm1.1-3.25a.55.55,0,0,0-.4.16,4.14,4.14,0,0,0-.53,2.55c.7-.59,1.5-1.86,1.37-2.43,0-.11-.08-.24-.35-.28Z"/><path class="cls-2" d="M206.69,395.09a10,10,0,0,1-4-1.54.19.19,0,0,1-.08-.21.18.18,0,0,1,.16-.14c.43,0,4.24-.29,5,.59a.57.57,0,0,1,.12.53.94.94,0,0,1-.57.67A1.5,1.5,0,0,1,206.69,395.09Zm-3.27-1.55c1.73.95,3.1,1.36,3.71,1.11a.6.6,0,0,0,.35-.42.23.23,0,0,0,0-.21C207,393.55,205,393.47,203.42,393.54Z"/><path class="cls-2" d="M202.78,393.57a.18.18,0,0,1-.17-.26c.06-.13,1.51-3.07,3.36-2.19.51.24.56.55.52.76-.19.87-2.6,1.67-3.71,1.69Zm2.5-2.24c-1,0-1.83,1.26-2.17,1.84,1.15-.14,2.9-.86,3-1.37,0-.12-.08-.23-.31-.34A1.18,1.18,0,0,0,205.28,391.33Z"/><path class="cls-8" d="M207.31,188.92l8-1.39-4.1,9.25s-7.29,0-7-3.8Z"/><polygon class="cls-8" points="221.27 192.18 217.51 199.66 211.2 196.78 215.31 187.53 221.27 192.18"/><path class="cls-13" d="M352.06,217.21h0a12.78,12.78,0,0,1,11.45-8H459c5.73,0,9.59,4.64,8.63,10.36L437.43,399.81a12.75,12.75,0,0,1-12.1,10.36H186c-5.72,0-9.58-4.64-8.62-10.36L203,246.34A12.76,12.76,0,0,1,215.13,236H325.34C336.61,236,347.7,228.19,352.06,217.21Z"/><path class="cls-14" d="M314.07,57.14l-72.22,251,165.22,47.54,72.22-251Z"/><circle class="cls-2" cx="346.94" cy="116.57" r="29.78" transform="translate(30.81 301.02) rotate(-48.83)"/><path class="cls-5" d="M340.42,139.25a23.6,23.6,0,1,1,29.2-16.15A23.6,23.6,0,0,1,340.42,139.25Z"/><rect class="cls-2" x="303.07" y="156.31" width="54.72" height="12.3" transform="translate(57.81 -85.04) rotate(16.05)"/><rect class="cls-2" x="270.02" y="251.69" width="30.16" height="47.81" transform="translate(87.33 -68.09) rotate(16.05)"/><rect class="cls-2" x="372.59" y="281.21" width="30.16" height="47.81" transform="translate(99.49 -95.31) rotate(16.05)"/><rect class="cls-2" x="321.3" y="266.45" width="30.16" height="47.81" transform="translate(93.41 -81.7) rotate(16.05)"/><rect class="cls-2" x="362.92" y="170.98" width="37.02" height="12.3" transform="translate(63.86 -98.57) rotate(16.05)"/><rect class="cls-5" x="295.11" y="193.28" width="135.45" height="5.07" transform="translate(68.3 -92.7) rotate(16.05)"/><rect class="cls-5" x="293.46" y="194.21" width="67.35" height="5.07" transform="translate(67.16 -82.79) rotate(16.05)"/><rect class="cls-5" x="369.7" y="212.94" width="45.06" height="5.07" transform="matrix(0.96, 0.28, -0.28, 0.96, 74.88, -100.06)"/><rect class="cls-5" x="289.68" y="210.22" width="108.28" height="5.07" transform="translate(72.24 -86.78) rotate(16.05)"/><rect class="cls-5" x="286.39" y="222.81" width="124.47" height="5.07" transform="translate(75.91 -87.62) rotate(16.05)"/><rect class="cls-5" x="285.56" y="217.94" width="14.38" height="5.07" transform="translate(72.38 -72.36) rotate(16.05)"/><rect class="cls-5" x="309.5" y="231.9" width="63.53" height="5.07" transform="translate(78.13 -85.23) rotate(16.05)"/><rect class="cls-5" x="280.22" y="245.03" width="135.45" height="5.07" transform="matrix(0.96, 0.28, -0.28, 0.96, 82.03, -86.56)"/><path class="cls-15" d="M310.87,68.25l-69,239.86L401.45,354l64.69-248.25Z"/><path class="cls-14" d="M294.84,65.88,231.35,319.2,398.11,361l63.5-253.32Z"/><circle class="cls-2" cx="329.75" cy="124.14" r="29.78" transform="translate(-21.17 155.74) rotate(-25.78)"/><circle class="cls-5" cx="329.75" cy="124.14" r="23.6" transform="translate(148.26 426.15) rotate(-79.63)"/><rect class="cls-2" x="287.48" y="164.42" width="54.72" height="12.3" transform="translate(50.92 -71.43) rotate(14.07)"/><rect class="cls-2" x="258.36" y="261.31" width="30.16" height="47.81" transform="translate(77.55 -57.92) rotate(14.07)"/><rect class="cls-2" x="361.9" y="287.26" width="30.16" height="47.81" transform="translate(86.96 -82.32) rotate(14.07)"/><rect class="cls-2" x="310.13" y="274.28" width="30.16" height="47.81" transform="translate(82.26 -70.12) rotate(14.07)"/><rect class="cls-2" x="347.8" y="177.33" width="37.02" height="12.3" transform="translate(55.6 -83.56) rotate(14.07)"/><rect class="cls-5" x="280.65" y="200.25" width="135.45" height="5.07" transform="translate(59.76 -78.62) rotate(14.07)"/><rect class="cls-5" x="279.05" y="202.42" width="67.35" height="5.07" transform="translate(59.21 -69.88) rotate(14.07)"/><rect class="cls-5" x="355.9" y="218.89" width="45.06" height="5.07" transform="translate(65.19 -85.36) rotate(14.07)"/><rect class="cls-5" x="275.82" y="217.84" width="108.28" height="5.07" transform="translate(63.48 -73.61) rotate(14.07)"/><rect class="cls-5" x="272.96" y="230.26" width="124.47" height="5.07" transform="translate(66.66 -74.51) rotate(14.07)"/><rect class="cls-5" x="271.99" y="227.32" width="14.38" height="5.07" transform="translate(64.26 -60.98) rotate(14.07)"/><rect class="cls-5" x="296.39" y="239.59" width="63.53" height="5.07" transform="translate(68.72 -72.52) rotate(14.07)"/><rect class="cls-5" x="267.56" y="252.49" width="135.45" height="5.07" transform="translate(72.06 -73.87) rotate(14.07)"/><path class="cls-2" d="M288.32,254.84h0c.2-4.06,3.76-6.94,8.59-6.94h95.45c5.72,0,11.24,4,12.31,8.94l28.64,144.39c1.08,4.94-2.69,8.94-8.41,8.94H185.55c-5.72,0-11.24-4-12.31-8.94L149.65,280c-1.08-4.94,2.69-8.94,8.41-8.94H268.27C279.55,271,287.86,264.32,288.32,254.84Z"/><g class="cls-16"><path class="cls-5" d="M249.07,346.46q-6.18,4.62-17.47,5.15l-14.43.66-.41,21.33-14.38.66,1.14-59.34,29.75-1.36q10.29-.48,16.32,3.84t5.85,13.93Q255.23,341.83,249.07,346.46Zm-10.64-20.87q-2.72-1.84-7.67-1.62l-13,.6L217.37,342l13-.6a13,13,0,0,0,7.75-2.48q2.79-2.26,2.88-6.89C241.11,329,240.23,326.82,238.43,325.59Z"/><path class="cls-5" d="M306.07,311.51a21.08,21.08,0,0,1,11.67,7,22.72,22.72,0,0,1,4.75,9.35,38.34,38.34,0,0,1,1.13,9.76q-.22,11.83-5.93,20.3-7.76,11.43-23.46,12.14l-29.88,1.37,1.14-59.34,29.88-1.37A41.24,41.24,0,0,1,306.07,311.51Zm-26.72,10.23-.75,38.73,13.38-.61q10.26-.48,14.48-9.31a27.53,27.53,0,0,0,2.43-11.42q.18-9.06-3.05-13.75t-13.12-4.25Z"/><path class="cls-5" d="M333.1,309.06l49.41-2.26-.2,10.43-35,1.6L347,332.48l30.7-1.41-.19,10.31-30.71,1.4-.47,24.88-14.39.66Z"/></g></g></g></svg>