<svg id="Layer_1" data-name="Layer 1" xmlns="http://www.w3.org/2000/svg" viewBox="0 0 408.24 80.27"><defs><style>.cls-1{fill:#fff;}</style></defs><title> schoolofd</title><path class="cls-1" d="M8.51,26a6.41,6.41,0,0,0,1.21,3.24q1.65,2,5.64,2a11.92,11.92,0,0,0,3.88-.52A3.68,3.68,0,0,0,22.07,27a2.71,2.71,0,0,0-1.39-2.43,15,15,0,0,0-4.39-1.48l-3.43-.75q-5.05-1.12-6.95-2.43c-2.13-1.46-3.2-3.75-3.2-6.85A9.08,9.08,0,0,1,5.84,6Q9,3.19,15,3.19a14.12,14.12,0,0,1,8.65,2.66,9.45,9.45,0,0,1,3.75,7.7H21.08a4.53,4.53,0,0,0-2.55-4.06,8.79,8.79,0,0,0-4-.8,7.56,7.56,0,0,0-4.18,1A3.28,3.28,0,0,0,8.83,12.6a2.72,2.72,0,0,0,1.55,2.54,19.2,19.2,0,0,0,4.2,1.31l5.56,1.31a14.1,14.1,0,0,1,5.48,2.3,7.74,7.74,0,0,1,2.83,6.47,9.07,9.07,0,0,1-3.36,7.2q-3.35,2.88-9.47,2.87T5.78,33.78A9.36,9.36,0,0,1,2.2,26Z"/><path class="cls-1" d="M35.24,7.43A13,13,0,0,1,45,3.52q7.91,0,11.56,5.24a11.39,11.39,0,0,1,2.17,5.91H52.08a9,9,0,0,0-1.62-3.44,6.5,6.5,0,0,0-5.24-2.06,6.48,6.48,0,0,0-5.58,2.91c-1.36,1.94-2,4.68-2,8.24s.72,6.21,2.16,8A6.73,6.73,0,0,0,45.23,31a6.2,6.2,0,0,0,5.19-2.28A9.85,9.85,0,0,0,52.06,25h6.58a14.28,14.28,0,0,1-4.35,8.42,12.67,12.67,0,0,1-9,3.25q-6.75,0-10.63-4.39T30.84,20.21Q30.84,11.92,35.24,7.43Z"/><path class="cls-1" d="M63.06,35.79V4.12h6.58V16.19H82V4.12h6.57V35.79H82V21.65H69.64V35.79Z"/><path class="cls-1" d="M118.39,33c-2.4,2.46-5.85,3.7-10.38,3.7s-8-1.24-10.38-3.7q-4.81-4.53-4.81-13.06,0-8.7,4.81-13.06,3.59-3.7,10.38-3.7c4.53,0,8,1.23,10.38,3.7q4.78,4.35,4.79,13.06Q123.18,28.43,118.39,33Zm-4.14-4.81q2.31-2.91,2.31-8.25t-2.31-8.24a8.19,8.19,0,0,0-12.51,0q-2.35,2.89-2.35,8.25t2.35,8.25a7.65,7.65,0,0,0,6.27,2.9A7.57,7.57,0,0,0,114.25,28.16Z"/><path class="cls-1" d="M151.73,33q-3.58,3.69-10.38,3.7T131,33q-4.81-4.53-4.82-13.06,0-8.7,4.82-13.06,3.59-3.7,10.37-3.7t10.38,3.7q4.78,4.35,4.79,13.06Q156.52,28.43,151.73,33Zm-4.14-4.81q2.31-2.91,2.31-8.25t-2.31-8.24a8.19,8.19,0,0,0-12.51,0q-2.34,2.89-2.34,8.25t2.34,8.25a7.65,7.65,0,0,0,6.27,2.9A7.57,7.57,0,0,0,147.59,28.16Z"/><path class="cls-1" d="M160.69,4.12h6.62v26h15.81v5.7H160.69Z"/><path class="cls-1" d="M211.07,33q-3.58,3.69-10.37,3.7T190.32,33q-4.81-4.53-4.81-13.06,0-8.7,4.81-13.06,3.59-3.7,10.38-3.7t10.37,3.7q4.8,4.35,4.79,13.06Q215.86,28.43,211.07,33Zm-4.13-4.81q2.31-2.91,2.31-8.25t-2.31-8.24a7.55,7.55,0,0,0-6.24-2.91,7.63,7.63,0,0,0-6.28,2.9q-2.34,2.89-2.34,8.25t2.34,8.25a7.66,7.66,0,0,0,6.28,2.9A7.57,7.57,0,0,0,206.94,28.16Z"/><path class="cls-1" d="M220,4.16h22.58V9.72h-16V17h14v5.5h-14V35.79H220Z"/><path class="cls-1" d="M264.58,4.8a10.46,10.46,0,0,1,5.4,4,14,14,0,0,1,2.26,5.12,24.57,24.57,0,0,1,.6,5.24,21,21,0,0,1-2.54,10.7q-3.44,5.91-10.62,5.91H246V4.12h13.65A16.66,16.66,0,0,1,264.58,4.8ZM252.45,9.62V30.29h6.11q4.69,0,6.55-4.62a16.39,16.39,0,0,0,1-6,14.83,14.83,0,0,0-1.52-7.42q-1.52-2.6-6-2.59Z"/><path class="cls-1" d="M300.34,9.72H283.58v6.73H299V22H283.58v8.14h17.54v5.7h-24V4.12h23.22Z"/><path class="cls-1" d="M310.16,26a6.41,6.41,0,0,0,1.21,3.24q1.63,2,5.64,2a12,12,0,0,0,3.88-.52A3.68,3.68,0,0,0,323.72,27a2.71,2.71,0,0,0-1.39-2.43,15,15,0,0,0-4.39-1.48l-3.43-.75q-5.06-1.12-6.95-2.43c-2.13-1.46-3.2-3.75-3.2-6.85A9.08,9.08,0,0,1,307.49,6q3.13-2.82,9.2-2.82a14.12,14.12,0,0,1,8.65,2.66,9.45,9.45,0,0,1,3.75,7.7h-6.36a4.53,4.53,0,0,0-2.56-4.06,8.72,8.72,0,0,0-3.94-.8,7.56,7.56,0,0,0-4.18,1,3.26,3.26,0,0,0-1.57,2.88A2.72,2.72,0,0,0,312,15.14a19.2,19.2,0,0,0,4.2,1.31l5.56,1.31a14.1,14.1,0,0,1,5.48,2.3,7.74,7.74,0,0,1,2.83,6.47,9.07,9.07,0,0,1-3.36,7.2q-3.35,2.88-9.47,2.87t-9.84-2.82A9.36,9.36,0,0,1,303.85,26Z"/><path class="cls-1" d="M339.9,35.79h-6.58V4.12h6.58Z"/><path class="cls-1" d="M366.5,14a6.22,6.22,0,0,0-3.68-4.53,8.91,8.91,0,0,0-3.63-.71,7.89,7.89,0,0,0-6.28,2.88c-1.64,1.92-2.46,4.82-2.46,8.68s.88,6.64,2.66,8.25A8.75,8.75,0,0,0,359.17,31a7.84,7.84,0,0,0,5.46-1.91,8.27,8.27,0,0,0,2.62-5h-7.33V18.79h13.19v17h-4.38l-.67-4A15.32,15.32,0,0,1,364.63,35a12.15,12.15,0,0,1-6.45,1.6,13.37,13.37,0,0,1-10.31-4.36q-4.19-4.38-4.19-12t4.23-12.32A14.43,14.43,0,0,1,359.1,3.3q6,0,9.7,3.06A11.32,11.32,0,0,1,373,14Z"/><path class="cls-1" d="M378.44,4.12h6.94L398,26.2V4.12h6.17V35.79H397.5L384.61,13.32V35.79h-6.17Z"/><path class="cls-1" d="M183,56.85a5.49,5.49,0,0,0-3.25-4,8,8,0,0,0-3.22-.63,7,7,0,0,0-5.57,2.56c-1.46,1.7-2.18,4.27-2.18,7.69s.78,5.88,2.36,7.32a7.75,7.75,0,0,0,5.37,2.14,7,7,0,0,0,4.84-1.69,7.33,7.33,0,0,0,2.32-4.44h-6.5V61.1h11.7V76.16H185l-.59-3.5a13.49,13.49,0,0,1-3,2.8,10.76,10.76,0,0,1-5.72,1.42A11.86,11.86,0,0,1,166.46,73q-3.71-3.88-3.71-10.62t3.75-10.92a12.79,12.79,0,0,1,9.92-4.11,13,13,0,0,1,8.6,2.71,10.13,10.13,0,0,1,3.72,6.77Z"/><path class="cls-1" d="M214.59,51.08a7.12,7.12,0,0,1,1.29,4.28,6.24,6.24,0,0,1-1.3,4.14,7,7,0,0,1-2.14,1.6,6.25,6.25,0,0,1,3.24,2.47,7.42,7.42,0,0,1,1.09,4.12,8.14,8.14,0,0,1-1.25,4.47,7.69,7.69,0,0,1-5.15,3.62,19.75,19.75,0,0,1-4,.38H193.75V48.09h13.57Q212.45,48.17,214.59,51.08ZM199.35,53v6.18h6.82a5.68,5.68,0,0,0,3-.69A2.65,2.65,0,0,0,210.28,56a2.52,2.52,0,0,0-1.51-2.59,10.59,10.59,0,0,0-3.31-.43Zm0,10.83v7.48h6.81a6.67,6.67,0,0,0,2.85-.49,3.53,3.53,0,0,0,1.84-3.5,3,3,0,0,0-1.79-3,6.92,6.92,0,0,0-2.8-.48Z"/><path class="cls-1" d="M223.72,51a11.56,11.56,0,0,1,8.63-3.46q7,0,10.25,4.64a10.19,10.19,0,0,1,1.92,5.24h-5.86a8.18,8.18,0,0,0-1.44-3,5.79,5.79,0,0,0-4.65-1.82,5.72,5.72,0,0,0-4.94,2.58q-1.81,2.58-1.81,7.3t1.91,7.07a6,6,0,0,0,4.85,2.35,5.5,5.5,0,0,0,4.6-2,8.88,8.88,0,0,0,1.46-3.26h5.82a12.57,12.57,0,0,1-3.85,7.46,11.2,11.2,0,0,1-7.94,2.88,11.92,11.92,0,0,1-9.42-3.88c-2.29-2.61-3.43-6.17-3.43-10.71Q219.82,55,223.72,51Z"/><path class="cls-1" d="M400.32,59.63l.45,0Z"/><polygon class="cls-1" points="390.82 59.31 390.99 59.28 389.59 59.34 390.82 59.31"/><path class="cls-1" d="M381.94,59c.84.31,3.22,0,4.8.19l.26.06.72-.15C385.79,59.07,383.3,59.15,381.94,59Z"/><path class="cls-1" d="M377.21,58.08c.29.16-1,.06,1.1.11l-.2,0Z"/><path class="cls-1" d="M378.11,58.14c.94,0-.61-.16,0,0Z"/><path class="cls-1" d="M373.79,58,375,57.9c-.26-.11-1.36-.21-.95-.25C372.82,57.64,373.08,57.77,373.79,58Z"/><path class="cls-1" d="M372.63,58.22l.63,0A.91.91,0,0,0,372.63,58.22Z"/><path class="cls-1" d="M374.62,58.13l-1.36.06c.18.08.2.21.63,0C373.77,58.29,374,58.18,374.62,58.13Z"/><path class="cls-1" d="M375.38,58.23c.7.12,1.59.21.35.29C378.09,58.57,377.74,58.31,375.38,58.23Z"/><path class="cls-1" d="M381.49,59.33l.92.1.8-.08C382.81,59.39,381.43,59.24,381.49,59.33Z"/><path class="cls-1" d="M366.12,57.27c-.08.11.42.32.51.47l.91-.08C367.07,57.56,366.18,57.44,366.12,57.27Z"/><path class="cls-1" d="M366.63,57.74l-1.36.13C366.48,57.94,366.7,57.86,366.63,57.74Z"/><path class="cls-1" d="M372.41,58.7l2.23-.24c-.89.07-1.78.14-2.66.23Z"/><polygon class="cls-1" points="360.92 56.93 361.69 56.69 360.32 57.05 360.92 56.93"/><path class="cls-1" d="M357.47,56.78c.57-.22-.78-.49-.18-.62a9.88,9.88,0,0,0-2.45.33A7.62,7.62,0,0,1,357.47,56.78Z"/><path class="cls-1" d="M353.63,56.74c.38-.05.78-.15,1.21-.25A5.11,5.11,0,0,0,353.63,56.74Z"/><path class="cls-1" d="M363,57.7a2,2,0,0,0-1.07-.4l.53.37Z"/><path class="cls-1" d="M362.43,57.68h0l-1.16-.07Z"/><path class="cls-1" d="M363.08,57.71H363C363,57.74,363,57.75,363.08,57.71Z"/><path class="cls-1" d="M368.84,58.33c-.8.13-2.47.28-.86.57C368.56,58.71,367.63,58.54,368.84,58.33Z"/><path class="cls-1" d="M363.75,58.16l1.44.13c0-.09-.29-.23.11-.3Z"/><polygon class="cls-1" points="363.04 58.24 363.75 58.16 363.21 58.11 363.04 58.24"/><path class="cls-1" d="M356.11,57.24a8.61,8.61,0,0,1-2.08.13c.82.12,1.68.19,2.49.23C356.63,57.48,357,57.27,356.11,57.24Z"/><path class="cls-1" d="M359.18,57.49l-.14,0C359.13,57.54,359.19,57.56,359.18,57.49Z"/><polygon class="cls-1" points="346.43 57.27 346.55 57.34 346.58 57.27 346.43 57.27"/><path class="cls-1" d="M356.66,57.67a2.82,2.82,0,0,0,1.35-.08c-.47,0-1,0-1.49,0C356.47,57.65,356.46,57.69,356.66,57.67Z"/><path class="cls-1" d="M351.51,56.83c.32.1.69.2,1.08.28C352.27,57,351.62,56.72,351.51,56.83Z"/><path class="cls-1" d="M358.83,57.4l.09,0C358.72,57.29,358.75,57.33,358.83,57.4Z"/><path class="cls-1" d="M358.83,57.4a4.31,4.31,0,0,0-.82.19,10.05,10.05,0,0,0,1-.08A1,1,0,0,1,358.83,57.4Z"/><path class="cls-1" d="M344.13,60c.11-.4,1.74-.77,3.15-.34,1.39-.3.48-1.64-.73-2.35,0,.18,0,.34-1.47.59.5.21,3.17.48,2,.85-1.89.22-1.55-.13-2.47-.34.78.5-2.41.72-2,1.45l1.66-.26C344.27,59.74,343.67,59.92,344.13,60Z"/><path class="cls-1" d="M349.27,57.35l.59-.05a9.72,9.72,0,0,1-2-.53c-1,.21-1.18.36-1.25.5l2.89,0Z"/><path class="cls-1" d="M352.5,57.37c-.46.4-1.87.56-1,1.05,1.73,0,1.21-.33,2.24-.48-2.78,0,.8-.21-1.21-.52.55-.05,1-.05,1.51-.05-.51-.07-1-.16-1.44-.26l.06,0h0c.12.06.16.09,0,.06h-.05a.38.38,0,0,1-.13.16c-.81-.13-.13-.12.13-.16,0,0,0,0,0-.06h0c-.93,0-1.86.08-2.79.16C350.45,57.37,351.19,57.36,352.5,57.37Z"/><path class="cls-1" d="M366.5,59.55c-.09,0-.09,0-.09-.07C366.23,59.52,366.16,59.54,366.5,59.55Z"/><path class="cls-1" d="M365.35,59.35a2.38,2.38,0,0,1,1-.13c.57.1,0,.15,0,.26.39-.09,1.39-.21.14-.38l-.2,0a6.65,6.65,0,0,1-2.36-.61A3.46,3.46,0,0,0,365.35,59.35Z"/><path class="cls-1" d="M358.84,58.56l-2.32.15,1.18.35-.06-.2C359,59,358.68,58.71,358.84,58.56Z"/><polygon class="cls-1" points="346.16 57.05 346.47 56.59 345.13 57.26 346.16 57.05"/><polygon class="cls-1" points="343.14 57.13 343.26 56.73 342.46 56.97 343.14 57.13"/><path class="cls-1" d="M269,57.17c-1-.37-2.11-.94-2-.5l.31.44A5.26,5.26,0,0,1,269,57.17Z"/><path class="cls-1" d="M145.84,62.49l-.8.45C146.29,62.93,145.74,62.71,145.84,62.49Z"/><path class="cls-1" d="M312.23,57.28a13.08,13.08,0,0,0-2.14-.26C311.13,57.27,312,57.65,312.23,57.28Z"/><path class="cls-1" d="M307.61,57c.16,0,.3.07.46.11a11.61,11.61,0,0,1,2-.11A4.36,4.36,0,0,0,307.61,57Z"/><path class="cls-1" d="M48,61.63l-.22-.05C47.73,61.63,47.83,61.63,48,61.63Z"/><path class="cls-1" d="M19.47,59.27l1.17-.05Z"/><path class="cls-1" d="M331,56.94c.64,0,.1,0,0,0Z"/><path class="cls-1" d="M334.11,58.65c-.13.05-.24.11-.25.21A.44.44,0,0,1,334.11,58.65Z"/><path class="cls-1" d="M301.24,59.72h-.06C301.37,59.81,301.34,59.79,301.24,59.72Z"/><path class="cls-1" d="M332,57.13a7.65,7.65,0,0,0-.81-.13A5.52,5.52,0,0,0,332,57.13Z"/><path class="cls-1" d="M331.83,56.93l.56,0C332.47,56.9,332.4,56.85,331.83,56.93Z"/><path class="cls-1" d="M330.11,57a8.78,8.78,0,0,1,1,0q-.19,0-.15-.06Z"/><path class="cls-1" d="M100.41,61l-.13,0C99.63,61.11,99.91,61.08,100.41,61Z"/><path class="cls-1" d="M252.36,61.67l.07,0h-.09Z"/><path class="cls-1" d="M250.06,62a3,3,0,0,1,2.28-.36l-.76-1.25Z"/><path class="cls-1" d="M341.72,57.48c-.81-.6-.41.07-1.68-.64,1.1.88-4.56,0-2.8.89-1.3-.82-2.25-.35-3.95-1,0,.2.6.39-.9.29a1.44,1.44,0,0,1-.33.18l-.1,0,.09,0c-.07,0-.07,0,0,0a2.08,2.08,0,0,1,.76.31c-.74.47-3.13.45-3.93.69-.89-.09.37-.23-.11-.45l-1.21.36c-.12-.45-2.36-.74-.27-1l-1.88,0a10,10,0,0,0-3.58-.16c-.89-.1-2.24.5-1.47.15l-3,.28,0-.12c-2.92,0-6,.75-9.34-.06a16.65,16.65,0,0,1-3.64.12l-.32-.39c-1.26.14-3.79-.39-4.33,0-1.36-1.05-6.12-.23-8.34-.42l-.08.51a38.62,38.62,0,0,0-4.88.32l.11.45c-1.63.37-4.2-.32-6.78-.27.18-.18.83-.13,1.29,0-3.08-1-6.51.74-9.31,0a3.42,3.42,0,0,1-1.69,0,.43.43,0,0,0,.17,0H270c-.31-.08-.63-.17-1-.24a4.49,4.49,0,0,0,.81.24,17.67,17.67,0,0,0-2.15.18l-.34-.48h-.19c-.78-.18-.63.23-.21.59a5.94,5.94,0,0,0-1.06.29c-.63-.78-2.09.26-3-.57-.5.38-3.52.32-4.3,1a6.7,6.7,0,0,0-2.57.05l-.37-.61-2,.82c-1.18-.37-1.67-.59-.5-1.06-2.84.73-2.3.28-4.71,1l.12-.39a3.57,3.57,0,0,0-.62.07c0,.38.06.76.08,1.14s0,1,0,1.44c.47-.11.8-.25.88-.42a3.63,3.63,0,0,1-.54,1.19l5.07-2.86c-.45.73,1.27,2.47-1.09,2.88a7.74,7.74,0,0,0,2.94,0c-.46-.1-1.15-1-.52-1.12a17.54,17.54,0,0,0,3.34,1.13c-.69-.16.08-1.31,1.17-1.27-.17.17.09,1.13-.31,1.25l2.72-1.12c-.68.2-.12.95.49,1.27-.28-.22,2.36,0,3.08-.09l-1.15-.26c3.07.17,3-1.59,6.08-1.53-.37.24-.91,1.43.64,1.57.71-.57,3.15-2.77,5.85-3.21l.52.33,2.06-.38a42.41,42.41,0,0,1-6.88,3.4c1.15.27.32.39,2.05.36.6.31-.94.47-1.45.49l4,.2c-.18-.67,3.07-.68,2.92-1.24l-4.36.7c-.18-.67,2.52-1.91,5.36-1.79.72.27-.54,1.2-.48,1.42a7.86,7.86,0,0,1,3-.28l-1.21.36c1.58.26,2.58-.89,4.48-.25.66,0,2,.87,2.08.47-1.07-.76-1.28-3.14-.57-3.71a33,33,0,0,1,4.19,1.11c1.09.6-1.62,1.43-.7,2,0-.19.64-.41.89-.48.69.15-.29.56,1.21.48.25-.68,3.05.06.71-.57,1.46-.2,1.55.14,3.27.11-.54-.44,1.55-1.5,3-1.7-.09.18.24.4.4.5,3,.07,4.61.38,7.41.38.26.17,1.61.37,1,.66a4.54,4.54,0,0,1,1.63-.37c1.67.59-1.92.09-.65.8.11-.39,2.23-.55,3.46-.79-.38-.61-2.84-.12-4.07.13,0-.85,2.14-1.73,5.06-2.12,2.33-.21,1,.54,1.42.42,4.36.15,3.72-1.47,7.35-.86,1.43.54.06,1.07.38,1.46-1.9.2-2.91-.34-4.19-.32l1.58.25a6.42,6.42,0,0,1-2.56.16c1.21.48,7.38.09,10.75.54.6-.18,1.63-.37,1.14-.58l-1.06.07c-1-.43,2-.6.66-.8a14.1,14.1,0,0,1,5-.54l.38.61a2.83,2.83,0,0,0-1.88-.17c.84-.28,3.09.83,4,0l-1.41-.42A15.6,15.6,0,0,1,341.72,57.48Z"/><path class="cls-1" d="M258.47,58.59c0-.11-.25-.16.14-.17A.55.55,0,0,0,258.47,58.59Z"/><path class="cls-1" d="M158.17,59.42c0-.52,0-1,0-1.57h0l0-.07s0-.06,0-.08a7.73,7.73,0,0,0-4.05.63c-.56-.1-.15-.25-.1-.33a14.22,14.22,0,0,0-6.82.52l-.31-.49c-.8.28-5.09-.78-8.54-.2,0-.06.1-.16.38-.23-3.89.59-9.3-1.37-10.72.43l-2.57.45c3.32.14-.49.78.87,1.08-1.3.11-3.37-.54-1.76-.64l.25.09c.59-.94-4.12-.33-4-1-6.53.05-12.89-.47-19-.51l.7.73-2.13,0c-.56-.17-.75-.58.77-.55a3.32,3.32,0,0,0-2.59.51c-3-.3,1.16-.85.25-.87l-1.24,0,.28.09a5.93,5.93,0,0,1-2.93.58c-1.15-.15-.59-.45-1-.48,0,0-.15-.08-.7,0l-2.69-.06,1.08.57c-1.19.29-2.53,0-1.29.63-1.82-1-10-.36-11.14-.68a19.41,19.41,0,0,1-5.35.37c.51.12.81.76-1,.69.65-1.34-3.22-.59-4.64-1.55,1.27.66-5,.12-3,1-1.47-.12-.09-.51-1.21-.84-3.49.45-7.69-.18-12,.15-.07.15.66.37-.27.62-.76-.24-1.52-.46-2.28-.67-.85.11-.78.85-2.34.42.22.1.55.27,0,.33-4.23-.21-8.55.1-12.89.27s-8.69.25-13,.27c1.16,0,.39.08-.5.12.57,0,0,.1.1.15q-1.8,0-3.6,0c-.65.12-3.85.18-4.23.23l1.14,0c-1.51.07,2.12.1,1.9.25a30.28,30.28,0,0,1,3.22.13,25.44,25.44,0,0,0,4,.09c.61.08-.52.07-.2.15a16,16,0,0,1,3.14,0l-.18,0c4.43.12,6.33.34,11.32.73l-.37-.29a10.16,10.16,0,0,1,1.79.26c1.23-.39-3-.13-1.88-.56,1.42.63,7.54.2,8.5,1,1.65.08-.48-.42,1.17-.36l.43.25.42-.29c1.08.09,1.62.41,1.66.61-.26,0-.74,0-1,0a32.15,32.15,0,0,0,4.42.2l-1.58-.23c4.5-.1,10,.63,14.32-.12l-.33-.22c3.32-.45,2.66.22,6.3,0l-.13.05A9.09,9.09,0,0,1,73.67,61c-.92.26,1.73.51.53.8,3.59-.44,1.77-.35,4.15-1.18l.55.37a5.39,5.39,0,0,1,2.69-.61c-1.49.32,1.16.57-.51,1,3.81.81,5.66-.82,7.41.37,1.76-1-3.3-.57-2.32-.79-.82-.34,1.45-.77,2.65-.67s2.07,1.31,5.13,1.3c-.3,0-.32.07-.63.06,1.15.27,2.25-.35,3.66.07.79-.62,1.83,0,2-.75l-2.81.18c1.6-.21,3.09-1.13,5.72-.68a5.76,5.76,0,0,1-1.53.48c.77.24,1.48-.15,2.28.09-.23.79-3.42.17-5.13.78.83.33,3.23-.58,2.38.28,1.23-1.09,3,.14,5.09-.7l-.14.48a6.48,6.48,0,0,1,1.62-.29l-1.1.62c1.68-.53,3.24.46,4.85.17-3.37,0-.75-.57-2.18-.92,4.07-.62,2.48,1.16,6.78,1-.74,0-2-.32-1.11-.51a11,11,0,0,1,2.61.53c3.08-.1-.48-.49.84-.78,1,.58,1.51-.23,2.87-.42v.48c3.51.31.93-1,4.1-.63l-1.34.67,1.65-.17-.34.55a10,10,0,0,1,4.11-.15c-.41-.34.23-.88,1.79-.89,1.07.28-.59.46,1.62.39a1.83,1.83,0,0,1-2,.23c-.1.16-.49.31-.59.46a13.46,13.46,0,0,0,3.67.07,3.84,3.84,0,0,1-.86-.11l3.2-.67c.5.18.1.33-.29.47.65-.05,1.1-.27,2.05-.31-.25.39-.19.79-1.54,1l3-.44c.21.17,1.57.47,1.17.61,1.69.23,4.15-.76,6.39-.45a2.15,2.15,0,0,1,.83-.21c2.11.09,4,.57,6.48,0l1.41.71c2-.16-1.92-.89,1.34-1.15,2.31-.23.86.6,1.67.79l.76-.23C158.3,61.38,158.22,60.41,158.17,59.42ZM93.58,57.73l.42.12C93.05,58,93.31,57.87,93.58,57.73Z"/><path class="cls-1" d="M324,57.33l-.05,0C322.89,57.16,323.26,57.24,324,57.33Z"/><path class="cls-1" d="M146,62.41h-.08a.23.23,0,0,0-.07.08Z"/><path class="cls-1" d="M292.6,61.63a2.72,2.72,0,0,1-.86-.25C291.72,61.5,291.92,61.6,292.6,61.63Z"/><path class="cls-1" d="M337.63,56.72l-1.39.12a3.65,3.65,0,0,1,1.25.16C337.46,56.89,337.19,56.73,337.63,56.72Z"/><path class="cls-1" d="M349.67,59.7c.2-.06.43,0,.63-.06l-.06-.23C349.38,59.42,348.77,59.61,349.67,59.7Z"/><path class="cls-1" d="M338.91,58.32c.11.41,1,.27,1.95.19a1,1,0,0,1-.17,0C341,58,339.94,58.13,338.91,58.32Z"/><path class="cls-1" d="M341.09,58.5a6.76,6.76,0,0,1,.9,0C342.1,58.26,341.62,58.44,341.09,58.5Z"/><path class="cls-1" d="M328.9,57.27c.46.1.29-.52.55-.36C330,56.4,326.37,57.54,328.9,57.27Z"/><polygon class="cls-1" points="339.7 59.66 339.35 59.16 338.8 59.56 339.7 59.66"/><path class="cls-1" d="M332,59.29l1.56.14c0-.09.17-.13.41-.17C333,59.24,332,59.14,332,59.29Z"/><path class="cls-1" d="M334,59.26a4.45,4.45,0,0,0,1.25-.09C335,59.18,334.39,59.2,334,59.26Z"/><polygon class="cls-1" points="337.57 59.81 337.12 59.7 336.02 59.67 337.57 59.81"/><path class="cls-1" d="M315.33,59.19l-1.69.15c-.17.17.29.27.92.21C315,59.43,315.59,59.36,315.33,59.19Z"/><path class="cls-1" d="M320.46,60.57a1.64,1.64,0,0,1-.75-.39l0,.63Z"/><path class="cls-1" d="M315.52,60.71c-.17.17-2.46.49-.32.46C315.38,61,317.07,60.85,315.52,60.71Z"/><polygon class="cls-1" points="289.98 59.92 290.41 59.92 290.35 58.9 289.98 59.92"/><path class="cls-1" d="M267.48,62.36c2,.25.47-.63,2.29-.32.47-.24-1.48-.25-1-.46C267.56,61.83,266.92,61.69,267.48,62.36Z"/><path class="cls-1" d="M268.77,61.58l.62-.15A3.16,3.16,0,0,0,268.77,61.58Z"/><polygon class="cls-1" points="14.74 59.44 13.44 59.51 14.28 59.48 14.74 59.44"/><path class="cls-1" d="M12.26,59.61H12l-.77,0Z"/><path class="cls-1" d="M156.5,63.42c.6,0,1.3-.11,1.91-.08C157.1,63.44,156.34,62.69,156.5,63.42Z"/></svg>